<?xml version="1.0" encoding="UTF-8"?>
<svg id="Capa_2" data-name="Capa 2" xmlns="http://www.w3.org/2000/svg" viewBox="0 0 832.72 109.94">
  <defs>
    <style>
      .cls-1 {
        fill: #fff;
      }
    </style>
  </defs>
  <g id="Capa_1-2" data-name="Capa 1">
    <g>
      <path class="cls-1" d="m78.58,37.56c1.17.24,1.86.78,2.06,1.62.21.85.1,1.68-.31,2.5-.41.82-1.02,1.48-1.84,1.97-.82.5-1.64.54-2.46.13-.29-.12-.83-.28-1.62-.48-.79-.2-1.77-.39-2.94-.57-2.52,4.74-4.75,9.36-6.72,13.87-1.96,4.51-3.61,8.62-4.96,12.33-1.35,3.72-2.37,6.88-3.07,9.48-.7,2.6-1.02,4.34-.97,5.22.06.82-.41,1.48-1.4,1.98-1,.5-2.04.72-3.12.66-1.08-.06-2.02-.45-2.81-1.19-.79-.73-.98-1.89-.57-3.47,1.7-6.55,3.96-13.24,6.8-20.06,2.84-6.82,5.89-13.42,9.17-19.79-2.63-.29-5.53-.51-8.69-.66-3.16-.14-6.47-.19-9.92-.13-2.52,4.33-5.22,8.73-8.12,13.21-2.9,4.48-5.94,8.91-9.13,13.3-3.19,4.39-6.47,8.65-9.83,12.77-3.37,4.13-6.8,7.97-10.31,11.54-.88.88-1.87,1.13-2.98.75-1.11-.38-2.09-1.01-2.94-1.89-.85-.88-1.43-1.81-1.76-2.81-.32-1-.1-1.67.66-2.02.94-.47,2.65-1.93,5.14-4.39,2.49-2.46,5.4-5.66,8.73-9.61,3.34-3.95,6.9-8.53,10.71-13.74,3.8-5.21,7.49-10.77,11.06-16.68-4.33.29-8.62.83-12.86,1.62-4.24.79-8.21,1.86-11.89,3.2-1.11.41-2.06.37-2.85-.13-.79-.5-1.36-1.17-1.71-2.02-.35-.85-.43-1.7-.22-2.55.2-.85.75-1.42,1.62-1.71,1.35-.47,3.1-.94,5.27-1.41,2.16-.47,4.61-.91,7.33-1.32,2.72-.41,5.69-.77,8.91-1.1,3.22-.32,6.55-.57,10.01-.75,2.75-4.97,5.24-9.99,7.46-15.05,2.22-5.06,4.01-10.17,5.35-15.32.35-1.17,1.05-1.89,2.11-2.15,1.05-.26,2.12-.22,3.2.13,1.08.35,2.02.91,2.81,1.67.79.76,1.07,1.55.83,2.37-.94,2.98-2.53,6.92-4.78,11.81-2.25,4.89-5.05,10.31-8.38,16.28,3.1-.06,6.19-.03,9.26.09,3.07.12,6.13.32,9.17.61,2.22-4.09,4.46-7.99,6.72-11.67,2.25-3.69,4.42-7.04,6.5-10.05,2.08-3.01,4.01-5.65,5.79-7.9,1.78-2.25,3.35-4.02,4.7-5.31.82-.76,1.77-.97,2.85-.62,1.08.35,2,1,2.77,1.93.76.94,1.21,2.02,1.36,3.25.14,1.23-.31,2.31-1.36,3.25-4.21,3.8-8.12,8.13-11.72,12.99-3.6,4.86-6.92,9.92-9.96,15.19.64.12,1.29.23,1.93.35.64.12,1.29.26,1.93.44Z"/>
      <path class="cls-1" d="m96.92,57.84c-1.64,1.58-3.51,3.53-5.62,5.84-2.11,2.31-4.29,4.51-6.54,6.58-2.25,2.08-4.54,3.73-6.85,4.96-2.31,1.23-4.52,1.52-6.63.88-1.4-.41-2.33-1.23-2.77-2.46s-.5-2.68-.18-4.34c.32-1.67,1-3.47,2.02-5.4,1.03-1.93,2.27-3.85,3.73-5.75,1.46-1.9,3.12-3.67,4.96-5.31,1.84-1.64,3.76-3.01,5.75-4.13,2.34-1.35,4.52-1.76,6.54-1.23,2.02.53,3.73,1.82,5.13,3.86.41-.41.91-.94,1.49-1.58.58-.64,1.18-1.32,1.8-2.02.61-.7,1.23-1.37,1.84-2.02.61-.64,1.15-1.14,1.62-1.49.76-.64,1.58-.95,2.46-.92.88.03,1.62.26,2.24.7.61.44,1.02,1.07,1.23,1.89.21.82.04,1.7-.48,2.63-3.22,5.91-5.34,10.39-6.36,13.43-1.03,3.04-1.1,4.8-.22,5.27.88.47,2.69-.29,5.44-2.28,2.75-1.99,6.29-5.03,10.62-9.13.53-.47,1.02-.69,1.49-.66.47.03.83.22,1.1.57.26.35.37.82.31,1.4-.06.59-.38,1.23-.97,1.93-5.5,6.44-10.07,10.72-13.69,12.86-3.63,2.14-6.7,2.56-9.22,1.27-1.58-.82-2.49-2.4-2.72-4.74-.24-2.34.58-5.88,2.46-10.62Zm-16.41,8.51c1-.7,2.12-1.61,3.38-2.72,1.26-1.11,2.49-2.25,3.69-3.42,1.2-1.17,2.27-2.28,3.2-3.34.94-1.05,1.55-1.84,1.84-2.37.23-.41.12-.76-.35-1.05-.47-.29-1.22-.32-2.24-.09-1.02.24-2.31.85-3.86,1.84-1.55,1-3.29,2.58-5.22,4.74-.41.47-.92,1.1-1.54,1.89-.61.79-1.17,1.58-1.67,2.37s-.91,1.54-1.23,2.24c-.32.7-.44,1.22-.35,1.54s.47.38,1.14.18,1.74-.8,3.2-1.8Z"/>
      <path class="cls-1" d="m124.13,69.16c1.05-.29,2.33-.53,3.82-.7,1.49-.18,3.03-.23,4.61-.18,1.58.06,3.12.23,4.61.53,1.49.29,2.77.79,3.82,1.49.64.41.94,1.07.88,1.98-.06.91-.34,1.77-.83,2.59-.5.82-1.08,1.43-1.76,1.84-.67.41-1.3.29-1.89-.35-.82-.82-2.09-1.4-3.82-1.76-1.73-.35-3.66-.45-5.79-.31-2.14.15-4.4.57-6.8,1.27-2.4.7-4.68,1.67-6.85,2.9-.82.47-1.64.54-2.46.22-.82-.32-1.49-.82-2.02-1.49-.53-.67-.85-1.4-.97-2.19-.12-.79.15-1.45.79-1.97,1.11-.94,2.68-2.16,4.7-3.69,2.02-1.52,4.2-3.16,6.54-4.92s4.74-3.58,7.2-5.49c2.46-1.9,4.7-3.73,6.72-5.49s3.7-3.39,5.05-4.92c1.35-1.52,2.08-2.78,2.19-3.77.06-.64-.31-.97-1.1-.97s-1.83.25-3.12.75c-1.29.5-2.72,1.2-4.3,2.11-1.58.91-3.13,1.97-4.65,3.2-1.52,1.23-2.91,2.58-4.17,4.04-1.26,1.46-2.18,2.96-2.77,4.48-.35.82-1.01,1.26-1.97,1.32-.97.06-1.89-.13-2.77-.57s-1.55-1.05-2.02-1.84c-.47-.79-.38-1.68.26-2.68,1.35-1.99,3.06-3.94,5.13-5.84,2.08-1.9,4.29-3.61,6.63-5.14,2.34-1.52,4.72-2.78,7.15-3.77,2.43-1,4.7-1.62,6.8-1.89,2.11-.26,3.94-.07,5.49.57,1.55.64,2.62,1.87,3.2,3.69.41,1.23.16,2.66-.75,4.3-.91,1.64-2.18,3.35-3.82,5.14-1.64,1.79-3.51,3.58-5.62,5.4s-4.17,3.53-6.19,5.13c-2.02,1.61-3.86,3.03-5.53,4.26-1.67,1.23-2.88,2.14-3.64,2.72Z"/>
      <path class="cls-1" d="m201.38,60.12c-1.29,1.23-2.83,2.77-4.61,4.61-1.79,1.84-3.66,3.56-5.62,5.13-1.96,1.58-3.92,2.84-5.88,3.77-1.96.94-3.73,1.08-5.31.44-1.4-.53-2.31-1.51-2.72-2.94-.41-1.43-.39-3.12.04-5.05.44-1.93,1.23-3.99,2.37-6.19,1.14-2.19,2.53-4.36,4.17-6.5,1.64-2.14,3.47-4.15,5.49-6.06,2.02-1.9,4.14-3.47,6.36-4.7,1.17-.64,2.37-.98,3.6-1.01,1.23-.03,2.38.15,3.47.53s2.08.94,2.98,1.67c.91.73,1.62,1.51,2.15,2.33,1.46-1.35,2.87-2.6,4.21-3.77,1.35-1.17,2.49-2.11,3.42-2.81.7-.58,1.48-.75,2.33-.48.85.26,1.58.73,2.19,1.41.62.67,1.01,1.43,1.19,2.28.18.85-.03,1.57-.62,2.15-3.16,3.28-6.06,6.98-8.69,11.11-2.63,4.12-5,8.35-7.11,12.68-2.11,4.33-3.95,8.62-5.53,12.86-1.58,4.24-2.87,8.12-3.86,11.63-1,3.51-1.71,6.52-2.15,9.04-.44,2.51-.6,4.21-.48,5.09.06.47-.15.89-.62,1.27-.47.38-1.08.67-1.84.88-.76.2-1.58.31-2.46.31s-1.67-.13-2.37-.39c-.7-.26-1.26-.67-1.67-1.23-.41-.56-.5-1.3-.26-2.24.47-2.05,1.1-4.33,1.89-6.85.79-2.52,1.67-5.13,2.63-7.86.97-2.72,1.99-5.5,3.07-8.34,1.08-2.84,2.21-5.62,3.38-8.34,1.17-2.72,2.34-5.31,3.51-7.77,1.17-2.46,2.28-4.68,3.34-6.67Zm-12.11,4.12c1.11-.88,2.46-2,4.04-3.38,1.58-1.37,3.12-2.78,4.61-4.21,1.49-1.43,2.81-2.75,3.95-3.95,1.14-1.2,1.86-2.06,2.15-2.59.18-.29.19-.64.04-1.05-.15-.41-.42-.76-.83-1.05-.41-.29-.92-.5-1.54-.62-.62-.12-1.36,0-2.24.35-1.35.53-2.75,1.48-4.21,2.85-1.46,1.38-2.84,2.87-4.12,4.48-1.29,1.61-2.4,3.23-3.34,4.87-.94,1.64-1.55,2.97-1.84,3.99-.29,1.03-.21,1.64.26,1.84.47.21,1.49-.31,3.07-1.54Z"/>
      <path class="cls-1" d="m225.16,46.16c.59-.82,1.36-1.15,2.33-1.01.97.15,1.86.51,2.68,1.1.82.59,1.43,1.29,1.84,2.11.41.82.32,1.49-.26,2.02-.29.24-.81.95-1.54,2.15-.73,1.2-1.55,2.62-2.46,4.26-.91,1.64-1.8,3.35-2.68,5.13-.88,1.79-1.58,3.39-2.11,4.83s-.8,2.55-.83,3.33c-.03.79.36.98,1.18.57.99-.47,2.18-1.35,3.56-2.63,1.37-1.29,2.81-2.77,4.3-4.43,1.49-1.67,3-3.47,4.52-5.4,1.52-1.93,2.94-3.77,4.26-5.53,1.32-1.76,2.47-3.36,3.47-4.83.99-1.46,1.73-2.57,2.19-3.34.58-.99,1.37-1.48,2.37-1.45,1,.03,1.93.34,2.81.92.88.59,1.55,1.29,2.02,2.11.47.82.5,1.52.09,2.11-.18.24-.53.88-1.05,1.93-.53,1.05-1.1,2.3-1.71,3.73-.62,1.43-1.23,2.97-1.84,4.61-.62,1.64-1.08,3.15-1.41,4.52-.32,1.38-.47,2.53-.44,3.47.03.94.4,1.41,1.1,1.41.59,0,1.48-.38,2.68-1.14,1.2-.76,2.52-1.76,3.95-2.98,1.43-1.23,2.94-2.57,4.52-4.04,1.58-1.46,3.07-2.87,4.48-4.21.41-.41.86-.58,1.36-.53.5.06.92.26,1.27.61s.54.82.57,1.4c.03.59-.16,1.2-.57,1.84-.88.94-1.9,2-3.07,3.2-1.17,1.2-2.45,2.44-3.82,3.73-1.38,1.29-2.77,2.52-4.17,3.69-1.4,1.17-2.8,2.19-4.17,3.07-1.38.88-2.65,1.52-3.82,1.93-1.17.41-2.19.47-3.07.18-2.28-.76-3.72-2.21-4.3-4.34-.59-2.14-.47-4.96.35-8.47-2.34,2.75-4.68,5.46-7.02,8.12-2.34,2.66-5,4.81-7.99,6.45-1.46.82-2.85,1.23-4.17,1.23s-2.49-.26-3.51-.79c-1.02-.53-1.84-1.29-2.46-2.28-.61-.99-.95-2.14-1.01-3.42-.06-.88.13-2,.57-3.38.44-1.37,1.01-2.87,1.71-4.48.7-1.61,1.49-3.28,2.37-5,.88-1.73,1.76-3.38,2.63-4.96s1.7-2.98,2.46-4.21c.76-1.23,1.37-2.19,1.84-2.9Z"/>
      <path class="cls-1" d="m267.3,69.42c.64.47,1.61.57,2.9.31,1.29-.26,2.75-.76,4.39-1.49,1.64-.73,3.36-1.62,5.18-2.68,1.81-1.05,3.58-2.16,5.31-3.33,1.73-1.17,3.32-2.36,4.78-3.56,1.46-1.2,2.69-2.27,3.69-3.2.35-.29.76-.35,1.23-.18.47.18.83.5,1.1.97.26.47.35,1,.26,1.58-.09.59-.54,1.11-1.36,1.58-1.29,1.17-2.8,2.5-4.52,3.99-1.73,1.49-3.57,2.96-5.53,4.39-1.96,1.43-3.99,2.78-6.1,4.04-2.11,1.26-4.17,2.3-6.19,3.12-2.02.82-3.96,1.35-5.84,1.58s-3.57,0-5.09-.7c-1.7-.76-2.87-1.86-3.51-3.29-.64-1.43-.86-3.06-.66-4.87.21-1.81.76-3.74,1.67-5.79.91-2.05,2.02-4.07,3.34-6.06,1.32-1.99,2.81-3.85,4.48-5.57,1.67-1.73,3.35-3.2,5.05-4.43,2.28-1.58,4.4-2.5,6.36-2.77,1.96-.26,3.52.01,4.7.83,1.17.82,1.81,2.09,1.93,3.82.12,1.73-.5,3.76-1.84,6.1-.88,1.4-1.95,2.77-3.2,4.08-1.26,1.32-2.6,2.46-4.04,3.42-1.43.97-2.9,1.7-4.39,2.19-1.49.5-2.88.63-4.17.4-.18.29-.35.69-.53,1.18-.18.5-.28,1.02-.31,1.58-.03.56.01,1.1.13,1.62.12.53.38.91.79,1.14Zm1.58-8.95c1.23-.12,2.75-.85,4.56-2.2,1.81-1.35,3.39-3.33,4.74-5.97.47-.88.67-1.46.62-1.76-.06-.29-.28-.37-.66-.22-.38.15-.91.48-1.58,1.01-.67.53-1.36,1.17-2.06,1.93-1.23,1.29-2.4,2.65-3.51,4.08-1.11,1.43-1.81,2.47-2.11,3.12Z"/>
      <path class="cls-1" d="m351.65,11.49c.76-.7,1.67-.88,2.72-.53,1.05.35,1.96.97,2.72,1.84.76.88,1.23,1.86,1.4,2.94.18,1.08-.24,2.03-1.23,2.85-1.35,1.11-2.66,2.3-3.95,3.56-1.29,1.26-2.55,2.56-3.77,3.91,1.17-.06,2.55-.09,4.13-.09s3.17.03,4.78.09c1.61.06,3.15.15,4.61.26,1.46.12,2.69.26,3.69.44.76.24,1.21.75,1.36,1.54.14.79.04,1.58-.31,2.37-.35.79-.91,1.43-1.67,1.93-.76.5-1.64.6-2.63.31-.88-.23-2.08-.45-3.6-.66-1.52-.2-3.15-.38-4.87-.53-1.73-.14-3.48-.25-5.27-.31-1.79-.06-3.38-.06-4.78,0-2.63,3.39-5.05,6.92-7.24,10.58-2.19,3.66-4.17,7.27-5.92,10.84-1.76,3.57-3.28,7.01-4.57,10.31-1.29,3.31-2.39,6.34-3.29,9.09-.91,2.75-1.59,5.15-2.06,7.2-.47,2.05-.76,3.57-.88,4.56-.12.94-.7,1.64-1.76,2.11-1.05.47-2.15.64-3.29.53-1.14-.12-2.14-.53-2.98-1.23-.85-.7-1.1-1.76-.75-3.16,1.11-4.33,2.56-8.73,4.35-13.21,1.79-4.48,3.73-8.9,5.84-13.26,2.11-4.36,4.33-8.59,6.67-12.68,2.34-4.09,4.65-7.93,6.93-11.5-2.17.18-4.4.47-6.72.88-2.31.41-4.43.94-6.36,1.58-.82.41-1.58.41-2.28,0-.7-.41-1.21-.98-1.54-1.71-.32-.73-.38-1.49-.18-2.28.21-.79.86-1.33,1.97-1.62,2.98-.82,6.06-1.37,9.22-1.67,3.16-.29,6.38-.53,9.66-.7,2.34-3.39,4.54-6.33,6.58-8.82,2.05-2.49,3.8-4.4,5.27-5.75Z"/>
      <path class="cls-1" d="m346.56,46.16c.59-.82,1.36-1.15,2.33-1.01.97.15,1.86.51,2.68,1.1.82.59,1.43,1.29,1.84,2.11.41.82.32,1.49-.26,2.02-.29.24-.81.95-1.54,2.15-.73,1.2-1.55,2.62-2.46,4.26-.91,1.64-1.8,3.35-2.68,5.13-.88,1.79-1.58,3.39-2.11,4.83s-.8,2.55-.83,3.33c-.03.79.36.98,1.18.57.99-.47,2.18-1.35,3.56-2.63,1.37-1.29,2.81-2.77,4.3-4.43,1.49-1.67,3-3.47,4.52-5.4,1.52-1.93,2.94-3.77,4.26-5.53,1.32-1.76,2.47-3.36,3.47-4.83.99-1.46,1.73-2.57,2.19-3.34.58-.99,1.37-1.48,2.37-1.45,1,.03,1.93.34,2.81.92.88.59,1.55,1.29,2.02,2.11.47.82.5,1.52.09,2.11-.18.24-.53.88-1.05,1.93-.53,1.05-1.1,2.3-1.71,3.73-.62,1.43-1.23,2.97-1.84,4.61-.62,1.64-1.08,3.15-1.41,4.52-.32,1.38-.47,2.53-.44,3.47.03.94.4,1.41,1.1,1.41.59,0,1.48-.38,2.68-1.14,1.2-.76,2.52-1.76,3.95-2.98,1.43-1.23,2.94-2.57,4.52-4.04,1.58-1.46,3.07-2.87,4.48-4.21.41-.41.86-.58,1.36-.53.5.06.92.26,1.27.61s.54.82.57,1.4c.03.59-.16,1.2-.57,1.84-.88.94-1.9,2-3.07,3.2-1.17,1.2-2.45,2.44-3.82,3.73-1.38,1.29-2.77,2.52-4.17,3.69-1.4,1.17-2.8,2.19-4.17,3.07-1.38.88-2.65,1.52-3.82,1.93-1.17.41-2.19.47-3.07.18-2.28-.76-3.72-2.21-4.3-4.34-.59-2.14-.47-4.96.35-8.47-2.34,2.75-4.68,5.46-7.02,8.12-2.34,2.66-5,4.81-7.99,6.45-1.46.82-2.85,1.23-4.17,1.23s-2.49-.26-3.51-.79c-1.02-.53-1.84-1.29-2.46-2.28-.61-.99-.95-2.14-1.01-3.42-.06-.88.13-2,.57-3.38.44-1.37,1.01-2.87,1.71-4.48.7-1.61,1.49-3.28,2.37-5,.88-1.73,1.76-3.38,2.63-4.96s1.7-2.98,2.46-4.21c.76-1.23,1.37-2.19,1.84-2.9Z"/>
      <path class="cls-1" d="m417.31,47.04c.41-.88,1.14-1.37,2.19-1.49,1.05-.12,2.06.03,3.03.44.97.41,1.73,1.01,2.28,1.8.56.79.54,1.65-.04,2.59-.35.59-.8,1.51-1.36,2.77-.56,1.26-1.14,2.63-1.76,4.13-.61,1.49-1.18,3.03-1.71,4.61s-.97,3.03-1.32,4.34c-.35,1.32-.56,2.39-.62,3.2-.06.82.12,1.23.53,1.23.59-.06,1.46-.69,2.63-1.89,1.17-1.2,2.38-2.62,3.64-4.26,1.26-1.64,2.41-3.31,3.47-5,1.05-1.7,1.76-3.04,2.11-4.04.29-3.04.76-5.59,1.4-7.64.64-2.05,1.39-3.67,2.24-4.87.85-1.2,1.73-2,2.63-2.41.91-.41,1.8-.53,2.68-.35,1.58.35,2.5,1.2,2.77,2.55.26,1.35.2,2.82-.18,4.43-.38,1.61-.98,3.22-1.8,4.83-.82,1.61-1.52,2.88-2.11,3.82-.12,2.05.04,3.51.48,4.39s1.04,1.35,1.8,1.4c.76.06,1.64-.18,2.63-.7.99-.53,1.99-1.2,2.98-2.02.99-.82,1.94-1.65,2.85-2.5.91-.85,1.68-1.57,2.33-2.15.41-.41.86-.56,1.36-.44.5.12.92.38,1.27.79.35.41.53.92.53,1.54s-.26,1.21-.79,1.8c-1.58,1.7-3.35,3.35-5.31,4.96-1.96,1.61-3.91,2.84-5.84,3.69-1.93.85-3.72,1.11-5.36.79-1.64-.32-2.93-1.59-3.86-3.82-.35.47-.92,1.2-1.71,2.19-.79,1-1.7,2.06-2.72,3.2-1.03,1.14-2.14,2.25-3.34,3.34-1.2,1.08-2.36,1.97-3.47,2.68-1.4.88-2.8,1.35-4.17,1.4-1.38.06-2.62-.18-3.73-.7-1.11-.53-2-1.29-2.68-2.28-.67-1-1.04-2.14-1.1-3.42-.06-1.29.18-2.98.7-5.09.53-2.11,1.17-4.27,1.93-6.5.76-2.22,1.55-4.36,2.37-6.41.82-2.05,1.52-3.69,2.11-4.92Z"/>
      <path class="cls-1" d="m472.96,56.08c.41-.23.82-.26,1.23-.09.41.18.76.44,1.05.79s.45.76.48,1.23c.03.47-.13.88-.48,1.23-.64.59-1.52,1.51-2.63,2.77-1.11,1.26-2.4,2.6-3.86,4.04-1.46,1.43-3.04,2.88-4.74,4.35-1.7,1.46-3.45,2.71-5.27,3.73-1.81,1.02-3.61,1.76-5.4,2.19-1.79.44-3.5.34-5.14-.31-1.7-.64-2.78-1.86-3.25-3.64-.47-1.78-.47-3.83,0-6.15.47-2.31,1.35-4.72,2.63-7.24,1.29-2.52,2.81-4.89,4.57-7.11.58-.76,1.37-1.1,2.37-1.01.99.09,1.89.39,2.68.92.79.53,1.36,1.22,1.71,2.06.35.85.21,1.68-.44,2.5-1.52,1.99-2.74,3.82-3.64,5.49-.91,1.67-1.54,3.1-1.89,4.3-.35,1.2-.48,2.17-.39,2.9.09.73.39,1.13.92,1.18.76.12,1.89-.2,3.38-.97,1.49-.76,3.15-1.81,4.96-3.16,1.81-1.35,3.7-2.88,5.66-4.61,1.96-1.73,3.79-3.52,5.49-5.4Zm-4.57-16.06c-.41.53-1.01,1.27-1.8,2.24-.79.97-1.65,1.89-2.59,2.77-.94.88-1.86,1.58-2.77,2.11-.91.53-1.65.61-2.24.26-.65-.41-.92-1.15-.83-2.24.09-1.08.35-2.25.79-3.51.44-1.26.97-2.47,1.58-3.64.61-1.17,1.13-2.05,1.54-2.63.58-.76,1.36-1.11,2.33-1.05.97.06,1.86.37,2.68.92.82.56,1.42,1.27,1.8,2.15.38.88.22,1.76-.48,2.63Z"/>
      <path class="cls-1" d="m493.41,57.84c-1.64,1.58-3.51,3.53-5.62,5.84-2.11,2.31-4.29,4.51-6.54,6.58-2.25,2.08-4.54,3.73-6.85,4.96-2.31,1.23-4.52,1.52-6.63.88-1.4-.41-2.33-1.23-2.77-2.46s-.5-2.68-.18-4.34c.32-1.67,1-3.47,2.02-5.4,1.03-1.93,2.27-3.85,3.73-5.75,1.46-1.9,3.12-3.67,4.96-5.31,1.84-1.64,3.76-3.01,5.75-4.13,2.34-1.35,4.52-1.76,6.54-1.23,2.02.53,3.73,1.82,5.13,3.86.41-.41.91-.94,1.49-1.58.58-.64,1.18-1.32,1.8-2.02.61-.7,1.23-1.37,1.84-2.02.61-.64,1.15-1.14,1.62-1.49.76-.64,1.58-.95,2.46-.92.88.03,1.62.26,2.24.7.61.44,1.02,1.07,1.23,1.89.21.82.04,1.7-.48,2.63-3.22,5.91-5.34,10.39-6.36,13.43-1.03,3.04-1.1,4.8-.22,5.27.88.47,2.69-.29,5.44-2.28,2.75-1.99,6.29-5.03,10.62-9.13.53-.47,1.02-.69,1.49-.66.47.03.83.22,1.1.57.26.35.37.82.31,1.4-.06.59-.38,1.23-.97,1.93-5.5,6.44-10.07,10.72-13.69,12.86-3.63,2.14-6.7,2.56-9.22,1.27-1.58-.82-2.49-2.4-2.72-4.74-.24-2.34.58-5.88,2.46-10.62Zm-16.41,8.51c1-.7,2.12-1.61,3.38-2.72,1.26-1.11,2.49-2.25,3.69-3.42,1.2-1.17,2.27-2.28,3.2-3.34.94-1.05,1.55-1.84,1.84-2.37.23-.41.12-.76-.35-1.05-.47-.29-1.22-.32-2.24-.09-1.02.24-2.31.85-3.86,1.84-1.55,1-3.29,2.58-5.22,4.74-.41.47-.92,1.1-1.54,1.89-.61.79-1.17,1.58-1.67,2.37s-.91,1.54-1.23,2.24c-.32.7-.44,1.22-.35,1.54s.47.38,1.14.18,1.74-.8,3.2-1.8Z"/>
      <path class="cls-1" d="m523.43,54.24c-.82,2.05-1.79,4.24-2.9,6.58-1.11,2.34-2.22,4.74-3.33,7.2,1.93-1.05,3.63-2,5.09-2.85,1.46-.85,2.85-1.67,4.17-2.46s2.65-1.54,3.99-2.24c1.35-.7,2.84-1.46,4.48-2.28.58-.29,1.11-.32,1.58-.09.47.24.79.6.97,1.1.18.5.18,1.03,0,1.58-.18.56-.59,1.01-1.23,1.36-.94.53-2.14,1.22-3.6,2.06-1.46.85-3.03,1.79-4.7,2.81-1.67,1.03-3.37,2.08-5.09,3.16-1.73,1.08-3.29,2.09-4.7,3.03-1.4.94-2.6,1.74-3.6,2.41-.99.67-1.58,1.1-1.76,1.27-1.64,3.04-3.19,5.94-4.65,8.69s-2.97,5.35-4.52,7.81c-1.55,2.46-3.19,4.74-4.92,6.85-1.73,2.11-3.64,4.04-5.75,5.79-2.05,1.7-4.02,2.82-5.92,3.38-1.9.56-3.61.67-5.13.35-1.52-.32-2.79-1.01-3.82-2.06-1.02-1.05-1.64-2.36-1.84-3.91-.21-1.55.06-3.29.79-5.22.73-1.93,2.06-3.92,3.99-5.97,2.63-2.75,5.37-5.21,8.21-7.37,2.84-2.17,5.49-4.01,7.94-5.53,2.46-1.52,4.55-2.75,6.28-3.69,1.73-.94,2.74-1.55,3.03-1.84,1.05-2.28,2.06-4.5,3.03-6.67.97-2.16,1.86-4.21,2.68-6.14.82-1.93,1.55-3.69,2.19-5.27.64-1.58,1.2-2.92,1.67-4.04.35-.94.98-1.49,1.89-1.67.91-.18,1.81-.1,2.72.22.91.32,1.67.82,2.28,1.49.62.67.78,1.39.48,2.15Zm-21.77,29.06c-2.57,1.7-4.84,3.23-6.8,4.61-1.96,1.37-3.96,2.97-6.01,4.78-2.34,2.11-4.02,3.99-5.05,5.66-1.02,1.67-1.49,2.9-1.4,3.69.09.79.67,1.04,1.76.75,1.08-.29,2.59-1.32,4.52-3.07,2.87-2.69,5.27-5.34,7.2-7.94,1.93-2.6,3.86-5.43,5.79-8.47Zm29.06-45.65c-.35.64-.86,1.51-1.54,2.59-.67,1.08-1.4,2.15-2.19,3.2s-1.61,1.92-2.46,2.59c-.85.67-1.57.89-2.15.66-.7-.29-1.1-.98-1.19-2.06-.09-1.08,0-2.28.26-3.6s.63-2.6,1.1-3.86c.47-1.26.88-2.21,1.23-2.85.47-.88,1.2-1.37,2.19-1.49.99-.12,1.93.03,2.81.44.88.41,1.55,1.01,2.02,1.8.47.79.44,1.65-.09,2.59Z"/>
      <path class="cls-1" d="m538.36,69.42c.64.47,1.61.57,2.9.31,1.29-.26,2.75-.76,4.39-1.49,1.64-.73,3.36-1.62,5.18-2.68,1.81-1.05,3.58-2.16,5.31-3.33,1.73-1.17,3.32-2.36,4.78-3.56,1.46-1.2,2.69-2.27,3.69-3.2.35-.29.76-.35,1.23-.18.47.18.83.5,1.1.97.26.47.35,1,.26,1.58-.09.59-.54,1.11-1.36,1.58-1.29,1.17-2.8,2.5-4.52,3.99-1.73,1.49-3.57,2.96-5.53,4.39-1.96,1.43-3.99,2.78-6.1,4.04-2.11,1.26-4.17,2.3-6.19,3.12-2.02.82-3.96,1.35-5.84,1.58s-3.57,0-5.09-.7c-1.7-.76-2.87-1.86-3.51-3.29-.64-1.43-.86-3.06-.66-4.87.21-1.81.76-3.74,1.67-5.79.91-2.05,2.02-4.07,3.34-6.06,1.32-1.99,2.81-3.85,4.48-5.57,1.67-1.73,3.35-3.2,5.05-4.43,2.28-1.58,4.4-2.5,6.36-2.77,1.96-.26,3.52.01,4.7.83,1.17.82,1.81,2.09,1.93,3.82.12,1.73-.5,3.76-1.84,6.1-.88,1.4-1.95,2.77-3.2,4.08-1.26,1.32-2.6,2.46-4.04,3.42-1.43.97-2.9,1.7-4.39,2.19-1.49.5-2.88.63-4.17.4-.18.29-.35.69-.53,1.18-.18.5-.28,1.02-.31,1.58-.03.56.01,1.1.13,1.62.12.53.38.91.79,1.14Zm1.58-8.95c1.23-.12,2.75-.85,4.56-2.2,1.81-1.35,3.39-3.33,4.74-5.97.47-.88.67-1.46.62-1.76-.06-.29-.28-.37-.66-.22-.38.15-.91.48-1.58,1.01-.67.53-1.36,1.17-2.06,1.93-1.23,1.29-2.4,2.65-3.51,4.08-1.11,1.43-1.81,2.47-2.11,3.12Z"/>
      <path class="cls-1" d="m622.27,55.91c.41-.23.82-.28,1.23-.13.41.15.75.4,1.01.75.26.35.39.75.39,1.19s-.18.83-.53,1.18c-1.05,1.05-2.36,2.3-3.91,3.73-1.55,1.43-3.26,2.9-5.13,4.39-1.87,1.49-3.83,2.94-5.88,4.35-2.05,1.4-4.1,2.56-6.14,3.47-2.05.91-4.04,1.51-5.97,1.8-1.93.29-3.72.09-5.35-.61-1.64-.7-2.77-1.81-3.38-3.34-.61-1.52-.77-3.28-.48-5.27s1.01-4.1,2.15-6.32c1.14-2.22,2.63-4.39,4.48-6.5,1.84-2.11,3.99-4.05,6.45-5.84,2.46-1.78,5.15-3.2,8.08-4.26,1.05-.41,1.96-.28,2.72.4.76.67,1.26,1.51,1.49,2.5.23,1,.18,2-.18,3.03s-1.08,1.71-2.19,2.06c-3.57,1.05-6.51,2.63-8.82,4.74-2.31,2.11-3.94,4.16-4.87,6.14-.94,1.99-1.16,3.67-.66,5.05.5,1.38,1.8,1.89,3.91,1.54,1.46-.23,3.2-.94,5.22-2.11,2.02-1.17,4.05-2.5,6.1-3.99,2.05-1.49,3.99-2.97,5.84-4.43,1.84-1.46,3.32-2.63,4.43-3.51Z"/>
      <path class="cls-1" d="m625.87,46.16c.59-.82,1.36-1.15,2.33-1.01.97.15,1.86.51,2.68,1.1.82.59,1.43,1.29,1.84,2.11.41.82.32,1.49-.26,2.02-.29.24-.81.95-1.54,2.15-.73,1.2-1.55,2.62-2.46,4.26-.91,1.64-1.8,3.35-2.68,5.13-.88,1.79-1.58,3.39-2.11,4.83s-.8,2.55-.83,3.33c-.03.79.36.98,1.18.57.99-.47,2.18-1.35,3.56-2.63,1.37-1.29,2.81-2.77,4.3-4.43,1.49-1.67,3-3.47,4.52-5.4,1.52-1.93,2.94-3.77,4.26-5.53,1.32-1.76,2.47-3.36,3.47-4.83.99-1.46,1.73-2.57,2.19-3.34.58-.99,1.37-1.48,2.37-1.45,1,.03,1.93.34,2.81.92.88.59,1.55,1.29,2.02,2.11.47.82.5,1.52.09,2.11-.18.24-.53.88-1.05,1.93-.53,1.05-1.1,2.3-1.71,3.73-.62,1.43-1.23,2.97-1.84,4.61-.62,1.64-1.08,3.15-1.41,4.52-.32,1.38-.47,2.53-.44,3.47.03.94.4,1.41,1.1,1.41.59,0,1.48-.38,2.68-1.14,1.2-.76,2.52-1.76,3.95-2.98,1.43-1.23,2.94-2.57,4.52-4.04,1.58-1.46,3.07-2.87,4.48-4.21.41-.41.86-.58,1.36-.53.5.06.92.26,1.27.61s.54.82.57,1.4c.03.59-.16,1.2-.57,1.84-.88.94-1.9,2-3.07,3.2-1.17,1.2-2.45,2.44-3.82,3.73-1.38,1.29-2.77,2.52-4.17,3.69-1.4,1.17-2.8,2.19-4.17,3.07-1.38.88-2.65,1.52-3.82,1.93-1.17.41-2.19.47-3.07.18-2.28-.76-3.72-2.21-4.3-4.34-.59-2.14-.47-4.96.35-8.47-2.34,2.75-4.68,5.46-7.02,8.12-2.34,2.66-5,4.81-7.99,6.45-1.46.82-2.85,1.23-4.17,1.23s-2.49-.26-3.51-.79c-1.02-.53-1.84-1.29-2.46-2.28-.61-.99-.95-2.14-1.01-3.42-.06-.88.13-2,.57-3.38.44-1.37,1.01-2.87,1.71-4.48.7-1.61,1.49-3.28,2.37-5,.88-1.73,1.76-3.38,2.63-4.96s1.7-2.98,2.46-4.21c.76-1.23,1.37-2.19,1.84-2.9Z"/>
      <path class="cls-1" d="m668.01,69.42c.64.47,1.61.57,2.9.31,1.29-.26,2.75-.76,4.39-1.49,1.64-.73,3.36-1.62,5.18-2.68,1.81-1.05,3.58-2.16,5.31-3.33,1.73-1.17,3.32-2.36,4.78-3.56,1.46-1.2,2.69-2.27,3.69-3.2.35-.29.76-.35,1.23-.18.47.18.83.5,1.1.97.26.47.35,1,.26,1.58-.09.59-.54,1.11-1.36,1.58-1.29,1.17-2.8,2.5-4.52,3.99-1.73,1.49-3.57,2.96-5.53,4.39-1.96,1.43-3.99,2.78-6.1,4.04-2.11,1.26-4.17,2.3-6.19,3.12-2.02.82-3.96,1.35-5.84,1.58s-3.57,0-5.09-.7c-1.7-.76-2.87-1.86-3.51-3.29-.64-1.43-.86-3.06-.66-4.87.21-1.81.76-3.74,1.67-5.79.91-2.05,2.02-4.07,3.34-6.06,1.32-1.99,2.81-3.85,4.48-5.57,1.67-1.73,3.35-3.2,5.05-4.43,2.28-1.58,4.4-2.5,6.36-2.77,1.96-.26,3.52.01,4.7.83,1.17.82,1.81,2.09,1.93,3.82.12,1.73-.5,3.76-1.84,6.1-.88,1.4-1.95,2.77-3.2,4.08-1.26,1.32-2.6,2.46-4.04,3.42-1.43.97-2.9,1.7-4.39,2.19-1.49.5-2.88.63-4.17.4-.18.29-.35.69-.53,1.18-.18.5-.28,1.02-.31,1.58-.03.56.01,1.1.13,1.62.12.53.38.91.79,1.14Zm1.58-8.95c1.23-.12,2.75-.85,4.56-2.2,1.81-1.35,3.39-3.33,4.74-5.97.47-.88.67-1.46.62-1.76-.06-.29-.28-.37-.66-.22-.38.15-.91.48-1.58,1.01-.67.53-1.36,1.17-2.06,1.93-1.23,1.29-2.4,2.65-3.51,4.08-1.11,1.43-1.81,2.47-2.11,3.12Z"/>
      <path class="cls-1" d="m711.28,72.67c-1.46-.76-2.21-2.06-2.24-3.91-.03-1.84.32-3.86,1.05-6.06.73-2.19,1.64-4.37,2.72-6.54,1.08-2.16,1.97-3.95,2.68-5.36-1.29.7-2.68,1.81-4.17,3.34-1.49,1.52-3.01,3.26-4.56,5.22-1.55,1.96-3.13,4.02-4.74,6.19-1.61,2.17-3.2,4.24-4.78,6.23-1.52,1.87-3.1,3.34-4.74,4.39-1.64,1.05-3.13,1.29-4.48.7-.88-.41-1.39-1.24-1.54-2.5-.15-1.26-.03-2.77.35-4.52.38-1.76.95-3.66,1.71-5.71.76-2.05,1.59-4.01,2.5-5.88.91-1.87,1.81-3.57,2.72-5.09.91-1.52,1.71-2.66,2.41-3.42.76-.76,1.61-1.05,2.55-.88.94.18,1.77.59,2.5,1.23.73.64,1.24,1.39,1.54,2.24.29.85.18,1.54-.35,2.06-.64.64-1.38,1.61-2.19,2.9-.82,1.29-1.62,2.63-2.41,4.04-.79,1.4-1.51,2.72-2.15,3.95-.65,1.23-1.08,2.14-1.32,2.72.88-.99,2.02-2.41,3.42-4.26,1.41-1.84,2.95-3.8,4.65-5.88,1.7-2.08,3.47-4.14,5.31-6.19,1.84-2.05,3.67-3.79,5.49-5.22,1.81-1.43,3.54-2.4,5.18-2.9,1.64-.5,3.1-.25,4.39.75.94.7,1.35,1.79,1.23,3.25-.12,1.46-.5,3.07-1.14,4.83-.65,1.76-1.4,3.53-2.28,5.31-.88,1.79-1.6,3.37-2.15,4.74-.56,1.38-.83,2.43-.83,3.16s.56.91,1.67.53c1.11-.38,2.93-1.42,5.44-3.12,2.52-1.7,5.97-4.3,10.36-7.81.41-.29.85-.35,1.32-.18.47.18.83.48,1.1.92.26.44.38.95.35,1.54-.03.59-.34,1.08-.92,1.49-.7.53-1.68,1.32-2.94,2.37-1.26,1.05-2.63,2.18-4.12,3.38-1.49,1.2-3.09,2.4-4.78,3.6-1.7,1.2-3.38,2.23-5.05,3.07-1.67.85-3.25,1.42-4.74,1.71-1.49.29-2.82.15-3.99-.44Z"/>
      <path class="cls-1" d="m763.33,11.49c.76-.7,1.67-.88,2.72-.53,1.05.35,1.96.97,2.72,1.84.76.88,1.23,1.86,1.4,2.94.18,1.08-.24,2.03-1.23,2.85-1.35,1.11-2.66,2.3-3.95,3.56-1.29,1.26-2.55,2.56-3.77,3.91,1.17-.06,2.55-.09,4.13-.09s3.17.03,4.78.09c1.61.06,3.15.15,4.61.26,1.46.12,2.69.26,3.69.44.76.24,1.21.75,1.36,1.54.14.79.04,1.58-.31,2.37-.35.79-.91,1.43-1.67,1.93-.76.5-1.64.6-2.63.31-.88-.23-2.08-.45-3.6-.66-1.52-.2-3.15-.38-4.87-.53-1.73-.14-3.48-.25-5.27-.31-1.79-.06-3.38-.06-4.78,0-2.63,3.39-5.05,6.92-7.24,10.58-2.19,3.66-4.17,7.27-5.92,10.84-1.76,3.57-3.28,7.01-4.57,10.31-1.29,3.31-2.39,6.34-3.29,9.09-.91,2.75-1.59,5.15-2.06,7.2-.47,2.05-.76,3.57-.88,4.56-.12.94-.7,1.64-1.76,2.11-1.05.47-2.15.64-3.29.53-1.14-.12-2.14-.53-2.98-1.23-.85-.7-1.1-1.76-.75-3.16,1.11-4.33,2.56-8.73,4.35-13.21,1.79-4.48,3.73-8.9,5.84-13.26,2.11-4.36,4.33-8.59,6.67-12.68,2.34-4.09,4.65-7.93,6.93-11.5-2.17.18-4.4.47-6.72.88-2.31.41-4.43.94-6.36,1.58-.82.41-1.58.41-2.28,0-.7-.41-1.21-.98-1.54-1.71-.32-.73-.38-1.49-.18-2.28.21-.79.86-1.33,1.97-1.62,2.98-.82,6.06-1.37,9.22-1.67,3.16-.29,6.38-.53,9.66-.7,2.34-3.39,4.54-6.33,6.58-8.82,2.05-2.49,3.8-4.4,5.27-5.75Z"/>
      <path class="cls-1" d="m753.24,69.42c.64.47,1.61.57,2.9.31,1.29-.26,2.75-.76,4.39-1.49,1.64-.73,3.36-1.62,5.18-2.68,1.81-1.05,3.58-2.16,5.31-3.33,1.73-1.17,3.32-2.36,4.78-3.56,1.46-1.2,2.69-2.27,3.69-3.2.35-.29.76-.35,1.23-.18.47.18.83.5,1.1.97.26.47.35,1,.26,1.58-.09.59-.54,1.11-1.36,1.58-1.29,1.17-2.8,2.5-4.52,3.99-1.73,1.49-3.57,2.96-5.53,4.39-1.96,1.43-3.99,2.78-6.1,4.04-2.11,1.26-4.17,2.3-6.19,3.12-2.02.82-3.96,1.35-5.84,1.58s-3.57,0-5.09-.7c-1.7-.76-2.87-1.86-3.51-3.29-.64-1.43-.86-3.06-.66-4.87.21-1.81.76-3.74,1.67-5.79.91-2.05,2.02-4.07,3.34-6.06s2.81-3.85,4.48-5.57c1.67-1.73,3.35-3.2,5.05-4.43,2.28-1.58,4.4-2.5,6.36-2.77,1.96-.26,3.52.01,4.7.83,1.17.82,1.81,2.09,1.93,3.82.12,1.73-.5,3.76-1.84,6.1-.88,1.4-1.95,2.77-3.2,4.08-1.26,1.32-2.6,2.46-4.04,3.42-1.43.97-2.9,1.7-4.39,2.19-1.49.5-2.88.63-4.17.4-.18.29-.35.69-.53,1.18-.18.5-.28,1.02-.31,1.58-.03.56.01,1.1.13,1.62.12.53.38.91.79,1.14Zm1.58-8.95c1.23-.12,2.75-.85,4.56-2.2,1.81-1.35,3.39-3.33,4.74-5.97.47-.88.67-1.46.62-1.76-.06-.29-.28-.37-.66-.22-.38.15-.91.48-1.58,1.01-.67.53-1.36,1.17-2.06,1.93-1.23,1.29-2.4,2.65-3.51,4.08-1.11,1.43-1.81,2.47-2.11,3.12Z"/>
      <path class="cls-1" d="m781.77,89.35c-3.39.29-5.03-.59-4.92-2.63,0-2.05,1.05-4.21,3.16-6.5,2.11-2.4,4.53-3.98,7.28-4.74,2.28-.35,3.48.53,3.6,2.63.06,2.05-.7,4.33-2.28,6.85-1.64,2.4-3.92,3.86-6.85,4.39Zm40.12-84.09c1.17-1.87,2.75-2.72,4.74-2.55,1.99.12,3.66.82,5,2.11,1.29,1.29,1.43,2.69.44,4.21-7.37,9.6-13.78,19.08-19.22,28.44-2.81,4.74-5.69,9.77-8.65,15.1-2.96,5.33-6.1,11.03-9.44,17.12-.59,1.05-1.46,1.61-2.63,1.67-1.23.18-2.28-.09-3.16-.79-.82-.7-.97-1.58-.44-2.63,2.05-4.45,4.36-9.13,6.93-14.05,2.57-4.92,5.41-10.12,8.51-15.62,3.1-5.5,6.13-10.99,9.09-16.46,2.95-5.47,5.89-10.99,8.82-16.55Z"/>
    </g>
  </g>
</svg>