<?xml version="1.0" encoding="UTF-8"?>
<svg id="Capa_2" data-name="Capa 2" xmlns="http://www.w3.org/2000/svg" viewBox="0 0 119.89 123.84">
  <defs>
    <style>
      .cls-1 {
        fill: #fff;
      }

      .cls-2 {
        fill: #0e4c5b;
      }

      .cls-3 {
        fill: #c4e6f6;
      }

      .cls-4 {
        fill: #0f5970;
      }

      .cls-5 {
        fill: #d1ebf4;
      }

      .cls-6 {
        fill: #8bcdef;
      }
    </style>
  </defs>
  <g id="Capa_1-2" data-name="Capa 1">
    <g>
      <path class="cls-1" d="m60.23,123.84c-2.16,0-4.19-.7-5.83-1.9-7.91-.86-22.06-4.24-36.64-16.67-3.41-.91-6.1-3.6-7.01-7-4.16-5.03-6.92-10.49-8.25-16.29-1.56-1.75-2.5-4.06-2.5-6.57,0-2.1.68-4.09,1.84-5.72.74-6.27,3.07-12.44,6.84-18.09.39-4.19,3.4-7.62,7.37-8.65,1.51-1.4,3.1-2.71,4.75-3.91,2.02-1.46,3.84-2.8,5.49-4.03l.61-.98,1.01-.23c.06-.04.11-.08.17-.12l.06.07.5-.12c1-4.15,4.62-7.29,9.01-7.56.29-.25.55-.49.78-.69.64-3.11,2.86-5.64,5.77-6.74l6.14-6.43c0-6.74,5.48-12.21,12.22-12.21s12.22,5.48,12.22,12.22c0,.44-.02.88-.07,1.31l4.36,5.74c2.39,1.37,4.11,3.78,4.53,6.61,4.32.37,7.85,3.52,8.8,7.65,2.21,1.71,4.68,3.56,7.38,5.51,1.75,1.26,3.41,2.64,4.98,4.12,4.02,1.04,7.05,4.56,7.38,8.81.26.4.51.81.76,1.22.44.54.84,1.09,1.19,1.65.95,1.52,1.48,3.03,1.82,4.28,1.77,4.25,2.79,8.58,3.02,12.87.04.73.06,1.48.05,2.23.59,1.28.92,2.69.92,4.15,0,2.64-1.03,5.06-2.74,6.84-1.5,4.52-3.89,8.81-7.15,12.81-.55,4.61-4.28,8.25-8.93,8.66-10.31,8.31-20.13,12.08-26.78,13.79-3.2.82-6,1.27-8.28,1.5-1.64,1.18-3.64,1.86-5.76,1.86Z"/>
      <g>
        <g>
          <g>
            <path class="cls-3" d="m63.5,90.95c-1.04-1.47-2.43-1.78-2.43-1.78.89-3.13-2.65-4.56-5.09-5.17-1.2-.3-2.23-1.06-2.85-2.13l-.41-.71-4.05,2.37.41.71c.62,1.06.79,2.34.46,3.53-.67,2.42-1.15,6.21,2.02,6.96,0,0-.41,1.37.37,3,.6,1.25,5.98,10.31,8.42,14.4.79,1.33,2.36,1.98,3.86,1.61,1.14-.28,2.54-.75,3.96-1.56,1.4-.84,2.5-1.83,3.3-2.7,1.05-1.13,1.25-2.82.48-4.15-2.38-4.13-7.65-13.25-8.45-14.38Z"/>
            <path class="cls-6" d="m51.59,96.68l11.17-6.55c-.86-.76-1.69-.96-1.69-.96.23-.81.16-1.5-.1-2.1l-11.18,6.55c.39.52.96.92,1.78,1.11,0,0-.23.82.01,1.94Z"/>
            <path class="cls-5" d="m64.55,113.55c-1.5.36-3.07-.29-3.86-1.61-2.44-4.09-7.82-13.15-8.42-14.4-.78-1.62-.37-3-.37-3-3.17-.75-2.69-4.54-2.02-6.96.33-1.19.16-2.46-.46-3.53l-.41-.71-.33.2.41.71c.62,1.06.79,2.34.46,3.53-.67,2.42-1.15,6.21,2.02,6.96,0,0-.41,1.37.37,3,.6,1.25,5.98,10.31,8.42,14.4.79,1.33,2.36,1.98,3.86,1.61,1.14-.28,2.54-.75,3.96-1.56.06-.03.11-.07.16-.11-1.36.75-2.7,1.21-3.79,1.48Z"/>
            <path class="cls-6" d="m53.38,82.22c-.08-.12-.18-.22-.25-.35l-.41-.71-4.05,2.37.41.71c.07.12.12.26.18.39l4.12-2.42Z"/>
            <rect class="cls-6" x="46.54" y="79.25" width="6.64" height="3.37" rx=".72" ry=".72" transform="translate(-34.09 36.34) rotate(-30.39)"/>
            <path class="cls-6" d="m63.5,90.95c-1.04-1.47-2.43-1.78-2.43-1.78.89-3.13-2.65-4.56-5.09-5.17-1.2-.3-2.23-1.06-2.85-2.13l-.41-.71-1.94,1.14c.13.92.74,2.72,3.5,4.04,3.86,1.85,5.14,2.97,4.24,4.04,0,0,10.55,16.32,11.43,20.55.6-.49,1.12-.99,1.54-1.45,1.05-1.13,1.25-2.82.48-4.15-2.38-4.13-7.65-13.25-8.45-14.38Z"/>
          </g>
          <g>
            <path class="cls-3" d="m66.5,34.24c-.14-1.8-1.19-2.77-1.19-2.77,2.36-2.24.04-5.28-1.75-7.04-.88-.86-1.38-2.05-1.37-3.28v-.82s-4.69-.02-4.69-.02v.82c0,1.23-.51,2.41-1.4,3.27-1.81,1.75-4.15,4.77-1.8,7.03,0,0-1.05.97-1.21,2.77-.12,1.38-.09,11.92-.07,16.68,0,1.55,1.02,2.9,2.5,3.35,1.13.34,2.57.65,4.21.67,1.64-.01,3.09-.31,4.21-.64,1.48-.44,2.51-1.79,2.52-3.34.05-4.77.15-15.3.04-16.68Z"/>
            <path class="cls-6" d="m53.32,33.11l12.95.04c-.35-1.09-.96-1.69-.96-1.69.61-.58.9-1.21.98-1.86l-12.96-.04c.07.65.36,1.28.97,1.87,0,0-.62.59-.98,1.68Z"/>
            <path class="cls-5" d="m55.9,54.23c-1.48-.45-2.49-1.81-2.5-3.35-.02-4.77-.05-15.3.07-16.68.15-1.79,1.21-2.77,1.21-2.77-2.35-2.26,0-5.28,1.8-7.03.89-.86,1.39-2.04,1.39-3.27v-.82s-.38,0-.38,0v.82c0,1.23-.51,2.41-1.4,3.27-1.81,1.75-4.15,4.77-1.8,7.03,0,0-1.05.97-1.21,2.77-.12,1.38-.09,11.92-.07,16.68,0,1.55,1.02,2.9,2.5,3.35,1.13.34,2.57.65,4.21.67.07,0,.13,0,.19,0-1.56-.04-2.94-.33-4.02-.66Z"/>
            <path class="cls-6" d="m62.22,21.58c-.01-.14-.04-.28-.04-.43v-.82s-4.69-.02-4.69-.02v.82c0,.14-.03.28-.05.43l4.78.02Z"/>
            <rect class="cls-6" x="56.52" y="17" width="6.64" height="3.37" rx=".72" ry=".72" transform="translate(.06 -.19) rotate(.18)"/>
            <path class="cls-6" d="m66.5,34.24c-.14-1.8-1.19-2.77-1.19-2.77,2.36-2.24.04-5.28-1.75-7.04-.88-.86-1.38-2.05-1.37-3.28v-.82s-2.25,0-2.25,0c-.36.85-.75,2.71.96,5.26,2.38,3.55,2.91,5.17,1.6,5.63,0,0,.79,19.42-.61,23.51.76-.12,1.46-.28,2.07-.46,1.48-.44,2.51-1.79,2.52-3.34.05-4.77.15-15.3.04-16.68Z"/>
          </g>
          <g>
            <g>
              <path class="cls-3" d="m32.56,38.96s-1.21,11.98-13.08,20.94l17.22,10.76c2.84-14.59,13.08-20.94,13.08-20.94l-17.22-10.76Z"/>
              <rect class="cls-6" x="31.35" y="43.17" width="20.3" height="1.26" transform="translate(29.52 -15.34) rotate(32)"/>
              <rect class="cls-6" x="17.6" y="65.18" width="20.3" height="1.26" transform="translate(39.09 -4.71) rotate(32)"/>
            </g>
            <path class="cls-6" d="m49.78,49.72l-3.57-2.23c-1.92,1.17-4.62,3.34-6.77,7.07-3.76,6.49-10.63,1.63-7.1,5.8,3.54,4.17,3.85,6.41-.37,5.06-1.16-.37-1.86.06-2.24.89l6.97,4.36c2.84-14.59,13.08-20.94,13.08-20.94Z"/>
            <path class="cls-6" d="m24.06,57.85c-1.05,2.82,5.83-5.03,8.07-12.07.79-2.48,1.51-4.58,1.82-5.96l-1.38-.86s-1.21,11.98-13.08,20.94l.68.42c2.39-1.7,4.66-4.52,3.9-2.47Z"/>
          </g>
          <g>
            <path class="cls-3" d="m75.17,55.04c-2.35-3.5-4.96-12.65-7.7-11.5-2.75,1.15.21,11.43.21,11.43,0,0-7.44,4.42-10.83,5.2,0,0-4.89-8.95-7.24-8.21-2.34.75.07,7.4,1.67,10.54,3.04,5.94,6.85,21.47,13.66,22.89,0,0,15.49-3.76,20.34-10.32,0,0-4.07-11.03-10.12-20.03Zm-21.95,7.26s-4.06-8.84-3.25-8.76c.82.09,4.92,7.61,4.92,7.61-.44.6-1.68,1.15-1.68,1.15Zm18.32-8.98s-1.84.42-2.87,1.24c0,0-2.08-9.54-.78-10.05,1.29-.5,3.66,8.8,3.66,8.8Z"/>
            <path class="cls-6" d="m73.53,61.14c-1.84,4.85-3.99,6.68-.18,4.12,3.81-2.56,11.73-.19,4.7,7.31s-9.82,9.33-1.89,5.53c7.93-3.8,6.59-.81-3.76,3.3-9.25,3.67-15.83-10.03-19.92-16.2,2.85,6.98,6.51,18.95,12.45,20.19,0,0,15.49-3.76,20.34-10.32,0,0-4.07-11.03-10.12-20.03-.21-.31-.42-.66-.63-1.05.08,2.03-.07,4.7-1.01,7.15Z"/>
            <path class="cls-6" d="m56.41,71.7s9.82-6.8,9.08-5.11c-.73,1.69-1.06,1.19-4.09,3.79-4.82,4.12-7.22,3.34-4.99,1.32Z"/>
            <path class="cls-5" d="m62.4,73.37s8.23-5.44,12.57-6.31c4.34-.87,1.41,1.64-.81,3.21-2.22,1.57-7.41,4.64-3.66,3.62,3.74-1.02,5.19-.55.62,2.43-4.57,2.97-5.69,3.74-4.31,1.92,1.37-1.82,5.49-4.54.54-2.7-4.95,1.84-5.8,1.95-3.8-.25,2-2.2-2.53-.51-1.12-1.91Z"/>
            <path class="cls-6" d="m54.24,63.96s1.25-1.7,5.28-3.58c4.03-1.89,10.83-4.67,12.11-5.61,1.28-.93,4.52-.99-1.09,1.84-5.61,2.83-9.73,3.99-11.25,4.9-1.53.91-6.08,4.1-5.04,2.45Z"/>
            <path class="cls-5" d="m72.38,58.54c-.29-.53-3.82,1.16-8.05,3.47-4.23,2.31-7.56,4.37-7.27,4.9.29.53,3.95-.92,8.18-3.23,4.23-2.31,7.43-4.61,7.14-5.14Z"/>
          </g>
          <g>
            <path class="cls-3" d="m44.02,84.39c.54-3.55,4.18-10.8,1.79-11.67-2.39-.86-6.46,7.3-6.46,7.3,0,0-7.22-1.51-9.8-2.97,0,0,2.09-8.45.19-9.33s-4.22,4.68-5.03,7.58c-1.52,5.49-8.08,17.43-4.62,22.26,0,0,11.9,6.57,18.73,5.25,0,0,3.8-9.28,5.2-18.42Zm-17.98-8.1s2.55-7.9,3.01-7.38c.46.53-1.29,7.62-1.29,7.62-.62.12-1.72-.24-1.72-.24Zm16.69,4.93s-1.4-.8-2.52-.88c0,0,4.2-7.2,5.3-6.76,1.1.43-2.78,7.64-2.78,7.64Z"/>
            <path class="cls-6" d="m39.47,87.28c-3.96,1.99-6.35,1.89-2.49,2.49,3.87.59,7.48,6.64-1.26,7.31-8.74.66-11.55.2-4.38,2.38,7.17,2.19,4.61,3.29-4.26-.1-7.93-3.03-4.16-15.44-3.17-21.67-2.23,6.03-6.84,15.66-3.82,19.87,0,0,11.9,6.57,18.73,5.25,0,0,3.8-9.28,5.2-18.42.05-.31.12-.66.21-1.02-1.12,1.32-2.75,2.91-4.76,3.91Z"/>
            <path class="cls-6" d="m22.63,84.04s10.09,1.39,8.65,2.03c-1.43.64-1.35.14-4.76.02-5.4-.19-6.46-2.07-3.9-2.05Z"/>
            <path class="cls-5" d="m25.43,88.54s8.31,1.33,11.54,3.28c3.23,1.95-.06,1.84-2.36,1.54-2.3-.3-7.33-1.36-4.39.16,2.94,1.52,3.57,2.65-1.01,1.88-4.58-.77-5.73-.93-3.82-1.28,1.91-.35,6.07.32,1.89-1.39-4.17-1.7-4.77-2.12-2.25-2.35,2.52-.23-1.29-1.78.4-1.85Z"/>
            <path class="cls-6" d="m25.73,77.92s1.76-.34,5.38.79c3.62,1.14,9.5,3.31,10.84,3.46,1.34.15,3.41,1.98-1.75.53-5.16-1.46-8.41-3.1-9.9-3.41-1.48-.31-6.19-.93-4.58-1.37Z"/>
            <path class="cls-5" d="m40.26,84.98c.12-.5-3.07-1.47-7.06-2.46-3.99-.99-7.27-1.62-7.39-1.12-.12.5,3.01,1.7,7,2.69,3.99.99,7.33,1.39,7.45.89Z"/>
          </g>
          <g>
            <g>
              <path class="cls-6" d="m102.08,84.48c.22-.58-3.49-2.55-8.3-4.4-4.81-1.85-8.88-2.88-9.1-2.3-.22.58,3.49,2.55,8.3,4.4,4.81,1.85,8.88,2.88,9.1,2.3Z"/>
              <path class="cls-3" d="m102.07,84.51l-10.72,19.42c-2.15-.1-4.26-.55-6.24-1.31-1.98-.76-3.85-1.84-5.51-3.21l5.07-21.6c-.08.62,3.59,2.55,8.31,4.36,4.72,1.82,8.73,2.84,9.09,2.33Z"/>
              <path class="cls-6" d="m97.19,83.65c-.47,1.47-2.25,6.66-4.43,8.12-2.55,1.71-4.87,1.87-.97,2.9,2.71.71-1.33,5.74-4.02,8.76,1.17.27,2.37.44,3.58.5l10.72-19.42c-.24.35-2.18-.02-4.88-.86Z"/>
              <path class="cls-6" d="m84.67,77.81l-5.07,21.6c.4.33.81.64,1.23.93.28-2.53.86-7.02,1.4-6.69.75.45.76.29.88-2.72.1-2.44,1.92-9.55,2.6-12.14-.69-.44-1.07-.78-1.04-.98Z"/>
            </g>
            <path class="cls-5" d="m86.73,80.67s-2.39,10.2-1.03,10.79c3.89,1.67,9.31-3.74,8.47-6.69-.28-.99-7.45-4.1-7.45-4.1Z"/>
          </g>
          <g>
            <g>
              <path class="cls-6" d="m93.73,44.88c-.34-.52-4.12,1.32-8.44,4.11-4.33,2.79-7.56,5.48-7.23,6s4.12-1.32,8.44-4.11c4.33-2.79,7.56-5.48,7.23-6Z"/>
              <path class="cls-3" d="m93.74,44.91l9.37,20.11c-1.35,1.68-2.95,3.11-4.74,4.27-1.79,1.15-3.76,2.02-5.84,2.56l-14.46-16.83c.45.43,4.17-1.4,8.42-4.14,4.25-2.74,7.45-5.38,7.24-5.97Z"/>
              <path class="cls-6" d="m90.17,48.34c.91,1.24,4.05,5.74,3.95,8.37-.12,3.07-1.36,5.04,1.77,2.5,2.17-1.77,3.85,4.46,4.7,8.41.91-.79,1.75-1.65,2.52-2.6l-9.37-20.11c.14.4-1.3,1.75-3.57,3.43Z"/>
              <path class="cls-6" d="m78.08,55.01l14.46,16.83c.5-.13.99-.28,1.47-.44-1.88-1.72-5.16-4.83-4.58-5.08.81-.34.69-.44-1.68-2.31-1.92-1.52-6.58-7.18-8.27-9.26-.76.3-1.26.4-1.41.26Z"/>
            </g>
            <path class="cls-5" d="m81.6,55.03s6.83,7.94,8.11,7.19c3.65-2.16,2.46-9.73-.41-10.79-.96-.36-7.7,3.6-7.7,3.6Z"/>
          </g>
        </g>
        <g>
          <g>
            <path class="cls-2" d="m61.59,115.04c-.71,0-1.16-.03-1.31-.04-1.14.07-20.02.99-39.63-16.76-8.24-7.46-12.33-16.34-11.82-25.68.56-10.23,6.58-20.46,16.12-27.36,19.3-13.97,21.87-17.41,21.68-18.22l-.41-.83h.93s28.19,0,28.19,0l-.41.83c-.28.7,2.89,5.34,20.68,18.22h0c9.54,6.9,15.56,17.13,16.12,27.36.51,9.35-3.58,18.23-11.82,25.68-10.51,9.51-20.72,13.56-27.43,15.28-5.11,1.31-8.97,1.52-10.9,1.52Zm-13.82-87.73c-.38,1.76-4.15,5.82-22.14,18.83-9.26,6.7-15.1,16.6-15.64,26.49-.49,8.99,3.46,17.55,11.44,24.76,19.76,17.88,38.62,16.47,38.81,16.46h.05s.05,0,.05,0c.19.02,19.08,1.4,38.81-16.46,7.97-7.21,11.93-15.78,11.44-24.76-.54-9.89-6.39-19.79-15.64-26.49h0c-9.45-6.84-20.33-15.36-21.1-18.83h-26.08Z"/>
            <path class="cls-2" d="m59.28,115.05c-3.52,0-15.09-1.3-27.3-16.87-8.4-10.72-9.02-21.83-8.06-29.27,1.14-8.86,5.3-17.7,11.12-23.64,13.98-14.25,15.64-17.61,15.38-18.34l-.27-.77h20.97l-.27.77c-.3.86,2.38,5.81,14.67,18.34h0c5.82,5.94,9.98,14.77,11.12,23.64.96,7.44.34,18.56-8.06,29.27-13.98,17.82-27.11,16.95-28.3,16.83-.15.02-.49.04-1,.04Zm-7.72-87.74c-.31,1.84-3.28,6.11-15.69,18.76-9.98,10.18-17.51,32.86-2.98,51.39,7.28,9.28,14.32,13.24,18.95,14.93,5,1.83,8.34,1.46,8.37,1.46h.07s.07,0,.07,0c.13.02,13.41,1.36,27.32-16.39,14.53-18.53,7.01-41.21-2.98-51.39-5.53-5.64-14.4-15.16-14.97-18.76h-18.17Z"/>
            <path class="cls-2" d="m60.67,115.04c-.16,0-.29-.01-.39-.03-.49.08-1.96.12-3.97-1.61-2.97-2.55-5.75-7.73-8.28-15.4-6.24-18.95-3.01-42.13,1.28-52.55,4.51-10.94,6.69-17.21,6.48-18.63l-.1-.66h9.47l-.1.66c-.18,1.24,1.33,6.86,6.18,18.63,4.29,10.41,7.53,33.6,1.28,52.55-2.53,7.67-5.31,12.85-8.28,15.4-1.62,1.4-2.9,1.64-3.58,1.64Zm-.39-1.21l.16.04s5.3,1.05,10.99-16.23c6.15-18.67,2.97-41.5-1.25-51.75h0c-1.88-4.56-6.04-15-6.27-18.58h-6.96c-.13,1.67-1.33,5.87-6.57,18.58-4.22,10.25-7.41,33.08-1.25,51.75,5.7,17.28,10.95,16.24,11.01,16.23l.15-.04Z"/>
            <path class="cls-2" d="m60.67,39.92c-2.75,0-5.48-.15-8.15-.45-3.09-.34-6.16-.89-9.12-1.63l-.07-.02c-1.72-.43-3.42-.93-5.06-1.49l.37-1.09c1.58.54,3.22,1.02,4.89,1.44l.07.02c2.93.74,5.97,1.28,9.04,1.62,4.99.56,10.16.59,15.36.09,3.09-.3,6.24-.79,9.36-1.45,1.77-.37,3.58-.82,5.38-1.32l.31,1.11c-1.82.51-3.65.96-5.45,1.34-3.16.68-6.36,1.17-9.49,1.47-2.5.24-4.98.36-7.45.36Z"/>
            <path class="cls-2" d="m59.31,106.66c-2.57,0-5.13-.11-7.65-.34-4.98-.44-9.94-1.34-14.74-2.66-6.6-1.82-12.87-4.43-18.63-7.75l.29-.5v-.58s.16,0,.16,0l.13.08c5.68,3.27,11.86,5.84,18.37,7.64,4.74,1.31,9.63,2.19,14.54,2.63,5.6.5,11.36.44,17.13-.19,4.88-.53,9.87-1.47,14.82-2.81l.08-.02c5.51-1.49,11.13-3.5,16.71-5.99l.23.52.42.41-.08.08-.1.05c-5.66,2.52-11.37,4.57-16.96,6.07l-.08.02c-4.99,1.34-10.01,2.3-14.93,2.83-3.25.35-6.49.53-9.71.53Z"/>
            <path class="cls-2" d="m58.85,60.88c-4.28,0-8.52-.22-12.69-.66-6.19-.65-12.27-1.79-18.09-3.39-3.65-1-7.21-2.18-10.59-3.52l.42-1.07c3.34,1.32,6.87,2.49,10.47,3.48,5.76,1.58,11.78,2.71,17.91,3.35,9.09.96,18.5.86,27.97-.28,5.87-.71,11.87-1.84,17.84-3.36,3.6-.92,7.19-1.98,10.68-3.14l.37,1.1c-3.51,1.17-7.13,2.23-10.75,3.16-6.01,1.53-12.06,2.66-17.99,3.38-5.21.63-10.4.94-15.53.94Z"/>
            <path class="cls-2" d="m61.75,87.11c-5.4,0-10.74-.31-15.97-.94-7.25-.86-14.36-2.33-21.12-4.37-5.49-1.65-10.71-3.65-15.51-5.94l.5-1.04c4.75,2.27,9.91,4.24,15.35,5.88,6.69,2.02,13.73,3.47,20.92,4.33,9.32,1.11,18.98,1.23,28.71.34,6.84-.63,13.81-1.76,20.71-3.37,5.08-1.18,10.25-2.64,15.37-4.34l.37,1.1c-5.16,1.72-10.36,3.19-15.48,4.37-6.96,1.62-13.98,2.76-20.87,3.39-4.35.4-8.69.6-12.98.6Z"/>
          </g>
          <path class="cls-2" d="m48.56,26.78c0-.73-.59-1.32-1.32-1.32s-1.32.59-1.32,1.32.59,1.32,1.32,1.32,1.32-.59,1.32-1.32Z"/>
          <path class="cls-2" d="m76.02,26.78c0-.73-.59-1.32-1.32-1.32s-1.32.59-1.32,1.32.59,1.32,1.32,1.32,1.32-.59,1.32-1.32Z"/>
          <path class="cls-2" d="m52.69,26.86c0-.73-.59-1.32-1.32-1.32s-1.32.59-1.32,1.32.59,1.32,1.32,1.32,1.32-.59,1.32-1.32Z"/>
          <circle class="cls-2" cx="56.51" cy="26.85" r="1.55"/>
          <circle class="cls-2" cx="52.72" cy="38.96" r="2.05"/>
          <path class="cls-2" d="m45.63,37.49c0-1.13-.92-2.05-2.05-2.05s-2.05.92-2.05,2.05.92,2.05,2.05,2.05,2.05-.92,2.05-2.05Z"/>
          <path class="cls-2" d="m40.01,35.6c0-1.13-.92-2.05-2.05-2.05s-2.05.92-2.05,2.05.92,2.05,2.05,2.05,2.05-.92,2.05-2.05Z"/>
          <path class="cls-2" d="m11.28,75.58c0-1.13-.92-2.05-2.05-2.05s-2.05.92-2.05,2.05.92,2.05,2.05,2.05,2.05-.92,2.05-2.05Z"/>
          <path class="cls-2" d="m69.69,39.09c0-1.13-.92-2.05-2.05-2.05s-2.05.92-2.05,2.05.92,2.05,2.05,2.05,2.05-.92,2.05-2.05Z"/>
          <circle class="cls-2" cx="74.29" cy="59.62" r="2.05"/>
          <circle class="cls-2" cx="74.97" cy="86.02" r="2.05"/>
          <path class="cls-2" d="m71.14,105.44c0-1.13-.92-2.05-2.05-2.05s-2.05.92-2.05,2.05.92,2.05,2.05,2.05,2.05-.92,2.05-2.05Z"/>
          <path class="cls-2" d="m53.85,105.44c0-1.13-.92-2.05-2.05-2.05s-2.05.92-2.05,2.05.92,2.05,2.05,2.05,2.05-.92,2.05-2.05Z"/>
          <circle class="cls-2" cx="37.07" cy="102.97" r="2.05"/>
          <path class="cls-2" d="m21.83,96.15c0-1.13-.92-2.05-2.05-2.05s-2.05.92-2.05,2.05.92,2.05,2.05,2.05,2.05-.92,2.05-2.05Z"/>
          <circle class="cls-2" cx="60.24" cy="114.63" r="2.05"/>
          <path class="cls-2" d="m48.57,60.13c0-1.13-.92-2.05-2.05-2.05s-2.05.92-2.05,2.05.92,2.05,2.05,2.05,2.05-.92,2.05-2.05Z"/>
          <path class="cls-2" d="m47.72,85.68c0-1.13-.92-2.05-2.05-2.05s-2.05.92-2.05,2.05.92,2.05,2.05,2.05,2.05-.92,2.05-2.05Z"/>
          <path class="cls-2" d="m30.24,56.29c0-1.13-.92-2.05-2.05-2.05s-2.05.92-2.05,2.05.92,2.05,2.05,2.05,2.05-.92,2.05-2.05Z"/>
          <path class="cls-2" d="m27.17,81.67c0-1.13-.92-2.05-2.05-2.05s-2.05.92-2.05,2.05.92,2.05,2.05,2.05,2.05-.92,2.05-2.05Z"/>
          <path class="cls-2" d="m20.02,52.4c0-1.13-.92-2.05-2.05-2.05s-2.05.92-2.05,2.05.92,2.05,2.05,2.05,2.05-.92,2.05-2.05Z"/>
          <path class="cls-2" d="m94.65,56.29c0-1.13-.92-2.05-2.05-2.05s-2.05.92-2.05,2.05.92,2.05,2.05,2.05,2.05-.92,2.05-2.05Z"/>
          <path class="cls-2" d="m97.29,82.7c0-1.13-.92-2.05-2.05-2.05s-2.05.92-2.05,2.05.92,2.05,2.05,2.05,2.05-.92,2.05-2.05Z"/>
          <circle class="cls-2" cx="102.82" cy="52.61" r="2.05"/>
          <circle class="cls-2" cx="110.65" cy="78.59" r="2.05"/>
          <circle class="cls-2" cx="100.7" cy="97.3" r="2.05"/>
          <path class="cls-2" d="m86.66,102.51c0-1.13-.92-2.05-2.05-2.05s-2.05.92-2.05,2.05.92,2.05,2.05,2.05,2.05-.92,2.05-2.05Z"/>
          <path class="cls-2" d="m78.98,37.45c0-1.13-.92-2.05-2.05-2.05s-2.05.92-2.05,2.05.92,2.05,2.05,2.05,2.05-.92,2.05-2.05Z"/>
          <circle class="cls-2" cx="83.04" cy="35.39" r="2.05"/>
          <circle class="cls-2" cx="70.52" cy="26.85" r="1.55"/>
          <circle class="cls-2" cx="64.31" cy="26.85" r="1.55"/>
          <path class="cls-2" d="m47.41,27.44c-.12,0-.25-.04-.36-.12-.25-.2-.3-.56-.1-.81l15.25-15.96c.12-.15.29-.23.49-.22.19.01.36.11.46.27l12.05,15.87c.17.27.08.63-.19.8-.27.17-.63.08-.8-.19l-11.61-15.17-14.74,15.31c-.11.15-.28.22-.46.22Z"/>
          <path class="cls-2" d="m51.41,27.44c-.1,0-.2-.02-.29-.08-.28-.16-.37-.51-.21-.79l11.24-15.96c.11-.19.32-.3.54-.29.22.02.41.15.5.36l7.86,15.87c.12.3-.02.63-.32.75-.3.12-.63-.02-.75-.32l-7.41-14.78-10.65,14.93c-.11.19-.3.29-.5.29Z"/>
          <path class="cls-2" d="m56.65,27.44c-.06,0-.11,0-.17-.03-.3-.09-.48-.42-.38-.72l6-15.96c.08-.26.34-.44.61-.4.27.03.49.25.52.52l1.85,15.87c.03.32-.2.6-.52.63-.31.03-.6-.2-.63-.52l-1.58-12.99-5.15,13.19c-.08.25-.3.41-.55.41Z"/>
          <circle class="cls-2" cx="62.59" cy="11.57" r="4.41"/>
        </g>
        <g>
          <polygon class="cls-3" points="17.71 68.63 15.98 70.12 18.13 73.28 21.11 71.37 17.71 68.63"/>
          <polygon class="cls-4" points="34.89 75.25 38.17 74.23 37.93 76.26 36.26 77.4 34.89 75.25"/>
          <polygon class="cls-6" points="40.55 67.61 41.21 69.94 42.58 68.09 42.05 66.9 40.55 67.61"/>
          <polygon class="cls-3" points="14.61 84.61 17.35 87.24 19.26 84.49 17.47 83.54 14.61 84.61"/>
          <polygon class="cls-6" points="13.24 80.68 14.25 81.69 16.52 81.21 15.68 80.44 13.24 80.68"/>
          <polygon class="cls-4" points="43.72 99.05 43.78 101.79 45.68 101.97 45.74 99.17 43.72 99.05"/>
          <polygon class="cls-6" points="43.84 93.56 44.19 95.59 44.97 94.81 45.33 92.43 43.84 93.56"/>
          <polygon class="cls-6" points="50.63 73.58 51.89 75.9 53.14 73.94 52.54 72.68 50.63 73.58"/>
          <polygon class="cls-4" points="67.87 90.58 68.59 93.8 70.26 92.25 71.21 89.98 67.87 90.58"/>
          <path class="cls-4" d="m75.63,95.83l-.36,2.86s.72-.12,1.19-.24.95-2.86.95-2.86l-1.79.24Z"/>
          <path class="cls-6" d="m77.89,90.1l.68,1.39s1.59-1.71,1.55-1.83-.91-1.83-.91-1.83l-1.31,2.27Z"/>
          <polygon class="cls-3" points="74.75 101.87 76.62 101.08 77.69 101.95 75.98 103.1 74.75 101.87"/>
          <polygon class="cls-3" points="102.9 87.83 101.47 91.25 103.54 90.3 105.77 87.83 105.21 87.2 102.9 87.83"/>
          <polygon class="cls-6" points="103.94 68.27 103.7 71.37 105.45 71.37 105.37 68.99 103.94 68.27"/>
          <polygon class="cls-6" points="88.99 74.63 91.21 73.84 92.8 75.82 92.25 77.18 88.99 74.63"/>
          <polygon class="cls-6" points="85.41 70.44 86.47 70.06 87.23 71.01 86.97 71.65 85.41 70.44"/>
          <polygon class="cls-4" points="100.28 76.06 103.86 75.27 104.42 76.3 101.87 78.21 100.28 76.06"/>
          <polygon class="cls-3" points="74.83 45.68 76.02 48.23 77.85 47.43 76.82 44.89 74.83 45.68"/>
          <polygon class="cls-4" points="84.45 41.15 86.28 43.85 88.11 43.38 86.76 41.31 84.45 41.15"/>
          <polygon class="cls-3" points="70.26 32.66 69.57 35.29 71.24 36.24 72.38 35.23 70.26 32.66"/>
          <polygon class="cls-6" points="75.57 41.01 77.24 40.53 78.55 41.97 77.54 42.62 75.57 41.01"/>
          <polygon class="cls-6" points="45.21 42.62 47.06 41.25 48.25 41.73 48.19 43.7 46.34 43.81 45.21 42.62"/>
          <polygon class="cls-4" points="49.5 32.42 49.2 34.69 50.28 34.69 51.83 33.14 49.5 32.42"/>
        </g>
      </g>
    </g>
  </g>
</svg>