<?xml version="1.0" encoding="UTF-8"?>
<svg id="Capa_2" data-name="Capa 2" xmlns="http://www.w3.org/2000/svg" viewBox="0 0 357.39 291.82">
  <defs>
    <style>
      .cls-1 {
        fill: #fff;
      }
    </style>
  </defs>
  <g id="Capa_1-2" data-name="Capa 1">
    <g>
      <path class="cls-1" d="m0,58.72c.56-2.7,1.05-5.42,1.7-8.1C8.84,21.32,33.98.75,64.16.23c24.41-.42,48.83-.14,73.25-.1,5.33,0,8.2,2.8,8.4,8.13.16,4.17.26,8.38-.05,12.54-.49,6.61-2.72,8.52-9.34,8.53-23.14.01-46.28.32-69.41-.09-19.77-.35-33.38,14.01-36.48,26.8-.87,3.58-1.26,7.36-1.26,11.04-.08,52.56.17,105.13-.17,157.69-.13,19.79,14.13,33.61,27.13,36.59,3.81.88,7.83,1.16,11.75,1.18,21.97.11,43.95.05,65.93.06,1.51,0,3.03-.01,4.53.17,3.71.47,7.16,1.57,7.31,7.04.13,4.87.29,9.77-.1,14.62-.43,5.37-2.87,7.36-8.24,7.36-24.07.03-48.14-.07-72.2.02-35.1.14-61.92-28.62-64.6-57.04-.05-.54-.39-1.05-.6-1.58,0-58.16,0-116.32,0-174.48Z"/>
      <path class="cls-1" d="m204.18,87.57c0-1.75,0-3.12,0-4.49,0-19.89-.05-39.77.02-59.66.04-10.38,7.31-17.31,16.75-15.61,2.99.54,6.22,2.29,8.39,4.44,41.14,40.92,82.15,81.96,123.13,123.04,6.56,6.57,6.54,14.76-.02,21.33-40.98,41.07-82.02,82.09-123.05,123.12-4.55,4.55-9.98,6.06-15.96,3.62-6.36-2.59-9.29-7.69-9.28-14.57.04-20,.01-40,0-60,0-1.37,0-2.73,0-4.46h-4.56c-31.74,0-63.48-.01-95.22.01-4.56,0-8.74-.81-12.21-4.09-3.36-3.18-4.74-7.1-4.74-11.59-.02-28.49-.09-56.98.04-85.47.04-9.89,6.3-15.61,16.6-15.62,31.86-.03,63.71-.01,95.57-.01,1.37,0,2.74,0,4.53,0Z"/>
    </g>
  </g>
</svg>