<?xml version="1.0" encoding="UTF-8"?>
<svg id="Capa_2" data-name="Capa 2" xmlns="http://www.w3.org/2000/svg" viewBox="0 0 457.65 57.15">
  <defs>
    <style>
      .cls-1, .cls-2, .cls-3, .cls-4 {
        fill: #fff;
      }

      .cls-2 {
        fill-rule: evenodd;
      }

      .cls-5 {
        letter-spacing: 0em;
      }

      .cls-6 {
        letter-spacing: 0em;
      }

      .cls-7 {
        letter-spacing: -.01em;
      }

      .cls-3 {
        font-size: 8.99px;
      }

      .cls-3, .cls-4 {
        font-family: CocoSharpTrial-Regular, 'CocoSharp Trial';
      }

      .cls-8 {
        letter-spacing: -.05em;
      }

      .cls-9 {
        letter-spacing: -.02em;
      }

      .cls-4 {
        font-size: 8.62px;
      }

      .cls-10 {
        letter-spacing: 0em;
      }

      .cls-11 {
        letter-spacing: 0em;
      }

      .cls-12 {
        letter-spacing: -.05em;
      }
    </style>
  </defs>
  <g id="Capa_1-2" data-name="Capa 1">
    <g>
      <g>
        <path class="cls-2" d="m35.44,56.99h-11v-6.19C24.44,22.75,47.19,0,75.24,0v11c-21.98,0-39.8,17.83-39.8,39.8v6.19Zm15.36-6.19v6.19h-11v-6.19c0-19.54,15.89-35.4,35.44-35.4v11c-13.48,0-24.44,10.93-24.44,24.4Z"/>
        <path class="cls-2" d="m0,11V0C13.39,0,25.58,5.24,34.65,13.7c-2.49,2.72-4.7,5.69-6.61,8.87C20.85,15.44,10.93,11,0,11Zm21.48,28.13c-4.17-7.54-12.26-12.73-21.48-12.73v-11c10.18,0,19.39,4.33,25.86,11.21-1.94,3.93-3.42,8.12-4.38,12.52Z"/>
        <path class="cls-2" d="m89.35,9.64h-4.77v4.77h4.77v12.58c0,3.75.53,5.62,1.98,7.02,1.4,1.28,2.89,1.71,6.16,1.71h5.08v-4.76h-2.94c-1.87,0-2.89-.27-3.54-.96-.53-.59-.69-1.34-.69-3.75v-11.83h7.17v-4.77h-7.17V0h-6.05v9.63Z"/>
        <path class="cls-2" d="m174.32,9.64h-14.09c-3.96,0-5.89.59-7.34,2.25-1.28,1.39-1.93,3.32-1.93,5.41,0,3.48,1.87,6.59,4.55,7.44,1.29.43,2.52.54,5.78.54h3.11c2.89,0,3.48.11,4.13.59.53.48.8,1.23.8,2.25,0,1.82-.64,2.57-2.3,2.73-.91.11-1.6.11-3.15.11h-12.59v4.77h14.25c4.98,0,6.42-.38,7.82-1.98,1.34-1.45,2.08-3.75,2.08-6.1,0-3.42-1.5-5.95-4.01-6.75-1.45-.43-2.52-.53-5.41-.53h-3.86c-2.79,0-3.64-.16-4.28-.86-.43-.43-.65-1.13-.65-2.03,0-1.55.59-2.57,1.72-2.84.64-.16,1.28-.21,3.15-.21h12.21v-4.76Z"/>
        <path class="cls-2" d="m179.27,9.64v26.08h6.05V14.41h8.78v21.32h6.05V14.41h3.96c3.91,0,5.14,1.34,5.14,5.52v15.8h6.1v-16.33c0-3.75-.69-5.95-2.46-7.61-1.82-1.72-3.54-2.14-9.1-2.14h-24.53Z"/>
        <path class="cls-2" d="m140.96,19.87h-9.05c-4.29,0-6.27.49-7.82,1.94-1.5,1.5-2.36,3.69-2.36,6.1,0,3.59,1.93,6.48,4.88,7.28,1.66.48,2.35.54,6.37.54h14.08v-15.7c0-2.73-.11-3.75-.59-5.2-.26-.96-.74-1.81-1.39-2.57-1.39-1.66-3.32-2.41-6.37-2.57-.86,0-1.77-.05-2.79-.05h-6.56v4.76h5.92c3.05,0,4.18.38,4.98,1.5.54.85.69,1.71.69,3.37v.59Zm0,4.71v6.37h-8.46c-3.32,0-4.55-.86-4.55-3.11,0-1.39.64-2.52,1.71-2.89.7-.26,1.18-.38,2.84-.38h8.46Z"/>
        <path class="cls-2" d="m238.18,19.87h-9.05c-4.28,0-6.27.49-7.82,1.94-1.5,1.5-2.35,3.69-2.35,6.1,0,3.59,1.93,6.48,4.87,7.28,1.66.48,2.36.54,6.37.54h14.09v-15.7c0-2.73-.11-3.75-.59-5.2-.27-.96-.75-1.81-1.4-2.57-1.39-1.66-3.32-2.41-6.37-2.57-.85,0-1.77-.05-2.79-.05h-12.8v4.76h12.16c3.05,0,4.18.38,4.98,1.5.54.85.7,1.71.7,3.37v.59Zm0,4.71v6.37h-8.46c-3.32,0-4.55-.86-4.55-3.11,0-1.39.65-2.52,1.72-2.89.69-.26,1.18-.38,2.84-.38h8.46Z"/>
        <path class="cls-2" d="m278.89,9.64v26.08h6.05V9.64h-6.05Zm0-3.53h6.05V0h-6.05v6.1Z"/>
        <path class="cls-2" d="m249.57,9.64v33.36h6.05v-7.28h5.62c3.48,0,4.88-.21,6.64-.96,1.07-.43,1.98-1.07,2.79-1.82,2.3-2.25,3.69-6,3.69-10.12,0-4.55-1.28-8.14-3.8-10.44-2.3-2.08-4.44-2.73-9.43-2.73h-11.56Zm6.05,4.76h4.98c5.08,0,7.49,2.57,7.49,8.03,0,4.08-1.23,6.86-3.42,7.82-1.07.43-2.68.7-4.28.7h-4.77V14.4Z"/>
        <path class="cls-2" d="m125.54,9.64v4.93h-8.14c-3.59,0-4.66,1.07-4.66,4.82v16.33h-5.78v-16.82c0-4.02.54-5.89,2.09-7.23,1.71-1.55,3.69-2.03,8.03-2.03h8.46Z"/>
        <path class="cls-2" d="m84.58,56.94h1.6v-3.31h4.48v-1.19h-4.48v-1.92h4.74v-1.19h-6.34v7.62Z"/>
        <path class="cls-2" d="m93.62,53.85l1.32-3.21,1.3,3.21h-2.62Zm-3,3.09h1.73l.79-1.89h3.58l.8,1.89h1.78l-3.4-7.62h-1.9l-3.4,7.62Z"/>
        <path class="cls-2" d="m99.59,51.46c0,3.14,5.61,1.49,5.61,3.38,0,.83-.91,1.12-1.88,1.12-1.32,0-2.15-.48-2.19-1.49h-1.73c.02,1.6,1.12,2.68,3.87,2.68,1.62,0,3.66-.51,3.66-2.47,0-3.26-5.68-1.54-5.68-3.34,0-.72.71-1.04,1.78-1.04,1.33,0,1.86.64,1.92,1.22h1.73c-.2-2.2-2.55-2.42-3.73-2.42-1.86,0-3.36.66-3.36,2.36Z"/>
        <path class="cls-2" d="m109.99,56.94h1.6v-6.42h2.86v-1.19h-7.32v1.19h2.86v6.42Z"/>
        <path class="cls-2" d="m118.99,56.94h1.6v-3.31h4.48v-1.19h-4.48v-1.92h4.74v-1.19h-6.34v7.62Z"/>
        <path class="cls-2" d="m126.3,56.94h6.71v-1.19h-5.11v-2.12h4.82v-1.19h-4.82v-1.92h5.02v-1.19h-6.62v7.62Z"/>
        <path class="cls-2" d="m134.2,56.94h1.6v-3.01h2.72c1.17,0,1.32.77,1.32,1.86,0,.56.07.94.2,1.15h1.73c-.31-.41-.32-1.26-.32-1.63,0-1.08-.2-1.86-1.11-2.06v-.02c.72-.22,1.26-.84,1.26-1.84,0-1.19-.63-2.07-2.57-2.07h-4.83v7.62Zm1.6-4.21v-2.22h2.77c.84,0,1.37.31,1.37,1.1,0,.85-.48,1.12-1.37,1.12h-2.77Z"/>
        <path class="cls-2" d="m142.91,56.94h1.6v-3.01h2.72c1.17,0,1.32.77,1.32,1.86,0,.56.07.94.2,1.15h1.73c-.31-.41-.32-1.26-.32-1.63,0-1.08-.2-1.86-1.11-2.06v-.02c.72-.22,1.26-.84,1.26-1.84,0-1.19-.63-2.07-2.57-2.07h-4.82v7.62Zm1.6-4.21v-2.22h2.77c.85,0,1.37.31,1.37,1.1,0,.85-.48,1.12-1.37,1.12h-2.77Z"/>
        <path class="cls-2" d="m154.08,56.94h1.6v-2.9l3.33-4.72h-1.95l-2.18,3.39-2.17-3.39h-1.95l3.32,4.72v2.9Z"/>
        <rect class="cls-1" x="163.48" y="49.32" width="1.6" height="7.62"/>
        <path class="cls-2" d="m166.64,56.94h4.98c2.07,0,2.59-1.39,2.59-2.24,0-1.28-.79-1.71-1.39-1.89.4-.2,1.04-.51,1.04-1.59,0-.98-.45-1.9-2.19-1.9h-5.04v7.62Zm1.6-6.42h2.71c.93,0,1.31.3,1.31.93,0,.86-.59.97-1.03.97h-2.99v-1.9Zm0,3.03h3.11c.72,0,1.21.37,1.21,1.08,0,.98-.72,1.12-1.45,1.12h-2.87v-2.2Z"/>
        <rect class="cls-1" x="175.53" y="49.32" width="1.6" height="7.62"/>
        <path class="cls-2" d="m178.07,56.94h7.39v-1.26h-5.23l5.2-5.2v-1.16h-6.99v1.19h4.88l-5.25,5.26v1.16Z"/>
        <path class="cls-2" d="m188.52,53.85l1.32-3.21,1.3,3.21h-2.62Zm-3.01,3.09h1.73l.79-1.89h3.59l.79,1.89h1.78l-3.4-7.62h-1.9l-3.4,7.62Z"/>
        <path class="cls-2" d="m198.65,56.94h1.6v-3.31h4.49v-1.19h-4.49v-1.92h4.74v-1.19h-6.34v7.62Z"/>
        <path class="cls-2" d="m210.02,57.15c3.22,0,4.48-1.88,4.48-4.02s-1.26-4.02-4.48-4.02-4.49,1.88-4.49,4.02,1.26,4.02,4.49,4.02Zm0-1.19c-1.79,0-2.82-1.16-2.82-2.83s1.03-2.83,2.82-2.83,2.82,1.15,2.82,2.83-1.03,2.83-2.82,2.83Z"/>
        <path class="cls-2" d="m215.63,56.94h1.6v-3.01h2.72c1.18,0,1.32.77,1.32,1.86,0,.56.08.94.2,1.15h1.73c-.31-.41-.32-1.26-.32-1.63,0-1.08-.2-1.86-1.11-2.06v-.02c.72-.22,1.26-.84,1.26-1.84,0-1.19-.64-2.07-2.57-2.07h-4.83v7.62Zm1.6-4.21v-2.22h2.77c.85,0,1.37.31,1.37,1.1,0,.85-.48,1.12-1.37,1.12h-2.77Z"/>
        <path class="cls-2" d="m224.33,56.94h1.5l-.07-6.29h.02l2.8,6.29h1.37l2.82-6.29h.03l-.06,6.29h1.5v-7.62h-2.28l-2.65,5.91-2.67-5.91h-2.3v7.62Z"/>
        <path class="cls-2" d="m235.8,56.94h6.71v-1.19h-5.11v-2.12h4.82v-1.19h-4.82v-1.92h5.02v-1.19h-6.62v7.62Z"/>
        <path class="cls-2" d="m243.7,56.94h1.54v-5.72h.02l4.57,5.72h1.81v-7.62h-1.54v5.72h-.02l-4.53-5.72h-1.84v7.62Z"/>
        <path class="cls-2" d="m255.28,56.94h1.6v-6.42h2.86v-1.19h-7.32v1.19h2.86v6.42Z"/>
        <path class="cls-2" d="m260.52,56.94h6.71v-1.19h-5.1v-2.12h4.81v-1.19h-4.81v-1.92h5.01v-1.19h-6.62v7.62Z"/>
        <path class="cls-2" d="m268.43,56.94h1.6v-3.01h2.72c1.18,0,1.32.77,1.32,1.86,0,.56.08.94.2,1.15h1.73c-.31-.41-.32-1.26-.32-1.63,0-1.08-.2-1.86-1.11-2.06v-.02c.72-.22,1.26-.84,1.26-1.84,0-1.19-.63-2.07-2.57-2.07h-4.82v7.62Zm1.6-4.21v-2.22h2.77c.85,0,1.37.31,1.37,1.1,0,.85-.48,1.12-1.37,1.12h-2.77Z"/>
        <path class="cls-2" d="m279.26,53.85l1.32-3.21,1.3,3.21h-2.62Zm-3,3.09h1.73l.79-1.89h3.59l.79,1.89h1.78l-3.4-7.62h-1.9l-3.39,7.62Z"/>
      </g>
      <g>
        <text class="cls-3" transform="translate(409.99 29.8)"><tspan class="cls-7" x="0" y="0">f</tspan><tspan class="cls-6" x="2.62" y="0">ormen</tspan><tspan class="cls-7" x="30.19" y="0">t</tspan><tspan class="cls-6" x="32.85" y="0">e</tspan><tspan class="cls-8" x="37.93" y="0">r</tspan><tspan class="cls-10" x="41.12" y="0">a</tspan></text>
        <g>
          <path class="cls-1" d="m327.16,15.11c1.49.21,2.99.32,4.45.65,1.02.23,2.05.64,2.95,1.18,1.71,1.03,2.29,2.88,1.33,4.62-.66,1.2-1.58,2.31-2.59,3.25-2,1.88-4.39,3.2-6.89,4.33-.27.12-.55.24-.97.43.99.18,1.85.27,2.66.51,1.04.31,2.12.62,3.06,1.14,2.58,1.43,2.87,3.96.59,5.83-1.14.94-2.49,1.67-3.84,2.3-2.22,1.03-4.57,1.74-7.04,1.87-.55.03-1.14-.16-1.67-.36-.19-.07-.27-.45-.4-.68.22-.09.43-.23.65-.25,3.27-.4,6.39-1.3,9.28-2.87.9-.49,1.75-1.16,2.46-1.9,1.09-1.14.87-2.19-.59-2.82-1.06-.46-2.22-.74-3.36-.98-1.88-.4-3.77-.57-5.68-.11-.78.19-1.28.54-1.56,1.34-.81,2.3-1.71,4.56-2.55,6.85-.24.66-.38,1.37-.55,2.06-.15.62-.49.78-1.06.47-.72-.38-.87-.84-.56-1.63,2.71-6.79,5.42-13.58,8.14-20.37.15-.38.11-1.09.88-.86.58.17.99,1.04.81,1.63-.05.17-.14.32-.22.49-1.06,2.42-2.13,4.83-3.19,7.25-.09.2-.15.41-.29.79.82-.28,1.49-.48,2.15-.73,3.39-1.29,6.46-3.13,9.14-5.56.73-.66,1.38-1.44,1.89-2.27.76-1.24.42-2.16-.91-2.78-1.57-.74-3.27-.94-4.98-1.06-3.32-.23-6.57.12-9.69,1.31-.82.31-1.56.86-2.33,1.3.02.08.03.17.05.25-.23-.18-.5-.32-.7-.54-.57-.64-.51-1.09.23-1.53,2.53-1.49,5.31-2.14,8.21-2.41.38-.03.75-.1,1.13-.15.51,0,1.02,0,1.53,0Z"/>
          <path class="cls-1" d="m383.64,35.74c-.64.59-1.25,1.19-1.89,1.76-.88.77-1.86,1.37-3.04.79-1.24-.61-1.39-1.81-1.3-3.02.06-.75.23-1.5.39-2.43-.42.58-.71,1.05-1.06,1.47-1.11,1.32-2.16,2.71-3.38,3.92-1.47,1.44-2.92.97-3.51-1.02-.1-.33-.15-.68-.23-1.05-.74.77-1.43,1.54-2.17,2.27-.69.69-1.47,1.21-2.52.84-1.12-.39-1.72-1.22-1.88-2.37-.29-1.98.09-3.9.56-5.8.92-3.79,2.31-7.41,4.12-10.87.28-.54.59-1.08.99-1.53.55-.62,1.26-.98,2.12-.69.83.28,1.24.99,1.16,1.78-.11.96-.32,1.96-.72,2.84-1.43,3.11-3.39,5.9-5.51,8.58-.68.86-1.09,1.75-1.15,2.82-.05.99-.14,1.98-.11,2.96.04.94.55,1.18,1.31.65.52-.36,1.01-.78,1.44-1.24,1.73-1.83,3.41-3.7,4.5-6.02.44-.94,1.05-1.8,1.57-2.7.23-.4.47-.8,1-.48.49.3.74.77.55,1.37-.05.16-.2.29-.28.45-1.09,2.15-2.19,4.29-3.24,6.45-.21.44-.27.98-.29,1.48-.02.6.35.79.84.42.52-.4,1.03-.85,1.43-1.37,1.77-2.29,3.51-4.61,5.24-6.94.39-.53.73-.92,1.42-.49.73.45.9.99.55,1.71-.88,1.83-1.46,3.74-1.51,5.77,0,.34.22.68.33,1.03.34-.13.79-.17,1-.42,1.63-1.94,3.21-3.93,4.83-5.88.87-1.05,1.72-2.13,2.71-3.06.71-.66,1.68-.96,2.7-.79,1.24.21,1.95,1.26,1.46,2.41-.37.87-.89,1.75-1.57,2.39-1.49,1.41-3.08,2.73-4.71,3.98-.63.48-.54.95-.4,1.51.17.63.59,1.13,1.26.92.88-.27,1.86-.56,2.52-1.15,1.61-1.42,3.11-2.99,4.57-4.57.65-.7,1.11-1.58,1.67-2.36.13-.18.36-.29.54-.43.14.2.35.39.39.61.05.25,0,.57-.12.8-1.5,3.04-3.54,5.63-6.39,7.53-.42.28-.89.5-1.37.67-2.27.83-4.31-.38-4.71-2.76-.04-.27-.08-.54-.12-.76Zm-17.4-7.42c1.02-1.68,2.04-3.25,2.94-4.88.56-1.01.99-2.1,1.42-3.18.11-.29.02-.66.02-.99-.3.19-.6.37-.9.56-.04.03-.06.08-.09.12-1.52,2.54-2.55,5.28-3.47,8.08-.01.04.02.09.07.29Zm19.42,5.69c.09.07.18.15.27.22,1.27-1.31,2.56-2.6,3.8-3.93.37-.4.65-.91.91-1.4.1-.18.02-.45.02-.68-.21.03-.48,0-.64.1-2.06,1.44-3.44,3.4-4.36,5.68Z"/>
          <path class="cls-1" d="m358.17,27.45c.3-.17.59-.36.9-.52,1.78-.92,3.55-.02,3.72,1.98.06.76-.12,1.65-.48,2.33-1.66,3.13-4.04,5.66-6.98,7.63-1.47.98-3.06.11-3.04-1.67,0-.89.21-1.84.56-2.65,1.08-2.49,2.24-4.95,3.46-7.37,1.46-2.9,3.03-5.75,4.53-8.63.28-.54.65-.46.82-.04.2.51.4,1.18.23,1.63-.48,1.25-1.12,2.44-1.76,3.62-.65,1.22-1.36,2.4-2.05,3.6.03.03.07.06.1.08Zm-1.57,3.22c-.1-.06-.2-.12-.3-.18-.81,1.97-1.64,3.92-2.42,5.9-.17.43-.15.93-.22,1.4.09.05.18.09.27.14.41-.27.86-.5,1.23-.82,2.29-2.01,4.16-4.38,5.74-6.98.23-.38.41-.82.51-1.26.16-.68-.12-.93-.78-.72-1.21.38-2.26,1.02-3.14,1.95-.23.25-.6.38-.9.56Z"/>
          <path class="cls-1" d="m336.16,33.9c-.11,1.23-.31,2.25-.27,3.27.05,1.2.84,1.69,1.95,1.23.81-.34,1.59-.81,2.27-1.37,2.4-1.96,4.42-4.27,6.07-6.9.12-.2.4-.3.6-.45.14.25.34.49.4.76.04.19-.07.45-.18.64-1.5,2.91-3.46,5.45-6.18,7.33-.76.52-1.65.92-2.54,1.17-2.02.55-3.72-.64-3.92-2.71-.08-.82-.05-1.69.15-2.49.73-2.89,2.31-5.28,4.62-7.18.71-.58,1.5-.94,2.46-.83,1.36.16,2,1.1,1.51,2.37-.26.68-.59,1.38-1.07,1.91-1.07,1.19-2.2,2.32-3.39,3.38-.88.78-1.27.72-2.48-.14Zm.63-.55c2.02-1.37,3.68-3.08,4.99-5.12.13-.21.1-.51.15-.77-.27.07-.61.05-.81.21-1.95,1.5-3.21,3.54-4.33,5.68Z"/>
        </g>
        <text class="cls-4" transform="translate(410.16 38.56)"><tspan class="cls-9" x="0" y="0">c</tspan><tspan class="cls-11" x="4.34" y="0">a</tspan><tspan class="cls-12" x="9.69" y="0">r</tspan><tspan class="cls-5" x="12.75" y="0">e p</tspan><tspan class="cls-12" x="25.05" y="0">r</tspan><tspan class="cls-5" x="28.11" y="0">oject</tspan></text>
        <rect class="cls-1" x="402.78" y="15.16" width=".96" height="30.49"/>
      </g>
    </g>
  </g>
</svg>