<?xml version="1.0" encoding="UTF-8"?>
<svg xmlns="http://www.w3.org/2000/svg" viewBox="0 0 572.54 587.41">
  <defs>
    <style>
      .cls-1 {
        fill: #0e4c5b;
      }

      .cls-2 {
        fill: #c4e6f6;
      }

      .cls-3 {
        isolation: isolate;
      }

      .cls-4 {
        fill: #0f5970;
      }

      .cls-5 {
        fill: #d1ebf4;
      }

      .cls-6 {
        mix-blend-mode: multiply;
        opacity: .64;
      }

      .cls-7 {
        fill: #8bcdef;
      }
    </style>
  </defs>
  <g class="cls-3">
    <g id="Capa_2" data-name="Capa 2">
      <g id="Capa_1-2" data-name="Capa 1">
        <g class="cls-6">
          <g>
            <g>
              <g>
                <path class="cls-2" d="m257.58,439.75c-1.57-10.32-8.02-15.55-8.02-15.55,12.73-13.95-1.94-30.52-13.04-39.96-5.45-4.63-8.81-11.26-9.29-18.4l-.32-4.74-27.14,1.85.32,4.74c.49,7.14-1.94,14.16-6.72,19.49-9.72,10.86-22.01,29.26-7.5,41.36,0,0-5.68,6.05-5.84,16.49-.13,8.05,4.38,68.93,6.46,96.48.67,8.94,7.11,16.34,15.84,18.35,6.65,1.52,15.14,2.67,24.61,2.14,9.46-.75,17.71-3.04,24.09-5.45,8.38-3.17,13.75-11.38,13.21-20.32-1.67-27.58-5.46-88.51-6.67-96.47Z"/>
                <path class="cls-7" d="m180.93,438.66l74.91-5.1c-2.47-6.18-6.27-9.35-6.27-9.35,3.28-3.6,4.72-7.37,4.89-11.15l-74.93,5.1c.68,3.72,2.61,7.27,6.36,10.39,0,0-3.34,3.66-4.95,10.12Z"/>
                <path class="cls-5" d="m204.57,559.71c-8.74-2-15.17-9.41-15.84-18.35-2.08-27.55-6.59-88.43-6.46-96.48.15-10.44,5.84-16.49,5.84-16.49-14.5-12.1-2.22-30.5,7.5-41.36,4.77-5.33,7.2-12.35,6.71-19.49l-.32-4.74-2.23.15.32,4.74c.49,7.14-1.94,14.16-6.72,19.49-9.72,10.86-22.01,29.26-7.5,41.36,0,0-5.68,6.05-5.84,16.49-.13,8.05,4.38,68.93,6.46,96.48.67,8.94,7.11,16.34,15.84,18.35,6.65,1.52,15.14,2.67,24.61,2.14.38-.03.73-.1,1.11-.13-9.01.38-17.11-.69-23.49-2.16Z"/>
                <path class="cls-7" d="m227.65,368.3c-.13-.82-.36-1.62-.42-2.45l-.32-4.74-27.14,1.85.32,4.74c.06.84-.06,1.66-.08,2.49l27.63-1.88Z"/>
                <rect class="cls-7" x="193.44" y="342.77" width="38.5" height="19.51" rx=".81" ry=".81" transform="translate(-23.46 15.26) rotate(-3.9)"/>
                <path class="cls-7" d="m257.58,439.75c-1.57-10.32-8.02-15.55-8.02-15.55,12.73-13.95-1.94-30.52-13.04-39.96-5.45-4.63-8.81-11.26-9.29-18.4l-.32-4.74-13.02.89c-1.72,5.09-3.2,16,7.69,30.01,15.22,19.57,18.97,28.71,11.58,31.91,0,0,12.54,111.94,6.14,136.16,4.37-1,8.34-2.23,11.75-3.52,8.38-3.17,13.75-11.38,13.21-20.32-1.67-27.58-5.46-88.51-6.67-96.47Z"/>
              </g>
              <g>
                <path class="cls-2" d="m419.75,153.3c3.9-9.69,1-17.46,1-17.46,18.06-5.54,13.86-27.26,9.1-41.04-2.34-6.76-1.86-14.17,1.35-20.57l2.13-4.25-24.3-12.21-2.13,4.25c-3.21,6.39-8.87,11.2-15.69,13.36-13.89,4.4-33.83,14-27.5,31.8,0,0-7.97,2.32-13.41,11.23-4.2,6.87-31.29,61.58-43.51,86.36-3.96,8.04-2.19,17.69,4.31,23.85,4.95,4.69,11.67,10,20.1,14.36,8.53,4.16,16.8,6.39,23.52,7.56,8.83,1.54,17.63-2.8,21.71-10.78,12.58-24.6,40.32-78.98,43.32-86.45Z"/>
                <path class="cls-7" d="m354.31,113.37l67.09,33.71c1.02-6.57-.64-11.24-.64-11.24,4.66-1.43,7.81-3.95,9.88-7.12l-67.11-33.72c-1.31,3.55-1.45,7.59.19,12.18,0,0-4.74,1.45-9.4,6.2Z"/>
                <path class="cls-5" d="m313.1,229.62c-6.5-6.17-8.27-15.82-4.31-23.85,12.22-24.78,39.3-79.49,43.51-86.36,5.44-8.91,13.41-11.23,13.41-11.23-6.33-17.79,13.6-27.39,27.5-31.8,6.82-2.16,12.48-6.97,15.69-13.36l2.13-4.25-2-1-2.13,4.25c-3.21,6.39-8.87,11.2-15.69,13.36-13.89,4.4-33.83,14-27.5,31.8,0,0-7.97,2.32-13.41,11.23-4.2,6.87-31.29,61.58-43.51,86.36-3.96,8.04-2.19,17.69,4.31,23.85,4.95,4.69,11.67,10,20.1,14.36.34.17.68.29,1.02.45-7.95-4.25-14.38-9.3-19.13-13.8Z"/>
                <path class="cls-7" d="m430.32,76.55c.3-.77.51-1.58.89-2.32l2.13-4.25-24.3-12.21-2.13,4.25c-.38.75-.89,1.4-1.33,2.1l24.75,12.44Z"/>
                <rect class="cls-7" x="406.22" y="45.61" width="38.5" height="19.51" rx=".81" ry=".81" transform="translate(70.15 -185.12) rotate(26.68)"/>
                <path class="cls-7" d="m419.75,153.3c3.9-9.69,1-17.46,1-17.46,18.06-5.54,13.86-27.26,9.1-41.04-2.34-6.76-1.86-14.17,1.35-20.57l2.13-4.25-11.66-5.86c-4.07,3.51-10.9,12.15-8.64,29.75,3.15,24.59,1.73,34.37-6.26,33.36,0,0-46.13,102.76-63.96,120.35,4.27,1.36,8.32,2.32,11.91,2.95,8.83,1.54,17.63-2.8,21.71-10.78,12.58-24.6,40.32-78.98,43.32-86.45Z"/>
              </g>
              <g>
                <g>
                  <path class="cls-2" d="m231.5,90.01s-37.27,59.03-122.01,74.78l61.5,100.33c52.49-68.36,122.01-74.78,122.01-74.78l-61.5-100.33Z"/>
                  <rect class="cls-7" x="206.51" y="134.62" width="117.68" height="7.29" transform="translate(244.57 -160.23) rotate(58.49)"/>
                  <rect class="cls-7" x="78.29" y="213.22" width="117.68" height="7.29" transform="translate(250.36 -13.39) rotate(58.49)"/>
                </g>
                <path class="cls-7" d="m293,190.34l-12.76-20.82c-12.97,1.14-32.6,5.38-53.42,19.15-36.27,23.98-59.39-19.02-51.81,11.73,7.58,30.76,3.4,43.24-15,25.28-5.08-4.95-9.78-4.49-13.93-1.2l24.91,40.64c52.49-68.36,122.01-74.78,122.01-74.78Z"/>
                <path class="cls-7" d="m138.53,166.01c-12.73,11.95,43.25-11.01,73.07-41.76,10.52-10.85,19.71-19.86,24.84-26.19l-4.94-8.05s-37.27,59.03-122.01,74.78l2.41,3.94c16.78-2.64,35.87-11.39,26.62-2.71Z"/>
              </g>
              <g>
                <path class="cls-2" d="m410.93,283.62c-3.14-24.22,6.98-78.43-10.23-79.59-17.21-1.16-28.47,59.81-28.47,59.81,0,0-50.01,3.69-69.62-.99,0,0-2.23-59.1-16.32-61.28-14.09-2.18-18.77,38.54-18.56,58.98.4,38.69-19.98,129.07,11.68,154.08,0,0,90.08,20.55,132.2-.92,0,0,7.39-67.75-.69-130.1Zm-132.65-19.1s1.79-56.39,5.8-53.83c4.01,2.56,5.88,52.19,5.88,52.19-3.84,1.95-11.69,1.65-11.69,1.65Zm118.25.81s-10.64-2.61-18.11-.97c0,0,13.89-54.89,21.9-54.14,8.01.75-3.8,55.11-3.8,55.11Z"/>
                <path class="cls-7" d="m386.67,311.04c-22.12,20.41-37.94,24.32-11.56,20.92,26.38-3.4,61.35,29.31,5.5,50.09-55.84,20.78-75.04,23.01-24.1,23.8,50.93.79,36.27,12.82-28.04,7.38-57.46-4.86-56.18-92.99-61.44-135.55-3.25,43.6-15.22,115.13,12.4,136.95,0,0,90.08,20.55,132.2-.92,0,0,7.39-67.75-.69-130.1-.28-2.15-.45-4.53-.55-7.09-4.85,10.74-12.52,24.17-23.72,34.51Z"/>
                <path class="cls-7" d="m270.57,321.57s68.51-9.89,60.34-3.02c-8.17,6.87-8.56,3.45-31.03,9.07-35.64,8.92-46.11-1.33-29.31-6.05Z"/>
                <path class="cls-5" d="m297.31,345.68s56.77-6.96,81.52-.26c24.75,6.7,3.07,12.13-12.5,14.53-15.57,2.39-50.42,4.91-28.36,9.3,22.05,4.39,28.31,10.58-3.08,14.17-31.39,3.59-39.18,4.69-27.35-1.18,11.83-5.87,40.21-9.35,9.77-12.62-30.44-3.27-35.12-4.9-19.09-11.13,16.03-6.23-11.79-9.19-.88-12.82Z"/>
                <path class="cls-7" d="m279.32,275.78s10.88-5.56,36.65-4.95c25.77.61,68.27,3.76,77.32,2.23,9.05-1.53,25.99,6.55-10.44,6.73-36.43.19-60.77-4.44-71.04-3.66-10.27.78-42.17,5.55-32.49-.36Z"/>
                <path class="cls-5" d="m387.46,294.56c-.13-3.49-22.82-3.84-50.74-2.79-27.93,1.05-50.52,3.11-50.39,6.6.13,3.49,22.88,5.47,50.8,4.41,27.93-1.05,50.46-4.74,50.33-8.23Z"/>
              </g>
              <g>
                <path class="cls-2" d="m173.47,355.33c12-17.02,49.63-45.24,39.48-55.9-10.14-10.66-52.38,21.15-52.38,21.15,0,0-33.55-26.53-43.16-40.78,0,0,32.69-38.41,25.1-47.91-7.59-9.5-34.03,13.38-45.68,26.35-22.06,24.54-87.01,69.55-81.54,103.53,0,0,44.74,64.87,83.57,75.68,0,0,43.72-38.3,74.61-82.12Zm-72.31-88.51s33.65-34.39,34.7-30.47c1.04,3.92-26.41,36.18-26.41,36.18-3.54-.99-8.29-5.71-8.29-5.71Zm73.82,68.73s-5.18-7.78-10.81-11.06c0,0,40.39-26.47,44.99-21.37,4.6,5.09-34.18,32.43-34.18,32.43Z"/>
                <path class="cls-7" d="m142.41,358.56c-25.67.06-37.86-6.61-19.33,6.47,18.53,13.08,21.63,53.8-25.44,34.64-47.07-19.16-60.41-28.83-28.87,1.05,31.54,29.88,15.39,28.97-21.87-11.53-33.3-36.2,18.35-90.83,39.59-120.59-27.19,25.52-75.98,63.55-71.21,93.18,0,0,44.74,64.87,83.57,75.68,0,0,43.72-38.3,74.61-82.12,1.06-1.51,2.33-3.11,3.74-4.77-9.24,3.95-21.81,7.97-34.81,8Z"/>
                <path class="cls-7" d="m63.4,298.21s48.74,33.3,39.65,32.91c-9.09-.39-7.37-2.77-24.73-12.2-27.53-14.96-28.2-27.43-14.92-20.71Z"/>
                <path class="cls-5" d="m66.29,328.77s39.67,28.37,51.36,46.86c11.68,18.48-5.07,9.39-16.24,1.91s-34.51-26-23.18-10.52c11.32,15.48,11.68,22.98-10.11,7.13-21.79-15.85-27.32-19.66-16.5-16.52,10.81,3.14,30.65,17.32,13.41-2.29-17.24-19.62-19.24-23.34-5.58-18,13.66,5.34-2.1-12.58,6.84-8.56Z"/>
                <path class="cls-7" d="m95.31,274.48s10.04,2.78,25.88,18.03c15.84,15.25,40.72,41.75,47.29,46.01,6.57,4.26,12.55,19.11-10.44-1.79-23-20.9-35.61-37.85-42.52-43.28-6.9-5.43-29.7-20.84-20.21-18.97Z"/>
                <path class="cls-5" d="m152.41,348.67c1.93-2.27-12.12-15.58-30.27-31.02-18.15-15.45-33.53-27.19-35.46-24.92-1.93,2.27,11.22,16.63,29.37,32.08,18.15,15.45,34.43,26.13,36.36,23.86Z"/>
              </g>
              <g>
                <g>
                  <path class="cls-7" d="m474.46,505.91c2.65-2.42-11.54-22.24-31.69-44.27-20.15-22.03-38.63-37.92-41.28-35.5-2.65,2.42,11.54,22.24,31.69,44.27,20.15,22.03,38.63,37.92,41.28,35.5Z"/>
                  <path class="cls-2" d="m474.3,506.02l-105.85,73.05c-10.9-6.09-20.66-13.86-28.98-22.95-8.32-9.09-15.19-19.5-20.28-30.9l82.17-98.93c-2,2.99,12.03,22.49,31.81,44.12,19.78,21.62,37.96,37.34,41.11,35.61Z"/>
                  <path class="cls-7" d="m451.22,488.96c-6.22,6.4-28.88,28.73-43.99,30.68-17.66,2.28-30.12-2.87-12.54,12.54,12.19,10.7-21.74,26.32-43.52,35.03,5.37,4.44,11.14,8.43,17.29,11.86l105.85-73.05c-2.15,1.18-11.25-5.73-23.08-17.07Z"/>
                  <path class="cls-7" d="m401.37,426.29l-82.17,98.93c1.22,2.72,2.54,5.38,3.95,7.99,7.99-12.38,22.6-34.17,24.58-31.07,2.74,4.3,3.19,3.49,11.61-11.82,6.83-12.43,34.67-44.59,44.89-56.25-2.44-4.03-3.52-6.81-2.86-7.79Z"/>
                </g>
                <path class="cls-5" d="m404.68,446.46s-38.77,46.75-33.22,53.31c15.85,18.74,57.97,4.66,61.26-12.78,1.1-5.85-28.03-40.53-28.03-40.53Z"/>
              </g>
              <g>
                <g>
                  <path class="cls-7" d="m533.5,278.88c-.4-3.57-24.77-3.79-54.44-.49-29.67,3.29-53.4,8.86-53,12.42.4,3.57,24.77,3.79,54.44.49,29.67-3.29,53.4-8.86,53-12.42Z"/>
                  <path class="cls-2" d="m533.5,279.08l-3.37,128.56c-11.34,5.22-23.37,8.52-35.62,9.88-12.25,1.36-24.71.77-36.92-1.83l-31.49-124.69c1.24,3.38,25.27,3.54,54.39.3,29.13-3.23,52.54-8.65,53-12.23Z"/>
                  <path class="cls-7" d="m506.11,287.67c1.51,8.8,6.19,40.26-1.14,53.62-8.57,15.61-20.07,22.63,2.74,17.53,15.83-3.55,8.45,33.08,2.65,55.8,6.75-1.72,13.38-4.03,19.77-6.98l3.37-128.56c-.32,2.43-11.26,5.72-27.39,8.59Z"/>
                  <path class="cls-7" d="m426.11,291.01l31.49,124.69c2.92.62,5.85,1.12,8.78,1.51-5.29-13.75-14.28-38.4-10.61-38.16,5.09.33,4.7-.52-2.71-16.34-6.01-12.84-15.59-54.28-18.98-69.42-4.7-.41-7.57-1.17-7.98-2.28Z"/>
                </g>
                <path class="cls-5" d="m444.35,300.22s14.92,58.87,23.48,58.26c24.49-1.76,37.93-44.08,25.78-57.02-4.08-4.34-49.26-1.24-49.26-1.24Z"/>
              </g>
            </g>
            <g>
              <g>
                <path class="cls-1" d="m185.36,559.77c-3.7-1.84-5.95-3.15-6.68-3.59-6.08-2.56-106.42-46.64-162.28-189.41-23.47-59.99-21.71-116.62,5.11-163.79,29.36-51.65,87.07-89.14,154.38-100.27,136.25-22.54,158.48-33.79,159.61-38.48l.04-5.37,4.8,2.45,146.24,72.89-4.27,3.26c-3.27,2.91,1.16,35.17,60.18,147.97h0c31.63,60.45,36.44,129.09,12.87,183.63-21.52,49.8-65.68,85.31-127.71,102.68-79.1,22.15-142.54,16.75-181.82,8.32-29.9-6.41-50.47-15.33-60.46-20.31ZM340.5,68.89c-6.53,8.13-36.59,19.43-163.53,40.44-65.33,10.81-121.28,47.06-149.65,96.97C1.54,251.65-.08,306.3,22.63,364.34c56.28,143.83,157.78,185.33,158.79,185.74l.27.11.25.15c.93.58,95.37,56.57,243.91,14.97,60.02-16.81,102.68-51,123.37-98.89,22.77-52.7,18.04-119.2-12.66-177.87h0c-31.35-59.92-65.77-132.24-60.77-152.23l-135.28-67.43Z"/>
                <path class="cls-1" d="m173.37,553.83c-18.28-9.11-74.9-45.77-97.99-158.12-15.89-77.33,9.64-136.6,33.86-172.71,28.85-43.02,73.27-78.11,118.83-93.86,109.36-37.8,126.65-50.93,127.22-55.39l.6-4.67,108.78,54.22-3.37,3.29c-3.8,3.71-2.69,36.3,28.65,133.09h0c14.85,45.86,13.58,102.45-3.41,151.39-14.26,41.08-46.22,97.15-117.53,131.01-118.6,56.32-184.46,17.83-190.34,14.13-.82-.31-2.67-1.05-5.32-2.37ZM360.16,78.69c-6.37,8.72-32.85,23.23-129.91,56.78-78.12,27.01-175.79,125.18-148.32,258.89,13.76,66.98,40.07,105.74,59.72,126.47,21.24,22.41,39.48,29.14,39.66,29.2l.37.14.34.22c.64.44,66.06,41.71,184.13-14.37,123.3-58.56,142.9-195.65,117.43-274.29-14.11-43.57-35.5-115.91-29.14-136.05l-94.29-46.99Z"/>
                <path class="cls-1" d="m180.6,557.4c-.85-.42-1.49-.83-1.94-1.15-2.75-.84-10.49-4.45-16.45-18.62-8.79-20.9-9.84-54.99-3.12-101.32,16.6-114.44,93.34-226.37,142.53-269.3,51.68-45.11,79.21-71.99,81.81-79.91l1.21-3.68,49.11,24.48-2.21,3.18c-4.14,5.95-10.84,39.02-16.11,112.66-4.67,65.12-47.84,193.79-129.22,275.93-32.95,33.26-60.8,52.94-82.78,58.51-12.03,3.05-19.26,1.01-22.83-.77Zm1.12-7.29l.73.61c.2.14,24.77,19.16,99-55.78,80.18-80.93,122.71-207.6,127.3-271.7h0c2.04-28.5,7.46-93.46,15.51-112.61l-36.12-18c-5,8.31-22.07,27.01-82.11,79.41-48.42,42.25-123.96,152.47-140.31,265.21-15.14,104.39,14.83,112.58,15.14,112.65l.86.2Z"/>
                <path class="cls-1" d="m374.83,167.68c-14.29-7.12-28.04-14.95-41.14-23.41-15.16-9.77-29.67-20.56-43.11-32.07l-.32-.27c-7.83-6.7-15.35-13.7-22.38-20.79l4.76-4.71c6.8,6.87,14.08,13.65,21.66,20.14l.34.28c13.3,11.41,27.66,22.1,42.68,31.78,24.43,15.79,51.17,29.31,79.48,40.18,16.82,6.46,34.43,12.06,52.33,16.67,10.18,2.64,20.71,5.01,31.32,7.04l-1.26,6.58c-10.75-2.06-21.43-4.46-31.74-7.13-18.15-4.67-36-10.36-53.06-16.91-13.57-5.21-26.79-11.02-39.57-17.39Z"/>
                <path class="cls-1" d="m195.19,510.37c-13.35-6.65-26.31-13.84-38.8-21.54-24.67-15.16-48.09-32.64-69.61-51.94-29.52-26.52-55.3-56.26-76.64-88.39l2.77-1.84,1.49-3.02.82.41.5.74c21.03,31.66,46.44,60.97,75.53,87.11,21.21,19.04,44.31,36.27,68.64,51.23,27.74,17.08,57.79,31.65,89.35,43.31,26.67,9.88,54.99,17.87,84.18,23.74l.46.1c32.43,6.53,66.82,10.61,102.2,12.13l-.14,3.3,1.09,3.21-.59.2-.65-.02c-35.89-1.55-70.77-5.7-103.67-12.35l-.45-.1c-29.37-5.93-57.89-13.98-84.75-23.93-17.75-6.57-35.05-14.04-51.73-22.35Z"/>
                <path class="cls-1" d="m311.19,271.7c-22.22-11.07-43.64-23.17-64.16-36.24-30.41-19.37-59.04-41.02-85.1-64.35-16.33-14.61-31.76-29.96-45.85-45.62l4.98-4.48c13.93,15.48,29.18,30.66,45.34,45.11,25.79,23.09,54.13,44.52,84.24,63.69,44.67,28.46,93.73,52.29,145.82,70.84,32.3,11.49,66.36,21.15,101.22,28.72,21.04,4.52,42.41,8.33,63.49,11.32l-.94,6.63c-21.24-3.01-42.76-6.85-63.97-11.41-35.15-7.63-69.48-17.37-102.05-28.96-28.65-10.2-56.4-21.99-83.01-35.26Z"/>
                <path class="cls-1" d="m258.41,415.31c-28.02-13.97-54.91-29.4-80.44-46.18-35.4-23.23-68.45-49.24-98.25-77.28-24.23-22.77-46.14-46.64-65.12-70.94l5.28-4.12c18.77,24.03,40.45,47.65,64.43,70.19,29.51,27.78,62.26,53.54,97.34,76.56,45.45,29.87,95.27,55.45,148.08,76.02,37.11,14.42,76.2,26.56,116.17,36.09,29.38,7.02,59.99,12.81,90.98,17.21l-.94,6.63c-31.19-4.43-62.01-10.26-91.6-17.33-40.26-9.6-79.64-21.83-117.04-36.36-23.59-9.19-46.6-19.37-68.89-30.48Z"/>
              </g>
              <path class="cls-1" d="m345.97,68.19c1.89-3.78.35-8.38-3.44-10.26-3.78-1.89-8.38-.35-10.26,3.44-1.89,3.78-.35,8.38,3.44,10.26s8.38.35,10.26-3.43Z"/>
              <path class="cls-1" d="m488.46,139.22c1.89-3.78.35-8.38-3.43-10.26-3.78-1.89-8.38-.35-10.26,3.44-1.89,3.78-.35,8.38,3.44,10.26,3.78,1.89,8.38.35,10.26-3.43Z"/>
              <path class="cls-1" d="m367.18,79.32c1.89-3.78.35-8.38-3.43-10.26-3.78-1.89-8.38-.35-10.26,3.44s-.35,8.38,3.44,10.26c3.78,1.89,8.38.35,10.26-3.44Z"/>
              <circle class="cls-1" cx="387.07" cy="89.11" r="8.96" transform="translate(134.65 395.79) rotate(-63.51)"/>
              <circle class="cls-1" cx="336.07" cy="142.17" r="11.86"/>
              <path class="cls-1" d="m303.09,116.22c2.92-5.86.54-12.98-5.32-15.9-5.86-2.92-12.98-.54-15.9,5.32-2.92,5.86-.54,12.98,5.32,15.9,5.86,2.92,12.98.54,15.9-5.32Z"/>
              <path class="cls-1" d="m278.81,91.85c2.92-5.86.54-12.98-5.32-15.9-5.86-2.92-12.98-.54-15.9,5.32s-.54,12.98,5.32,15.9c5.86,2.92,12.98.54,15.9-5.32Z"/>
              <path class="cls-1" d="m26.38,224.97c2.92-5.86.54-12.98-5.32-15.9-5.86-2.92-12.98-.54-15.9,5.32-2.92,5.86-.54,12.98,5.32,15.9,5.86,2.92,12.98.54,15.9-5.32Z"/>
              <path class="cls-1" d="m423.79,186.71c2.92-5.86.54-12.98-5.32-15.9-5.86-2.92-12.98-.54-15.9,5.32-2.92,5.86-.54,12.98,5.32,15.9,5.86,2.92,12.98.54,15.9-5.32Z"/>
              <circle class="cls-1" cx="394.57" cy="305.08" r="11.86"/>
              <circle class="cls-1" cx="329.84" cy="443.81" r="11.86" transform="translate(-214.51 541.04) rotate(-63.51)"/>
              <path class="cls-1" d="m259.75,534.65c2.92-5.86.54-12.98-5.32-15.9-5.86-2.92-12.98-.54-15.9,5.32-2.92,5.86-.54,12.98,5.32,15.9,5.86,2.92,12.98.54,15.9-5.32Z"/>
              <path class="cls-1" d="m170.06,489.94c2.92-5.86.54-12.98-5.32-15.9-5.86-2.92-12.98-.54-15.9,5.32-2.92,5.86-.54,12.98,5.32,15.9,5.86,2.92,12.98.54,15.9-5.32Z"/>
              <circle class="cls-1" cx="89.39" cy="433.74" r="11.86" transform="translate(-338.68 320.26) rotate(-63.51)"/>
              <path class="cls-1" d="m27.93,358.98c2.92-5.86.54-12.98-5.32-15.9-5.86-2.92-12.98-.54-15.9,5.32s-.54,12.98,5.32,15.9c5.86,2.92,12.98.54,15.9-5.32Z"/>
              <circle class="cls-1" cx="179.4" cy="554.17" r="11.86" transform="translate(-396.6 467.53) rotate(-63.51)"/>
              <path class="cls-1" d="m259.82,241.23c2.92-5.86.54-12.98-5.32-15.9-5.86-2.92-12.98-.54-15.9,5.32-2.92,5.86-.54,12.98,5.32,15.9,5.86,2.92,12.98.54,15.9-5.32Z"/>
              <path class="cls-1" d="m189.34,371.58c2.92-5.86.54-12.98-5.32-15.9-5.86-2.92-12.98-.54-15.9,5.32-2.92,5.86-.54,12.98,5.32,15.9,5.86,2.92,12.98.54,15.9-5.32Z"/>
              <path class="cls-1" d="m174.63,173.94c2.92-5.86.54-12.98-5.32-15.9-5.86-2.92-12.98-.54-15.9,5.32-2.92,5.86-.54,12.98,5.32,15.9,5.86,2.92,12.98.54,15.9-5.32Z"/>
              <path class="cls-1" d="m93.09,297.68c2.92-5.86.54-12.98-5.32-15.9-5.86-2.92-12.98-.54-15.9,5.32-2.92,5.86-.54,12.98,5.32,15.9,5.86,2.92,12.98.54,15.9-5.32Z"/>
              <path class="cls-1" d="m131.68,127.3c2.92-5.86.54-12.98-5.32-15.9-5.86-2.92-12.98-.54-15.9,5.32s-.54,12.98,5.32,15.9c5.86,2.92,12.98.54,15.9-5.32Z"/>
              <path class="cls-1" d="m508.77,340.49c2.92-5.86.54-12.98-5.32-15.9-5.86-2.92-12.98-.54-15.9,5.32-2.92,5.86-.54,12.98,5.32,15.9,5.86,2.92,12.98.54,15.9-5.32Z"/>
              <path class="cls-1" d="m454.19,484.28c2.92-5.86.54-12.98-5.32-15.9s-12.98-.54-15.9,5.32c-2.92,5.86-.54,12.98,5.32,15.9,5.86,2.92,12.98.54,15.9-5.32Z"/>
              <circle class="cls-1" cx="560.68" cy="342.51" r="11.86"/>
              <circle class="cls-1" cx="534.16" cy="497.53" r="11.86"/>
              <circle class="cls-1" cx="434.14" cy="568.87" r="11.86" transform="translate(-268.65 703.66) rotate(-63.51)"/>
              <path class="cls-1" d="m347.81,559.59c2.92-5.86.54-12.98-5.32-15.9s-12.98-.54-15.9,5.32c-2.92,5.86-.54,12.98,5.32,15.9s12.98.54,15.9-5.32Z"/>
              <path class="cls-1" d="m476.21,202.2c2.92-5.86.54-12.98-5.32-15.9s-12.98-.54-15.9,5.32c-2.92,5.86-.54,12.98,5.32,15.9,5.86,2.92,12.98.54,15.9-5.32Z"/>
              <circle class="cls-1" cx="502.61" cy="202.03" r="11.86" transform="translate(97.59 561.74) rotate(-63.51)"/>
              <circle class="cls-1" cx="459.76" cy="125.34" r="8.96" transform="translate(142.49 480.91) rotate(-63.51)"/>
              <circle class="cls-1" cx="427.5" cy="109.26" r="8.96"/>
              <path class="cls-1" d="m338.29,68.66c-.64-.32-1.19-.85-1.53-1.55-.8-1.67-.09-3.67,1.58-4.46l120.35-43.37c.99-.47,2.1-.43,3.09.11.95.54,1.58,1.51,1.68,2.6l21.48,113.51c.17,1.84-1.18,3.47-3.02,3.64-1.84.17-3.47-1.18-3.64-3.02l-21.03-108.73-116.02,41.31c-.97.46-2.05.42-2.94-.03Z"/>
              <path class="cls-1" d="m359.05,79.01c-.51-.25-.96-.64-1.29-1.14-1.02-1.54-.6-3.62.94-4.64l99.59-53.72c1.07-.71,2.45-.73,3.55-.1,1.1.65,1.74,1.87,1.64,3.15l-.28,102.66c-.14,1.84-1.76,3.22-3.6,3.08-1.85-.14-3.22-1.76-3.08-3.6l-.25-95.82-93.86,49.93c-1.03.69-2.31.72-3.35.21Z"/>
              <path class="cls-1" d="m386.23,92.55c-.29-.15-.57-.34-.82-.57-1.34-1.27-1.39-3.39-.12-4.73l72.41-67.26c1.1-1.16,2.88-1.4,4.21-.52,1.35.85,1.91,2.54,1.34,4.03l-31.43,87.14c-.66,1.73-2.6,2.59-4.33,1.92-1.71-.66-2.58-2.6-1.92-4.33l25.41-71.47-60.84,55.11c-1.04,1.09-2.64,1.33-3.92.69Z"/>
              <circle class="cls-1" cx="458.1" cy="25.55" r="25.55"/>
            </g>
            <g>
              <polygon class="cls-2" points="77.73 205.53 64.9 208.8 67.87 230.75 88.28 228.56 77.73 205.53"/>
              <polygon class="cls-4" points="149.73 284.3 169.37 287.52 162.89 297.42 151.29 298.99 149.73 284.3"/>
              <polygon class="cls-7" points="198.87 259.34 196.26 273.11 208.15 267.06 208.45 259.49 198.87 259.34"/>
              <polygon class="cls-2" points="20.31 280.44 27.76 301.15 44.75 291.85 37.94 282.28 20.31 280.44"/>
              <polygon class="cls-7" points="23.37 256.47 26.01 264.35 39 267.74 36.67 261.56 23.37 256.47"/>
              <polygon class="cls-4" points="133.99 430.59 127.2 444.98 136.64 450.84 144.2 436.45 133.99 430.59"/>
              <polygon class="cls-7" points="148.8 402.43 145.41 413.87 151.44 411.86 159.46 400.41 148.8 402.43"/>
              <polygon class="cls-7" points="235.74 316.35 236.22 331.66 247.81 324.68 247.95 316.64 235.74 316.35"/>
              <polygon class="cls-4" points="281.21 449.11 276.59 467.67 289.27 463.94 300.08 454.65 281.21 449.11"/>
              <path class="cls-4" d="m307.86,496.39l-9.26,13.93s4.02,1.23,6.81,1.85c2.78.61,12.35-12.39,12.35-12.39l-9.9-3.39Z"/>
              <path class="cls-7" d="m334.43,472.55l-.09,8.97s12.67-4.76,12.78-5.48-.01-11.85-.01-11.85l-12.67,8.37Z"/>
              <polygon class="cls-2" points="287.7 525.48 299.45 526.19 302.76 533.51 290.9 535.07 287.7 525.48"/>
              <polygon class="cls-2" points="470.04 525.46 453.78 539.5 466.97 539.9 484.9 532.86 483.65 528.12 470.04 525.46"/>
              <polygon class="cls-7" points="525.99 426.64 516.74 442.11 525.81 446.64 531.57 434.05 525.99 426.64"/>
              <polygon class="cls-7" points="431.98 420.99 445.59 422.62 448.7 437.05 442.31 442.62 431.98 420.99"/>
              <polygon class="cls-7" points="424.29 389.99 430.77 390.77 432.25 397.64 429.21 400.29 424.29 389.99"/>
              <polygon class="cls-4" points="486.86 457.61 507.49 462.74 507.7 469.54 489.56 472.87 486.86 457.61"/>
              <polygon class="cls-2" points="433.39 234.2 433 250.49 444.55 251.1 445.76 235.22 433.39 234.2"/>
              <polygon class="cls-4" points="495.04 235.57 497.53 254.33 508.26 256.58 506.59 242.36 495.04 235.57"/>
              <polygon class="cls-2" points="443.34 154.82 433 166.66 439.19 175.93 447.69 173.6 443.34 154.82"/>
              <polygon class="cls-7" points="449.29 211.87 459.19 213.71 462.29 224.53 455.34 225.31 449.29 211.87"/>
              <polygon class="cls-7" points="287.62 141.72 300.76 139.38 305.72 144.94 300.32 155 290.42 150.84 287.62 141.72"/>
              <polygon class="cls-4" points="336.28 99.91 328.87 110.9 334.44 113.68 346.49 109.64 336.28 99.91"/>
            </g>
          </g>
        </g>
      </g>
    </g>
  </g>
</svg>