<?xml version="1.0" encoding="UTF-8"?>
<svg id="Capa_2" data-name="Capa 2" xmlns="http://www.w3.org/2000/svg" viewBox="0 0 98.54 112.79">
  <defs>
    <style>
      .cls-1 {
        fill: #c4e6f6;
      }

      .cls-2 {
        fill: #d1ebf4;
      }

      .cls-3 {
        fill: #8bcdef;
      }
    </style>
  </defs>
  <g id="Capa_1-2" data-name="Capa 1">
    <g>
      <path class="cls-1" d="m71.34,31.19C65.03,21.78,58.01-2.82,50.62.27c-7.39,3.08.56,30.72.56,30.72,0,0-20,11.88-29.11,13.99,0,0-13.15-24.07-19.45-22.06-6.3,2.01.18,19.88,4.5,28.33,8.17,15.98,18.41,57.72,36.73,61.55,0,0,41.65-10.11,54.69-27.73,0,0-10.95-29.65-27.2-53.87ZM12.32,50.71S1.39,26.93,3.59,27.16c2.2.23,13.24,20.45,13.24,20.45-1.19,1.61-4.51,3.1-4.51,3.1Zm49.26-24.13s-4.96,1.12-7.72,3.34c0,0-5.59-25.66-2.11-27.01,3.48-1.35,9.83,23.67,9.83,23.67Z"/>
      <path class="cls-3" d="m66.94,47.59c-4.96,13.05-10.72,17.95-.47,11.08,10.25-6.87,31.53-.52,12.65,19.66-18.88,20.18-26.39,25.08-5.08,14.87,21.31-10.21,17.71-2.18-10.11,8.87-24.86,9.87-42.57-26.98-53.55-43.56,7.67,18.77,17.5,50.95,33.48,54.29,0,0,41.65-10.11,54.69-27.73,0,0-10.95-29.65-27.2-53.87-.56-.83-1.12-1.79-1.69-2.83.21,5.46-.19,12.63-2.71,19.23Z"/>
      <path class="cls-3" d="m20.92,75.98s26.39-18.28,24.43-13.74c-1.97,4.54-2.84,3.2-11,10.19-12.95,11.08-19.42,8.99-13.42,3.55Z"/>
      <path class="cls-2" d="m37.01,80.46s22.13-14.63,33.79-16.98c11.66-2.34,3.78,4.4-2.19,8.62-5.97,4.22-19.91,12.47-9.85,9.73,10.06-2.74,13.94-1.47,1.65,6.52-12.29,7.99-15.3,10.05-11.6,5.17,3.7-4.88,14.76-12.2,1.44-7.26-13.32,4.94-15.6,5.23-10.23-.67,5.37-5.9-6.8-1.38-3.02-5.14Z"/>
      <path class="cls-3" d="m15.08,55.16s3.37-4.56,14.19-9.64c10.82-5.08,29.12-12.56,32.56-15.07,3.44-2.51,12.15-2.66-2.94,4.95-15.09,7.62-26.15,10.73-30.25,13.18-4.1,2.45-16.36,11.03-13.56,6.57Z"/>
      <path class="cls-2" d="m63.86,40.59c-.78-1.42-10.27,3.13-21.64,9.34-11.38,6.22-20.33,11.74-19.55,13.17.78,1.42,10.63-2.46,22-8.68,11.38-6.22,19.97-12.41,19.19-13.83Z"/>
    </g>
  </g>
</svg>