<?xml version="1.0" encoding="UTF-8"?>
<svg id="Capa_2" data-name="Capa 2" xmlns="http://www.w3.org/2000/svg" viewBox="0 0 102.73 133.04">
  <defs>
    <style>
      .cls-1 {
        fill: #c4e6f6;
      }

      .cls-2 {
        fill: #d1ebf4;
      }

      .cls-3 {
        fill: #8bcdef;
      }
    </style>
  </defs>
  <g id="Capa_1-2" data-name="Capa 1">
    <g>
      <g>
        <path class="cls-3" d="m102.73,6.17C102.73,2.76,79.73,0,51.37,0,23,0,0,2.77,0,6.18c0,3.41,23,6.17,51.37,6.17,28.37,0,51.37-2.77,51.37-6.18Z"/>
        <path class="cls-1" d="m102.71,6.36l-16.66,121.08c-11.26,3.74-22.97,5.6-34.68,5.6-11.71,0-23.42-1.86-34.68-5.6L.02,6.36c.81,3.32,23.49,5.99,51.34,5.99,27.85,0,50.53-2.67,51.34-5.99Z"/>
        <path class="cls-3" d="m75.94,11.6c.5,8.47,1.63,38.68-6.7,50.53-9.73,13.85-21.33,19.27.75,16.84,15.32-1.69,4.51,32.13-3.35,52.99,6.56-.92,13.06-2.41,19.41-4.52L102.71,6.36c-.55,2.26-11.23,4.22-26.77,5.24Z"/>
        <path class="cls-3" d="m.02,6.36l16.67,121.08c2.69.89,5.4,1.67,8.14,2.35-3.56-13.55-9.46-37.77-6.02-37.16,4.77.84,4.49,0-.84-15.72C13.63,64.15,8.93,24,7.32,9.35,2.93,8.47.29,7.45.02,6.36Z"/>
      </g>
      <path class="cls-2" d="m16.28,16.98s7.92,57.17,16.07,57.49c23.31.91,40.45-37.66,30.33-51.15-3.39-4.53-46.4-6.34-46.4-6.34Z"/>
    </g>
  </g>
</svg>