<?xml version="1.0" encoding="UTF-8"?>
<svg xmlns="http://www.w3.org/2000/svg" xmlns:xlink="http://www.w3.org/1999/xlink" viewBox="0 0 594.44 617.77">
  <defs>
    <style>
      .cls-1 {
        stroke-width: .27px;
      }

      .cls-1, .cls-2, .cls-3, .cls-4, .cls-5, .cls-6, .cls-7, .cls-8, .cls-9, .cls-10, .cls-11, .cls-12, .cls-13, .cls-14, .cls-15, .cls-16, .cls-17, .cls-18, .cls-19, .cls-20, .cls-21, .cls-22, .cls-23, .cls-24, .cls-25, .cls-26, .cls-27, .cls-28, .cls-29, .cls-30, .cls-31, .cls-32, .cls-33, .cls-34, .cls-35, .cls-36, .cls-37 {
        stroke: #231f20;
      }

      .cls-1, .cls-2, .cls-4, .cls-5, .cls-6, .cls-7, .cls-8, .cls-9, .cls-10, .cls-11, .cls-12, .cls-13, .cls-14, .cls-15, .cls-16, .cls-17, .cls-18, .cls-19, .cls-20, .cls-21, .cls-22, .cls-23, .cls-24, .cls-25, .cls-26, .cls-27, .cls-28, .cls-30, .cls-31, .cls-32, .cls-33, .cls-34, .cls-35, .cls-36, .cls-37 {
        stroke-linecap: round;
      }

      .cls-1, .cls-3, .cls-29 {
        stroke-linejoin: round;
      }

      .cls-1, .cls-20, .cls-28, .cls-32 {
        fill: #89603b;
      }

      .cls-2 {
        fill: url(#Degradado_sin_nombre_10-12);
      }

      .cls-2, .cls-5, .cls-6, .cls-7, .cls-9, .cls-11, .cls-12, .cls-13, .cls-15, .cls-17, .cls-19, .cls-23, .cls-24, .cls-25, .cls-28, .cls-31, .cls-33, .cls-34, .cls-35 {
        stroke-width: .09px;
      }

      .cls-3 {
        stroke-width: .12px;
      }

      .cls-3, .cls-29 {
        fill: none;
      }

      .cls-4 {
        fill: url(#Degradado_sin_nombre_10-9);
      }

      .cls-4, .cls-18, .cls-20, .cls-21, .cls-22, .cls-27, .cls-36 {
        stroke-width: .05px;
      }

      .cls-38 {
        isolation: isolate;
      }

      .cls-5 {
        fill: url(#Degradado_sin_nombre_10-27);
      }

      .cls-6 {
        fill: url(#Degradado_sin_nombre_10-17);
      }

      .cls-7 {
        fill: url(#Degradado_sin_nombre_10-3);
      }

      .cls-8 {
        fill: url(#Degradado_sin_nombre_10-24);
      }

      .cls-8, .cls-10, .cls-14, .cls-26, .cls-30, .cls-32, .cls-37 {
        stroke-width: .06px;
      }

      .cls-9 {
        fill: url(#Degradado_sin_nombre_10-2);
      }

      .cls-10 {
        fill: url(#Degradado_sin_nombre_10-14);
      }

      .cls-11 {
        fill: url(#Degradado_sin_nombre_10-22);
      }

      .cls-12 {
        fill: url(#Degradado_sin_nombre_10);
      }

      .cls-13 {
        fill: url(#Degradado_sin_nombre_10-18);
      }

      .cls-14 {
        fill: url(#Degradado_sin_nombre_10-4);
      }

      .cls-15 {
        fill: url(#Degradado_sin_nombre_10-23);
      }

      .cls-16 {
        fill: #231f20;
        stroke-width: .07px;
      }

      .cls-17 {
        fill: url(#Degradado_sin_nombre_10-16);
      }

      .cls-18 {
        fill: url(#Degradado_sin_nombre_10-20);
      }

      .cls-19 {
        fill: url(#Degradado_sin_nombre_10-6);
      }

      .cls-21 {
        fill: url(#Degradado_sin_nombre_10-19);
      }

      .cls-22 {
        fill: url(#Degradado_sin_nombre_10-29);
      }

      .cls-23 {
        fill: url(#Degradado_sin_nombre_10-21);
      }

      .cls-24 {
        fill: url(#Degradado_sin_nombre_10-11);
      }

      .cls-25 {
        fill: url(#Degradado_sin_nombre_10-28);
      }

      .cls-26 {
        fill: url(#Degradado_sin_nombre_10-5);
      }

      .cls-27 {
        fill: url(#Degradado_sin_nombre_10-10);
      }

      .cls-29 {
        stroke-width: .37px;
      }

      .cls-30 {
        fill: url(#Degradado_sin_nombre_10-15);
      }

      .cls-31 {
        fill: url(#Degradado_sin_nombre_10-26);
      }

      .cls-33 {
        fill: url(#Degradado_sin_nombre_10-13);
      }

      .cls-34 {
        fill: url(#Degradado_sin_nombre_10-8);
      }

      .cls-35 {
        fill: url(#Degradado_sin_nombre_10-7);
      }

      .cls-36 {
        fill: url(#Degradado_sin_nombre_10-30);
      }

      .cls-37 {
        fill: url(#Degradado_sin_nombre_10-25);
      }

      .cls-39 {
        mix-blend-mode: multiply;
        opacity: .46;
      }
    </style>
    <linearGradient id="Degradado_sin_nombre_10" data-name="Degradado sin nombre 10" x1="-1279.79" y1="328.66" x2="-1278.52" y2="322.2" gradientTransform="translate(25368.15 21121.82) scale(19.63 -64.03)" gradientUnits="userSpaceOnUse">
      <stop offset="0" stop-color="#e7e241"/>
      <stop offset="1" stop-color="#4c8969"/>
    </linearGradient>
    <linearGradient id="Degradado_sin_nombre_10-2" data-name="Degradado sin nombre 10" x1="-2373.07" y1="366.31" x2="-2369.34" y2="361.04" gradientTransform="translate(15982.35 28890.64) scale(6.65 -78.62)" xlink:href="#Degradado_sin_nombre_10"/>
    <linearGradient id="Degradado_sin_nombre_10-3" data-name="Degradado sin nombre 10" x1="-1984.13" y1="268.06" x2="-1981.31" y2="259.79" gradientTransform="translate(17460.86 13356.68) scale(8.69 -49.43)" xlink:href="#Degradado_sin_nombre_10"/>
    <linearGradient id="Degradado_sin_nombre_10-4" data-name="Degradado sin nombre 10" x1="-1075.15" y1="337.75" x2="-1075.65" y2="333.47" gradientTransform="translate(33489.97 23152.67) scale(30.85 -67.83)" xlink:href="#Degradado_sin_nombre_10"/>
    <linearGradient id="Degradado_sin_nombre_10-5" data-name="Degradado sin nombre 10" x1="-1153.49" y1="364.57" x2="-1154.09" y2="360.93" gradientTransform="translate(29462.36 28979.31) scale(25.29 -78.78)" xlink:href="#Degradado_sin_nombre_10"/>
    <linearGradient id="Degradado_sin_nombre_10-6" data-name="Degradado sin nombre 10" x1="-2135.03" y1="333.46" x2="-2153.88" y2="327.52" gradientTransform="translate(16712.07 21919.52) scale(7.63 -65.53)" xlink:href="#Degradado_sin_nombre_10"/>
    <linearGradient id="Degradado_sin_nombre_10-7" data-name="Degradado sin nombre 10" x1="-1097.03" y1="356.84" x2="-1102.06" y2="351.61" gradientTransform="translate(31939.4 26647.37) scale(28.69 -74.41)" xlink:href="#Degradado_sin_nombre_10"/>
    <linearGradient id="Degradado_sin_nombre_10-8" data-name="Degradado sin nombre 10" x1="-1505.69" y1="265.46" x2="-1516.04" y2="257.61" gradientTransform="translate(21121.62 13100.68) scale(13.73 -48.95)" xlink:href="#Degradado_sin_nombre_10"/>
    <linearGradient id="Degradado_sin_nombre_10-9" data-name="Degradado sin nombre 10" x1="-1071.04" y1="273.33" x2="-1072.37" y2="268.87" gradientTransform="translate(33564.58 14313.85) scale(30.93 -51.22)" xlink:href="#Degradado_sin_nombre_10"/>
    <linearGradient id="Degradado_sin_nombre_10-10" data-name="Degradado sin nombre 10" x1="-1112.19" y1="312.47" x2="-1113.65" y2="308.73" gradientTransform="translate(31231.19 19195.18) scale(27.71 -60.39)" xlink:href="#Degradado_sin_nombre_10"/>
    <linearGradient id="Degradado_sin_nombre_10-11" data-name="Degradado sin nombre 10" x1="-1276.65" y1="328.66" x2="-1275.39" y2="322.2" gradientTransform="translate(25379.79 21121.82) scale(19.63 -64.03)" xlink:href="#Degradado_sin_nombre_10"/>
    <linearGradient id="Degradado_sin_nombre_10-12" data-name="Degradado sin nombre 10" x1="-2363.81" y1="366.31" x2="-2360.08" y2="361.04" gradientTransform="translate(15993.99 28890.64) scale(6.65 -78.62)" xlink:href="#Degradado_sin_nombre_10"/>
    <linearGradient id="Degradado_sin_nombre_10-13" data-name="Degradado sin nombre 10" x1="-1977.04" y1="268.06" x2="-1974.23" y2="259.79" gradientTransform="translate(17472.5 13356.68) scale(8.69 -49.43)" xlink:href="#Degradado_sin_nombre_10"/>
    <linearGradient id="Degradado_sin_nombre_10-14" data-name="Degradado sin nombre 10" x1="-1073.15" y1="337.75" x2="-1073.65" y2="333.47" gradientTransform="translate(33501.61 23152.67) scale(30.85 -67.83)" xlink:href="#Degradado_sin_nombre_10"/>
    <linearGradient id="Degradado_sin_nombre_10-15" data-name="Degradado sin nombre 10" x1="-1151.05" y1="364.57" x2="-1151.66" y2="360.93" gradientTransform="translate(29474 28979.31) scale(25.29 -78.78)" xlink:href="#Degradado_sin_nombre_10"/>
    <linearGradient id="Degradado_sin_nombre_10-16" data-name="Degradado sin nombre 10" x1="-2126.96" y1="333.46" x2="-2145.81" y2="327.52" gradientTransform="translate(16723.71 21919.52) scale(7.63 -65.53)" xlink:href="#Degradado_sin_nombre_10"/>
    <linearGradient id="Degradado_sin_nombre_10-17" data-name="Degradado sin nombre 10" x1="-1094.89" y1="356.84" x2="-1099.91" y2="351.61" gradientTransform="translate(31951.04 26647.37) scale(28.69 -74.41)" xlink:href="#Degradado_sin_nombre_10"/>
    <linearGradient id="Degradado_sin_nombre_10-18" data-name="Degradado sin nombre 10" x1="-1501.21" y1="265.46" x2="-1511.56" y2="257.61" gradientTransform="translate(21133.26 13100.68) scale(13.73 -48.95)" xlink:href="#Degradado_sin_nombre_10"/>
    <linearGradient id="Degradado_sin_nombre_10-19" data-name="Degradado sin nombre 10" x1="-1069.05" y1="273.33" x2="-1070.38" y2="268.87" gradientTransform="translate(33576.22 14313.85) scale(30.93 -51.22)" xlink:href="#Degradado_sin_nombre_10"/>
    <linearGradient id="Degradado_sin_nombre_10-20" data-name="Degradado sin nombre 10" x1="-1109.97" y1="312.47" x2="-1111.43" y2="308.73" gradientTransform="translate(31242.83 19195.18) scale(27.71 -60.39)" xlink:href="#Degradado_sin_nombre_10"/>
    <linearGradient id="Degradado_sin_nombre_10-21" data-name="Degradado sin nombre 10" x1="-1411.2" y1="328.69" x2="-1409.93" y2="322.23" gradientTransform="translate(-27426.15 21121.48) rotate(-180) scale(19.63 64.03)" xlink:href="#Degradado_sin_nombre_10"/>
    <linearGradient id="Degradado_sin_nombre_10-22" data-name="Degradado sin nombre 10" x1="-2760.83" y1="366.33" x2="-2757.09" y2="361.06" gradientTransform="translate(-18040.36 28890.31) rotate(-180) scale(6.65 78.62)" xlink:href="#Degradado_sin_nombre_10"/>
    <linearGradient id="Degradado_sin_nombre_10-23" data-name="Degradado sin nombre 10" x1="-2280.8" y1="268.09" x2="-2277.99" y2="259.82" gradientTransform="translate(-19518.87 13356.34) rotate(-180) scale(8.69 49.43)" xlink:href="#Degradado_sin_nombre_10"/>
    <linearGradient id="Degradado_sin_nombre_10-24" data-name="Degradado sin nombre 10" x1="-1158.74" y1="337.77" x2="-1159.24" y2="333.5" gradientTransform="translate(-35547.97 23152.34) rotate(-180) scale(30.85 67.83)" xlink:href="#Degradado_sin_nombre_10"/>
    <linearGradient id="Degradado_sin_nombre_10-25" data-name="Degradado sin nombre 10" x1="-1255.49" y1="364.59" x2="-1256.09" y2="360.96" gradientTransform="translate(-31520.37 28978.98) rotate(-180) scale(25.29 78.78)" xlink:href="#Degradado_sin_nombre_10"/>
    <linearGradient id="Degradado_sin_nombre_10-26" data-name="Degradado sin nombre 10" x1="-2473.05" y1="333.48" x2="-2491.9" y2="327.55" gradientTransform="translate(-18770.08 21919.19) rotate(-180) scale(7.63 65.53)" xlink:href="#Degradado_sin_nombre_10"/>
    <linearGradient id="Degradado_sin_nombre_10-27" data-name="Degradado sin nombre 10" x1="-1186.94" y1="356.86" x2="-1191.96" y2="351.63" gradientTransform="translate(-33997.41 26647.04) rotate(-180) scale(28.69 74.41)" xlink:href="#Degradado_sin_nombre_10"/>
    <linearGradient id="Degradado_sin_nombre_10-28" data-name="Degradado sin nombre 10" x1="-1693.55" y1="265.49" x2="-1703.9" y2="257.65" gradientTransform="translate(-23179.62 13100.35) rotate(-180) scale(13.73 48.95)" xlink:href="#Degradado_sin_nombre_10"/>
    <linearGradient id="Degradado_sin_nombre_10-29" data-name="Degradado sin nombre 10" x1="-1154.42" y1="273.36" x2="-1155.75" y2="268.9" gradientTransform="translate(-35622.59 14313.51) rotate(-180) scale(30.93 51.22)" xlink:href="#Degradado_sin_nombre_10"/>
    <linearGradient id="Degradado_sin_nombre_10-30" data-name="Degradado sin nombre 10" x1="-1205.28" y1="312.5" x2="-1206.74" y2="308.76" gradientTransform="translate(-33289.2 19194.84) rotate(-180) scale(27.71 60.39)" xlink:href="#Degradado_sin_nombre_10"/>
  </defs>
  <g class="cls-38">
    <g id="Capa_2" data-name="Capa 2">
      <g id="Capa_1-2" data-name="Capa 1">
        <g class="cls-39">
          <g>
            <g>
              <g>
                <path class="cls-29" d="m191.59,564.42c1.23,2.14,4.92,1.84,6.15,4.59,6.13,2.48,5.22,13.51,6.43,19.33"/>
                <path class="cls-3" d="m258.24,547.47c.32,6.43-1.2,10.42-5.5,15.02-4.92,0-7.37-1.54-11.36-2.45-13.79-3.06-22.08,10.44-22.39,22.08"/>
                <path class="cls-29" d="m184.64,547.64c4.6,12.88,18.42,15.32,30.67,16.23,0,1.23,3.07,3.7,3.07,4.91m-51.54,5.27c3.35.31,19,3.99,19.32,1.85h3.36c6.46-10.75,20.26-9.84,25.15.91m58.63-17.67l-1.25.92c-6.43,11.04-13.79,2.13-22.99,1.54.31-1.22-.92-2.16-1.85-2.46,0-.94-2.14-3.69-1.84-5.83-1.24,0-4.59-1.54-4.3-4l-11.33-.92-.61,7.04"/>
              </g>
              <g>
                <path class="cls-1" d="m329.68,583.75s-6.3-25.19-7.88-22.82c-1.58,2.37-2.37,4.75-2.37,6.3-1.59,3.94-1.59,6.3-1.59,5.51,1.58-12.57-6.3-9.43-6.3-9.43l-3.95,10.24-21.26,1.59c-16.51.76-24.41-4.74-29.12-3.16-5.54,2.37-25.23,3.16-32.29,3.92-3.17,0-23.64,24.45-15.76,24.45l43.32-3.17v7.07h5.51l.79-7.85,13.39.78v8.67l6.3-1.6v-7.07l27.56-.78-8.65,13.39,4.74,1.58s5.5-10.24,6.28-6.32c1.6,4.75,0,9.47,0,9.47,0,0,2.37,3.17,4.74-.78,2.37-3.95,1.57-12.61,1.57-12.61l3.96,8.66s6.29,2.36,4.72,0c-2.37-6.31-3.94-14.98-3.94-15.76l10.24-10.24.02-.04Z"/>
                <path class="cls-1" d="m152.46,586.17s3.17,21.26,6.31,21.21c2.36,0,26.79-2.37,30.73-2.37,3.16,0,1.57,12.63,1.57,12.63l4.74-1.59.76-8.67,3.17,7.89s2.35,2.38,4.72-.78c1.59-2.37-4.72-11.04-2.37-11.04,3.16,0,7.88,7.88,7.88,7.88,0,0,3.94-3.95,3.16-5.51,0-1.59-6.31-7.09-6.31-7.09l3.94-7.07-2.34-10.26-10.27-3.15s-14.94,1.59-21.24,1.59c-6.32-.8-21.27,7.87-24.43,6.3v.02Z"/>
              </g>
              <g>
                <g>
                  <path class="cls-12" d="m223,489.89s-22.84-1.99-22.89-13.05c31.77-233.54,97.17-376.99,99.12-385.41,1.65-8.41,29.5-4.83,23.58,9.04-5.96,13.58-75.41,166.18-99.81,389.44h0Z"/>
                  <path class="cls-9" d="m209.04,487.37c-25.44-162.81-21.7-464.54-22.85-473.37-.81-8.55,25.57-19.66,24.35-3.92-.9,15.7,4.37,324.24,17.49,486.89,0,0-15.63.65-18.99-9.6Z"/>
                  <path class="cls-7" d="m225.52,506.33s-22.4,5.62-24.57-4.99c-16.16-162.16,25.48-286.74,25.57-295.34-.21-8.59,28.27-15.53,25.18-.29-3.09,15.24-31.15,79.13-26.2,300.63h0Z"/>
                  <path class="cls-28" d="m203.35,599s-31.04,38.67-11.33,3.71c19.99-35.29,8.53-104.44,5.59-112.55-3.25-8.09,22.34-17,31.74-13.88,9.69,2.79-26.02,122.73-26.02,122.73h0Z"/>
                </g>
                <g>
                  <path class="cls-14" d="m215.58,520.25c40.56-159.89,175.55-407.85,177.58-413.54,1.81-5.7,20.89-1.04,15.68,8.15-5.2,8.96-143.72,262.95-178.37,416.27,0,0-15.71-3.21-14.89-10.88Z"/>
                  <path class="cls-26" d="m230.97,542.79s-16.04,2.14-16.7-5.41c1.58-114.08,140.49-478.9,141.22-484.87.54-6.01,20.9-8.56,17.54,1.79-3.35,10.35-128.02,334.03-142.08,488.48h.02Z"/>
                  <path class="cls-32" d="m209.06,575.35s-25.57,27.87-9.09,5.1c16.7-22.97,14.25-45.23,12.84-51.12-1.64-5.89,16.87-10.06,23.16-7.15,6.53,2.72-26.91,53.16-26.91,53.16h0Z"/>
                </g>
                <path class="cls-16" d="m198.46,605.99c-2.17.43-1.73,3.04-3.47,6.08-1.75,3.04-3.49,1.32-5.66,2.18-2.17.86-1.29,2.6-1.29,2.6,0,0,2.61.43,5.65-.43,3.04-.87,3.9-4.79,5.21-8.26,1.31-3.47,2.6-.87,2.6-.87,0,0-.87-1.74-3.04-1.3Z"/>
              </g>
              <path class="cls-16" d="m313.03,599.09c-.61-1.08-1.87-1.61-3.07-1.31-2.18.45-1.73,3.06-3.47,6.1-1.75,3.04-3.47,1.28-5.65,2.16-2.18.88-1.32,2.61-1.32,2.61,0,0,2.63.42,5.67-.44,3.04-.87,3.92-4.8,5.21-8.26,1.29-3.46,2.6-.86,2.6-.86h.03Z"/>
              <g>
                <g>
                  <path class="cls-19" d="m324.33,476.15s22.42,4.72,25.68-5.83c37.38-232.72,16.43-388.99,17-397.6.86-8.52-26.84-13.2-25.18,1.79,1.75,14.71,23.93,180.92-17.5,401.65h0Z"/>
                  <path class="cls-35" d="m317.44,481.48s14.78,5.12,20.99-3.68C410,329.36,493.99,39.55,497.66,31.42c3.26-7.95-18.75-26.23-22.16-10.79-3.71,15.29-98.29,309.02-158.07,460.85h0Z"/>
                  <path class="cls-34" d="m317.14,491.16s19.81,11.89,24.95,2.36c62.52-150.48,58.84-281.81,61.23-290.07,2.7-8.15-22.52-23.08-24-7.58-1.48,15.5,6.85,84.78-62.21,295.29h.02Z"/>
                  <path class="cls-28" d="m311.47,586.3s18.49,46.01,9.75,6.81c-8.89-39.58,22.15-102.42,27.3-109.32,5.47-6.82-16.43-22.76-26.34-22.5-10.08-.14-10.72,125.01-10.72,125.01h0Z"/>
                </g>
                <g>
                  <path class="cls-4" d="m337.29,528.98s-12.14-4.09-10.71-10.13c48.03-122.92,179.7-306.4,181.88-310.73,2-4.33,16.69,1.26,11.64,8.03-5.02,6.6-140.11,194.53-182.8,312.83h0Z"/>
                  <path class="cls-27" d="m336.56,538.25s-12.96.12-12.75-5.94c12.55-90.38,158.91-366.26,160.1-370.93,1.01-4.7,17.42-4.73,13.74,3.16-3.68,7.88-134.67,252.52-161.11,373.73h0Z"/>
                  <path class="cls-20" d="m315.93,561.96s-23.05,19.59-7.71,3.13c15.52-16.56,15.77-34.49,15.24-39.29-.72-4.85,14.39-6.32,19.11-3.38,4.9,2.79-26.64,39.55-26.64,39.55h0Z"/>
                </g>
              </g>
            </g>
            <g>
              <g>
                <path class="cls-29" d="m264.84,564.42c1.23,2.14,4.92,1.84,6.15,4.59,6.13,2.48,5.22,13.51,6.43,19.33"/>
                <path class="cls-3" d="m331.49,547.47c.32,6.43-1.2,10.42-5.5,15.02-4.92,0-7.37-1.54-11.36-2.45-13.79-3.06-22.08,10.44-22.39,22.08"/>
                <path class="cls-29" d="m257.89,547.64c4.6,12.88,18.42,15.32,30.67,16.23,0,1.23,3.07,3.7,3.07,4.91m-51.54,5.27c3.35.31,19,3.99,19.32,1.85h3.36c6.46-10.75,20.26-9.84,25.15.91m58.63-17.67l-1.25.92c-6.43,11.04-13.79,2.13-22.99,1.54.31-1.22-.92-2.16-1.85-2.46,0-.94-2.14-3.69-1.84-5.83-1.24,0-4.59-1.54-4.3-4l-11.33-.92-.61,7.04"/>
              </g>
              <g>
                <path class="cls-1" d="m402.93,583.75s-6.3-25.19-7.88-22.82-2.37,4.75-2.37,6.3c-1.59,3.94-1.59,6.3-1.59,5.51,1.58-12.57-6.3-9.43-6.3-9.43l-3.95,10.24-21.26,1.59c-16.51.76-24.41-4.74-29.12-3.16-5.54,2.37-25.23,3.16-32.29,3.92-3.17,0-23.64,24.45-15.76,24.45l43.32-3.17v7.07h5.51l.79-7.85,13.39.78v8.67l6.3-1.6v-7.07l27.56-.78-8.65,13.39,4.74,1.58s5.5-10.24,6.28-6.32c1.6,4.75,0,9.47,0,9.47,0,0,2.37,3.17,4.74-.78,2.37-3.95,1.57-12.61,1.57-12.61l3.96,8.66s6.29,2.36,4.72,0c-2.37-6.31-3.94-14.98-3.94-15.76l10.24-10.24.02-.04Z"/>
                <path class="cls-1" d="m225.71,586.17s3.17,21.26,6.31,21.21c2.36,0,26.79-2.37,30.73-2.37,3.16,0,1.57,12.63,1.57,12.63l4.74-1.59.76-8.67,3.17,7.89s2.35,2.38,4.72-.78c1.59-2.37-4.72-11.04-2.37-11.04,3.16,0,7.88,7.88,7.88,7.88,0,0,3.94-3.95,3.16-5.51,0-1.59-6.31-7.09-6.31-7.09l3.94-7.07-2.34-10.26-10.27-3.15s-14.94,1.59-21.24,1.59c-6.32-.8-21.27,7.87-24.43,6.3v.02Z"/>
              </g>
              <g>
                <g>
                  <path class="cls-24" d="m296.26,489.89s-22.84-1.99-22.89-13.05c31.77-233.54,97.17-376.99,99.12-385.41,1.65-8.41,29.5-4.83,23.58,9.04-5.96,13.58-75.41,166.18-99.81,389.44h0Z"/>
                  <path class="cls-2" d="m282.3,487.37c-25.44-162.81-21.7-464.54-22.85-473.37-.81-8.55,25.57-19.66,24.35-3.92-.9,15.7,4.37,324.24,17.49,486.89,0,0-15.63.65-18.99-9.6Z"/>
                  <path class="cls-33" d="m298.77,506.33s-22.4,5.62-24.57-4.99c-16.16-162.16,25.48-286.74,25.57-295.34-.21-8.59,28.27-15.53,25.18-.29-3.09,15.24-31.15,79.13-26.2,300.63h0Z"/>
                  <path class="cls-28" d="m276.6,599s-31.04,38.67-11.33,3.71c19.99-35.29,8.53-104.44,5.59-112.55-3.25-8.09,22.34-17,31.74-13.88,9.69,2.79-26.02,122.73-26.02,122.73h0Z"/>
                </g>
                <g>
                  <path class="cls-10" d="m288.84,520.25c40.56-159.89,175.55-407.85,177.58-413.54,1.81-5.7,20.89-1.04,15.68,8.15-5.2,8.96-143.72,262.95-178.37,416.27,0,0-15.71-3.21-14.89-10.88Z"/>
                  <path class="cls-30" d="m304.22,542.79s-16.04,2.14-16.7-5.41c1.58-114.08,140.49-478.9,141.22-484.87.54-6.01,20.9-8.56,17.54,1.79-3.35,10.35-128.02,334.03-142.08,488.48h.02Z"/>
                  <path class="cls-32" d="m282.32,575.35s-25.57,27.87-9.09,5.1c16.7-22.97,14.25-45.23,12.84-51.12-1.64-5.89,16.87-10.06,23.16-7.15,6.53,2.72-26.91,53.16-26.91,53.16h0Z"/>
                </g>
                <path class="cls-16" d="m271.71,605.99c-2.17.43-1.73,3.04-3.47,6.08-1.75,3.04-3.49,1.32-5.66,2.18s-1.29,2.6-1.29,2.6c0,0,2.61.43,5.65-.43,3.04-.87,3.9-4.79,5.21-8.26,1.31-3.47,2.6-.87,2.6-.87,0,0-.87-1.74-3.04-1.3Z"/>
              </g>
              <path class="cls-16" d="m386.28,599.09c-.61-1.08-1.87-1.61-3.07-1.31-2.18.45-1.73,3.06-3.47,6.1-1.75,3.04-3.47,1.28-5.65,2.16-2.18.88-1.32,2.61-1.32,2.61,0,0,2.63.42,5.67-.44s3.92-4.8,5.21-8.26c1.29-3.46,2.6-.86,2.6-.86h.03Z"/>
              <g>
                <g>
                  <path class="cls-17" d="m397.58,476.15s22.42,4.72,25.68-5.83c37.38-232.72,16.43-388.99,17-397.6.86-8.52-26.84-13.2-25.18,1.79,1.75,14.71,23.93,180.92-17.5,401.65h0Z"/>
                  <path class="cls-6" d="m390.69,481.48s14.78,5.12,20.99-3.68c71.57-148.44,155.56-438.25,159.23-446.38,3.26-7.95-18.75-26.23-22.16-10.79-3.71,15.29-98.29,309.02-158.07,460.85h0Z"/>
                  <path class="cls-13" d="m390.4,491.16s19.81,11.89,24.95,2.36c62.52-150.48,58.84-281.81,61.23-290.07,2.7-8.15-22.52-23.08-24-7.58-1.48,15.5,6.85,84.78-62.21,295.29h.02Z"/>
                  <path class="cls-28" d="m384.72,586.3s18.49,46.01,9.75,6.81c-8.89-39.58,22.15-102.42,27.3-109.32,5.47-6.82-16.43-22.76-26.34-22.5-10.08-.14-10.72,125.01-10.72,125.01h0Z"/>
                </g>
                <g>
                  <path class="cls-21" d="m410.54,528.98s-12.14-4.09-10.71-10.13c48.03-122.92,179.7-306.4,181.88-310.73,2-4.33,16.69,1.26,11.64,8.03-5.02,6.6-140.11,194.53-182.8,312.83h0Z"/>
                  <path class="cls-18" d="m409.81,538.25s-12.96.12-12.75-5.94c12.55-90.38,158.91-366.26,160.1-370.93,1.01-4.7,17.42-4.73,13.74,3.16-3.68,7.88-134.67,252.52-161.11,373.73h0Z"/>
                  <path class="cls-20" d="m389.18,561.96s-23.05,19.59-7.71,3.13c15.52-16.56,15.77-34.49,15.24-39.29-.72-4.85,14.39-6.32,19.11-3.38,4.9,2.79-26.64,39.55-26.64,39.55h0Z"/>
                </g>
              </g>
            </g>
            <g>
              <g>
                <path class="cls-29" d="m317.01,586.24c1.21-5.82.31-16.85,6.43-19.33,1.22-2.75,4.91-2.45,6.15-4.59"/>
                <path class="cls-3" d="m302.18,580.03c-.31-11.64-8.59-25.14-22.39-22.08-3.99.91-6.43,2.45-11.36,2.45-4.29-4.6-5.81-8.58-5.5-15.02"/>
                <path class="cls-29" d="m302.81,566.69c0-1.21,3.07-3.68,3.07-4.91,12.24-.91,26.07-3.35,30.67-16.23m-30.02,29.17c4.89-10.75,18.69-11.65,25.15-.91h3.36c.32,2.14,15.96-1.54,19.32-1.85m-62.3-18.62l-.61-7.04-11.33.92c.29,2.46-3.06,4-4.3,4,.31,2.14-1.84,4.89-1.84,5.83-.93.3-2.15,1.23-1.85,2.46-9.2.59-16.56,9.5-22.99-1.54l-1.25-.92"/>
              </g>
              <g>
                <path class="cls-1" d="m191.53,581.7l10.24,10.24c0,.78-1.57,9.44-3.94,15.76-1.57,2.36,4.72,0,4.72,0l3.96-8.66s-.8,8.66,1.57,12.61c2.37,3.95,4.74.78,4.74.78,0,0-1.6-4.73,0-9.47.78-3.92,6.28,6.32,6.28,6.32l4.74-1.58-8.65-13.39,27.56.78v7.07s6.3,1.6,6.3,1.6v-8.67s13.39-.78,13.39-.78l.79,7.85h5.51s0-7.07,0-7.07l43.32,3.17c7.88,0-12.59-24.45-15.76-24.45-7.06-.76-26.76-1.55-32.29-3.92-4.71-1.58-12.61,3.92-29.12,3.16l-21.26-1.59-3.95-10.24s-7.87-3.14-6.3,9.43c0,.8,0-1.57-1.59-5.51,0-1.56-.79-3.94-2.37-6.3-1.58-2.37-7.88,22.82-7.88,22.82l.02.04Z"/>
                <path class="cls-1" d="m368.73,584.05c-3.16,1.57-18.11-7.1-24.43-6.3-6.3,0-21.24-1.59-21.24-1.59l-10.27,3.15-2.34,10.26,3.94,7.07s-6.31,5.51-6.31,7.09c-.78,1.56,3.16,5.51,3.16,5.51,0,0,4.73-7.88,7.88-7.88,2.35,0-3.96,8.67-2.37,11.04,2.37,3.16,4.72.78,4.72.78l3.17-7.89.76,8.67,4.74,1.59s-1.59-12.63,1.57-12.63c3.94,0,28.37,2.37,30.73,2.37,3.15.05,6.31-21.21,6.31-21.21v-.02Z"/>
              </g>
              <g>
                <g>
                  <path class="cls-23" d="m298.18,487.8c-24.4-223.26-93.85-375.86-99.81-389.44-5.92-13.87,21.93-17.44,23.58-9.04,1.95,8.42,67.35,151.87,99.12,385.41-.05,11.06-22.89,13.05-22.89,13.05h0Z"/>
                  <path class="cls-11" d="m293.15,494.88c13.12-162.65,18.39-471.19,17.49-486.89-1.21-15.75,25.16-4.64,24.35,3.92-1.15,8.83,2.59,310.56-22.85,473.37-3.36,10.25-18.99,9.6-18.99,9.6Z"/>
                  <path class="cls-15" d="m295.67,504.25c4.95-221.5-23.11-285.39-26.2-300.63-3.09-15.24,25.39-8.31,25.18.29.1,8.6,41.74,133.18,25.57,295.34-2.17,10.62-24.57,4.99-24.57,4.99h0Z"/>
                  <path class="cls-28" d="m317.84,596.92s-35.71-119.94-26.02-122.73c9.4-3.12,34.99,5.79,31.74,13.88-2.94,8.11-14.4,77.26,5.59,112.55,19.71,34.96-11.33-3.71-11.33-3.71h0Z"/>
                </g>
                <g>
                  <path class="cls-8" d="m290.71,529.04C256.06,375.71,117.54,121.72,112.34,112.76c-5.21-9.19,13.87-13.85,15.68-8.15,2.03,5.69,137.02,253.65,177.58,413.54.82,7.68-14.89,10.88-14.89,10.88Z"/>
                  <path class="cls-37" d="m290.24,540.69c-14.06-154.45-138.73-478.13-142.08-488.48-3.35-10.35,17-7.79,17.54-1.79.73,5.97,139.65,370.79,141.22,484.87-.66,7.55-16.7,5.41-16.7,5.41h.02Z"/>
                  <path class="cls-32" d="m312.12,573.25s-33.44-50.44-26.91-53.16c6.29-2.91,24.8,1.26,23.16,7.15-1.41,5.89-3.87,28.15,12.84,51.12,16.48,22.77-9.09-5.1-9.09-5.1h0Z"/>
                </g>
                <path class="cls-16" d="m319.69,605.2s1.29-2.6,2.6.87c1.31,3.47,2.17,7.39,5.21,8.26,3.04.87,5.65.43,5.65.43,0,0,.88-1.75-1.29-2.6-2.17-.86-3.92.86-5.66-2.18-1.75-3.04-1.3-5.64-3.47-6.08-2.17-.43-3.04,1.3-3.04,1.3Z"/>
              </g>
              <path class="cls-16" d="m208.18,597s1.31-2.6,2.6.86c1.29,3.46,2.17,7.39,5.21,8.26s5.67.44,5.67.44c0,0,.86-1.74-1.32-2.61-2.18-.88-3.91.88-5.65-2.16-1.75-3.04-1.29-5.64-3.47-6.1-1.2-.3-2.46.24-3.07,1.31h.03Z"/>
              <g>
                <g>
                  <path class="cls-31" d="m196.86,474.07c-41.43-220.73-19.25-386.94-17.5-401.65,1.66-14.99-26.04-10.3-25.18-1.79.57,8.6-20.38,164.88,17,397.6,3.27,10.55,25.68,5.83,25.68,5.83h0Z"/>
                  <path class="cls-5" d="m203.75,479.39C143.98,327.55,49.4,33.83,45.69,18.53c-3.41-15.43-25.42,2.84-22.16,10.79,3.67,8.13,87.66,297.94,159.23,446.38,6.21,8.8,20.99,3.68,20.99,3.68h0Z"/>
                  <path class="cls-25" d="m204.06,489.06c-69.06-210.51-60.73-279.78-62.21-295.29-1.48-15.5-26.7-.57-24,7.58,2.4,8.26-1.28,139.59,61.23,290.07,5.14,9.53,24.95-2.36,24.95-2.36h.02Z"/>
                  <path class="cls-28" d="m209.72,584.21s-.63-125.15-10.72-125.01c-9.92-.27-31.81,15.68-26.34,22.5,5.15,6.91,36.19,69.75,27.3,109.32-8.74,39.2,9.75-6.81,9.75-6.81h0Z"/>
                </g>
                <g>
                  <path class="cls-22" d="m183.88,526.88C141.19,408.58,6.1,220.66,1.08,214.06c-5.05-6.77,9.64-12.36,11.64-8.03,2.18,4.33,133.84,187.81,181.88,310.73,1.43,6.04-10.71,10.13-10.71,10.13h0Z"/>
                  <path class="cls-36" d="m184.63,536.17C158.2,414.96,27.2,170.33,23.52,162.44c-3.68-7.88,12.74-7.85,13.74-3.16,1.19,4.68,147.55,280.55,160.1,370.93.21,6.06-12.75,5.94-12.75,5.94h0Z"/>
                  <path class="cls-20" d="m205.24,559.87s-31.54-36.75-26.64-39.55c4.73-2.94,19.83-1.47,19.11,3.38-.52,4.8-.28,22.73,15.24,39.29,15.34,16.46-7.71-3.13-7.71-3.13h0Z"/>
                </g>
              </g>
            </g>
          </g>
        </g>
      </g>
    </g>
  </g>
</svg>