<?xml version="1.0" encoding="UTF-8"?>
<svg id="Capa_2" data-name="Capa 2" xmlns="http://www.w3.org/2000/svg" viewBox="0 0 1394.12 621.64">
  <defs>
    <style>
      .cls-1 {
        fill: #fff;
      }

      .cls-2 {
        fill: #e0f2fd;
      }

      .cls-3 {
        fill: #3b7abe;
      }

      .cls-3, .cls-4, .cls-5, .cls-6, .cls-7 {
        fill-rule: evenodd;
      }

      .cls-4 {
        fill: #fae5d7;
      }

      .cls-8 {
        fill: #f6fbff;
      }

      .cls-9 {
        fill: #a0d1ef;
      }

      .cls-10 {
        fill: #6fafe0;
      }

      .cls-11 {
        fill: #68b232;
      }

      .cls-12 {
        fill: none;
      }

      .cls-5 {
        fill: #c7b5a9;
      }

      .cls-6 {
        fill: #e9d1bf;
      }

      .cls-7 {
        fill: #4f91ce;
      }
    </style>
  </defs>
  <g id="Capa_2-2" data-name="Capa 2">
    <g id="Capa_1-2" data-name="Capa 1-2">
      <g>
        <rect class="cls-9" width="1394.12" height="327.39"/>
        <rect class="cls-10" y="314.93" width="1394.12" height="306.71"/>
        <path class="cls-5" d="m16.33,452.25c-1.26,0-2.28-1.02-2.28-2.28s1.02-2.28,2.28-2.28h63.91c1.26,0,2.28,1.02,2.28,2.28s-1.02,2.28-2.28,2.28H16.33Z"/>
        <path class="cls-5" d="m95.85,452.25c-1.26,0-2.28-1.02-2.28-2.28s1.02-2.28,2.28-2.28h21.96c1.26,0,2.28,1.02,2.28,2.28s-1.02,2.28-2.28,2.28h-21.96Z"/>
        <path class="cls-4" d="m11.35,470.46c-1.26,0-2.28-1.02-2.28-2.28s1.02-2.28,2.28-2.28h42.45c1.26,0,2.28,1.02,2.28,2.28s-1.02,2.28-2.28,2.28H11.35Z"/>
        <path class="cls-4" d="m63.92,470.46c-1.26,0-2.28-1.02-2.28-2.28s1.02-2.28,2.28-2.28h14.03c1.26,0,2.28,1.02,2.28,2.28s-1.02,2.28-2.28,2.28h-14.03Z"/>
        <path class="cls-6" d="m45.96,415.82c-1.26,0-2.28-1.02-2.28-2.28s1.02-2.28,2.28-2.28h75.59c1.26,0,2.28,1.02,2.28,2.28s-1.02,2.28-2.28,2.28H45.96Z"/>
        <path class="cls-6" d="m135.87,415.82c-1.26,0-2.28-1.02-2.28-2.28s1.02-2.28,2.28-2.28h29.27c1.26,0,2.28,1.02,2.28,2.28s-1.02,2.28-2.28,2.28h-29.27Z"/>
        <path class="cls-6" d="m155.53,443.14c-1.26,0-2.28-1.02-2.28-2.28s1.02-2.28,2.28-2.28h75.59c1.26,0,2.28,1.02,2.28,2.28s-1.02,2.28-2.28,2.28h-75.59Z"/>
        <path class="cls-6" d="m245.44,443.14c-1.26,0-2.28-1.02-2.28-2.28s1.02-2.28,2.28-2.28h29.27c1.26,0,2.28,1.02,2.28,2.28s-1.02,2.28-2.28,2.28h-29.27,0Z"/>
        <path class="cls-5" d="m299.37,479.57c-1.26,0-2.28-1.02-2.28-2.28s1.02-2.28,2.28-2.28h51.88c1.26,0,2.28,1.02,2.28,2.28s-1.02,2.28-2.28,2.28h-51.88Z"/>
        <path class="cls-7" d="m1394.12,328.1v230.54c-20.85,0-41.72-.05-62.56,0-4.28,0-8.09.16-12.44,0-5.17-.2-10.9-.13-15.94-.51-5.21-.4-12.54-2.97-16.63-5.11-5.44-2.85-8.2-4.18-12.92-7.85-8.53-6.62-17.99-13.08-26.85-19.4-4.55-3.25-9.11-6.51-13.68-9.76-9.45-6.74-18.93-13.46-28.35-20.23-3.83-2.75-7.93-6.41-11.93-8.84-1.45-.88-4.63-2.05-6.03-2.64-10.05-4.25-16.19-6.4-27.64-6.86-5.13-.21-10.42-.65-15.49-.81-5.15-.16-10.87,0-16.07,0-123.24,0-246.49-.04-369.73,0-4.59,0-12.51.57-17.18,1.81-7.88,2.08-12.92,4.16-18.52,10.35-3.26,3.6-6.31,9.5-8.95,13.69-4.25,6.76-8.5,13.51-12.76,20.27-3.45,5.48-8.24,13.88-13.71,17.64-2.08,1.43-7.32,4.78-10.59,5.39-5.42,1.01-12.29,1.81-17.77,1.81-64.48.02-128.96.11-193.43,0-7.14-.01-12.22-.12-18.97-.94-12.18-1.48-19.56-2.76-30.99-9.86-5.44-3.38-10.66-6.53-16.01-10.05-6.43-4.22-12.85-8.45-19.27-12.69-7.11-4.7-13.68-7.05-22.26-9.35-10.07-2.69-15.1-3.05-25.84-3.47-11.06-.43-22.74-.2-33.87-.2H1.78v-172.88h1392.33v-.05Z"/>
        <path class="cls-3" d="m0,304.29v85.21l71.94-7.62c61.26-6.5,63.31-6.41,90.65-31.37,16.28-14.86,25.87-16.91,74.73-16.91h240.91c35.69,0,41.28,3.53,64.3,30.41,5.14,5.99,10.91,12.96,17.96,20.46,11.85,12.61,23.22,20.65,66.51,20.65h150.5c51.01,0,56.73-2.5,79.81-17.52,4.9-3.19,10.08-7.31,16.2-11.64,37.42-26.52,32.59-25.11,88.28-25.11h432.34v-46.54H0Z"/>
        <rect class="cls-12" width="1310.66" height="572.03"/>
        <g>
          <path class="cls-1" d="m131.03,178.19c-16.08-8.87-17.5-34.46-.57-43.05,2.08-1.05,5.18-2.69,7.49-3.02,1.17-.17,8.85.82,8.77,2.55.28-5.87,4.64-10.87,9.7-13.84,12.72-7.48,30.88-3.54,39.36,8.52,8.48,12.07,6.03,30.49-5.31,39.92,4.51-2.02,10.29-.68,13.45,3.11,3.17,3.79,3.45,9.72.65,13.79,5.96-3.45,14.48-1.34,18.15,4.5,9.04-1.95,18.66-1.15,27.26,2.26,1.92.76,3.87,1.71,5.1,3.37s1.52,4.19.12,5.7c-.9.97-2.26,1.34-3.56,1.6-4.96.99-10.06,1.02-15.12,1.04-23.65.11-47.31.23-70.96.34-2.38,0-4.85,0-7.02-.97-2.17-.98-3.97-3.22-3.64-5.58-3.46,2.74-7.54,4.86-11.92,5.33-4.39.48-9.09-.86-12.07-4.12-13.79,3.73-28.34,4.6-42.48,2.52-2.33-.34-4.71-.79-6.68-2.08-1.96-1.29-3.41-3.64-2.98-5.95.44-2.32,2.65-3.98,4.95-4.48,2.3-.5,4.7-.08,7.01.39-.91-4.5,1.81-9.16,5.66-11.67,3.84-2.51,8.58-3.24,13.17-3.38,7.27-.23,14.57.86,21.46,3.21h.01Z"/>
          <g>
            <path class="cls-8" d="m83.74,189.65c-2.3.5-4.51,2.16-4.95,4.48-.43,2.31,1.01,4.66,2.98,5.95,1.96,1.29,4.35,1.74,6.68,2.08,14.13,2.08,28.69,1.21,42.48-2.52,2.98,3.25,7.68,4.59,12.07,4.12,4.39-.48,8.46-2.59,11.92-5.33-.33,2.36,1.47,4.6,3.64,5.58s4.64.99,7.02.97c23.65-.11,47.31-.23,70.96-.34,5.06-.02,10.16-.05,15.12-1.04,1.3-.26,2.66-.63,3.56-1.6,1.4-1.52,1.12-4.05-.12-5.7-.46-.61-1.01-1.13-1.63-1.57-7.19,2.1-15.13,1.34-22.61,0-2.56-.46-5.28-1.07-7.04-2.99-.31-.33-.56-.72-.75-1.14-.11.02-.22.04-.34.07-3.66-5.83-12.18-7.94-18.15-4.5,2.79-4.08,2.51-10-.65-13.79-3.17-3.79-8.94-5.13-13.45-3.11,8.48-7.05,11.98-19.12,9.68-29.81-1.09,7.36-3.65,14.53-8.22,20.36-5.4,6.89-13.83,11.66-22.58,11.42-1.18-9-7.01-17.27-15.09-21.4,4.38,3.35,4.5,10.63.74,14.67s-10.3,4.74-15.26,2.34c-4.96-2.41-8.33-7.43-9.63-12.79-1.93-7.97.79-14.67,4.95-21.1-1.64.65-3.31,1.52-4.6,2.17-16.93,8.59-15.51,34.17.57,43.05-1.72-.59-3.47-1.09-5.24-1.52-5.82,1.54-12.28,2.5-18.04,4.07-6.09,1.66-12.2,5.41-14.05,11.45-.93-.77-1.92-1.49-2.95-2.14h0c-2.31-.47-4.71-.89-7.01-.39h-.01Z"/>
            <path class="cls-2" d="m131.03,178.19c-16.08-8.87-17.5-34.46-.57-43.05,1.28-.65,2.96-1.52,4.6-2.17-8.47,4.12-12.86,13.89-13.01,23.31-.08,4.88.77,10.05,3.95,13.75,2.87,3.33,7.32,4.99,11.71,5.26,4.39.27,8.75-.73,12.96-2.01-4.97,4.69-13.65,8.22-19.64,4.91Z"/>
            <path class="cls-2" d="m204.58,186.17c2.79-4.08,2.51-10-.65-13.79-3.17-3.79-8.94-5.13-13.45-3.11,3.33-.61,6.51,2.52,7.17,5.84s-.71,6.75-2.71,9.49c-.83,1.14-1.8,2.22-3.03,2.91-1.86,1.05-4.11,1.1-6.25.99-4.89-.24-10.43-1.61-12.68-5.95-.43,3.35,1.87,6.6,4.83,8.24s6.45,1.96,9.84,2.03c3.19.06,6.43-.08,9.49-1.01,3.06-.93,5.64-3,7.45-5.64h-.01Z"/>
            <path class="cls-2" d="m255.09,196.3c1.24,1.65,1.52,4.19.12,5.7-.9.97-2.26,1.34-3.56,1.6-4.96.99-10.06,1.02-15.12,1.04-23.65.11-47.31.23-70.96.34-2.38,0-4.85,0-7.02-.97-2.17-.98-3.97-3.22-3.64-5.58,3.75,2.64,8.22,3.15,12.8,3.32,5.54.2,11.16.2,16.56-1.09s10.61-3.99,14.03-8.36c.43,3.62-1.38,7.42-4.45,9.38,16.01-1.97,32.22-.12,48.34-.43,4.7-.09,11.16-.58,12.9-4.94h0Z"/>
            <path class="cls-2" d="m154.91,198.43c-3.46,2.74-7.54,4.86-11.92,5.33-4.39.48-9.09-.86-12.07-4.12-13.79,3.73-28.34,4.6-42.48,2.52-2.33-.34-4.71-.79-6.68-2.08-1.96-1.29-3.41-3.64-2.98-5.95,1.88,3.65,6.83,4.43,10.92,4.78,4.71.4,9.48.06,14.09-1.01-2.16-.45-4.16-1.59-5.65-3.22,12.6,3.09,26.2,1.95,38.12-3.17-.51,2.31.95,4.74,3.01,5.89s4.58,1.22,6.9.77c7.69-1.48,13.84-8.77,13.99-16.6,1.23,5.72-.68,13.23-5.26,16.86h0Z"/>
          </g>
        </g>
        <g>
          <path class="cls-1" d="m600.9,72.93c-3.93-2.76-9.35-3.24-13.71-1.23.31-8.22-1.73-16.92-7.49-22.79-5.76-5.87-15.77-7.91-22.43-3.09-5.65-9.9-17.2-16.11-28.57-15.37-11.37.75-22.01,8.42-26.32,18.97-18.75-5.75-38.03,6.5-44.09,24.41-4.77-.55-9.81-1.06-14.18.91-4.38,1.97-7.58,7.39-5.43,11.68.7,1.4,1.87,2.51,3.1,3.49,8.91,7.12,21.01,8.42,32.39,9.23,7.53.54,15.16.97,22.58-.41,7.42-1.38,14.72-4.77,19.42-10.68,3.26,4.91,9.9,5.97,15.76,6.52,17.74,1.68,35.84,2.8,53.48-.45,6.05-1.11,13.82-1.46,18.37-6.16,5.04-5.22,2.52-11.25-2.89-15.04h.01Z"/>
          <g>
            <path class="cls-8" d="m458.3,73.84c-4.77-.55-9.81-1.06-14.18.91-4.38,1.97-7.58,7.39-5.43,11.68.7,1.4,1.87,2.51,3.1,3.49,8.91,7.12,21.01,8.42,32.39,9.23,7.53.54,15.16.97,22.58-.41s14.72-4.77,19.42-10.68c3.26,4.91,9.9,5.97,15.76,6.52,17.74,1.68,35.84,2.8,53.48-.45,6.05-1.11,13.82-1.46,18.37-6.16,5.04-5.22,2.52-11.25-2.89-15.04-3.93-2.76-9.35-3.24-13.71-1.23.25-6.59-1.02-13.49-4.5-18.99.97,3.36,1.09,6.92-.08,10.18-2.56,7.12-10.2,9.69-16.65,6.27-5.62-2.98-9.24-9.1-9.88-15.44-1.37,12.25-11.89,22.87-24.13,24.35s-24.99-6.31-29.25-17.88c-1.05,5.97-4.91,11.38-10.22,14.31-5.31,2.92-11.95,3.3-17.56.99-2.87-1.18-5.58-3.17-6.75-6.04-1.65-4.05.13-8.7,2.63-12.28.66-.95,1.39-1.86,2.15-2.74-6.69,4.64-11.97,11.46-14.66,19.4h.01Z"/>
            <path class="cls-2" d="m516.18,88.07c3.26,4.91,9.9,5.97,15.76,6.52,17.74,1.68,35.84,2.8,53.48-.45,6.05-1.11,13.82-1.46,18.37-6.16,5.04-5.22,2.52-11.25-2.89-15.04,1.11,4.87-2.5,9.94-7.04,12.04s-9.75,1.99-14.74,1.69c3.3-1.89,5.77-5.17,6.67-8.86-8.7,8.62-23.36,10.41-33.88,4.15-1.6,3.18-4.89,5.13-8.17,6.51-8.89,3.72-19.03,4.09-27.57-.39h.01Z"/>
            <path class="cls-2" d="m438.69,86.43c.7,1.4,1.87,2.51,3.1,3.49,8.91,7.12,21.01,8.42,32.39,9.23,7.53.54,15.16.97,22.58-.41s14.72-4.77,19.42-10.68c-5.1-2.02-9.94-6.56-12.14-11.59,1.03,4.16-1.68,8.57-5.41,10.7-3.73,2.12-8.21,2.42-12.5,2.26-8.68-.31-17.86-2.55-23.71-8.97,2.1,5.56,7.17,9.64,12.75,11.68s11.67,2.28,17.6,1.97c-2.05,1.36-4.57,1.79-7.02,2.06-15.71,1.74-33.48-1.68-47.07-9.74h.01Z"/>
          </g>
        </g>
        <g id="Capa_1-2-2" data-name="Capa 1-2">
          <g>
            <g>
              <path class="cls-1" d="m43.02,579.08c1.16-2.93,2.32-5.86,3.5-8.78,2.34-5.8,4.68-11.59,7.03-17.37.18-.44.21-1.35.94-1,.53.25.89.98,1.18,1.56.12.23-.12.67-.25.98-1.37,3.16-2.76,6.31-4.15,9.46-.07.17-.12.35-.25.72.74-.23,1.35-.39,1.93-.6,4.48-1.59,8.52-3.96,12.06-7.11.99-.88,1.87-1.94,2.56-3.06.94-1.52.5-2.65-1.12-3.42-2-.95-4.17-1.2-6.34-1.35-4.17-.28-8.25.17-12.16,1.66-1.01.38-1.9,1.05-2.85,1.58.01.13.02.25.03.38-.33-.27-.7-.5-.96-.81-.62-.77-.52-1.26.33-1.78,2.15-1.32,4.52-2.1,6.98-2.57,4.56-.88,9.1-.85,13.58.48.76.23,1.5.56,2.18.96,2.41,1.43,3.19,3.9,1.78,6.32-.8,1.38-1.91,2.65-3.08,3.74-2.53,2.34-5.51,4.02-8.65,5.44-.35.16-.69.3-1.25.54,1.24.23,2.31.33,3.32.64,1.37.41,2.78.82,4.01,1.52,3.1,1.78,3.37,4.77.73,7.18-1.82,1.67-4.04,2.69-6.32,3.53-2.49.92-5.03,1.73-7.72,1.77-.66,0-1.34-.28-1.96-.55-.2-.09-.25-.53-.36-.81.25-.09.5-.24.75-.27,4.14-.49,8.09-1.63,11.74-3.63,1.18-.65,2.27-1.56,3.19-2.54,1.16-1.23.95-2.45-.59-3.18-1.4-.66-2.94-1.05-4.46-1.38-2.35-.52-4.73-.73-7.13-.17-1.01.24-1.67.67-2.04,1.73-1.09,3.13-2.3,6.22-3.44,9.33-.18.51-.3,1.04-.41,1.57-.23,1.13-.81,1.35-1.7.61-.21-.18-.42-.36-.63-.54v-.77h0Z"/>
              <path class="cls-1" d="m129.08,572.61c-.53.57-.95,1.09-1.44,1.54-.63.58-1.26,1.2-1.99,1.63-1.89,1.13-3.93.18-4.24-1.99-.14-.99.02-2.03.09-3.04.03-.46.18-.91.16-1.43-.4.56-.77,1.16-1.21,1.69-1.37,1.64-2.66,3.36-4.18,4.85-1.92,1.89-3.77,1.27-4.49-1.34-.1-.37-.15-.75-.26-1.29-.33.38-.6.7-.88,1-.68.72-1.33,1.47-2.07,2.13-2.07,1.82-4.88.9-5.19-1.86-.22-1.96-.09-4.03.27-5.97,1.01-5.36,2.99-10.4,5.5-15.24.32-.62.7-1.22,1.12-1.78.7-.92,1.89-1.33,2.8-.98,1.07.41,1.56,1.33,1.44,2.35-.14,1.18-.43,2.39-.93,3.47-1.83,3.96-4.34,7.51-7.04,10.92-.78.98-1.22,2-1.29,3.21-.08,1.3-.2,2.61-.15,3.91.04,1.17.7,1.46,1.67.79.65-.45,1.26-.98,1.81-1.56,2.17-2.3,4.27-4.65,5.65-7.56.54-1.15,1.28-2.21,1.93-3.31.3-.5.56-1.07,1.32-.66.67.36.93,1.26.57,1.91-.09.17-.24.3-.33.47-1.31,2.55-2.64,5.09-3.9,7.66-.3.61-.38,1.35-.47,2.03-.04.27.1.71.3.82.19.11.64-.01.85-.19.61-.51,1.23-1.04,1.71-1.67,2.22-2.88,4.41-5.79,6.57-8.72.5-.68.93-1.12,1.79-.58.91.57,1.12,1.23.67,2.16-1.08,2.23-1.79,4.58-1.88,7.06-.02.48.28.98.43,1.47.47-.22,1.09-.31,1.39-.67,2.01-2.39,3.94-4.85,5.91-7.27.98-1.21,1.88-2.51,3.03-3.54.74-.66,1.83-1.06,2.83-1.26,2.09-.42,3.54,1.38,2.67,3.32-.45,1-1.1,1.99-1.89,2.73-1.89,1.76-3.87,3.42-5.92,4.99-.8.61-.66,1.2-.47,1.9.2.75.69,1.36,1.5,1.15,1.03-.27,2.08-.65,2.97-1.23,2.41-1.57,4.29-3.72,6.04-5.97.74-.95,1.38-2,2.08-2.98.16-.21.4-.36.6-.54.2.27.5.51.57.8.07.31-.01.71-.16,1-1.86,3.79-4.42,7.01-7.95,9.4-.47.32-1,.58-1.53.79-3.04,1.22-5.72-.34-6.19-3.59-.04-.27-.1-.55-.18-.93h0Zm-21.78-9.18c2.03-3.42,4.4-6.55,5.57-10.34.04-.15.09-.31.08-.47-.01-.17-.05-.42-.17-.49-.12-.07-.38-.02-.52.07-.21.13-.4.33-.53.54-2.05,3.25-3.4,6.81-4.52,10.46,0,.02.02.06.1.23h0Zm24.33,7.18c.09.05.18.1.27.15,2.27-1.87,4.46-3.81,5.97-6.39.16-.27.11-.65.16-.98-.35.05-.77,0-1.03.18-1.7,1.15-2.96,2.72-4.02,4.44-.51.83-.9,1.73-1.34,2.59h0Z"/>
              <path class="cls-1" d="m97.15,562.38c.38-.22.75-.46,1.14-.66,2.2-1.12,4.4-.03,4.63,2.44.09.96-.13,2.07-.58,2.93-2.08,3.98-5.09,7.17-8.82,9.66-1.84,1.23-3.86.1-3.79-2.14.04-1.27.35-2.62.88-3.78,1.7-3.71,3.52-7.36,5.36-11,1.45-2.88,2.99-5.7,4.48-8.56.34-.66.78-.75,1.06-.08.26.63.49,1.49.26,2.05-.74,1.79-1.68,3.5-2.59,5.21-.69,1.29-1.45,2.54-2.18,3.81.04.04.09.08.13.12h0Zm-5.68,12.96c.12.07.24.14.36.21.52-.34,1.09-.63,1.55-1.04,2.87-2.53,5.23-5.5,7.21-8.76.29-.48.51-1.03.64-1.58.19-.86-.21-1.26-.98-.86-1.35.69-2.59,1.57-3.87,2.37-.43.27-.86.53-1.29.8-.1-.08-.19-.17-.29-.25-1.02,2.47-2.06,4.93-3.04,7.41-.21.52-.19,1.14-.28,1.71h0Z"/>
              <path class="cls-1" d="m69.46,570.74c-.11,1.31-.35,2.63-.3,3.93.06,1.4,1.03,2.01,2.34,1.48,1.05-.42,2.07-1.03,2.95-1.74,3.02-2.46,5.56-5.36,7.62-8.66.16-.25.5-.39.75-.58.18.32.44.61.51.95.05.24-.09.56-.22.81-1.88,3.66-4.35,6.85-7.75,9.21-.95.66-2.08,1.16-3.19,1.47-2.54.69-4.68-.79-4.93-3.39-.11-1.09-.07-2.26.22-3.31.96-3.54,2.9-6.5,5.76-8.83.89-.73,1.88-1.19,3.09-1.04,1.71.2,2.52,1.38,1.9,2.97-.33.85-.74,1.74-1.34,2.4-1.34,1.49-2.76,2.92-4.26,4.25-1.11.99-1.6.91-3.15.08h0Zm.83-.94c2.43-1.66,4.44-3.72,6.08-6.15.23-.35.23-.85.33-1.29-.42.16-.92.21-1.25.49-2.28,1.88-3.82,4.33-5.16,6.95h0Z"/>
            </g>
            <path class="cls-1" d="m175.49,564.52h15.03c1.37,0,1.6.24,1.6,1.7v10.05c0,1.23-.26,1.53-1.4,1.53-10.17,0-20.34,0-30.51,0-1.14,0-1.37-.28-1.37-1.54,0-3.38,0-6.76,0-10.15,0-1.3.26-1.58,1.43-1.58,5.07,0,10.14,0,15.21,0h0Z"/>
            <path class="cls-1" d="m175.48,550.35h14.78c1.42,0,1.69.26,1.7,1.66,0,3.35,0,6.7,0,10.05,0,1.32-.26,1.58-1.57,1.58-9.98,0-19.97,0-29.95,0-1.32,0-1.59-.27-1.6-1.56,0-3.35,0-6.7,0-10.05,0-1.41.27-1.69,1.66-1.69h14.98,0Z"/>
            <path class="cls-1" d="m151.71,580.71h-.83v-33.74c.22-.03.49-.06.83-.11v33.85Z"/>
            <g>
              <path class="cls-11" d="m168.26,560.72c-.44.16-1.29.41-2.31.41-1.14,0-2.08-.29-2.81-.99-.65-.63-1.05-1.63-1.05-2.8.01-2.24,1.55-3.88,4.07-3.88.87,0,1.55.19,1.88.35l-.24.79c-.4-.18-.9-.32-1.66-.32-1.83,0-3.02,1.14-3.02,3.02s1.15,3.04,2.9,3.04c.64,0,1.07-.09,1.29-.2v-2.24h-1.53v-.78h2.48v3.61h0Z"/>
              <path class="cls-11" d="m172.79,561.06l-.08-.68h-.03c-.3.42-.88.8-1.65.8-1.09,0-1.65-.77-1.65-1.55,0-1.31,1.16-2.02,3.25-2.01v-.11c0-.45-.12-1.25-1.23-1.25-.5,0-1.03.16-1.4.4l-.22-.65c.45-.29,1.09-.48,1.77-.48,1.65,0,2.05,1.13,2.05,2.21v2.02c0,.47.02.92.09,1.29h-.89Zm-.15-2.76c-1.07-.02-2.29.17-2.29,1.22,0,.64.42.94.93.94.7,0,1.15-.45,1.31-.9.03-.1.06-.21.06-.31v-.94h0Z"/>
              <path class="cls-11" d="m175.18,557.12c0-.56-.01-1.01-.04-1.46h.86l.04.87h.03c.3-.51.8-.99,1.7-.99.74,0,1.29.45,1.53,1.08h.02c.17-.3.38-.54.6-.7.32-.24.68-.38,1.19-.38.71,0,1.77.47,1.77,2.34v3.18h-.96v-3.06c0-1.04-.38-1.66-1.17-1.66-.56,0-.99.41-1.16.89-.04.13-.08.31-.08.49v3.34h-.96v-3.24c0-.86-.38-1.49-1.13-1.49-.61,0-1.06.49-1.22.98-.06.15-.08.31-.08.48v3.26h-.96v-3.94h0Z"/>
              <path class="cls-11" d="m185.03,558.54c.02,1.33.87,1.88,1.85,1.88.7,0,1.13-.12,1.49-.28l.17.7c-.35.16-.94.33-1.8.33-1.66,0-2.65-1.09-2.65-2.72s.96-2.91,2.53-2.91c1.76,0,2.23,1.55,2.23,2.54,0,.2-.02.36-.03.46h-3.79Zm2.88-.7c.01-.63-.26-1.6-1.36-1.6-.99,0-1.43.92-1.51,1.6h2.87,0Z"/>
              <path class="cls-11" d="m168.26,574.11c-.44.16-1.29.41-2.31.41-1.14,0-2.08-.29-2.81-.99-.65-.62-1.05-1.63-1.05-2.8.01-2.24,1.55-3.88,4.07-3.88.87,0,1.55.19,1.88.35l-.24.79c-.4-.18-.9-.32-1.66-.32-1.83,0-3.02,1.14-3.02,3.02s1.15,3.04,2.9,3.04c.64,0,1.07-.09,1.29-.2v-2.24h-1.53v-.78h2.48v3.61h0Z"/>
              <path class="cls-11" d="m169.6,570.74c0-.64-.01-1.18-.04-1.69h.86l.03,1.06h.04c.24-.72.84-1.18,1.49-1.18.11,0,.19.01.28.03v.93c-.1-.02-.2-.03-.33-.03-.69,0-1.18.52-1.32,1.26-.02.13-.04.29-.04.46v2.88h-.97v-3.72h0Z"/>
              <path class="cls-11" d="m173.57,571.93c.02,1.33.87,1.88,1.85,1.88.7,0,1.13-.12,1.49-.28l.17.7c-.35.16-.94.33-1.8.33-1.66,0-2.65-1.09-2.65-2.72s.96-2.91,2.53-2.91c1.76,0,2.23,1.55,2.23,2.54,0,.2-.02.36-.03.46h-3.79Zm2.88-.7c.01-.63-.26-1.6-1.36-1.6-.99,0-1.43.92-1.51,1.6h2.87,0Z"/>
              <path class="cls-11" d="m179.05,571.93c.02,1.33.87,1.88,1.85,1.88.7,0,1.13-.12,1.49-.28l.17.7c-.35.16-.94.33-1.8.33-1.66,0-2.65-1.09-2.65-2.72s.96-2.91,2.53-2.91c1.76,0,2.23,1.55,2.23,2.54,0,.2-.02.36-.03.46h-3.79Zm2.88-.7c.01-.63-.26-1.6-1.36-1.6-.99,0-1.43.92-1.51,1.6h2.87,0Z"/>
              <path class="cls-11" d="m183.98,570.51c0-.56-.01-1.02-.04-1.46h.87l.06.89h.02c.27-.51.89-1.02,1.79-1.02.75,0,1.91.45,1.91,2.3v3.22h-.98v-3.11c0-.87-.32-1.6-1.25-1.6-.65,0-1.15.46-1.32,1.01-.04.12-.07.29-.07.46v3.25h-.98v-3.94h0Z"/>
            </g>
          </g>
        </g>
      </g>
    </g>
  </g>
</svg>