<svg version="1.2" xmlns="http://www.w3.org/2000/svg" viewBox="0 0 337 68" width="337" height="68">
	<title>logo_menorca-svg</title>
	<style>
		.s0 { fill: #ffffff } 
	</style>
	<g id="Capa_1-2">
		<g id="Layer">
			<g id="Layer">
				<path id="Layer" fill-rule="evenodd" class="s0" d="m38.6 62.1h-12v-6.8c0-30.5 24.8-55.3 55.4-55.3v12c-24 0-43.4 19.4-43.4 43.3zm16.7-6.7v6.7h-11.9v-6.7c0-21.3 17.3-38.6 38.6-38.6v12c-14.7 0-26.7 11.9-26.7 26.6z"/>
				<path id="Layer" fill-rule="evenodd" class="s0" d="m0 12v-12c14.6 0 27.9 5.7 37.8 14.9q-4.1 4.5-7.3 9.7c-7.8-7.8-18.6-12.6-30.5-12.6zm23.4 30.6c-4.5-8.2-13.4-13.8-23.4-13.8v-12c11.1 0 21.1 4.7 28.2 12.2-2.1 4.3-3.8 8.8-4.8 13.6z"/>
				<path id="Layer" class="s0" d="m217 33.5q0.2-0.4 0.3-0.8 0.2-0.4 0.2-0.9 0-0.6-0.7-0.8-0.7-0.3-1.2 0-0.4 0.4-0.5 0.8-0.1 0.6-0.1 1.1-0.1 0.4-0.1 0.9v0.6q0.1 0.3 0.3 0.4 0.2 0.2 0.5 0.3 0.3 0.1 0.6 0 0.2 0 0.2-0.2l-0.1-0.4v-0.1q0.4-0.5 0.6-0.9z"/>
				<path id="Layer" class="s0" d="m93.2 0v25.5h5.9v-20.8h8.6v20.9h5.9v-20.9h3.9c3.8 0 5 1.3 5 5.4v15.4h6v-16c0-3.6-0.7-5.8-2.4-7.4-1.8-1.7-3.4-2.1-8.9-2.1z"/>
				<path id="Layer" class="s0" d="m233.4 0v4.8h-8c-3.5 0-4.6 1.1-4.6 4.8v16h-5.6v-16.5c0-4 0.5-5.8 2-7.1 1.7-1.5 3.6-2 7.9-2 0 0 8.2 0 8.3 0z"/>
				<path id="Layer" class="s0" d="m178.6 2.1c-1.8-1.7-3.4-2.1-8.9-2.1h-9.5v25.5h5.9v-20.8h3.9c3.8 0 5.1 1.3 5.1 5.4v15.4h5.9v-16c0-3.6-0.6-5.8-2.4-7.4z"/>
				<path id="Layer" fill-rule="evenodd" class="s0" d="m242.8 5.3c1.1-0.4 2.6-0.6 4.2-0.6h10.6v-4.7h-11.4c-3.4 0-4.8 0.2-6.5 0.9q-1.6 0.7-2.8 1.8c-2.2 2.2-3.6 5.9-3.6 9.9 0 4.5 1.3 8 3.8 10.3 2.2 2 4.3 2.7 9.2 2.7h11.3v-4.7h-10.8c-5 0-7.3-2.5-7.3-7.9 0-4 1.2-6.7 3.3-7.6z"/>
				<path id="Layer" fill-rule="evenodd" class="s0" d="m207.4 2.7c2.5 2.2 3.7 5.7 3.7 10.2 0 4.1-1.3 7.7-3.6 9.9q-1.2 1.2-2.7 1.8c-1.6 0.7-2.9 0.9-5.9 1h-0.5c-4.8 0-7.2-0.7-9.5-2.7-2.5-2.3-3.7-5.8-3.7-10.3 0-4 1.3-7.7 3.6-9.9q1.2-1.1 2.7-1.8c1.8-0.7 3.1-0.9 6.5-0.9h0.5c4.6 0 6.7 0.7 8.9 2.7zm-5.8 17.5c2.2-0.9 3.4-3.7 3.4-7.7 0-5-2.1-7.5-6.5-7.8-1.6 0-2.8 0.2-3.9 0.6-2.1 1-3.3 3.7-3.3 7.7 0 5.3 2.1 7.8 7.1 7.8 1.2-0.1 2.4-0.3 3.2-0.6z"/>
				<path id="Layer" fill-rule="evenodd" class="s0" d="m280.5 10v-0.5c0-1.7-0.1-2.5-0.7-3.3-0.7-1.2-1.8-1.5-4.8-1.5h-11.9v-4.7h12.5c1 0 1.9 0.1 2.7 0.1 3 0.1 4.9 0.9 6.3 2.5q0.9 1.1 1.3 2.5c0.5 1.4 0.6 2.4 0.6 5.1v15.3h-13.8c-3.9 0-4.6 0-6.2-0.5-2.9-0.8-4.8-3.6-4.8-7.1 0-2.4 0.8-4.5 2.3-6 1.5-1.4 3.5-1.9 7.7-1.9zm-8.3 4.6c-1.6 0-2.1 0.1-2.8 0.4-1 0.4-1.6 1.5-1.6 2.8 0 2.3 1.2 3.1 4.4 3.1h8.3v-6.3zm8.3-4.6h-0.1z"/>
				<path id="Layer" fill-rule="evenodd" class="s0" d="m138.7 15.5v0.6c0 1.6 0.1 2.5 0.6 3.3 0.8 1.1 1.9 1.5 4.9 1.5h11.9v4.6c-1 0-14.4 0-15.2 0-3-0.2-4.9-0.9-6.3-2.5q-1-1.2-1.4-2.6c-0.4-1.4-0.5-2.4-0.5-5.1v-15.3h13.7c4 0 4.7 0 6.3 0.5 2.9 0.8 4.8 3.6 4.8 7.1 0 2.4-0.9 4.6-2.3 6-1.6 1.4-3.5 1.9-7.7 1.9zm0-4.6h8.3c1.6 0 2.1-0.1 2.7-0.4 1.1-0.3 1.7-1.4 1.7-2.8 0-2.2-1.2-3-4.4-3h-8.3zm-0.1 4.6h0.1z"/>
				<path id="Layer" fill-rule="evenodd" class="s0" d="m331.6 28.7q0.4 0.3 0.2 0.8c-0.1 0.1-0.2 0.2-0.4 0.2q-0.2-0.1-0.5-0.2-0.2-0.1-0.5-0.3 0 0-0.1-0.1c-0.1-0.2-0.4-0.4-0.7-0.4h-2.5q-2.3 0-4.6 0.3-2.2 0.2-4.6 0.6l-0.3 0.1-2.5 0.5q-1.5 0.2-2.9 0.5-1.6 0.3-3.1 0.6-1.5 0.4-3 0.8c-2.1 0.6-4.3 1.2-6.4 1.9q-3.1 1-6.2 2.2-2.4 0.9-4.7 1.9-2.1 1-4.1 2.2c-0.2 0.1-0.4 0.4-0.4 0.8q0 0.5 0 1.1 0 0.8-0.3 1.5-0.3 1.3-1.1 2.3-0.7 1.1-1.7 1.9-0.8 0.7-1.8 1.2-1 0.5-2.1 0.7-0.6 0-1.2-0.1-0.5-0.1-1-0.3-0.5-0.3-0.8-0.8-0.2-0.4-0.1-1 0.2-0.8 0.7-1.5 0.5-0.7 1.1-1.2 0.7-0.8 1.5-1.4 0.8-0.7 1.6-1.3 0.8-0.6 1.7-1.2 0.7-0.5 1.3-0.8c0.4-0.2 0.5-0.6 0.4-1q0 0 0-0.1-0.1-0.5-0.3-0.9-0.3-0.7-0.7-1.3-0.2-0.3-0.5-0.7c-0.2-0.2-0.4-0.3-0.6-0.4-0.3 0-0.5 0.1-0.7 0.2q-0.2 0.2-0.4 0.3-1 0.9-2 1.7-1.8 1.2-3.7 2.3-1.9 1.1-3.9 2-2 0.8-4.1 1.1c-1.4 0.3-2.9 0.2-4.3 0q-1.3-0.3-2.5-1c-0.7-0.5-1.3-1.2-1.5-2.1q-0.1-0.4-0.2-0.9c0-0.3-0.1-0.5-0.4-0.7-0.2-0.1-0.6-0.1-0.8 0q-0.4 0.2-0.8 0.4-2.3 1.1-4.8 1.9-1 0.2-1.9 0.4-1 0.2-2 0.2-0.9 0-1.8-0.3-0.9-0.4-1.6-1-0.6-0.8-0.8-1.7-0.1-0.2-0.2-0.4c0-0.2-0.4-0.5-0.5-0.7h-0.4c0 0.1-1.8 0.8-2.4 1.1q-0.4 0.4-0.9 0.7-0.4 0.3-0.9 0.6-1.1 1-2.2 2-1.1 1.1-2.1 2.2-0.2 0.1-0.4 0.1-0.2 0-0.4 0-0.2-0.1-0.4-0.3-0.2-0.1-0.3-0.3-0.5-1.6-0.2-3.3v-0.2l-0.4 0.2q-0.1 0-0.1 0.1-1.1 0.5-2.2 1.1-2 1.1-3.9 2.1c-1.3 0.7-2.7 1.3-4 1.9q-1.8 0.9-3.7 1.7-1.9 0.7-3.9 1.2-0.7 0.2-1.4 0.3-0.8 0.1-1.5-0.1c-0.7-0.2-1.3-0.6-1.7-1.2-0.5-0.5-0.8-1.2-0.8-1.9q-0.1-1.1 0.1-2.2 0-0.1 0-0.2 0.1-0.1 0.1-0.1l0.1-0.4-0.3 0.2q-1.6 1.4-3.2 2.6-1.8 1.3-3.7 2.5-2 1.1-4 2-2.2 0.9-4.5 1.4-0.8 0.2-1.7 0.3-0.8 0-1.7-0.1-1.2-0.1-2.3-0.6-1.1-0.5-1.8-1.5-0.7-0.8-1.1-1.8-0.4-1.1-0.7-2.2 0-0.2-0.1-0.5c-0.8 0.9-1.7 1.7-2.3 2.2-1.7 1.4-3.4 2.8-5.1 4.1-1.8 1.4-3.6 2.7-5.5 3.8-1.8 1.2-3.7 2.4-5.6 3.6-1.7 1-3.4 1.9-5.1 2.8-1.7 0.9-3.4 1.8-5.2 2.7q-1.8 0.8-3.7 1.6-1.8 0.8-3.8 1.3l-1.2 0.3q-0.6 0.1-1.1 0-0.1 0-0.1 0-0.5-0.1-0.9-0.3-0.5-0.2-0.4-0.7c0-0.1 0.1-0.3 0.3-0.3q0.3 0 0.5 0 0.2 0.1 0.6 0.2 0.1 0 0.1 0c0.2 0.2 0.5 0.3 0.8 0.2l2.4-0.7q2.2-0.8 4.3-1.7 2.1-1 4.1-2.1l0.3-0.2 2.3-1.2q1.3-0.6 2.6-1.3 1.4-0.8 2.7-1.6 1.3-0.8 2.7-1.7c1.8-1.2 3.7-2.4 5.5-3.7 1.7-1.3 3.5-2.6 5.2-4q2-1.6 3.8-3.3 0.8-0.7 1.5-1.4-0.3-1.4-0.3-2.8-0.4-3.9-0.1-7.7 0.1-2 0.3-4 0.3-1.9 0.7-3.7 0.7-3.5 2-6.8 0.6-1.4 1.5-2.8 0.7-1.2 1.7-2.2 1.7-1.6 3.8-1.9 0.1-0.1 0.3-0.1 0.8-0.1 1.6 0.1 0.8 0.2 1.4 1c0.3 0.4 0.5 0.9 0.6 1.4q0.2 0.9 0.1 1.7 0 1.1-0.3 2.1-0.2 1-0.5 2c-0.5 1.7-2.3 8.2-5.2 14-2.1 4.5-4.4 8-5.4 9.3v0.1c-0.3 0.3-0.4 0.5-0.4 0.5q0 0.9 0.1 1.8 0.1 0.7 0.3 1.3v0.2c0.1 0.3 0.2 0.9 0.4 1.2 0.3 0.8 0.8 1.1 1.2 1.5q0.1 0.1 0.3 0.2c0.1 0.1 1.1 0.5 1.3 0.5 0.8 0.2 2.2 0.2 2.5 0.1q0.5-0.1 1-0.2 2.2-0.5 4.2-1.4 2.1-0.9 4-2.1 1.7-1 3.2-2.1 1.5-1.1 3.1-2.4 1.3-1 2.5-2.2 0.1-0.1 0.3-0.1l0.1-0.1c0.1-0.3 0.2-0.6 0.4-0.9 0-0.1 0.1-0.2 0.3-0.2q0.3-0.1 0.6 0.1 0.3 0.1 0.5 0.3c0.1 0.1 0 0.5 0 0.5v0.1q-0.7 1.4-1.1 2.8 0 0.1 0 0.1-0.2 0.5-0.2 1-0.1 0.5-0.2 1.1-0.1 0.5 0 1c0 0.1 0 0.8 0.5 1.3q0 0 0 0.1c0.4 0.3 0.9 0.4 1.4 0.4 0.2-0.1 1.7-0.3 2-0.4 1.3-0.4 2.7-1 4-1.5q1.9-0.8 3.8-1.8c2.5-1.2 5-2.5 7.4-3.8q0.7-0.4 1.3-0.7 0.6-0.3 1.1-0.6 0.4-0.3 0.8-0.4l0.1-0.1h0.1v-0.1c0 0 0.3-0.9 0.5-1.3q0.6-1 1.3-1.9 0.7-0.9 1.6-1.6 0.2-0.3 0.6-0.5c0.2-0.1 0.4-0.1 0.7-0.1q0.5 0.1 0.9 0.4 0.3 0.3 0.1 0.8-0.2 0.4-0.4 0.7l-0.7 0.8q-0.2 0.3-0.5 0.6-0.4 0.4-0.7 0.8-0.5 0.6-1 1-0.4 0.4-0.8 0.8-0.1 0.2-0.2 0.4 0 0.2-0.1 0.4 0 0.2-0.1 0.6c-0.4 1.4-0.5 1.9-0.3 2q0.1 0.1 0.3 0c0-0.1 0.4-0.4 0.9-1 0.4-0.4 0.9-0.9 1-1q0.9-0.8 2-1.6 0.6-0.5 1.4-1 0.7-0.5 1.6-0.7 0.8-0.3 1.7-0.3 0.8 0.1 1.5 0.7 0.4 0.3 0.6 0.7 0.2 0.4 0.3 0.8 0.1 0.1 0.1 0.2c0 0 1.2 1.6 1.4 1.6 0 0 0.4 0.1 0.7 0.1q0.1 0 0.2 0c0.6-0.1 1.6-0.2 1.7-0.2q1.4-0.2 2.7-0.8 1.5-0.4 2.9-1.1 1.3-0.6 2.7-1.4l1.3-0.9q0.4-0.2 0.7-0.4c0.1-0.1 0.4-0.3 0.5-0.4h0.1q0.4-0.7 1-1.4 0.8-0.9 1.8-1.6 0.4-0.3 0.9-0.5 0.5-0.3 1-0.4c0.8-0.1 1.7 0 2.4 0.5q0.5 0.2 0.7 0.6 0.3 0.4 0.2 0.9-0.1 0.5-0.4 0.9-0.3 0.4-0.7 0.7-0.9 1-1.9 1.8-1.1 0.8-2.2 1.6-0.7 0.4-1.3 0.8-0.6 0.4-1.2 0.8h-0.1v0.5c0.8 2.2 4.2 2 4.3 2q2.2-0.1 4.2-0.7 2-0.7 3.9-1.7 1.7-0.9 3.3-2 1.6-1.1 3.1-2.3 0.6-0.6 1.3-1.1 0.3-0.3 0.7-0.7 0.3-0.2 0.3-0.6 0-0.3 0-0.5 0.2-0.6 0.5-1.2 0.3-0.5 0.7-1 1-1 2-1.6 0.5-0.3 0.9-0.5 0.5-0.3 1-0.3 0.5 0 1.2 0.3 0.6 0.3 0.6 0.9c0 0.3-0.1 0.5-0.3 0.8q-0.3 0.3-0.6 0.6-0.4 0.4-0.9 0.8-0.4 0.4-0.9 0.7-0.6 0.5-1.3 0.9-0.2 0.2-0.9 0.7c-0.3 0.3-0.4 0.7-0.2 1.1 0.2 0.4 0.5 0.8 0.6 0.9q0.1 0.2 0.3 0.4c0.1 0.1 0.6 1 1 1.9 0.2 0.4 0.8 0.6 1.2 0.3 1.3-0.6 3.9-1.9 5.3-2.5q3-1.3 6.1-2.3c2.1-0.8 4.3-1.4 6.4-2q3.1-0.8 6.4-1.7c1.9-0.4 3.9-0.8 5.8-1.1q2.8-0.5 5.7-0.9 2-0.2 4-0.4 2-0.2 4-0.1l1.3 0.1q0.5 0.1 1.1 0.3 0 0 0.1 0.1 0.4 0.2 0.7 0.5zm-49.7 3.5l0.8-0.5c0.6-0.5 1.3-0.9 1.7-1.5l0.4-0.6-0.6 0.5q-0.3 0.2-0.5 0.3-0.2 0.2-0.5 0.4-0.4 0.3-0.7 0.7zm-22.8 5.7q0 0 0.1 0c0.2 0 0.7-0.3 0.7-0.3q0.1-0.1 0.2-0.1 0.2-0.1 0.4-0.3l0.4-0.3 0.3-0.2c0.5-0.4 0.7-0.5 1.2-0.9l0.2-0.2q1-0.8 1.8-1.7c0.2-0.2 0.7-1.1 0.5-1.3q-0.2-0.3-1-0.2-0.2 0.1-0.5 0.3-0.6 0.4-1.1 0.9c-0.4 0.3-1 0.9-1.5 1.4-0.2 0.2-0.8 0.9-1 1.2q-0.1 0.3-0.3 0.5c-0.1 0.4-0.4 0.9-0.4 1q-0.1 0.1 0 0.2zm-76.2-0.8q0 2.4 0.3 4.8v0.4c0 0 4.3-6.9 5.4-9.4 1.2-2.5 3.7-9.8 4-10.7l1-2.7v-0.2q0-0.3 0.2-0.6 0-0.3 0.1-0.5 0.1-0.3 0.1-0.6 0.1-0.4 0.2-0.9 0.1-0.6 0.2-1.1 0-0.2 0-0.4 0-0.2 0-0.4c0 0 0-0.1-0.1-1q-0.1-0.4-0.3-0.8-0.2-0.2-0.6-0.3c-0.4 0-1.2 0-2.3 0.4-0.1 0.1-0.8 0.4-1 0.6q-0.5 0.3-1 0.8-0.2 0.2-0.4 0.5-0.2 0.2-0.4 0.4-0.1 0-0.1 0.1-0.1 0-0.1 0.1-0.2 0.1-0.2 0.3 0 0.1-0.2 0.3-0.1 0.1-0.2 0.3-0.9 1.2-1.4 2.7-0.6 1.5-1.2 3-0.5 1.7-0.8 3.5-0.4 1.8-0.7 3.7-0.3 1.9-0.4 3.8-0.1 1.9-0.1 3.9zm99.8 4.3l-0.4 0.3q-1.5 1-3 2.1-1.4 1.1-2.5 2.5-0.3 0.3-0.5 0.6-0.2 0.4-0.4 0.8h-0.1c0 0.1-0.2 0.5 0 0.8q0.1 0.3 0.5 0.4 0 0 0.1 0 0.5 0 0.9-0.2 0.1-0.1 0.3-0.1 0.1-0.1 0.2-0.2c0.1 0 1.1-0.6 1.3-0.8 1.3-0.9 2.4-2.2 3.1-3.7q0 0 0-0.1 0.2-0.5 0.3-1 0.1-0.5 0.2-1.1zm-98.8 2.3z"/>
				<g id="Layer">
					<path id="Layer" fill-rule="evenodd" class="s0" d="m223.1 56.1c1.7 0 3 1.2 3 3 0 1.8-1.3 3-3 3-0.9 0-1.6-0.3-2.1-1v0.9h-1v-8.2h1.1v3.3c0.4-0.7 1.2-1 2-1zm1.9 3c0-1.2-0.9-2.1-2-2.1-1.1 0-2 0.9-2 2.1 0 1.2 0.9 2.1 2 2.1 1.1 0 2-0.9 2-2.1z"/>
					<path id="Layer" class="s0" d="m231.5 56.2l-2 4.7-2.1-4.7h-1.1l2.6 5.8-0.2 0.4c-0.3 0.7-0.6 0.9-1.1 0.9q-0.6 0-1-0.4l-0.5 0.8c0.4 0.3 1 0.5 1.5 0.5 0.9 0 1.6-0.4 2.1-1.6l2.8-6.4z"/>
					<path id="Layer" class="s0" d="m238.2 62h1.1v-6.7h2.6v-1h-6.4v1h2.7z"/>
					<path id="Layer" class="s0" d="m243.8 57.2v-1h-1v5.8h1.1v-2.9c0-1.3 0.7-2 1.8-2q0.1 0 0.3 0.1v-1.1q-1.6 0-2.2 1.1z"/>
					<path id="Layer" fill-rule="evenodd" class="s0" d="m249.4 56.1c1.6 0 2.5 0.8 2.5 2.4v3.5h-1v-0.8c-0.4 0.6-1 0.9-1.9 0.9-1.4 0-2.2-0.7-2.2-1.7 0-1 0.6-1.8 2.3-1.8h1.7v-0.2c0-0.9-0.5-1.4-1.5-1.4-0.7 0-1.4 0.3-1.9 0.7l-0.4-0.8c0.6-0.5 1.4-0.8 2.4-0.8zm1.5 4.1v-0.8h-1.7c-1 0-1.3 0.4-1.3 0.9 0 0.6 0.5 1 1.3 1 0.8 0 1.4-0.4 1.7-1.1z"/>
					<path id="Layer" class="s0" d="m255.5 62.1c1.6 0 2.6-0.7 2.6-1.7 0-2.3-3.7-1.2-3.7-2.6 0-0.4 0.4-0.8 1.3-0.8 0.6 0 1.2 0.1 1.7 0.5l0.5-0.9c-0.5-0.3-1.4-0.5-2.2-0.5-1.5 0-2.4 0.7-2.4 1.8 0 2.3 3.7 1.1 3.7 2.5 0 0.5-0.4 0.8-1.4 0.8-0.7 0-1.5-0.3-2-0.7l-0.5 0.9c0.5 0.4 1.5 0.7 2.4 0.7z"/>
					<path id="Layer" class="s0" d="m266.7 56.1c-1 0-1.8 0.4-2.3 1.1-0.3-0.7-1.1-1.1-2-1.1-0.9 0-1.6 0.3-2 0.9v-0.8h-1v5.8h1v-3c0-1.3 0.7-1.9 1.8-1.9 1 0 1.5 0.5 1.5 1.7v3.2h1.1v-3c0-1.2 0.7-1.9 1.7-1.9 1 0 1.5 0.5 1.5 1.7v3.2h1.1v-3.3c0-1.8-1-2.6-2.4-2.6z"/>
					<path id="Layer" fill-rule="evenodd" class="s0" d="m273.2 56.1c1.6 0 2.5 0.8 2.5 2.4v3.5h-1v-0.8c-0.4 0.6-1 0.9-1.9 0.9-1.4 0-2.2-0.7-2.2-1.7 0-1 0.6-1.8 2.3-1.8h1.7v-0.2c0-0.9-0.5-1.4-1.5-1.4-0.7 0-1.5 0.3-1.9 0.7l-0.4-0.8c0.6-0.5 1.4-0.8 2.4-0.8zm1.4 4.1v-0.8h-1.6c-1 0-1.3 0.4-1.3 0.9 0 0.6 0.4 1 1.3 1 0.8 0 1.4-0.4 1.6-1.1z"/>
					<path id="Layer" fill-rule="evenodd" class="s0" d="m283.7 59.1c0 1.8-1.2 3-2.9 3-0.9 0-1.6-0.3-2.1-1v3.1h-1v-8h1v0.9c0.4-0.7 1.2-1 2.1-1 1.7 0 2.9 1.2 2.9 3zm-1.1 0c0-1.2-0.8-2.1-1.9-2.1-1.1 0-2 0.9-2 2.1 0 1.2 0.9 2.1 2 2.1 1.1 0 1.9-0.9 1.9-2.1z"/>
					<path id="Layer" class="s0" d="m285.7 55c0.4 0 0.7-0.3 0.7-0.7 0-0.3-0.3-0.6-0.7-0.6-0.4 0-0.7 0.3-0.7 0.7 0 0.4 0.3 0.6 0.7 0.6zm-0.5 7h1v-5.8h-1z"/>
				</g>
			</g>
		</g>
	</g>
</svg>