<?xml version="1.0" encoding="UTF-8"?>
<svg id="Capa_2" data-name="Capa 2" xmlns="http://www.w3.org/2000/svg" viewBox="0 0 152.01 157.02">
  <defs>
    <style>
      .cls-1 {
        fill: #fff;
      }

      .cls-2 {
        fill: #0e4c5b;
      }

      .cls-3 {
        fill: #c4e6f6;
      }

      .cls-4 {
        fill: #0f5970;
      }

      .cls-5 {
        fill: #d1ebf4;
      }

      .cls-6 {
        fill: #8bcdef;
      }
    </style>
  </defs>
  <g id="Capa_1-2" data-name="Capa 1">
    <g>
      <path class="cls-1" d="m76.37,157.02c-2.74,0-5.31-.89-7.39-2.42-10.03-1.09-27.97-5.38-46.46-21.13-4.32-1.15-7.74-4.56-8.89-8.88-5.27-6.38-8.78-13.3-10.46-20.65-1.98-2.22-3.17-5.15-3.17-8.33,0-2.67.86-5.18,2.33-7.25.93-7.95,3.89-15.77,8.67-22.94.5-5.31,4.31-9.66,9.35-10.97,1.91-1.78,3.92-3.43,6.02-4.95,2.56-1.85,4.87-3.54,6.96-5.1l.78-1.24,1.28-.3c.07-.05.14-.11.21-.16l.07.09.63-.15c1.26-5.27,5.86-9.25,11.42-9.59.37-.32.7-.62.99-.88.81-3.94,3.62-7.16,7.32-8.54l7.79-8.15c0-8.54,6.95-15.48,15.49-15.48s15.5,6.95,15.5,15.49c0,.56-.03,1.11-.09,1.66l5.52,7.28c3.03,1.73,5.21,4.79,5.74,8.38,5.47.46,9.96,4.46,11.16,9.7,2.81,2.17,5.94,4.51,9.36,6.99,2.21,1.6,4.33,3.35,6.32,5.22,5.09,1.32,8.94,5.78,9.35,11.17.33.51.65,1.02.96,1.54.55.68,1.06,1.38,1.51,2.1,1.21,1.92,1.88,3.84,2.31,5.43,2.25,5.39,3.54,10.88,3.83,16.32.05.93.07,1.87.06,2.82.75,1.62,1.16,3.41,1.16,5.26,0,3.34-1.31,6.41-3.48,8.68-1.9,5.73-4.93,11.17-9.07,16.25-.7,5.84-5.43,10.46-11.32,10.98-13.08,10.54-25.52,15.32-33.96,17.48-4.05,1.04-7.61,1.61-10.5,1.9-2.08,1.49-4.61,2.36-7.31,2.36Z"/>
      <g>
        <g>
          <g>
            <path class="cls-3" d="m80.52,115.32c-1.31-1.87-3.09-2.26-3.09-2.26,1.13-3.97-3.36-5.79-6.45-6.55-1.52-.38-2.82-1.34-3.61-2.69l-.53-.9-5.13,3.01.53.9c.79,1.35,1,2.96.59,4.47-.84,3.07-1.45,7.88,2.57,8.83,0,0-.52,1.74.47,3.8.76,1.59,7.58,13.07,10.68,18.26,1,1.68,2.99,2.51,4.89,2.05,1.45-.35,3.22-.95,5.03-1.98,1.78-1.07,3.17-2.32,4.18-3.42,1.33-1.44,1.58-3.57.6-5.27-3.02-5.24-9.71-16.8-10.72-18.23Z"/>
            <path class="cls-6" d="m65.41,122.59l14.17-8.31c-1.09-.97-2.14-1.22-2.14-1.22.29-1.03.2-1.9-.13-2.66l-14.17,8.31c.5.66,1.22,1.17,2.26,1.41,0,0-.3,1.04.02,2.46Z"/>
            <path class="cls-5" d="m81.85,143.98c-1.91.46-3.89-.36-4.89-2.05-3.1-5.19-9.92-16.67-10.68-18.26-.99-2.06-.47-3.8-.47-3.8-4.02-.95-3.41-5.76-2.57-8.83.41-1.51.2-3.12-.59-4.47l-.53-.9-.42.25.53.9c.79,1.35,1,2.96.59,4.47-.84,3.07-1.45,7.88,2.57,8.83,0,0-.52,1.74.47,3.8.76,1.59,7.58,13.07,10.68,18.26,1,1.68,2.99,2.51,4.89,2.05,1.45-.35,3.22-.95,5.03-1.98.07-.04.13-.09.2-.13-1.73.95-3.42,1.53-4.81,1.87Z"/>
            <path class="cls-6" d="m67.69,104.25c-.11-.15-.23-.28-.32-.44l-.53-.9-5.13,3.01.53.9c.09.16.15.33.23.49l5.23-3.06Z"/>
            <rect class="cls-6" x="59.01" y="100.49" width="8.42" height="4.27" rx=".81" ry=".81" transform="translate(-43.23 46.08) rotate(-30.39)"/>
            <path class="cls-6" d="m80.52,115.32c-1.31-1.87-3.09-2.26-3.09-2.26,1.13-3.97-3.36-5.79-6.45-6.55-1.52-.38-2.82-1.34-3.61-2.69l-.53-.9-2.46,1.44c.16,1.16.93,3.45,4.43,5.13,4.89,2.35,6.52,3.77,5.38,5.12,0,0,13.38,20.69,14.49,26.06.76-.62,1.42-1.25,1.96-1.84,1.33-1.44,1.58-3.57.6-5.27-3.02-5.24-9.71-16.8-10.72-18.23Z"/>
          </g>
          <g>
            <path class="cls-3" d="m84.32,43.42c-.18-2.28-1.51-3.52-1.51-3.52,2.99-2.85.05-6.69-2.22-8.92-1.12-1.1-1.75-2.59-1.74-4.16v-1.04s-5.95-.02-5.95-.02v1.04c0,1.57-.65,3.06-1.77,4.15-2.29,2.22-5.26,6.04-2.28,8.91,0,0-1.33,1.23-1.53,3.51-.15,1.75-.12,15.11-.09,21.15,0,1.96,1.3,3.68,3.17,4.25,1.43.44,3.26.82,5.34.85,2.08-.02,3.91-.39,5.34-.82,1.88-.56,3.18-2.27,3.2-4.23.06-6.04.19-19.4.04-21.15Z"/>
            <path class="cls-6" d="m67.61,41.99l16.42.05c-.44-1.39-1.22-2.14-1.22-2.14.77-.73,1.14-1.54,1.24-2.36l-16.43-.05c.09.82.46,1.63,1.22,2.37,0,0-.79.75-1.24,2.13Z"/>
            <path class="cls-5" d="m70.88,68.76c-1.87-.57-3.16-2.29-3.17-4.25-.03-6.04-.06-19.4.09-21.15.2-2.28,1.53-3.51,1.53-3.51-2.98-2.87,0-6.69,2.28-8.91,1.12-1.09,1.76-2.58,1.77-4.15v-1.04s-.49,0-.49,0v1.04c0,1.57-.65,3.06-1.77,4.15-2.29,2.22-5.26,6.04-2.28,8.91,0,0-1.33,1.23-1.53,3.51-.15,1.75-.12,15.11-.09,21.15,0,1.96,1.3,3.68,3.17,4.25,1.43.44,3.26.82,5.34.85.08,0,.16-.01.24-.01-1.97-.06-3.72-.42-5.09-.84Z"/>
            <path class="cls-6" d="m78.9,27.36c-.02-.18-.05-.36-.05-.54v-1.04s-5.95-.02-5.95-.02v1.04c0,.18-.04.36-.06.54l6.06.02Z"/>
            <rect class="cls-6" x="71.67" y="21.55" width="8.42" height="4.27" rx=".81" ry=".81" transform="translate(.08 -.24) rotate(.18)"/>
            <path class="cls-6" d="m84.32,43.42c-.18-2.28-1.51-3.52-1.51-3.52,2.99-2.85.05-6.69-2.22-8.92-1.12-1.1-1.75-2.59-1.74-4.16v-1.04s-2.85,0-2.85,0c-.45,1.08-.95,3.44,1.21,6.67,3.02,4.51,3.69,6.56,2.03,7.14,0,0,1,24.62-.78,29.8.97-.15,1.86-.36,2.62-.59,1.88-.56,3.18-2.27,3.2-4.23.06-6.04.19-19.4.04-21.15Z"/>
          </g>
          <g>
            <g>
              <path class="cls-3" d="m41.29,49.39s-1.54,15.19-16.59,26.55l21.83,13.64c3.6-18.5,16.59-26.55,16.59-26.55l-21.83-13.64Z"/>
              <rect class="cls-6" x="39.75" y="54.74" width="25.74" height="1.6" transform="translate(37.43 -19.45) rotate(32)"/>
              <rect class="cls-6" x="22.32" y="82.64" width="25.74" height="1.6" transform="translate(49.56 -5.97) rotate(32)"/>
            </g>
            <path class="cls-6" d="m63.12,63.04l-4.53-2.83c-2.43,1.49-5.86,4.23-8.59,8.96-4.76,8.23-13.48,2.07-9,7.35,4.49,5.28,4.88,8.13-.47,6.41-1.48-.47-2.35.08-2.85,1.12l8.84,5.53c3.6-18.5,16.59-26.55,16.59-26.55Z"/>
            <path class="cls-6" d="m30.5,73.35c-1.33,3.58,7.39-6.38,10.23-15.31,1-3.15,1.92-5.81,2.31-7.55l-1.75-1.09s-1.54,15.19-16.59,26.55l.86.54c3.03-2.15,5.91-5.73,4.95-3.13Z"/>
          </g>
          <g>
            <path class="cls-3" d="m95.31,69.79c-2.98-4.43-6.29-16.04-9.77-14.58-3.48,1.45.26,14.49.26,14.49,0,0-9.43,5.6-13.73,6.6,0,0-6.2-11.35-9.17-10.41-2.97.95.09,9.38,2.12,13.36,3.85,7.53,8.68,27.22,17.32,29.02,0,0,19.64-4.77,25.79-13.08,0,0-5.16-13.98-12.83-25.4Zm-27.83,9.21s-5.15-11.21-4.12-11.11c1.04.11,6.24,9.64,6.24,9.64-.56.76-2.13,1.46-2.13,1.46Zm23.23-11.38s-2.34.53-3.64,1.58c0,0-2.64-12.1-.99-12.74,1.64-.63,4.63,11.16,4.63,11.16Z"/>
            <path class="cls-6" d="m93.23,77.53c-2.34,6.15-5.05,8.46-.22,5.22,4.83-3.24,14.87-.25,5.97,9.27s-12.44,11.83-2.4,7.01c10.05-4.82,8.35-1.03-4.77,4.18-11.72,4.66-20.07-12.72-25.25-20.54,3.62,8.85,8.25,24.03,15.79,25.6,0,0,19.64-4.77,25.79-13.08,0,0-5.16-13.98-12.83-25.4-.26-.39-.53-.84-.8-1.33.1,2.58-.09,5.95-1.28,9.07Z"/>
            <path class="cls-6" d="m71.53,90.91s12.45-8.62,11.52-6.48c-.93,2.14-1.34,1.51-5.19,4.8-6.11,5.22-9.16,4.24-6.33,1.68Z"/>
            <path class="cls-5" d="m79.12,93.03s10.43-6.9,15.93-8.01,1.78,2.08-1.03,4.06c-2.82,1.99-9.39,5.88-4.65,4.59,4.75-1.29,6.57-.69.78,3.08-5.79,3.77-7.21,4.74-5.47,2.44,1.74-2.3,6.96-5.75.68-3.42-6.28,2.33-7.35,2.47-4.82-.32,2.53-2.78-3.21-.65-1.42-2.42Z"/>
            <path class="cls-6" d="m68.77,81.1s1.59-2.15,6.69-4.54c5.1-2.39,13.73-5.92,15.36-7.11,1.62-1.18,5.73-1.25-1.39,2.34-7.11,3.59-12.33,5.06-14.26,6.22-1.93,1.16-7.71,5.2-6.4,3.1Z"/>
            <path class="cls-5" d="m91.78,74.22c-.37-.67-4.84,1.47-10.21,4.41-5.36,2.93-9.59,5.54-9.22,6.21.37.67,5.01-1.16,10.38-4.09s9.42-5.85,9.05-6.52Z"/>
          </g>
          <g>
            <path class="cls-3" d="m55.81,107c.69-4.5,5.3-13.7,2.28-14.8-3.03-1.1-8.19,9.25-8.19,9.25,0,0-9.16-1.92-12.43-3.77,0,0,2.65-10.71.24-11.83s-5.36,5.94-6.37,9.62c-1.93,6.96-10.25,22.11-5.86,28.22,0,0,15.09,8.34,23.75,6.66,0,0,4.82-11.76,6.59-23.36Zm-22.79-10.27s3.23-10.02,3.82-9.35c.59.67-1.64,9.66-1.64,9.66-.79.15-2.18-.31-2.18-.31Zm21.16,6.25s-1.77-1.02-3.2-1.11c0,0,5.33-9.12,6.72-8.57,1.4.55-3.53,9.68-3.53,9.68Z"/>
            <path class="cls-6" d="m50.05,110.66c-5.02,2.52-8.06,2.4-3.15,3.15s9.48,8.42-1.6,9.26c-11.08.84-14.64.25-5.55,3.02,9.09,2.77,5.84,4.17-5.41-.12-10.05-3.84-5.27-19.57-4.02-27.47-2.83,7.65-8.67,19.85-4.85,25.19,0,0,15.09,8.34,23.75,6.66,0,0,4.82-11.76,6.59-23.36.06-.4.15-.84.27-1.3-1.42,1.68-3.49,3.69-6.03,4.96Z"/>
            <path class="cls-6" d="m28.69,106.56s12.79,1.76,10.97,2.57c-1.82.81-1.71.18-6.03.02-6.85-.24-8.2-2.62-4.94-2.6Z"/>
            <path class="cls-5" d="m32.24,112.26s10.54,1.68,14.63,4.16c4.09,2.48-.08,2.33-2.99,1.96s-9.29-1.72-5.57.2c3.73,1.93,4.53,3.36-1.28,2.38-5.81-.98-7.27-1.18-4.84-1.62,2.42-.44,7.69.4,2.4-1.76-5.29-2.16-6.04-2.69-2.85-2.98,3.2-.29-1.64-2.26.5-2.34Z"/>
            <path class="cls-6" d="m32.62,98.8s2.24-.43,6.83,1.01c4.59,1.44,12.04,4.2,13.75,4.39,1.7.19,4.32,2.52-2.22.67-6.54-1.85-10.67-3.93-12.55-4.32-1.88-.39-7.85-1.18-5.81-1.74Z"/>
            <path class="cls-5" d="m51.04,107.75c.16-.63-3.89-1.87-8.95-3.12-5.06-1.25-9.22-2.05-9.37-1.42-.16.63,3.82,2.16,8.88,3.41,5.06,1.25,9.29,1.76,9.45,1.12Z"/>
          </g>
          <g>
            <g>
              <path class="cls-6" d="m129.43,107.11c.28-.73-4.43-3.23-10.52-5.57-6.09-2.35-11.26-3.65-11.54-2.92-.28.73,4.43,3.23,10.52,5.57,6.09,2.35,11.26,3.65,11.54,2.92Z"/>
              <path class="cls-3" d="m129.41,107.15l-13.59,24.63c-2.73-.13-5.4-.7-7.91-1.67-2.52-.97-4.88-2.34-6.99-4.07l6.43-27.39c-.1.78,4.55,3.23,10.53,5.53,5.98,2.3,11.07,3.61,11.52,2.96Z"/>
              <path class="cls-6" d="m123.23,106.06c-.59,1.86-2.85,8.44-5.62,10.3-3.24,2.17-6.18,2.38-1.23,3.68,3.43.9-1.69,7.27-5.1,11.1,1.48.35,3,.56,4.54.64l13.59-24.63c-.31.44-2.76-.02-6.18-1.09Z"/>
              <path class="cls-6" d="m107.36,98.65l-6.43,27.39c.5.41,1.02.81,1.55,1.18.36-3.2,1.09-8.9,1.78-8.48.96.58.96.37,1.12-3.45.13-3.1,2.44-12.11,3.3-15.39-.87-.55-1.35-.99-1.32-1.25Z"/>
            </g>
            <path class="cls-5" d="m109.97,102.28s-3.03,12.94-1.3,13.68c4.93,2.12,11.8-4.74,10.75-8.48-.35-1.25-9.44-5.2-9.44-5.2Z"/>
          </g>
          <g>
            <g>
              <path class="cls-6" d="m118.84,56.9c-.43-.66-5.22,1.68-10.71,5.22-5.49,3.54-9.59,6.94-9.16,7.6s5.22-1.68,10.71-5.22c5.49-3.54,9.59-6.94,9.16-7.6Z"/>
              <path class="cls-3" d="m118.86,56.94l11.89,25.5c-1.71,2.13-3.74,3.95-6.01,5.41-2.26,1.46-4.76,2.56-7.41,3.24l-18.33-21.34c.57.54,5.29-1.77,10.68-5.25,5.39-3.48,9.44-6.82,9.18-7.57Z"/>
              <path class="cls-6" d="m114.33,61.3c1.15,1.58,5.14,7.28,5.01,10.61-.15,3.89-1.72,6.39,2.25,3.16,2.75-2.24,4.88,5.65,5.96,10.67,1.15-1,2.22-2.09,3.19-3.3l-11.89-25.5c.18.51-1.65,2.22-4.52,4.35Z"/>
              <path class="cls-6" d="m99,69.76l18.33,21.34c.63-.16,1.25-.35,1.87-.56-2.38-2.18-6.54-6.12-5.8-6.44,1.03-.43.87-.56-2.12-2.94-2.43-1.93-8.35-9.11-10.49-11.74-.96.38-1.6.51-1.78.33Z"/>
            </g>
            <path class="cls-5" d="m103.47,69.78s8.67,10.07,10.28,9.11c4.62-2.73,3.12-12.33-.52-13.68-1.22-.45-9.76,4.56-9.76,4.56Z"/>
          </g>
        </g>
        <g>
          <g>
            <path class="cls-2" d="m78.09,145.86c-.9,0-1.47-.04-1.66-.05-1.44.09-25.39,1.25-50.25-21.25-10.45-9.45-15.63-20.71-14.98-32.56.71-12.98,8.35-25.95,20.44-34.69,24.47-17.71,27.73-22.08,27.49-23.11l-.52-1.05h1.18s35.74.01,35.74.01l-.52,1.05c-.36.89,3.66,6.77,26.22,23.1h0c12.09,8.75,19.73,21.72,20.44,34.69.65,11.85-4.53,23.11-14.98,32.56-13.32,12.05-26.27,17.19-34.78,19.37-6.48,1.66-11.38,1.92-13.82,1.92Zm-17.53-111.24c-.48,2.23-5.27,7.37-28.07,23.87-11.74,8.49-19.15,21.05-19.83,33.59-.62,11.39,4.39,22.25,14.5,31.4,25.05,22.67,48.97,20.89,49.21,20.87h.06s.06,0,.06,0c.24.02,24.19,1.77,49.21-20.87,10.11-9.15,15.12-20,14.5-31.4-.68-12.54-8.1-25.1-19.83-33.59h0c-11.98-8.67-25.78-19.47-26.75-23.87h-33.06Z"/>
            <path class="cls-2" d="m75.16,145.87c-4.47,0-19.13-1.65-34.61-21.39-10.66-13.59-11.44-27.68-10.22-37.12,1.45-11.24,6.72-22.44,14.1-29.97,17.72-18.07,19.83-22.33,19.5-23.26l-.34-.97h26.59l-.34.97c-.38,1.1,3.01,7.37,18.6,23.26h0c7.38,7.53,12.65,18.73,14.1,29.97,1.22,9.43.43,23.53-10.22,37.12-17.72,22.6-34.37,21.49-35.88,21.34-.19.02-.63.05-1.27.05Zm-9.79-111.25c-.4,2.33-4.16,7.75-19.89,23.79-12.66,12.91-22.2,41.66-3.77,65.16,9.23,11.77,18.16,16.79,24.03,18.93,6.34,2.31,10.57,1.85,10.61,1.85h.09s.09,0,.09,0c.17.02,17,1.72,34.64-20.78,18.43-23.5,8.88-52.25-3.77-65.16-7.01-7.15-18.26-19.23-18.98-23.79h-23.04Z"/>
            <path class="cls-2" d="m76.93,145.86c-.21,0-.37-.02-.49-.04-.62.1-2.49.15-5.04-2.04-3.76-3.23-7.29-9.81-10.5-19.53-7.92-24.02-3.81-53.42,1.63-66.63,5.72-13.87,8.48-21.82,8.22-23.63l-.12-.84h12l-.12.84c-.23,1.57,1.69,8.7,7.84,23.63,5.44,13.2,9.54,42.61,1.63,66.63-3.2,9.73-6.74,16.3-10.5,19.53-2.06,1.77-3.67,2.08-4.54,2.08Zm-.49-1.54l.2.05c.05,0,6.72,1.33,13.94-20.58,7.8-23.67,3.77-52.62-1.59-65.61h0c-2.38-5.78-7.66-19.02-7.95-23.56h-8.83c-.17,2.11-1.68,7.44-8.33,23.56-5.36,13-9.39,41.94-1.59,65.61,7.22,21.91,13.89,20.59,13.96,20.58l.19-.04Z"/>
            <path class="cls-2" d="m76.92,50.61c-3.49,0-6.95-.19-10.34-.57-3.92-.43-7.81-1.13-11.57-2.07l-.09-.02c-2.19-.55-4.34-1.18-6.41-1.89l.47-1.39c2,.68,4.09,1.3,6.21,1.83l.09.02c3.72.94,7.57,1.63,11.46,2.06,6.32.71,12.88.74,19.48.11,3.92-.38,7.92-1,11.87-1.84,2.25-.48,4.54-1.04,6.82-1.68l.4,1.41c-2.31.65-4.63,1.22-6.91,1.7-4.01.86-8.06,1.48-12.04,1.87-3.16.3-6.32.46-9.44.46Z"/>
            <path class="cls-2" d="m75.2,135.23c-3.26,0-6.5-.14-9.7-.43-6.31-.56-12.6-1.7-18.7-3.38-8.37-2.31-16.32-5.62-23.63-9.83l.36-.63v-.74s.2,0,.2,0l.17.1c7.21,4.15,15.04,7.4,23.29,9.68,6.01,1.66,12.21,2.78,18.44,3.33,7.1.64,14.4.56,21.72-.24,6.18-.67,12.51-1.87,18.8-3.57l.1-.02c6.99-1.89,14.12-4.44,21.19-7.6l.29.66.53.52-.1.1-.13.06c-7.18,3.2-14.41,5.79-21.5,7.7l-.1.02c-6.33,1.71-12.7,2.91-18.93,3.58-4.12.45-8.23.67-12.31.67Z"/>
            <path class="cls-2" d="m74.62,77.19c-5.43,0-10.8-.28-16.1-.84-7.84-.82-15.56-2.27-22.94-4.29-4.62-1.27-9.14-2.77-13.43-4.46l.54-1.36c4.24,1.67,8.71,3.16,13.28,4.41,7.3,2,14.94,3.43,22.71,4.25,11.52,1.21,23.45,1.09,35.46-.36,7.44-.9,15.05-2.33,22.62-4.25,4.56-1.17,9.12-2.51,13.54-3.98l.46,1.39c-4.45,1.48-9.04,2.83-13.64,4.01-7.63,1.94-15.3,3.38-22.8,4.29-6.6.8-13.19,1.2-19.69,1.2Z"/>
            <path class="cls-2" d="m78.3,110.45c-6.85,0-13.62-.4-20.25-1.19-9.2-1.09-18.21-2.96-26.77-5.54-6.96-2.09-13.58-4.63-19.67-7.53l.63-1.32c6.02,2.87,12.57,5.38,19.46,7.45,8.49,2.56,17.41,4.41,26.53,5.49,11.81,1.41,24.06,1.56,36.41.43,8.67-.8,17.51-2.24,26.26-4.27,6.44-1.49,13-3.35,19.49-5.51l.46,1.39c-6.54,2.18-13.14,4.04-19.62,5.54-8.82,2.05-17.72,3.5-26.46,4.3-5.52.5-11.01.76-16.46.76Z"/>
          </g>
          <path class="cls-2" d="m61.57,33.95c0-.92-.75-1.67-1.67-1.67s-1.67.75-1.67,1.67.75,1.67,1.67,1.67,1.67-.75,1.67-1.67Z"/>
          <path class="cls-2" d="m96.39,33.95c0-.92-.75-1.67-1.67-1.67s-1.67.75-1.67,1.67.75,1.67,1.67,1.67,1.67-.75,1.67-1.67Z"/>
          <path class="cls-2" d="m66.8,34.06c0-.92-.75-1.67-1.67-1.67s-1.67.75-1.67,1.67.75,1.67,1.67,1.67,1.67-.75,1.67-1.67Z"/>
          <circle class="cls-2" cx="71.66" cy="34.04" r="1.96"/>
          <circle class="cls-2" cx="66.85" cy="49.4" r="2.59"/>
          <path class="cls-2" d="m57.86,47.54c0-1.43-1.16-2.59-2.59-2.59s-2.59,1.16-2.59,2.59,1.16,2.59,2.59,2.59,2.59-1.16,2.59-2.59Z"/>
          <path class="cls-2" d="m50.73,45.14c0-1.43-1.16-2.59-2.59-2.59s-2.59,1.16-2.59,2.59,1.16,2.59,2.59,2.59,2.59-1.16,2.59-2.59Z"/>
          <path class="cls-2" d="m14.3,95.83c0-1.43-1.16-2.59-2.59-2.59s-2.59,1.16-2.59,2.59,1.16,2.59,2.59,2.59,2.59-1.16,2.59-2.59Z"/>
          <path class="cls-2" d="m88.37,49.56c0-1.43-1.16-2.59-2.59-2.59s-2.59,1.16-2.59,2.59,1.16,2.59,2.59,2.59,2.59-1.16,2.59-2.59Z"/>
          <circle class="cls-2" cx="94.2" cy="75.59" r="2.59"/>
          <circle class="cls-2" cx="95.06" cy="109.06" r="2.59"/>
          <path class="cls-2" d="m90.2,133.69c0-1.43-1.16-2.59-2.59-2.59s-2.59,1.16-2.59,2.59,1.16,2.59,2.59,2.59,2.59-1.16,2.59-2.59Z"/>
          <path class="cls-2" d="m68.28,133.69c0-1.43-1.16-2.59-2.59-2.59s-2.59,1.16-2.59,2.59,1.16,2.59,2.59,2.59,2.59-1.16,2.59-2.59Z"/>
          <circle class="cls-2" cx="47.01" cy="130.55" r="2.59"/>
          <path class="cls-2" d="m27.68,121.91c0-1.43-1.16-2.59-2.59-2.59s-2.59,1.16-2.59,2.59,1.16,2.59,2.59,2.59,2.59-1.16,2.59-2.59Z"/>
          <circle class="cls-2" cx="76.38" cy="145.35" r="2.59"/>
          <path class="cls-2" d="m61.59,76.24c0-1.43-1.16-2.59-2.59-2.59s-2.59,1.16-2.59,2.59,1.16,2.59,2.59,2.59,2.59-1.16,2.59-2.59Z"/>
          <path class="cls-2" d="m60.51,108.63c0-1.43-1.16-2.59-2.59-2.59s-2.59,1.16-2.59,2.59,1.16,2.59,2.59,2.59,2.59-1.16,2.59-2.59Z"/>
          <path class="cls-2" d="m38.34,71.38c0-1.43-1.16-2.59-2.59-2.59s-2.59,1.16-2.59,2.59,1.16,2.59,2.59,2.59,2.59-1.16,2.59-2.59Z"/>
          <path class="cls-2" d="m34.45,103.56c0-1.43-1.16-2.59-2.59-2.59s-2.59,1.16-2.59,2.59,1.16,2.59,2.59,2.59,2.59-1.16,2.59-2.59Z"/>
          <path class="cls-2" d="m25.38,66.44c0-1.43-1.16-2.59-2.59-2.59s-2.59,1.16-2.59,2.59,1.16,2.59,2.59,2.59,2.59-1.16,2.59-2.59Z"/>
          <path class="cls-2" d="m120.01,71.38c0-1.43-1.16-2.59-2.59-2.59s-2.59,1.16-2.59,2.59,1.16,2.59,2.59,2.59,2.59-1.16,2.59-2.59Z"/>
          <path class="cls-2" d="m123.36,104.85c0-1.43-1.16-2.59-2.59-2.59s-2.59,1.16-2.59,2.59,1.16,2.59,2.59,2.59,2.59-1.16,2.59-2.59Z"/>
          <circle class="cls-2" cx="130.37" cy="66.71" r="2.59"/>
          <circle class="cls-2" cx="140.3" cy="99.64" r="2.59"/>
          <circle class="cls-2" cx="127.68" cy="123.37" r="2.59"/>
          <path class="cls-2" d="m109.88,129.98c0-1.43-1.16-2.59-2.59-2.59s-2.59,1.16-2.59,2.59,1.16,2.59,2.59,2.59,2.59-1.16,2.59-2.59Z"/>
          <path class="cls-2" d="m100.14,47.48c0-1.43-1.16-2.59-2.59-2.59s-2.59,1.16-2.59,2.59,1.16,2.59,2.59,2.59,2.59-1.16,2.59-2.59Z"/>
          <circle class="cls-2" cx="105.29" cy="44.87" r="2.59"/>
          <circle class="cls-2" cx="89.42" cy="34.04" r="1.96"/>
          <circle class="cls-2" cx="81.54" cy="34.04" r="1.96"/>
          <path class="cls-2" d="m60.11,34.79c-.16,0-.32-.05-.45-.16-.32-.25-.37-.71-.13-1.03l19.33-20.23c.15-.19.37-.29.62-.28.24.01.46.14.58.35l15.28,20.13c.21.34.11.8-.24,1.01-.34.21-.79.11-1.01-.24l-14.73-19.23-18.68,19.41c-.14.18-.36.28-.58.28Z"/>
          <path class="cls-2" d="m65.18,34.79c-.12,0-.25-.03-.36-.1-.35-.2-.47-.65-.27-1l14.25-20.23c.14-.24.41-.38.69-.37.28.02.52.2.63.46l9.96,20.13c.15.37-.03.8-.4.95-.38.15-.8-.03-.95-.4l-9.4-18.73-13.5,18.93c-.14.24-.38.37-.64.37Z"/>
          <path class="cls-2" d="m71.83,34.79c-.07,0-.14-.01-.22-.03-.39-.12-.6-.53-.48-.92l7.61-20.23c.1-.33.43-.56.77-.51.35.04.62.31.65.66l2.35,20.13c.04.4-.26.76-.66.8-.4.04-.76-.26-.8-.66l-2-16.47-6.53,16.73c-.1.31-.39.52-.7.52Z"/>
          <circle class="cls-2" cx="79.36" cy="14.67" r="5.59"/>
        </g>
        <g>
          <polygon class="cls-3" points="22.46 87.02 20.26 88.91 22.98 92.91 26.77 90.49 22.46 87.02"/>
          <polygon class="cls-4" points="44.24 95.41 48.4 94.12 48.09 96.7 45.98 98.13 44.24 95.41"/>
          <polygon class="cls-6" points="51.42 85.73 52.25 88.68 53.99 86.33 53.31 84.82 51.42 85.73"/>
          <polygon class="cls-3" points="18.52 107.28 22 110.61 24.42 107.13 22.15 105.92 18.52 107.28"/>
          <polygon class="cls-6" points="16.78 102.29 18.07 103.58 20.94 102.97 19.88 101.99 16.78 102.29"/>
          <polygon class="cls-4" points="55.43 125.59 55.5 129.06 57.92 129.29 58 125.74 55.43 125.59"/>
          <polygon class="cls-6" points="55.58 118.63 56.03 121.2 57.02 120.22 57.47 117.19 55.58 118.63"/>
          <polygon class="cls-6" points="64.2 93.29 65.79 96.24 67.38 93.75 66.62 92.16 64.2 93.29"/>
          <polygon class="cls-4" points="86.06 114.85 86.97 118.93 89.08 116.96 90.29 114.09 86.06 114.85"/>
          <path class="cls-4" d="m95.89,121.5l-.45,3.63s.91-.15,1.51-.3,1.21-3.63,1.21-3.63l-2.27.3Z"/>
          <path class="cls-6" d="m98.76,114.24l.86,1.76s2.02-2.17,1.97-2.32-1.16-2.32-1.16-2.32l-1.66,2.87Z"/>
          <polygon class="cls-3" points="94.78 129.17 97.15 128.16 98.51 129.27 96.34 130.73 94.78 129.17"/>
          <polygon class="cls-3" points="130.48 111.37 128.66 115.7 131.28 114.49 134.11 111.37 133.4 110.56 130.48 111.37"/>
          <polygon class="cls-6" points="131.79 86.56 131.48 90.49 133.7 90.49 133.6 87.47 131.79 86.56"/>
          <polygon class="cls-6" points="112.83 94.63 115.65 93.62 117.67 96.14 116.96 97.86 112.83 94.63"/>
          <polygon class="cls-6" points="108.3 89.31 109.64 88.83 110.6 90.03 110.27 90.85 108.3 89.31"/>
          <polygon class="cls-4" points="127.15 96.44 131.69 95.44 132.39 96.75 129.17 99.17 127.15 96.44"/>
          <polygon class="cls-3" points="94.88 57.92 96.39 61.15 98.71 60.14 97.4 56.92 94.88 57.92"/>
          <polygon class="cls-4" points="107.08 52.18 109.4 55.6 111.72 55 110.01 52.38 107.08 52.18"/>
          <polygon class="cls-3" points="89.08 41.41 88.21 44.74 90.33 45.95 91.77 44.66 89.08 41.41"/>
          <polygon class="cls-6" points="95.81 52 97.93 51.4 99.6 53.21 98.31 54.04 95.81 52"/>
          <polygon class="cls-6" points="57.32 54.04 59.66 52.3 61.18 52.91 61.1 55.4 58.76 55.55 57.32 54.04"/>
          <polygon class="cls-4" points="62.76 41.11 62.39 43.98 63.75 43.98 65.71 42.02 62.76 41.11"/>
        </g>
      </g>
    </g>
  </g>
</svg>