<?xml version="1.0" encoding="UTF-8"?>
<svg id="Capa_2" data-name="Capa 2" xmlns="http://www.w3.org/2000/svg" xmlns:xlink="http://www.w3.org/1999/xlink" viewBox="0 0 467.63 83.2">
  <defs>
    <style>
      .cls-1 {
        fill: #343434;
      }

      .cls-2, .cls-3 {
        fill: #fff;
      }

      .cls-4 {
        fill: #a87d5c;
      }

      .cls-5 {
        fill: #4e4f4f;
      }

      .cls-3 {
        fill-rule: evenodd;
      }

      .cls-6 {
        fill: #989898;
      }

      .cls-7 {
        clip-path: url(#clippath-2);
      }

      .cls-8 {
        fill: #e5e4e3;
      }

      .cls-9 {
        fill: #64bc9c;
      }

      .cls-10 {
        fill: #71c1a6;
      }

      .cls-11 {
        fill: #d8b17a;
      }

      .cls-12 {
        fill: #5fc5f1;
      }

      .cls-13 {
        stroke: #fff;
        stroke-dasharray: 0 0 8 2.98;
      }

      .cls-13, .cls-14, .cls-15 {
        stroke-miterlimit: 10;
      }

      .cls-13, .cls-14, .cls-15, .cls-16 {
        fill: none;
      }

      .cls-17 {
        fill: #808181;
      }

      .cls-14 {
        stroke: #af8468;
      }

      .cls-18 {
        fill: #1b1b1b;
      }

      .cls-19 {
        fill: #203c8a;
      }

      .cls-20 {
        clip-path: url(#clippath-1);
      }

      .cls-21 {
        fill: #232a54;
      }

      .cls-22 {
        fill: #4e4d4d;
      }

      .cls-23 {
        fill: #debd87;
      }

      .cls-24 {
        fill: #18243f;
      }

      .cls-25 {
        fill: #51b58f;
      }

      .cls-15 {
        stroke: #203c8a;
        stroke-width: 1.17px;
      }

      .cls-26 {
        fill: #cccbca;
      }

      .cls-27 {
        fill: #af8468;
      }

      .cls-28 {
        clip-path: url(#clippath);
      }

      .cls-29 {
        fill: #4faf8b;
      }

      .cls-30 {
        fill: #f2f2f2;
      }

      .cls-31 {
        fill: #010101;
      }
    </style>
    <clipPath id="clippath">
      <path class="cls-16" d="m84.41,15.41l-3.7,5.87h0c.62,0,1.13,0,1.48,0,4.56,0,14.2.31,26.1,3.12l-2.41-2.38,1.39-4.4.09-2.2h-22.95Z"/>
    </clipPath>
    <clipPath id="clippath-1">
      <path class="cls-16" d="m16.42,35.96c.59.2.83.98.34,1.47l-4.92,3.67h101.44v-5.14H16.42Z"/>
    </clipPath>
    <clipPath id="clippath-2">
      <path class="cls-16" d="m49.35,24.22c-.63,0-.9.79-.39,1.17l7.31,5.44h26.66v-6.6c-.25,0-.49,0-.74,0h-32.84Z"/>
    </clipPath>
  </defs>
  <g id="Capa_1-2" data-name="Capa 1">
    <g>
      <g>
        <g>
          <path class="cls-2" d="m235.84,83.02c-.56,0-1.25-.11-2.32-.35h0s0,0,0,0c-.3-.07-.63-.15-.99-.24h-.04c-.34-.1-.72-.2-1.14-.31l-.62-.17c-.15-.04-.3-.09-.46-.14l-.07-.02h.04c-.07-.01-.15-.04-.22-.06h-.04c-.1-.05-.18-.08-.26-.11-.09-.03-.18-.07-.27-.11-.08-.03-.17-.07-.25-.11-.09-.04-.18-.08-.27-.12-.08-.04-.17-.08-.25-.12-.09-.04-.18-.09-.27-.13l-.05-.02s-.12-.06-.12-.06c-.15-.08-.31-.16-.46-.24-.06-.03-.21-.12-.21-.12-.14-.08-.28-.15-.42-.24l-.12-.07s-.12-.07-.12-.07c-.12-.07-.25-.15-.38-.23l-.23-.14c-.14-.09-.28-.18-.42-.27l-.17-.11c-.18-.12-.36-.24-.53-.36l-.13-.09c-.59-.41-1.23-.86-1.87-1.36,0,0-.36-.28-.49-.37-.08,0-.16-.02-.24-.02-.14-.01-.29-.03-.43-.05-.07,0-.33-.04-.33-.04-.09-.01-.18-.02-.27-.04-.09-.01-.18-.03-.28-.04-.11-.02-.21-.03-.31-.05-.09-.02-.18-.03-.28-.05-.1-.02-.2-.04-.29-.06-.08-.02-.17-.03-.26-.05-.1-.02-.35-.08-.35-.08l-.19-.04c-.11-.02-.21-.05-.31-.07l-.22-.05c-.17-.04-.33-.08-.49-.13l-.2-.06c-.1-.03-.2-.05-.29-.08,0,0-.38-.11-.47-.14l-.19-.06c-.09-.03-.44-.14-.44-.14l-.42-.14-.41-.14c-.12-.04-.25-.09-.38-.13-.13-.05-.25-.09-.37-.14,0,0-.28-.11-.35-.14l-.36-.15-.32-.14-.29-.13-.39-.18c-.08-.04-.16-.08-.24-.12-.29-.15-.54-.29-.78-.44-1.07,1.83-2.02,4-1.88,5.21.06.48.05.89-.02,1.25-.22,1.11-1.08,1.86-2.14,1.86-.14,0-.28-.01-.42-.04-.16-.03-.33-.08-.5-.15-.32-.13-.62-.33-.94-.61-.22-.2-.45-.44-.68-.72-.14-.17-.28-.35-.41-.54-.2-.29-.4-.59-.58-.91-.13-.22-.25-.44-.36-.66-.12-.23-.22-.47-.32-.7-.1-.24-.2-.49-.28-.73-.29-.86-.43-1.65-.42-2.36.02-.76.16-1.6.42-2.49.09-.3.19-.6.31-.91.1-.28.22-.56.34-.85.01-.03.02-.05.03-.08-1.14-.12-2.14-.4-3-.82-.13-.06-.24-.12-.36-.19l-.07-.04c-.11-.06-.21-.12-.31-.18l-.07-.04c-.08-.05-.18-.11-.28-.17h-.02c-.09-.07-.17-.13-.25-.18l1.04-1.55-1.08,1.53c-.09-.06-.16-.12-.24-.17l-.04-.03c-.08-.06-.14-.11-.21-.16l1.12-1.5-1.14,1.48-.2-.16-.12-.09c-.55-.44-.65-.52-1.1-.56-.04,0-.09,0-.13,0l.03-.64-1.78-.87v-.07s0,.03,0,.03l-.04-.22-.02-.16c-.01-.1-.03-.23-.04-.38v-.05c0-.06,0-.12-.01-.19v-.07c0-.05,0-.12,0-.19v-.12c0-.07,0-.13,0-.2h0c0-.13.01-.23.02-.34h0c0-.11.02-.21.03-.31v-.05c.02-.1.03-.19.05-.28v-.08c.03-.09.05-.19.07-.28v-.06c.08-.26.16-.51.25-.75l.03-.07v.03c.03-.1.07-.2.12-.3,0-.02.02-.04.03-.07h0c.17-.35.37-.67.6-.96h0s.06-.07.09-.11c.04-.05.08-.09.12-.14.04-.04.08-.08.12-.13.08-.08.14-.14.21-.2.07-.06.14-.13.22-.19.05-.04.1-.08.15-.11l1.12,1.5-1.09-1.52c.05-.04.1-.07.16-.11.06-.04.12-.08.18-.11.06-.04.12-.07.18-.11.07-.04.13-.07.2-.1.06-.03.12-.06.19-.09.07-.03.14-.06.21-.09.06-.03.13-.05.2-.08h.02c.05-.03.1-.05.16-.06.02,0,.04-.01.06-.02h0s0,0,0,0c.43-.14.89-.23,1.37-.28.17-.02.35-.03.54-.04h.09c.13,0,.25,0,.37,0h.21c.12,0,.25.01.37.02h.15c.13.02.25.03.37.04l.14.02c.13.02.26.03.38.05l.1.02c.16.03.31.05.46.08h.01c.31.06.62.14.95.23l.08.02c.12.03.24.07.37.11l.09.03c.11.03.23.07.35.11l.09.03c.12.04.24.08.36.12l.06.02c.23.08.46.16.68.25h0s0,0,0,0h0c.23.08.45.17.68.26l.3.12c1.07.42,2.1.83,2.92.94.02-.01.13-.08.13-.08.04-.03.1-.06.15-.08l.1-.05s.09-.05.15-.07c.02-.01.05-.03.09-.04.05-.02.1-.05.15-.07l.1-.04c.05-.02.17-.07.17-.07l.09-.04c.05-.02.12-.04.18-.07l.1-.04c.51-.18,1.09-.33,1.71-.45h0s.05-.01.08-.02c.07-.01.16-.03.25-.04.07-.01.12-.02.18-.03.09-.01.18-.03.28-.04.07,0,.14-.02.21-.03.09-.01.18-.02.28-.03.08,0,.16-.02.23-.02.1,0,.19-.02.29-.03.08,0,.17-.01.25-.02.1,0,.2-.01.3-.02.09,0,.18-.01.27-.01.11,0,.21,0,.31-.01.1,0,.2,0,.3,0,.11,0,.21,0,.33,0,.1,0,.21,0,.32,0s.23,0,.34,0h.16s0,0,0,0c.2,0,.4,0,.61.02h0c.09,0,.18,0,.27.01h.28c.2.02.4.04.61.05l.26.02c.17.01.33.03.5.04l.23.02c.24.02.48.05.73.07l.19.02c.21.02.42.05.63.07l.23.03c.28.04.55.07.84.11.27.04.54.08.81.13.07.01.28.05.28.05.17.03.34.06.5.1.11.02.22.05.32.07.15.03.3.07.44.1h.04c.1.03.2.06.29.08l.1.02h0c.25.07.49.13.73.2h0c.08.02.16.05.24.07l.08.02c.2.06.4.13.59.19h.04c.1.05.21.08.31.12.11.04.21.08.31.11h.02c.11.05.22.09.33.13.1.04.21.08.31.12.12.05.23.09.34.14,0,0,.21.09.28.12.15.07.29.13.44.2.08.04.16.07.24.11.16.08.32.15.47.23.06.03.39.2.44.23h0c.44.24.86.48,1.26.73l.08.05h-.02c.22.12.45.27.67.42l.12.08c.18.12.36.25.53.37l.13.1c.39.28.77.58,1.13.89l.12.1c.15.13.3.25.43.38l.07.06c.15.14.31.28.45.42l.09.09c.11.11.23.22.33.33l.09.09c.13.13.25.26.37.38h0c.26.28.51.57.75.86l.04.05c.07.09.13.16.18.22l.05.06c.06.07.11.14.15.2v.02c.13.15.21.27.28.36.24.34.37.74.39,1.13l.15.08.23.13c.09.05.28.15.28.15.09.05.27.15.27.15.1.06.2.11.29.17h0s.19.12.29.18l.31.19c1.01.62,1.77,1.18,2.25,1.64.59.57.8,1.4.55,2.18-.25.78-.9,1.34-1.71,1.47-.35.06-.88.13-1.46.16-.16,0-.32.01-.48.01h-.05c-.16,0-.32,0-.47-.01h-.02s0,0,0,0c-.18-.01-.36-.03-.53-.06h-.01c-.2-.03-.39-.08-.57-.13-.23-.07-.43-.14-.61-.24-.24-.12-.47-.27-.71-.45h0s-.15-.12-.18-.15c-.03-.02-.11-.09-.11-.09l-.35-.32-.04-.03-.05-.04-.03-.02-.05-.03s-.13-.05-.29-.07h-.04c-.05-.01-.1-.02-.16-.02h-.05c-.07,0-.15-.01-.23-.01-.13,0-.26,0-.41-.03h-.09s-.09-.02-.13-.03c.03.06.07.12.1.18l.06.1c.03.06.07.12.1.18l.06.1c.04.07.07.12.1.17l.08.12.22.32c.11.16.21.3.32.45.31.44.64.89.9,1.4l.03.06c.08.15.15.3.21.47,0,.02.02.06.03.09.08.2.13.37.18.54h0c.03.12.05.22.07.33v.06c.03.12.05.24.06.36v.06c.01.17,0,.32-.01.47v.02s0,0,0,0c-.06.45-.23.86-.51,1.19l-.03.03h0s0,.01,0,.01h0c-.15.17-.32.32-.52.44l-.03.02c-.3.18-.66.3-1.05.35v-.05s0,0,0,0v.05c-.14.02-.28.03-.44.03Z"/>
          <g>
            <g>
              <path class="cls-23" d="m212.21,71.2s.05,1.14,4.07,2.6c4.03,1.46,11.89,3.66,19.25-2.15,0,0-1.52.17-3.08-.29-1.55-.46-5.38-2.29-9.72-1.43-4.34.87-3.64,1.51-6.68,1.19-3.04-.32-3.84.08-3.84.08Z"/>
              <path class="cls-11" d="m232.51,73.6c-4.98-1.93-10.25-.04-13.92-.19-2-.08-3.47-.31-4.4-.51.54.28,1.23.58,2.1.9,3.48,1.26,9.82,3.07,16.23-.2Z"/>
              <path class="cls-10" d="m198.34,65.97s-.92-4.44,3.31-4.88c4.23-.43,7.8,2.72,10.73,2.44l16.29,4.96s-3.23,4.1-7.92,3.73c-4.69-.37-5.78-1.44-8.54-1.04,0,0-3.77,5.21-3.4,8.35.36,3.14-3.38-1.71-3.33-4.5.04-2.06,1.33-4.5,2-5.63.15-.26-.05-.59-.35-.56-1.06.08-3.04.1-4.58-.66-2.21-1.09-2.23-2.11-4.2-2.21Z"/>
              <path class="cls-29" d="m237.38,70.52s.43,1.06,1.56,1.63c.97.48,3.11,1.7,3.97,2.53.16.15.07.42-.14.45-.77.12-2.3.3-3.04-.08-1.02-.52-1-1.42-3.11-1.45-2.11-.03-5.34-2.68-5.34-2.68l6.11-.4Z"/>
              <path class="cls-9" d="m201.42,65.63c1.87.66,6.68,1.54,6.88-3.06-2-.79-4.21-1.72-6.65-1.48-4.23.43-3.31,4.88-3.31,4.88,0,0,1.41-.93,3.08-.34Z"/>
              <path class="cls-25" d="m203.4,61.4s-2.98-.82-2.13,2.28c0,0,3.11.44,2.13-2.28Z"/>
              <path class="cls-25" d="m200.89,64.14c-.89-.27-.73-1.34-1.55-1.34-.26,0-.48.07-.67.17-.67,1.38-.33,3.01-.33,3.01,0,0,1.41-.93,3.08-.34.73.26,1.91.55,3.09.53-1.13-2.15-2.75-1.77-3.62-2.03Z"/>
              <path class="cls-21" d="m198.43,66.08s0,0,0,0c0,0,0-.01.01-.02l-.02.02Z"/>
              <path class="cls-21" d="m203.09,61.71s-1.77-.32-1.5,1.59c0,0,1.94-.11,1.5-1.59Z"/>
              <path class="cls-9" d="m215.63,69.09c-3.76,1.41-5.13-1.86-7.49-1.66-1.82.15-3.93.31-5.64-.21-.85-.26-1.47-.31-1.89-.31.46.37,1.01.82,1.94,1.28,1.54.76,3.52.74,4.58.66.3-.02.5.3.35.56-.67,1.14-1.95,3.58-2,5.63-.06,2.79,3.69,7.64,3.33,4.5-.36-3.14,3.4-8.35,3.4-8.35,2.65-.39,3.77.58,8.01.99.2-2.16.36-3.81.36-3.81,0,0-1.2-.7-4.95.71Z"/>
              <g>
                <path class="cls-4" d="m212.19,63.55s2.06-2.45,12.01-1.01c8.86,1.28,13.16,6.85,14,8.05.09.14.07.32-.06.43-.51.41-1.96,1.26-4.87.69-3.74-.73-5.5-1.92-7.84-1.75-2.34.17-10.53-4.05-10.53-4.05,0,0-.79-1.54-2.71-2.36Z"/>
                <path class="cls-14" d="m216.13,66.92l.48-3.22c.03-.22.22-.38.44-.38.78.01,2.55.13,3.79.93.18.12.25.35.17.55-.19.44-.52,1.27-.71,2.09-.04.19-.21.33-.41.35l-3.3.19c-.28.02-.51-.23-.46-.51Z"/>
                <path class="cls-27" d="m221.44,65.5l.3-.73c.04-.1.15-.16.25-.13.59.13,2.43.56,3.19,1.09.17.12.21.35.09.52-.21.3-.54.82-.73,1.42-.06.17-.24.27-.42.21-.26-.09-.61-.28-.86-.63-.35-.5-1.36-1.22-1.74-1.48-.09-.06-.12-.17-.08-.27Z"/>
                <path class="cls-27" d="m225.04,67.91c.09-.4.34-1.25.96-1.62.1-.06.22-.06.32,0,.53.26,2.29,1.11,3.17,1.38.12.04.22.14.24.27.03.17.06.4.05.62,0,.17-.12.31-.28.34-.74.14-2.95.44-4.34-.65-.1-.08-.15-.22-.12-.35Z"/>
                <path class="cls-27" d="m230.74,68.22c-.18.03-.33.16-.36.34-.05.27-.07.68.17.92.31.3,2.13.59,3.16.34.35-.09.44-.51.16-.72-.61-.44-1.76-1.08-3.13-.87Z"/>
                <g>
                  <path class="cls-27" d="m216.01,63.5c.14-.1.11-.32-.06-.37-.69-.21-1.74-.33-2.34-.38-1.08.39-1.43.79-1.43.79,1.08.46,1.8,1.14,2.22,1.66.32-.74,1.14-1.39,1.6-1.71Z"/>
                  <path class="cls-27" d="m219.05,62.09c-1.7-.03-3,.1-3.99.29.31.22.92.58,1.8.64,1.18.09,2.04.06,2.19-.93Z"/>
                  <path class="cls-27" d="m220.2,63.34c.4.08,1,.26,1.39.62.07.06.15.1.23.13.16.04.46.12,1.02.25.88.2,3.9,1.35,5.39,2.01.17.07.34-.09.28-.26-.26-.7-.84-2.04-1.73-3.03-.81-.21-1.67-.39-2.58-.52-1.76-.25-3.28-.39-4.57-.43.04.22.08.49.11.74.03.25.21.45.46.5Z"/>
                  <path class="cls-27" d="m229.62,67.01c.4.21,1.71.86,2.8.81.19,0,.31-.2.25-.38-.19-.54-.61-1.65-1.12-2.53-1.19-.63-2.55-1.21-4.09-1.66.57.77,1.8,2.55,2.01,3.57.02.08.07.15.15.19Z"/>
                  <path class="cls-27" d="m233.64,67.93c.36.3,2.17.69,3.29,1.09-.92-.99-2.3-2.26-4.19-3.43.17.66.55,2.04.9,2.34Z"/>
                  <path class="cls-27" d="m234.51,69.2c-.06.17-.13.44-.05.67.12.35,2.12.96,3.66.6-.16-.23-.41-.55-.74-.94-.76-.1-2.2-.29-2.67-.43-.08-.02-.17.02-.19.1Z"/>
                </g>
              </g>
              <path class="cls-9" d="m216.69,63.86c-1.89.47-3.21,2.23-.82,4.76,2.39,2.53,10.65,10.2,15.36,11.46,4.72,1.27,5.68,1.42,5.29,0-.35-1.31-1.41-2.11-2.32-3.96-.16-.32-.41-.6-.72-.78-1.83-1.1-8.23-5.03-9.92-6.96-1.98-2.26-4.79-5.04-6.87-4.53Z"/>
              <path class="cls-10" d="m200.22,62.42l.36-.4c.07-.07.19-.02.17.08-.04.23-.08.53-.08.77,0,.09-.11.13-.17.06-.11-.13-.24-.29-.29-.41-.01-.03,0-.07.02-.1Z"/>
              <path class="cls-10" d="m203.91,61.57c.19.12.59.36.92.56.04.02.03.08-.01.09-.19.06-.58.17-.84.15-.02,0-.04-.02-.05-.04-.01-.12-.05-.5-.09-.71,0-.04.04-.08.08-.05Z"/>
              <path class="cls-10" d="m203.99,62.7s.3.19.53.43c.11.12.14.3.06.45-.06.12-.15.23-.28.26-.19.04-.49-.1-.66-.2-.07-.04-.09-.13-.04-.19.11-.15.28-.43.39-.75Z"/>
              <path class="cls-10" d="m205.09,62.28c.36-.02,1.28-.04,1.58.41.03.04.03.1,0,.15-.06.09-.18.25-.37.3-.03,0-.06,0-.09-.01-.17-.09-.82-.45-1.17-.73-.04-.04-.02-.11.03-.11Z"/>
              <path class="cls-10" d="m204.78,62.78s.8.03,1.11.46c.03.04.02.09,0,.12-.1.1-.35.31-.61.34-.03,0-.06-.01-.08-.04-.1-.13-.4-.58-.42-.87"/>
              <path class="cls-10" d="m202.83,64.22s.7-.24.83-.32c.13-.08.64.23.59.65s-.72.43-1.42-.33Z"/>
              <path class="cls-10" d="m204.94,63.83c.15.06.45.21.56.47.03.07,0,.15-.04.2h0c-.05.05-.12.08-.2.06-.19-.05-.56-.17-.61-.31-.05-.13.08-.3.16-.39.03-.04.09-.05.14-.03Z"/>
              <path class="cls-10" d="m206.65,63.25c.12-.09.33-.23.47-.34.03-.03.08-.03.11-.01.11.05.3.17.28.34-.03.22-.55.47-.87.17-.05-.05-.04-.13.02-.16Z"/>
              <path class="cls-10" d="m206.04,64.33c.11-.09.29-.21.53-.29.1-.03.13-.16.05-.23-.13-.12-.31-.25-.49-.21-.28.06-.49.34-.3.69.04.08.14.1.21.04Z"/>
              <path class="cls-10" d="m204.76,65.32c.14-.01.36-.01.6.05.1.03.19-.06.17-.16-.04-.17-.12-.38-.29-.45-.26-.11-.6,0-.63.41,0,.09.06.16.15.15Z"/>
              <g>
                <path class="cls-10" d="m199.7,62.32c.15.02.29-.04.38-.16.16-.22.4-.55.57-.85-.72.23-1.24.61-1.6,1.06.19-.04.44-.07.64-.04Z"/>
                <path class="cls-10" d="m205.4,62.02c.13-.06.37-.17.58-.31-.61-.2-1.24-.38-1.89-.49.26.23.67.56,1.15.8.05.03.11.03.17,0Z"/>
                <path class="cls-10" d="m207.69,62.34c-.44-.17-.88-.34-1.34-.5.01.1.04.2.09.29.2.36.8.53,1.25.22Z"/>
              </g>
              <g>
                <path class="cls-9" d="m235.81,78.64c-.47-.69-1.06-1.41-1.6-2.51-.16-.32-.41-.6-.72-.78-1.83-1.1-8.23-5.03-9.92-6.96-1.98-2.26-4.79-5.04-6.87-4.53-.8.2-1.49.63-1.85,1.25,1.15-.84,1.88-.07,1.21.52-.5.44-.89,1.12-1.15,1.66.05.11.12.22.19.33.14-.2.32-.41.54-.62,1.33-1.25,2.25-.38,1.53.25-.47.41-.84,1.03-1.1,1.56.07.07.14.15.22.23.28-.4.68-.82,1.27-1.2,1.83-1.17,2.72.05,1.73.64-.71.42-1.35,1.18-1.78,1.78.1.1.2.2.31.3.27-.57.87-1.41,2.15-1.99,2.1-.95,2.85.46,1.73.93-1.16.48-2.25,1.7-2.66,2.19.15.14.3.28.46.42.33-.42.84-.86,1.61-1.21,1.98-.9,2.69.44,1.63.88-.74.31-1.46.94-1.96,1.46.29.25.58.5.88.75.4-.55,1.2-1.31,2.66-1.68,2.42-.6,2.94,1.05,1.65,1.32-1.09.23-2.23,1-2.9,1.52.2.16.41.32.61.48.36-.34,1-.91,1.62-1.27.3-.18.68-.17.98,0,.46.27,1.06.72.92,1.16-.17.57-.32,1.44-1.05,1.92.21.15.43.29.64.43.75-.6.98-2.17.98-2.17,0,0,1.31.34,1.62,1.3.24.75-.9,1.39-1.4,1.63.41.24.82.47,1.22.67.74-.79.89-2.46.89-2.46,0,0,1.53.32,1.95,1.4.27.71-.57,1.38-1.18,1.76.13.04.25.08.37.11.21.06.41.11.61.16.41-.37.91-.92,1.08-1.52,0,0,2.77-.29,2.47,2.34.28.03.51.04.69.02-.02-.29-.08-.65-.25-1.04-.28-.63-.14-1.13-.02-1.4Z"/>
                <path class="cls-10" d="m232.93,78.72c-.17.6-.67,1.15-1.08,1.52,1.67.44,2.81.72,3.55.81.3-2.62-2.47-2.34-2.47-2.34Z"/>
                <path class="cls-10" d="m236.53,80.08c-.14-.53-.4-.98-.72-1.45-.12.26-.26.77.02,1.4.17.39.24.75.25,1.04.53-.06.61-.38.45-.99Z"/>
                <path class="cls-10" d="m232.04,78.21c-.41-1.08-1.95-1.4-1.95-1.4,0,0-.15,1.67-.89,2.46.58.29,1.14.53,1.66.7.61-.38,1.45-1.05,1.18-1.76Z"/>
                <path class="cls-10" d="m229.39,76.98c-.31-.96-1.62-1.3-1.62-1.3,0,0-.22,1.57-.98,2.17.41.27.81.52,1.2.75.5-.24,1.64-.87,1.4-1.63Z"/>
                <path class="cls-10" d="m227.19,75.51c.14-.45-.46-.9-.92-1.16-.3-.18-.68-.18-.98,0-.61.36-1.26.93-1.62,1.27.82.64,1.65,1.25,2.47,1.82.73-.48.87-1.35,1.05-1.92Z"/>
                <path class="cls-10" d="m224.3,72.29c-1.46.37-2.26,1.13-2.66,1.68.46.39.94.78,1.42,1.16.67-.51,1.81-1.29,2.9-1.52,1.28-.28.76-1.93-1.65-1.32Z"/>
                <path class="cls-10" d="m222.73,71.76c1.06-.44.35-1.77-1.63-.88-.77.35-1.27.8-1.61,1.21.41.37.83.74,1.27,1.12.5-.52,1.22-1.15,1.96-1.46Z"/>
                <path class="cls-10" d="m221.69,69.49c1.12-.46.37-1.88-1.73-.93-1.28.58-1.88,1.42-2.15,1.99.38.36.78.74,1.21,1.13.41-.49,1.51-1.71,2.66-2.19Z"/>
                <path class="cls-10" d="m219.29,68.48c.99-.58.1-1.8-1.73-.64-.6.38-1,.8-1.27,1.2.34.35.76.76,1.23,1.21.43-.59,1.06-1.35,1.78-1.78Z"/>
                <path class="cls-10" d="m217.16,67.26c.72-.64-.2-1.5-1.53-.25-.22.21-.4.41-.54.62.2.32.45.65.78,1,.06.06.12.13.19.2.26-.52.63-1.15,1.1-1.56Z"/>
                <path class="cls-10" d="m216.06,65.63c.66-.58-.06-1.36-1.21-.52-.33.57-.37,1.31.06,2.18.26-.54.65-1.22,1.15-1.66Z"/>
              </g>
              <path class="cls-10" d="m233.5,76.22c-.12.18-.31.41-.51.53-.09.05-.14.15-.12.25.03.22.06.59.04.85-.01.14.09.26.23.27.3.02.76.06,1.13.16.18.05.35-.12.31-.31-.13-.51-.36-1.31-.66-1.75-.1-.15-.32-.15-.42,0Z"/>
              <path class="cls-10" d="m233.1,76.06l-.47.46s-.06.07-.07.11c-.04.12-.12.36-.27.6-.09.14-.3.16-.42.04-.18-.19-.49-.46-.9-.69-.12-.06-.17-.2-.12-.33.1-.28.32-.78.67-1.24.07-.09.2-.13.31-.09.32.11.96.38,1.29.77.09.11.09.27-.02.37Z"/>
              <path class="cls-10" d="m229.4,76.02s.03.02.05.03c.13.04.67.21.92.05.21-.14.32-.52.37-.71.01-.06,0-.13-.05-.18-.21-.2-.82-.73-1.35-.79-.04,0-.08,0-.12.03-.12.08-.46.28-.86.45-.13.06-.15.23-.04.31l1.09.81Z"/>
              <path class="cls-10" d="m227.99,74.65c.18-.1.41-.24.59-.38.17-.13.21-.36.09-.53-.14-.22-.36-.51-.6-.66-.13-.08-.29-.08-.42,0-.19.12-.5.34-.69.63-.13.2-.06.47.15.57.12.06.26.15.37.28.13.14.33.18.5.09Z"/>
              <path class="cls-10" d="m225.85,71.59s1.04.33,1.21.96c.02.08.11.12.19.09.08-.04.18-.09.29-.18.13-.1.14-.29.02-.4-.26-.26-.75-.68-1.25-.73,0,0-.34-.06-.45.27Z"/>
              <path class="cls-10" d="m223.81,71.39c.07-.16.15-.36.16-.53.01-.12.11-.2.23-.19.43.04,1.27.16,1.32.51.04.34-.95.46-1.5.51-.16.01-.27-.15-.2-.29Z"/>
              <path class="cls-10" d="m222.83,69.59c.11-.09.23-.21.3-.34.05-.08.15-.11.23-.07.3.18.89.56.8.83-.09.27-.86.02-1.29-.14-.12-.04-.15-.2-.05-.29Z"/>
              <path class="cls-10" d="m221.47,67.71c.24.1.74.34.96.7.03.05.1.03.11-.02.01-.24-.01-.62-.26-.77-.26-.16-.61-.08-.81-.01-.05.02-.05.09,0,.11Z"/>
              <path class="cls-10" d="m219.57,67.16c.14.12.34.36.38.69,0,.07.1.11.15.05.12-.13.31-.29.53-.33.05,0,.09-.06.07-.12-.08-.2-.34-.59-1.08-.44-.07.01-.09.1-.04.15Z"/>
              <path class="cls-10" d="m217.98,67.08c-.11-.06-.17-.18-.15-.3.03-.26.15-.68.62-.71.46-.03,1.03.21,1.35.37.06.03.04.12-.03.12-.4-.01-1.1.01-1.17.39-.07.36-.4.24-.6.13Z"/>
              <path class="cls-10" d="m216.97,65.77c.12.04.24.09.33.18.06.05.14.07.21.04.25-.1.82-.3,1.37-.22.05,0,.08-.06.03-.09-.42-.26-1.35-.72-2.01-.25-.13.09-.09.3.06.35Z"/>
              <path class="cls-10" d="m216.32,64.51c.14.09.3.22.34.4.02.06.07.09.13.08.24-.05.81-.14,1.26-.11.11,0,.17-.13.09-.2-.32-.28-.93-.65-1.79-.38-.09.03-.11.15-.03.21Z"/>
              <path class="cls-10" d="m219.48,65.36c.11.12.58.66,1.22,1.08.02.02.05.02.08.01.05-.01.13-.03.25-.03.08,0,.13-.1.07-.16-.35-.34-1.06-1.02-1.5-1.27-.06-.04-.14,0-.14.08v.23s0,.04.02.06Z"/>
              <path class="cls-10" d="m221.98,67.23c-.15,0-.48,0-.81.06-.03,0-.06-.01-.07-.04-.03-.09-.1-.28-.22-.42-.03-.04,0-.09.04-.09.22-.01.64-.02.83.09.17.1.25.23.28.32.02.04-.01.08-.06.08Z"/>
              <g>
                <path class="cls-9" d="m240.62,74.45c-.09-.09-.23-.06-.28.05-.09.2-.22.44-.34.66.42.12.97.14,1.51.11-.34-.27-.68-.61-.88-.82Z"/>
                <path class="cls-9" d="m239.59,74c-.17-.09-.69-.36-1.03-.74-.05-.06-.15-.03-.16.05-.03.17-.09.42-.17.62.46.24.71.58,1.08.87.15-.21.3-.47.33-.69,0-.04-.01-.09-.05-.1Z"/>
                <path class="cls-9" d="m236.76,72.37c-.48-.14-1.03.61-1.29,1.01.4.13.79.21,1.14.21.34,0,.63.03.87.08.24-.6-.24-1.16-.72-1.3Z"/>
                <path class="cls-10" d="m239.19,73.02c.68.35,1.33.76,1.78.26-.76-.47-1.54-.9-2.03-1.14,0,0-.02-.01-.03-.02-.12.3-.15.67.28.89Z"/>
              </g>
              <path class="cls-10" d="m206.46,75.97c.34.16.97.56,1.13,1.28.02.08-.05.16-.14.16-.37-.03-1.21-.22-1.23-1.29,0-.12.12-.2.23-.15Z"/>
              <path class="cls-10" d="m206.89,77.85c.26.08.66.2.94.22.08,0,.14.07.13.15-.02.21-.06.59-.03.93,0,.12-.14.2-.23.11-.3-.27-.77-.74-.98-1.23-.05-.11.06-.22.17-.18Z"/>
              <path class="cls-10" d="m207.37,75.71s.57-.38.78-.93c.04-.1.16-.12.23-.05.17.18.41.51.43.98.04.73-.96.78-1.44,0Z"/>
              <path class="cls-10" d="m206.55,73.09c-.11-.08-.26-.03-.31.09-.17.41-.45,1.31,0,1.94.59.85,1.13.15,1.24-.11.11-.24.04-1.22-.93-1.93Z"/>
              <path class="cls-10" d="m207.09,73.07c.2.18.61.6.68,1.02.02.09.11.14.19.1.18-.09.48-.21.77-.22.09,0,.15-.09.12-.17-.17-.49-.73-1.7-1.74-.93-.06.05-.07.15,0,.2Z"/>
            </g>
            <path class="cls-2" d="m201.71,62.54c0-.12.1-.22.22-.22s.22.1.22.22-.1.22-.22.22-.22-.1-.22-.22Z"/>
          </g>
        </g>
        <path class="cls-21" d="m198.29,65.61c.36.11.95.19,1.33.24.39.05.79.08,1.18.07.4,0,.8-.03,1.19-.1.37-.06.71-.25,1.11-.39-.32.21-.7.4-1.1.49-.39.1-.79.16-1.2.19-.4.04-.81.04-1.22.02-.41-.02-.84-.07-1.26-.16l-.05-.36Z"/>
        <path class="cls-21" d="m202.88,65.11c.37-.38.92.33.46.61-.32-.25-.29-.19-.46-.61h0Z"/>
      </g>
      <g>
        <g>
          <path class="cls-2" d="m458.64,83.02c-.56,0-1.25-.11-2.32-.35h0s0,0,0,0c-.3-.07-.63-.15-.99-.24h-.04c-.34-.1-.72-.2-1.14-.31l-.62-.17c-.15-.04-.3-.09-.46-.14l-.07-.02h.04c-.07-.01-.15-.04-.22-.06h-.04c-.1-.05-.18-.08-.26-.11-.09-.03-.18-.07-.27-.11-.08-.03-.17-.07-.25-.11-.09-.04-.18-.08-.27-.12-.08-.04-.17-.08-.25-.12-.09-.04-.18-.09-.27-.13l-.05-.02s-.12-.06-.12-.06c-.15-.08-.31-.16-.46-.24-.06-.03-.21-.12-.21-.12-.14-.08-.28-.15-.42-.24l-.12-.07s-.12-.07-.12-.07c-.12-.07-.25-.15-.38-.23l-.23-.14c-.14-.09-.28-.18-.42-.27l-.17-.11c-.18-.12-.36-.24-.53-.36l-.13-.09c-.59-.41-1.23-.86-1.87-1.36,0,0-.36-.28-.49-.37-.08,0-.16-.02-.24-.02-.14-.01-.29-.03-.43-.05-.07,0-.33-.04-.33-.04-.09-.01-.18-.02-.27-.04-.09-.01-.18-.03-.28-.04-.11-.02-.21-.03-.31-.05-.09-.02-.18-.03-.28-.05-.1-.02-.2-.04-.29-.06-.08-.02-.17-.03-.26-.05-.1-.02-.35-.08-.35-.08l-.19-.04c-.11-.02-.21-.05-.31-.07l-.22-.05c-.17-.04-.33-.08-.49-.13l-.2-.06c-.1-.03-.2-.05-.29-.08,0,0-.38-.11-.47-.14l-.19-.06c-.09-.03-.44-.14-.44-.14l-.42-.14-.41-.14c-.12-.04-.25-.09-.38-.13-.13-.05-.25-.09-.37-.14,0,0-.28-.11-.35-.14l-.36-.15-.32-.14-.29-.13-.39-.18c-.08-.04-.16-.08-.24-.12-.29-.15-.54-.29-.78-.44-1.07,1.83-2.02,4-1.88,5.21.06.48.05.89-.02,1.25-.22,1.11-1.08,1.86-2.14,1.86-.14,0-.28-.01-.42-.04-.16-.03-.33-.08-.5-.15-.32-.13-.62-.33-.94-.61-.22-.2-.45-.44-.68-.72-.14-.17-.28-.35-.41-.54-.2-.29-.4-.59-.58-.91-.13-.22-.25-.44-.36-.66-.12-.23-.22-.47-.32-.7-.1-.24-.2-.49-.28-.73-.29-.86-.43-1.65-.42-2.36.02-.76.16-1.6.42-2.49.09-.3.19-.6.31-.91.1-.28.22-.56.34-.85.01-.03.02-.05.03-.08-1.14-.12-2.14-.4-3-.82-.13-.06-.24-.12-.36-.19l-.07-.04c-.11-.06-.21-.12-.31-.18l-.07-.04c-.08-.05-.18-.11-.28-.17h-.02c-.09-.07-.17-.13-.25-.18l1.04-1.55-1.08,1.53c-.09-.06-.16-.12-.24-.17l-.04-.03c-.08-.06-.14-.11-.21-.16l1.12-1.5-1.14,1.48-.2-.16-.12-.09c-.55-.44-.65-.52-1.1-.56-.04,0-.09,0-.13,0l.03-.64-1.78-.87v-.07s0,.03,0,.03l-.04-.22-.02-.16c-.01-.1-.03-.23-.04-.38v-.05c0-.06,0-.12-.01-.19v-.07c0-.05,0-.12,0-.19v-.12c0-.07,0-.13,0-.2h0c0-.13.01-.23.02-.34h0c0-.11.02-.21.03-.31v-.05c.02-.1.03-.19.05-.28v-.08c.03-.09.05-.19.07-.28v-.06c.08-.26.16-.51.25-.75l.03-.07v.03c.03-.1.07-.2.12-.3,0-.02.02-.04.03-.07h0c.17-.35.37-.67.6-.96h0s.06-.07.09-.11c.04-.05.08-.09.12-.14.04-.04.08-.08.12-.13.08-.08.14-.14.21-.2.07-.06.14-.13.22-.19.05-.04.1-.08.15-.11l1.12,1.5-1.09-1.52c.05-.04.1-.07.16-.11.06-.04.12-.08.18-.11.06-.04.12-.07.18-.11.07-.04.13-.07.2-.1.06-.03.12-.06.19-.09.07-.03.14-.06.21-.09.06-.03.13-.05.2-.08h.02c.05-.03.1-.05.16-.06.02,0,.04-.01.06-.02h0s0,0,0,0c.43-.14.89-.23,1.37-.28.17-.02.35-.03.54-.04h.09c.13,0,.25,0,.37,0h.21c.12,0,.25.01.37.02h.15c.13.02.25.03.37.04l.14.02c.13.02.26.03.38.05l.1.02c.16.03.31.05.46.08h.01c.31.06.62.14.95.23l.08.02c.12.03.24.07.37.11l.09.03c.11.03.23.07.35.11l.09.03c.12.04.24.08.36.12l.06.02c.23.08.46.16.68.25h0s0,0,0,0h0c.23.08.45.17.68.26l.3.12c1.07.42,2.1.83,2.92.94.02-.01.13-.08.13-.08.04-.03.1-.06.15-.08l.1-.05s.09-.05.15-.07c.02-.01.05-.03.09-.04.05-.02.1-.05.15-.07l.1-.04c.05-.02.17-.07.17-.07l.09-.04c.05-.02.12-.04.18-.07l.1-.04c.51-.18,1.09-.33,1.71-.45h0s.05-.01.08-.02c.07-.01.16-.03.25-.04.07-.01.12-.02.18-.03.09-.01.18-.03.28-.04.07,0,.14-.02.21-.03.09-.01.18-.02.28-.03.08,0,.16-.02.23-.02.1,0,.19-.02.29-.03.08,0,.17-.01.25-.02.1,0,.2-.01.3-.02.09,0,.18-.01.27-.01.11,0,.21,0,.31-.01.1,0,.2,0,.3,0,.11,0,.21,0,.33,0,.1,0,.21,0,.32,0s.23,0,.34,0h.16s0,0,0,0c.2,0,.4,0,.61.02h0c.09,0,.18,0,.27.01h.28c.2.02.4.04.61.05l.26.02c.17.01.33.03.5.04l.23.02c.24.02.48.05.73.07l.19.02c.21.02.42.05.63.07l.23.03c.28.04.55.07.84.11.27.04.54.08.81.13.07.01.28.05.28.05.17.03.34.06.5.1.11.02.22.05.32.07.15.03.3.07.44.1h.04c.1.03.2.06.29.08l.1.02h0c.25.07.49.13.73.2h0c.08.02.16.05.24.07l.08.02c.2.06.4.13.59.19h.04c.1.05.21.08.31.12.11.04.21.08.31.11h.02c.11.05.22.09.33.13.1.04.21.08.31.12.12.05.23.09.34.14,0,0,.21.09.28.12.15.07.29.13.44.2.08.04.16.07.24.11.16.08.32.15.47.23.06.03.39.2.44.23h0c.44.24.86.48,1.26.73l.08.05h-.02c.22.12.45.27.67.42l.12.08c.18.12.36.25.53.37l.13.1c.39.28.77.58,1.13.89l.12.1c.15.13.3.25.43.38l.07.06c.15.14.31.28.45.42l.09.09c.11.11.23.22.33.33l.09.09c.13.13.25.26.37.38h0c.26.28.51.57.75.86l.04.05c.07.09.13.16.18.22l.05.06c.06.07.11.14.15.2v.02c.13.15.21.27.28.36.24.34.37.74.39,1.13l.15.08.23.13c.09.05.28.15.28.15.09.05.27.15.27.15.1.06.2.11.29.17h0s.19.12.29.18l.31.19c1.01.62,1.77,1.18,2.25,1.64.59.57.8,1.4.55,2.18-.25.78-.9,1.34-1.71,1.47-.35.06-.88.13-1.46.16-.16,0-.32.01-.48.01h-.05c-.16,0-.32,0-.47-.01h-.02s0,0,0,0c-.18-.01-.36-.03-.53-.06h-.01c-.2-.03-.39-.08-.57-.13-.23-.07-.43-.14-.61-.24-.24-.12-.47-.27-.71-.45h0s-.15-.12-.18-.15c-.03-.02-.11-.09-.11-.09l-.35-.32-.04-.03-.05-.04-.03-.02-.05-.03s-.13-.05-.29-.07h-.04c-.05-.01-.1-.02-.16-.02h-.05c-.07,0-.15-.01-.23-.01-.13,0-.26,0-.41-.03h-.09s-.09-.02-.13-.03c.03.06.07.12.1.18l.06.1c.03.06.07.12.1.18l.06.1c.04.07.07.12.1.17l.08.12.22.32c.11.16.21.3.32.45.31.44.64.89.9,1.4l.03.06c.08.15.15.3.21.47,0,.02.02.06.03.09.08.2.13.37.18.54h0c.03.12.05.22.07.33v.06c.03.12.05.24.06.36v.06c.01.17,0,.32-.01.47v.02s0,0,0,0c-.06.45-.23.86-.51,1.19l-.03.03h0s0,.01,0,.01h0c-.15.17-.32.32-.52.44l-.03.02c-.3.18-.66.3-1.05.35v-.05s0,0,0,0v.05c-.14.02-.28.03-.44.03Z"/>
          <g>
            <g>
              <path class="cls-23" d="m435.01,71.2s.05,1.14,4.07,2.6c4.03,1.46,11.89,3.66,19.25-2.15,0,0-1.52.17-3.08-.29-1.55-.46-5.38-2.29-9.72-1.43-4.34.87-3.64,1.51-6.68,1.19-3.04-.32-3.84.08-3.84.08Z"/>
              <path class="cls-11" d="m455.31,73.6c-4.98-1.93-10.25-.04-13.92-.19-2-.08-3.47-.31-4.4-.51.54.28,1.23.58,2.1.9,3.48,1.26,9.82,3.07,16.23-.2Z"/>
              <path class="cls-10" d="m421.14,65.97s-.92-4.44,3.31-4.88c4.23-.43,7.8,2.72,10.73,2.44l16.29,4.96s-3.23,4.1-7.92,3.73c-4.69-.37-5.78-1.44-8.54-1.04,0,0-3.77,5.21-3.4,8.35.36,3.14-3.38-1.71-3.33-4.5.04-2.06,1.33-4.5,2-5.63.15-.26-.05-.59-.35-.56-1.06.08-3.04.1-4.58-.66-2.21-1.09-2.23-2.11-4.2-2.21Z"/>
              <path class="cls-29" d="m460.18,70.52s.43,1.06,1.56,1.63c.97.48,3.11,1.7,3.97,2.53.16.15.07.42-.14.45-.77.12-2.3.3-3.04-.08-1.02-.52-1-1.42-3.11-1.45-2.11-.03-5.34-2.68-5.34-2.68l6.11-.4Z"/>
              <path class="cls-9" d="m424.22,65.63c1.87.66,6.68,1.54,6.88-3.06-2-.79-4.21-1.72-6.65-1.48-4.23.43-3.31,4.88-3.31,4.88,0,0,1.41-.93,3.08-.34Z"/>
              <path class="cls-25" d="m426.21,61.4s-2.98-.82-2.13,2.28c0,0,3.11.44,2.13-2.28Z"/>
              <path class="cls-25" d="m423.7,64.14c-.89-.27-.73-1.34-1.55-1.34-.26,0-.48.07-.67.17-.67,1.38-.33,3.01-.33,3.01,0,0,1.41-.93,3.08-.34.73.26,1.91.55,3.09.53-1.13-2.15-2.75-1.77-3.62-2.03Z"/>
              <path class="cls-21" d="m421.24,66.08s0,0,0,0c0,0,0-.01.01-.02l-.02.02Z"/>
              <path class="cls-21" d="m425.89,61.71s-1.77-.32-1.5,1.59c0,0,1.94-.11,1.5-1.59Z"/>
              <path class="cls-9" d="m438.43,69.09c-3.76,1.41-5.13-1.86-7.49-1.66-1.82.15-3.93.31-5.64-.21-.85-.26-1.47-.31-1.89-.31.46.37,1.01.82,1.94,1.28,1.54.76,3.52.74,4.58.66.3-.02.5.3.35.56-.67,1.14-1.95,3.58-2,5.63-.06,2.79,3.69,7.64,3.33,4.5-.36-3.14,3.4-8.35,3.4-8.35,2.65-.39,3.77.58,8.01.99.2-2.16.36-3.81.36-3.81,0,0-1.2-.7-4.95.71Z"/>
              <g>
                <path class="cls-4" d="m434.99,63.55s2.06-2.45,12.01-1.01c8.86,1.28,13.16,6.85,14,8.05.09.14.07.32-.06.43-.51.41-1.96,1.26-4.87.69-3.74-.73-5.5-1.92-7.84-1.75-2.34.17-10.53-4.05-10.53-4.05,0,0-.79-1.54-2.71-2.36Z"/>
                <path class="cls-14" d="m438.93,66.92l.48-3.22c.03-.22.22-.38.44-.38.78.01,2.55.13,3.79.93.18.12.25.35.17.55-.19.44-.52,1.27-.71,2.09-.04.19-.21.33-.41.35l-3.3.19c-.28.02-.51-.23-.46-.51Z"/>
                <path class="cls-27" d="m444.24,65.5l.3-.73c.04-.1.15-.16.25-.13.59.13,2.43.56,3.19,1.09.17.12.21.35.09.52-.21.3-.54.82-.73,1.42-.06.17-.24.27-.42.21-.26-.09-.61-.28-.86-.63-.35-.5-1.36-1.22-1.74-1.48-.09-.06-.12-.17-.08-.27Z"/>
                <path class="cls-27" d="m447.84,67.91c.09-.4.34-1.25.96-1.62.1-.06.22-.06.32,0,.53.26,2.29,1.11,3.17,1.38.12.04.22.14.24.27.03.17.06.4.05.62,0,.17-.12.31-.28.34-.74.14-2.95.44-4.34-.65-.1-.08-.15-.22-.12-.35Z"/>
                <path class="cls-27" d="m453.54,68.22c-.18.03-.33.16-.36.34-.05.27-.07.68.17.92.31.3,2.13.59,3.16.34.35-.09.44-.51.16-.72-.61-.44-1.76-1.08-3.13-.87Z"/>
                <g>
                  <path class="cls-27" d="m438.82,63.5c.14-.1.11-.32-.06-.37-.69-.21-1.74-.33-2.34-.38-1.08.39-1.43.79-1.43.79,1.08.46,1.8,1.14,2.22,1.66.32-.74,1.14-1.39,1.6-1.71Z"/>
                  <path class="cls-27" d="m441.85,62.09c-1.7-.03-3,.1-3.99.29.31.22.92.58,1.8.64,1.18.09,2.04.06,2.19-.93Z"/>
                  <path class="cls-27" d="m443,63.34c.4.08,1,.26,1.39.62.07.06.15.1.23.13.16.04.46.12,1.02.25.88.2,3.9,1.35,5.39,2.01.17.07.34-.09.28-.26-.26-.7-.84-2.04-1.73-3.03-.81-.21-1.67-.39-2.58-.52-1.76-.25-3.28-.39-4.57-.43.04.22.08.49.11.74.03.25.21.45.46.5Z"/>
                  <path class="cls-27" d="m452.42,67.01c.4.21,1.71.86,2.8.81.19,0,.31-.2.25-.38-.19-.54-.61-1.65-1.12-2.53-1.19-.63-2.55-1.21-4.09-1.66.57.77,1.8,2.55,2.01,3.57.02.08.07.15.15.19Z"/>
                  <path class="cls-27" d="m456.44,67.93c.36.3,2.17.69,3.29,1.09-.92-.99-2.3-2.26-4.19-3.43.17.66.55,2.04.9,2.34Z"/>
                  <path class="cls-27" d="m457.31,69.2c-.06.17-.13.44-.05.67.12.35,2.12.96,3.66.6-.16-.23-.41-.55-.74-.94-.76-.1-2.2-.29-2.67-.43-.08-.02-.17.02-.19.1Z"/>
                </g>
              </g>
              <path class="cls-9" d="m439.5,63.86c-1.89.47-3.21,2.23-.82,4.76,2.39,2.53,10.65,10.2,15.36,11.46,4.72,1.27,5.68,1.42,5.29,0-.35-1.31-1.41-2.11-2.32-3.96-.16-.32-.41-.6-.72-.78-1.83-1.1-8.23-5.03-9.92-6.96-1.98-2.26-4.79-5.04-6.87-4.53Z"/>
              <path class="cls-10" d="m423.02,62.42l.36-.4c.07-.07.19-.02.17.08-.04.23-.08.53-.08.77,0,.09-.11.13-.17.06-.11-.13-.24-.29-.29-.41-.01-.03,0-.07.02-.1Z"/>
              <path class="cls-10" d="m426.71,61.57c.19.12.59.36.92.56.04.02.03.08-.01.09-.19.06-.58.17-.84.15-.02,0-.04-.02-.05-.04-.01-.12-.05-.5-.09-.71,0-.04.04-.08.08-.05Z"/>
              <path class="cls-10" d="m426.79,62.7s.3.19.53.43c.11.12.14.3.06.45-.06.12-.15.23-.28.26-.19.04-.49-.1-.66-.2-.07-.04-.09-.13-.04-.19.11-.15.28-.43.39-.75Z"/>
              <path class="cls-10" d="m427.89,62.28c.36-.02,1.28-.04,1.58.41.03.04.03.1,0,.15-.06.09-.18.25-.37.3-.03,0-.06,0-.09-.01-.17-.09-.82-.45-1.17-.73-.04-.04-.02-.11.03-.11Z"/>
              <path class="cls-10" d="m427.58,62.78s.8.03,1.11.46c.03.04.02.09,0,.12-.1.1-.35.31-.61.34-.03,0-.06-.01-.08-.04-.1-.13-.4-.58-.42-.87"/>
              <path class="cls-10" d="m425.63,64.22s.7-.24.83-.32c.13-.08.64.23.59.65s-.72.43-1.42-.33Z"/>
              <path class="cls-10" d="m427.74,63.83c.15.06.45.21.56.47.03.07,0,.15-.04.2h0c-.05.05-.12.08-.2.06-.19-.05-.56-.17-.61-.31-.05-.13.08-.3.16-.39.03-.04.09-.05.14-.03Z"/>
              <path class="cls-10" d="m429.45,63.25c.12-.09.33-.23.47-.34.03-.03.08-.03.11-.01.11.05.3.17.28.34-.03.22-.55.47-.87.17-.05-.05-.04-.13.02-.16Z"/>
              <path class="cls-10" d="m428.85,64.33c.11-.09.29-.21.53-.29.1-.03.13-.16.05-.23-.13-.12-.31-.25-.49-.21-.28.06-.49.34-.3.69.04.08.14.1.21.04Z"/>
              <path class="cls-10" d="m427.56,65.32c.14-.01.36-.01.6.05.1.03.19-.06.17-.16-.04-.17-.12-.38-.29-.45-.26-.11-.6,0-.63.41,0,.09.06.16.15.15Z"/>
              <g>
                <path class="cls-10" d="m422.5,62.32c.15.02.29-.04.38-.16.16-.22.4-.55.57-.85-.72.23-1.24.61-1.6,1.06.19-.04.44-.07.64-.04Z"/>
                <path class="cls-10" d="m428.2,62.02c.13-.06.37-.17.58-.31-.61-.2-1.24-.38-1.89-.49.26.23.67.56,1.15.8.05.03.11.03.17,0Z"/>
                <path class="cls-10" d="m430.49,62.34c-.44-.17-.88-.34-1.34-.5.01.1.04.2.09.29.2.36.8.53,1.25.22Z"/>
              </g>
              <g>
                <path class="cls-9" d="m458.61,78.64c-.47-.69-1.06-1.41-1.6-2.51-.16-.32-.41-.6-.72-.78-1.83-1.1-8.23-5.03-9.92-6.96-1.98-2.26-4.79-5.04-6.87-4.53-.8.2-1.49.63-1.85,1.25,1.15-.84,1.88-.07,1.21.52-.5.44-.89,1.12-1.15,1.66.05.11.12.22.19.33.14-.2.32-.41.54-.62,1.33-1.25,2.25-.38,1.53.25-.47.41-.84,1.03-1.1,1.56.07.07.14.15.22.23.28-.4.68-.82,1.27-1.2,1.83-1.17,2.72.05,1.73.64-.71.42-1.35,1.18-1.78,1.78.1.1.2.2.31.3.27-.57.87-1.41,2.15-1.99,2.1-.95,2.85.46,1.73.93-1.16.48-2.25,1.7-2.66,2.19.15.14.3.28.46.42.33-.42.84-.86,1.61-1.21,1.98-.9,2.69.44,1.63.88-.74.31-1.46.94-1.96,1.46.29.25.58.5.88.75.4-.55,1.2-1.31,2.66-1.68,2.42-.6,2.94,1.05,1.65,1.32-1.09.23-2.23,1-2.9,1.52.2.16.41.32.61.48.36-.34,1-.91,1.62-1.27.3-.18.68-.17.98,0,.46.27,1.06.72.92,1.16-.17.57-.32,1.44-1.05,1.92.21.15.43.29.64.43.75-.6.98-2.17.98-2.17,0,0,1.31.34,1.62,1.3.24.75-.9,1.39-1.4,1.63.41.24.82.47,1.22.67.74-.79.89-2.46.89-2.46,0,0,1.53.32,1.95,1.4.27.71-.57,1.38-1.18,1.76.13.04.25.08.37.11.21.06.41.11.61.16.41-.37.91-.92,1.08-1.52,0,0,2.77-.29,2.47,2.34.28.03.51.04.69.02-.02-.29-.08-.65-.25-1.04-.28-.63-.14-1.13-.02-1.4Z"/>
                <path class="cls-10" d="m455.73,78.72c-.17.6-.67,1.15-1.08,1.52,1.67.44,2.81.72,3.55.81.3-2.62-2.47-2.34-2.47-2.34Z"/>
                <path class="cls-10" d="m459.33,80.08c-.14-.53-.4-.98-.72-1.45-.12.26-.26.77.02,1.4.17.39.24.75.25,1.04.53-.06.61-.38.45-.99Z"/>
                <path class="cls-10" d="m454.85,78.21c-.41-1.08-1.95-1.4-1.95-1.4,0,0-.15,1.67-.89,2.46.58.29,1.14.53,1.66.7.61-.38,1.45-1.05,1.18-1.76Z"/>
                <path class="cls-10" d="m452.19,76.98c-.31-.96-1.62-1.3-1.62-1.3,0,0-.22,1.57-.98,2.17.41.27.81.52,1.2.75.5-.24,1.64-.87,1.4-1.63Z"/>
                <path class="cls-10" d="m450,75.51c.14-.45-.46-.9-.92-1.16-.3-.18-.68-.18-.98,0-.61.36-1.26.93-1.62,1.27.82.64,1.65,1.25,2.47,1.82.73-.48.87-1.35,1.05-1.92Z"/>
                <path class="cls-10" d="m447.1,72.29c-1.46.37-2.26,1.13-2.66,1.68.46.39.94.78,1.42,1.16.67-.51,1.81-1.29,2.9-1.52,1.28-.28.76-1.93-1.65-1.32Z"/>
                <path class="cls-10" d="m445.53,71.76c1.06-.44.35-1.77-1.63-.88-.77.35-1.27.8-1.61,1.21.41.37.83.74,1.27,1.12.5-.52,1.22-1.15,1.96-1.46Z"/>
                <path class="cls-10" d="m444.5,69.49c1.12-.46.37-1.88-1.73-.93-1.28.58-1.88,1.42-2.15,1.99.38.36.78.74,1.21,1.13.41-.49,1.51-1.71,2.66-2.19Z"/>
                <path class="cls-10" d="m442.09,68.48c.99-.58.1-1.8-1.73-.64-.6.38-1,.8-1.27,1.2.34.35.76.76,1.23,1.21.43-.59,1.06-1.35,1.78-1.78Z"/>
                <path class="cls-10" d="m439.96,67.26c.72-.64-.2-1.5-1.53-.25-.22.21-.4.41-.54.62.2.32.45.65.78,1,.06.06.12.13.19.2.26-.52.63-1.15,1.1-1.56Z"/>
                <path class="cls-10" d="m438.86,65.63c.66-.58-.06-1.36-1.21-.52-.33.57-.37,1.31.06,2.18.26-.54.65-1.22,1.15-1.66Z"/>
              </g>
              <path class="cls-10" d="m456.3,76.22c-.12.18-.31.41-.51.53-.09.05-.14.15-.12.25.03.22.06.59.04.85-.01.14.09.26.23.27.3.02.76.06,1.13.16.18.05.35-.12.31-.31-.13-.51-.36-1.31-.66-1.75-.1-.15-.32-.15-.42,0Z"/>
              <path class="cls-10" d="m455.9,76.06l-.47.46s-.06.07-.07.11c-.04.12-.12.36-.27.6-.09.14-.3.16-.42.04-.18-.19-.49-.46-.9-.69-.12-.06-.17-.2-.12-.33.1-.28.32-.78.67-1.24.07-.09.2-.13.31-.09.32.11.96.38,1.29.77.09.11.09.27-.02.37Z"/>
              <path class="cls-10" d="m452.2,76.02s.03.02.05.03c.13.04.67.21.92.05.21-.14.32-.52.37-.71.01-.06,0-.13-.05-.18-.21-.2-.82-.73-1.35-.79-.04,0-.08,0-.12.03-.12.08-.46.28-.86.45-.13.06-.15.23-.04.31l1.09.81Z"/>
              <path class="cls-10" d="m450.79,74.65c.18-.1.41-.24.59-.38.17-.13.21-.36.09-.53-.14-.22-.36-.51-.6-.66-.13-.08-.29-.08-.42,0-.19.12-.5.34-.69.63-.13.2-.06.47.15.57.12.06.26.15.37.28.13.14.33.18.5.09Z"/>
              <path class="cls-10" d="m448.65,71.59s1.04.33,1.21.96c.02.08.11.12.19.09.08-.04.18-.09.29-.18.13-.1.14-.29.02-.4-.26-.26-.75-.68-1.25-.73,0,0-.34-.06-.45.27Z"/>
              <path class="cls-10" d="m446.62,71.39c.07-.16.15-.36.16-.53.01-.12.11-.2.23-.19.43.04,1.27.16,1.32.51.04.34-.95.46-1.5.51-.16.01-.27-.15-.2-.29Z"/>
              <path class="cls-10" d="m445.63,69.59c.11-.09.23-.21.3-.34.05-.08.15-.11.23-.07.3.18.89.56.8.83-.09.27-.86.02-1.29-.14-.12-.04-.15-.2-.05-.29Z"/>
              <path class="cls-10" d="m444.28,67.71c.24.1.74.34.96.7.03.05.1.03.11-.02.01-.24-.01-.62-.26-.77-.26-.16-.61-.08-.81-.01-.05.02-.05.09,0,.11Z"/>
              <path class="cls-10" d="m442.38,67.16c.14.12.34.36.38.69,0,.07.1.11.15.05.12-.13.31-.29.53-.33.05,0,.09-.06.07-.12-.08-.2-.34-.59-1.08-.44-.07.01-.09.1-.04.15Z"/>
              <path class="cls-10" d="m440.78,67.08c-.11-.06-.17-.18-.15-.3.03-.26.15-.68.62-.71.46-.03,1.03.21,1.35.37.06.03.04.12-.03.12-.4-.01-1.1.01-1.17.39-.07.36-.4.24-.6.13Z"/>
              <path class="cls-10" d="m439.78,65.77c.12.04.24.09.33.18.06.05.14.07.21.04.25-.1.82-.3,1.37-.22.05,0,.08-.06.03-.09-.42-.26-1.35-.72-2.01-.25-.13.09-.09.3.06.35Z"/>
              <path class="cls-10" d="m439.12,64.51c.14.09.3.22.34.4.02.06.07.09.13.08.24-.05.81-.14,1.26-.11.11,0,.17-.13.09-.2-.32-.28-.93-.65-1.79-.38-.09.03-.11.15-.03.21Z"/>
              <path class="cls-10" d="m442.28,65.36c.11.12.58.66,1.22,1.08.02.02.05.02.08.01.05-.01.13-.03.25-.03.08,0,.13-.1.07-.16-.35-.34-1.06-1.02-1.5-1.27-.06-.04-.14,0-.14.08v.23s0,.04.02.06Z"/>
              <path class="cls-10" d="m444.79,67.23c-.15,0-.48,0-.81.06-.03,0-.06-.01-.07-.04-.03-.09-.1-.28-.22-.42-.03-.04,0-.09.04-.09.22-.01.64-.02.83.09.17.1.25.23.28.32.02.04-.01.08-.06.08Z"/>
              <g>
                <path class="cls-9" d="m463.42,74.45c-.09-.09-.23-.06-.28.05-.09.2-.22.44-.34.66.42.12.97.14,1.51.11-.34-.27-.68-.61-.88-.82Z"/>
                <path class="cls-9" d="m462.4,74c-.17-.09-.69-.36-1.03-.74-.05-.06-.15-.03-.16.05-.03.17-.09.42-.17.62.46.24.71.58,1.08.87.15-.21.3-.47.33-.69,0-.04-.01-.09-.05-.1Z"/>
                <path class="cls-9" d="m459.56,72.37c-.48-.14-1.03.61-1.29,1.01.4.13.79.21,1.14.21.34,0,.63.03.87.08.24-.6-.24-1.16-.72-1.3Z"/>
                <path class="cls-10" d="m461.99,73.02c.68.35,1.33.76,1.78.26-.76-.47-1.54-.9-2.03-1.14,0,0-.02-.01-.03-.02-.12.3-.15.67.28.89Z"/>
              </g>
              <path class="cls-10" d="m429.27,75.97c.34.16.97.56,1.13,1.28.02.08-.05.16-.14.16-.37-.03-1.21-.22-1.23-1.29,0-.12.12-.2.23-.15Z"/>
              <path class="cls-10" d="m429.69,77.85c.26.08.66.2.94.22.08,0,.14.07.13.15-.02.21-.06.59-.03.93,0,.12-.14.2-.23.11-.3-.27-.77-.74-.98-1.23-.05-.11.06-.22.17-.18Z"/>
              <path class="cls-10" d="m430.18,75.71s.57-.38.78-.93c.04-.1.16-.12.23-.05.17.18.41.51.43.98.04.73-.96.78-1.44,0Z"/>
              <path class="cls-10" d="m429.35,73.09c-.11-.08-.26-.03-.31.09-.17.41-.45,1.31,0,1.94.59.85,1.13.15,1.24-.11.11-.24.04-1.22-.93-1.93Z"/>
              <path class="cls-10" d="m429.89,73.07c.2.18.61.6.68,1.02.02.09.11.14.19.1.18-.09.48-.21.77-.22.09,0,.15-.09.12-.17-.17-.49-.73-1.7-1.74-.93-.06.05-.07.15,0,.2Z"/>
            </g>
            <path class="cls-2" d="m424.51,62.54c0-.12.1-.22.22-.22s.22.1.22.22-.1.22-.22.22-.22-.1-.22-.22Z"/>
          </g>
        </g>
        <path class="cls-21" d="m421.09,65.61c.36.11.95.19,1.33.24.39.05.79.08,1.18.07.4,0,.8-.03,1.19-.1.37-.06.71-.25,1.11-.39-.32.21-.7.4-1.1.49-.39.1-.79.16-1.2.19-.4.04-.81.04-1.22.02-.41-.02-.84-.07-1.26-.16l-.05-.36Z"/>
        <path class="cls-21" d="m425.68,65.11c.08-.11.2-.11.3-.1.1.01.19.08.26.15.13.17.12.43-.09.55-.1-.08-.15-.13-.2-.16-.05-.03-.08-.06-.1-.09-.05-.06-.05-.16-.15-.36Z"/>
      </g>
      <g>
        <g>
          <path class="cls-2" d="m336.6,37.13c-.56,0-1.25-.11-2.32-.35h0s0,0,0,0c-.3-.07-.63-.15-.99-.24h-.04c-.34-.1-.72-.2-1.14-.31l-.62-.17c-.15-.04-.3-.09-.46-.14l-.07-.02h.04c-.07-.01-.15-.04-.22-.06h-.04c-.1-.05-.18-.08-.26-.11-.09-.03-.18-.07-.27-.11-.08-.03-.17-.07-.25-.11-.09-.04-.18-.08-.27-.12-.08-.04-.17-.08-.25-.12-.09-.04-.18-.09-.27-.13l-.05-.02s-.12-.06-.12-.06c-.15-.08-.31-.16-.46-.24-.06-.03-.21-.12-.21-.12-.14-.08-.28-.15-.42-.24l-.12-.07s-.12-.07-.12-.07c-.12-.07-.25-.15-.38-.23l-.23-.14c-.14-.09-.28-.18-.42-.27l-.17-.11c-.18-.12-.36-.24-.53-.36l-.13-.09c-.59-.41-1.23-.86-1.87-1.36,0,0-.36-.28-.49-.37-.08,0-.16-.02-.24-.02-.14-.01-.29-.03-.43-.05-.07,0-.33-.04-.33-.04-.09-.01-.18-.02-.27-.04-.09-.01-.18-.03-.28-.04-.11-.02-.21-.03-.31-.05-.09-.02-.18-.03-.28-.05-.1-.02-.2-.04-.29-.06-.08-.02-.17-.03-.26-.05-.1-.02-.35-.08-.35-.08l-.19-.04c-.11-.02-.21-.05-.31-.07l-.22-.05c-.17-.04-.33-.08-.49-.13l-.2-.06c-.1-.03-.2-.05-.29-.08,0,0-.38-.11-.47-.14l-.19-.06c-.09-.03-.44-.14-.44-.14l-.42-.14-.41-.14c-.12-.04-.25-.09-.38-.13-.13-.05-.25-.09-.37-.14,0,0-.28-.11-.35-.14l-.36-.15-.32-.14-.29-.13-.39-.18c-.08-.04-.16-.08-.24-.12-.29-.15-.54-.29-.78-.44-1.07,1.83-2.02,4-1.88,5.21.06.48.05.89-.02,1.25-.22,1.11-1.08,1.86-2.14,1.86-.14,0-.28-.01-.42-.04-.16-.03-.33-.08-.5-.15-.32-.13-.62-.33-.94-.61-.22-.2-.45-.44-.68-.72-.14-.17-.28-.35-.41-.54-.2-.29-.4-.59-.58-.91-.13-.22-.25-.44-.36-.66-.12-.23-.22-.47-.32-.7-.1-.24-.2-.49-.28-.73-.29-.86-.43-1.65-.42-2.36.02-.76.16-1.6.42-2.49.09-.3.19-.6.31-.91.1-.28.22-.56.34-.85.01-.03.02-.05.03-.08-1.14-.12-2.14-.4-3-.82-.13-.06-.24-.12-.36-.19l-.07-.04c-.11-.06-.21-.12-.31-.18l-.07-.04c-.08-.05-.18-.11-.28-.17h-.02c-.09-.07-.17-.13-.25-.18l1.04-1.55-1.08,1.53c-.09-.06-.16-.12-.24-.17l-.04-.03c-.08-.06-.14-.11-.21-.16l1.12-1.5-1.14,1.48-.2-.16-.12-.09c-.55-.44-.65-.52-1.1-.56-.04,0-.09,0-.13,0l.03-.64-1.78-.87v-.07s0,.03,0,.03l-.04-.22-.02-.16c-.01-.1-.03-.23-.04-.38v-.05c0-.06,0-.12-.01-.19v-.07c0-.05,0-.12,0-.19v-.12c0-.07,0-.13,0-.2h0c0-.13.01-.23.02-.34h0c0-.11.02-.21.03-.31v-.05c.02-.1.03-.19.05-.28v-.08c.03-.09.05-.19.07-.28v-.06c.08-.26.16-.51.25-.75l.03-.07v.03c.03-.1.07-.2.12-.3,0-.02.02-.04.03-.07h0c.17-.35.37-.67.6-.96h0s.06-.07.09-.11c.04-.05.08-.09.12-.14.04-.04.08-.08.12-.13.08-.08.14-.14.21-.2.07-.06.14-.13.22-.19.05-.04.1-.08.15-.11l1.12,1.5-1.09-1.52c.05-.04.1-.07.16-.11.06-.04.12-.08.18-.11.06-.04.12-.07.18-.11.07-.04.13-.07.2-.1.06-.03.12-.06.19-.09.07-.03.14-.06.21-.09.06-.03.13-.05.2-.08h.02c.05-.03.1-.05.16-.06.02,0,.04-.01.06-.02h0s0,0,0,0c.43-.14.89-.23,1.37-.28.17-.02.35-.03.54-.04h.09c.13,0,.25,0,.37,0h.21c.12,0,.25.01.37.02h.15c.13.02.25.03.37.04l.14.02c.13.02.26.03.38.05l.1.02c.16.03.31.05.46.08h.01c.31.06.62.14.95.23l.08.02c.12.03.24.07.37.11l.09.03c.11.03.23.07.35.11l.09.03c.12.04.24.08.36.12l.06.02c.23.08.46.16.68.25h0s0,0,0,0h0c.23.08.45.17.68.26l.3.12c1.07.42,2.1.83,2.92.94.02-.01.13-.08.13-.08.04-.03.1-.06.15-.08l.1-.05s.09-.05.15-.07c.02-.01.05-.03.09-.04.05-.02.1-.05.15-.07l.1-.04c.05-.02.17-.07.17-.07l.09-.04c.05-.02.12-.04.18-.07l.1-.04c.51-.18,1.09-.33,1.71-.45h0s.05-.01.08-.02c.07-.01.16-.03.25-.04.07-.01.12-.02.18-.03.09-.01.18-.03.28-.04.07,0,.14-.02.21-.03.09-.01.18-.02.28-.03.08,0,.16-.02.23-.02.1,0,.19-.02.29-.03.08,0,.17-.01.25-.02.1,0,.2-.01.3-.02.09,0,.18-.01.27-.01.11,0,.21,0,.31-.01.1,0,.2,0,.3,0,.11,0,.21,0,.33,0,.1,0,.21,0,.32,0s.23,0,.34,0h.16s0,0,0,0c.2,0,.4,0,.61.02h0c.09,0,.18,0,.27.01h.28c.2.02.4.04.61.05l.26.02c.17.01.33.03.5.04l.23.02c.24.02.48.05.73.07l.19.02c.21.02.42.05.63.07l.23.03c.28.04.55.07.84.11.27.04.54.08.81.13.07.01.28.05.28.05.17.03.34.06.5.1.11.02.22.05.32.07.15.03.3.07.44.1h.04c.1.03.2.06.29.08l.1.02h0c.25.07.49.13.73.2h0c.08.02.16.05.24.07l.08.02c.2.06.4.13.59.19h.04c.1.05.21.08.31.12.11.04.21.08.31.11h.02c.11.05.22.09.33.13.1.04.21.08.31.12.12.05.23.09.34.14,0,0,.21.09.28.12.15.07.29.13.44.2.08.04.16.07.24.11.16.08.32.15.47.23.06.03.39.2.44.23h0c.44.24.86.48,1.26.73l.08.05h-.02c.22.12.45.27.67.42l.12.08c.18.12.36.25.53.37l.13.1c.39.28.77.58,1.13.89l.12.1c.15.13.3.25.43.38l.07.06c.15.14.31.28.45.42l.09.09c.11.11.23.22.33.33l.09.09c.13.13.25.26.37.38h0c.26.28.51.57.75.86l.04.05c.07.09.13.16.18.22l.05.06c.06.07.11.14.15.2v.02c.13.15.21.27.28.36.24.34.37.74.39,1.13l.15.08.23.13c.09.05.28.15.28.15.09.05.27.15.27.15.1.06.2.11.29.17h0s.19.12.29.18l.31.19c1.01.62,1.77,1.18,2.25,1.64.59.57.8,1.4.55,2.18-.25.78-.9,1.34-1.71,1.47-.35.06-.88.13-1.46.16-.16,0-.32.01-.48.01h-.05c-.16,0-.32,0-.47-.01h-.02s0,0,0,0c-.18-.01-.36-.03-.53-.06h-.01c-.2-.03-.39-.08-.57-.13-.23-.07-.43-.14-.61-.24-.24-.12-.47-.27-.71-.45h0s-.15-.12-.18-.15c-.03-.02-.11-.09-.11-.09l-.35-.32-.04-.03-.05-.04-.03-.02-.05-.03s-.13-.05-.29-.07h-.04c-.05-.01-.1-.02-.16-.02h-.05c-.07,0-.15-.01-.23-.01-.13,0-.26,0-.41-.03h-.09s-.09-.02-.13-.03c.03.06.07.12.1.18l.06.1c.03.06.07.12.1.18l.06.1c.04.07.07.12.1.17l.08.12.22.32c.11.16.21.3.32.45.31.44.64.89.9,1.4l.03.06c.08.15.15.3.21.47,0,.02.02.06.03.09.08.2.13.37.18.54h0c.03.12.05.22.07.33v.06c.03.12.05.24.06.36v.06c.01.17,0,.32-.01.47v.02s0,0,0,0c-.06.45-.23.86-.51,1.19l-.03.03h0s0,.01,0,.01h0c-.15.17-.32.32-.52.44l-.03.02c-.3.18-.66.3-1.05.35v-.05s0,0,0,0v.05c-.14.02-.28.03-.44.03Z"/>
          <g>
            <g>
              <path class="cls-23" d="m312.97,25.3s.05,1.14,4.07,2.6c4.03,1.46,11.89,3.66,19.25-2.15,0,0-1.52.17-3.08-.29-1.55-.46-5.38-2.29-9.72-1.43-4.34.87-3.64,1.51-6.68,1.19-3.04-.32-3.84.08-3.84.08Z"/>
              <path class="cls-11" d="m333.27,27.7c-4.98-1.93-10.25-.04-13.92-.19-2-.08-3.47-.31-4.4-.51.54.28,1.23.58,2.1.9,3.48,1.26,9.82,3.07,16.23-.2Z"/>
              <path class="cls-10" d="m299.1,20.08s-.92-4.44,3.31-4.88c4.23-.43,7.8,2.72,10.73,2.44l16.29,4.96s-3.23,4.1-7.92,3.73c-4.69-.37-5.78-1.44-8.54-1.04,0,0-3.77,5.21-3.4,8.35.36,3.14-3.38-1.71-3.33-4.5.04-2.06,1.33-4.5,2-5.63.15-.26-.05-.59-.35-.56-1.06.08-3.04.1-4.58-.66-2.21-1.09-2.23-2.11-4.2-2.21Z"/>
              <path class="cls-29" d="m338.14,24.63s.43,1.06,1.56,1.63c.97.48,3.11,1.7,3.97,2.53.16.15.07.42-.14.45-.77.12-2.3.3-3.04-.08-1.02-.52-1-1.42-3.11-1.45-2.11-.03-5.34-2.68-5.34-2.68l6.11-.4Z"/>
              <path class="cls-9" d="m302.18,19.74c1.87.66,6.68,1.54,6.88-3.06-2-.79-4.21-1.72-6.65-1.48-4.23.43-3.31,4.88-3.31,4.88,0,0,1.41-.93,3.08-.34Z"/>
              <path class="cls-25" d="m304.16,15.51s-2.98-.82-2.13,2.28c0,0,3.11.44,2.13-2.28Z"/>
              <path class="cls-25" d="m301.65,18.25c-.89-.27-.73-1.34-1.55-1.34-.26,0-.48.07-.67.17-.67,1.38-.33,3.01-.33,3.01,0,0,1.41-.93,3.08-.34.73.26,1.91.55,3.09.53-1.13-2.15-2.75-1.77-3.62-2.03Z"/>
              <path class="cls-21" d="m299.19,20.18s0,0,0,0c0,0,0-.01.01-.02l-.02.02Z"/>
              <path class="cls-21" d="m303.85,15.82s-1.77-.32-1.5,1.59c0,0,1.94-.11,1.5-1.59Z"/>
              <path class="cls-9" d="m316.38,23.2c-3.76,1.41-5.13-1.86-7.49-1.66-1.82.15-3.93.31-5.64-.21-.85-.26-1.47-.31-1.89-.31.46.37,1.01.82,1.94,1.28,1.54.76,3.52.74,4.58.66.3-.02.5.3.35.56-.67,1.14-1.95,3.58-2,5.63-.06,2.79,3.69,7.64,3.33,4.5-.36-3.14,3.4-8.35,3.4-8.35,2.65-.39,3.77.58,8.01.99.2-2.16.36-3.81.36-3.81,0,0-1.2-.7-4.95.71Z"/>
              <g>
                <path class="cls-4" d="m312.95,17.66s2.06-2.45,12.01-1.01c8.86,1.28,13.16,6.85,14,8.05.09.14.07.32-.06.43-.51.41-1.96,1.26-4.87.69-3.74-.73-5.5-1.92-7.84-1.75-2.34.17-10.53-4.05-10.53-4.05,0,0-.79-1.54-2.71-2.36Z"/>
                <path class="cls-14" d="m316.89,21.03l.48-3.22c.03-.22.22-.38.44-.38.78.01,2.55.13,3.79.93.18.12.25.35.17.55-.19.44-.52,1.27-.71,2.09-.04.19-.21.33-.41.35l-3.3.19c-.28.02-.51-.23-.46-.51Z"/>
                <path class="cls-27" d="m322.2,19.6l.3-.73c.04-.1.15-.16.25-.13.59.13,2.43.56,3.19,1.09.17.12.21.35.09.52-.21.3-.54.82-.73,1.42-.06.17-.24.27-.42.21-.26-.09-.61-.28-.86-.63-.35-.5-1.36-1.22-1.74-1.48-.09-.06-.12-.17-.08-.27Z"/>
                <path class="cls-27" d="m325.8,22.02c.09-.4.34-1.25.96-1.62.1-.06.22-.06.32,0,.53.26,2.29,1.11,3.17,1.38.12.04.22.14.24.27.03.17.06.4.05.62,0,.17-.12.31-.28.34-.74.14-2.95.44-4.34-.65-.1-.08-.15-.22-.12-.35Z"/>
                <path class="cls-27" d="m331.5,22.33c-.18.03-.33.16-.36.34-.05.27-.07.68.17.92.31.3,2.13.59,3.16.34.35-.09.44-.51.16-.72-.61-.44-1.76-1.08-3.13-.87Z"/>
                <g>
                  <path class="cls-27" d="m316.77,17.61c.14-.1.11-.32-.06-.37-.69-.21-1.74-.33-2.34-.38-1.08.39-1.43.79-1.43.79,1.08.46,1.8,1.14,2.22,1.66.32-.74,1.14-1.39,1.6-1.71Z"/>
                  <path class="cls-27" d="m319.81,16.2c-1.7-.03-3,.1-3.99.29.31.22.92.58,1.8.64,1.18.09,2.04.06,2.19-.93Z"/>
                  <path class="cls-27" d="m320.96,17.45c.4.08,1,.26,1.39.62.07.06.15.1.23.13.16.04.46.12,1.02.25.88.2,3.9,1.35,5.39,2.01.17.07.34-.09.28-.26-.26-.7-.84-2.04-1.73-3.03-.81-.21-1.67-.39-2.58-.52-1.76-.25-3.28-.39-4.57-.43.04.22.08.49.11.74.03.25.21.45.46.5Z"/>
                  <path class="cls-27" d="m330.38,21.12c.4.21,1.71.86,2.8.81.19,0,.31-.2.25-.38-.19-.54-.61-1.65-1.12-2.53-1.19-.63-2.55-1.21-4.09-1.66.57.77,1.8,2.55,2.01,3.57.02.08.07.15.15.19Z"/>
                  <path class="cls-27" d="m334.4,22.04c.36.3,2.17.69,3.29,1.09-.92-.99-2.3-2.26-4.19-3.43.17.66.55,2.04.9,2.34Z"/>
                  <path class="cls-27" d="m335.27,23.31c-.06.17-.13.44-.05.67.12.35,2.12.96,3.66.6-.16-.23-.41-.55-.74-.94-.76-.1-2.2-.29-2.67-.43-.08-.02-.17.02-.19.1Z"/>
                </g>
              </g>
              <path class="cls-9" d="m317.45,17.97c-1.89.47-3.21,2.23-.82,4.76s10.65,10.2,15.36,11.46c4.72,1.27,5.68,1.42,5.29,0-.35-1.31-1.41-2.11-2.32-3.96-.16-.32-.41-.6-.72-.78-1.83-1.1-8.23-5.03-9.92-6.96-1.98-2.26-4.79-5.04-6.87-4.53Z"/>
              <path class="cls-10" d="m300.98,16.53l.36-.4c.07-.07.19-.02.17.08-.04.23-.08.53-.08.77,0,.09-.11.13-.17.06-.11-.13-.24-.29-.29-.41-.01-.03,0-.07.02-.1Z"/>
              <path class="cls-10" d="m304.67,15.68c.19.12.59.36.92.56.04.02.03.08-.01.09-.19.06-.58.17-.84.15-.02,0-.04-.02-.05-.04-.01-.12-.05-.5-.09-.71,0-.04.04-.08.08-.05Z"/>
              <path class="cls-10" d="m304.75,16.8s.3.19.53.43c.11.12.14.3.06.45-.06.12-.15.23-.28.26-.19.04-.49-.1-.66-.2-.07-.04-.09-.13-.04-.19.11-.15.28-.43.39-.75Z"/>
              <path class="cls-10" d="m305.85,16.39c.36-.02,1.28-.04,1.58.41.03.04.03.1,0,.15-.06.09-.18.25-.37.3-.03,0-.06,0-.09-.01-.17-.09-.82-.45-1.17-.73-.04-.04-.02-.11.03-.11Z"/>
              <path class="cls-10" d="m305.54,16.89s.8.03,1.11.46c.03.04.02.09,0,.12-.1.1-.35.31-.61.34-.03,0-.06-.01-.08-.04-.1-.13-.4-.58-.42-.87"/>
              <path class="cls-10" d="m303.59,18.33s.7-.24.83-.32c.13-.08.64.23.59.65s-.72.43-1.42-.33Z"/>
              <path class="cls-10" d="m305.7,17.94c.15.06.45.21.56.47.03.07,0,.15-.04.2h0c-.05.05-.12.08-.2.06-.19-.05-.56-.17-.61-.31-.05-.13.08-.3.16-.39.03-.04.09-.05.14-.03Z"/>
              <path class="cls-10" d="m307.41,17.36c.12-.09.33-.23.47-.34.03-.03.08-.03.11-.01.11.05.3.17.28.34-.03.22-.55.47-.87.17-.05-.05-.04-.13.02-.16Z"/>
              <path class="cls-10" d="m306.8,18.44c.11-.09.29-.21.53-.29.1-.03.13-.16.05-.23-.13-.12-.31-.25-.49-.21-.28.06-.49.34-.3.69.04.08.14.1.21.04Z"/>
              <path class="cls-10" d="m305.52,19.43c.14-.01.36-.01.6.05.1.03.19-.06.17-.16-.04-.17-.12-.38-.29-.45-.26-.11-.6,0-.63.41,0,.09.06.16.15.15Z"/>
              <g>
                <path class="cls-10" d="m300.46,16.42c.15.02.29-.04.38-.16.16-.22.4-.55.57-.85-.72.23-1.24.61-1.6,1.06.19-.04.44-.07.64-.04Z"/>
                <path class="cls-10" d="m306.16,16.13c.13-.06.37-.17.58-.31-.61-.2-1.24-.38-1.89-.49.26.23.67.56,1.15.8.05.03.11.03.17,0Z"/>
                <path class="cls-10" d="m308.45,16.44c-.44-.17-.88-.34-1.34-.5.01.1.04.2.09.29.2.36.8.53,1.25.22Z"/>
              </g>
              <g>
                <path class="cls-9" d="m336.57,32.75c-.47-.69-1.06-1.41-1.6-2.51-.16-.32-.41-.6-.72-.78-1.83-1.1-8.23-5.03-9.92-6.96-1.98-2.26-4.79-5.04-6.87-4.53-.8.2-1.49.63-1.85,1.25,1.15-.84,1.88-.07,1.21.52-.5.44-.89,1.12-1.15,1.66.05.11.12.22.19.33.14-.2.32-.41.54-.62,1.33-1.25,2.25-.38,1.53.25-.47.41-.84,1.03-1.1,1.56.07.07.14.15.22.23.28-.4.68-.82,1.27-1.2,1.83-1.17,2.72.05,1.73.64-.71.42-1.35,1.18-1.78,1.78.1.1.2.2.31.3.27-.57.87-1.41,2.15-1.99,2.1-.95,2.85.46,1.73.93-1.16.48-2.25,1.7-2.66,2.19.15.14.3.28.46.42.33-.42.84-.86,1.61-1.21,1.98-.9,2.69.44,1.63.88-.74.31-1.46.94-1.96,1.46.29.25.58.5.88.75.4-.55,1.2-1.31,2.66-1.68,2.42-.6,2.94,1.05,1.65,1.32-1.09.23-2.23,1-2.9,1.52.2.16.41.32.61.48.36-.34,1-.91,1.62-1.27.3-.18.68-.17.98,0,.46.27,1.06.72.92,1.16-.17.57-.32,1.44-1.05,1.92.21.15.43.29.64.43.75-.6.98-2.17.98-2.17,0,0,1.31.34,1.62,1.3.24.75-.9,1.39-1.4,1.63.41.24.82.47,1.22.67.74-.79.89-2.46.89-2.46,0,0,1.53.32,1.95,1.4.27.71-.57,1.38-1.18,1.76.13.04.25.08.37.11.21.06.41.11.61.16.41-.37.91-.92,1.08-1.52,0,0,2.77-.29,2.47,2.34.28.03.51.04.69.02-.02-.29-.08-.65-.25-1.04-.28-.63-.14-1.13-.02-1.4Z"/>
                <path class="cls-10" d="m333.69,32.83c-.17.6-.67,1.15-1.08,1.52,1.67.44,2.81.72,3.55.81.3-2.62-2.47-2.34-2.47-2.34Z"/>
                <path class="cls-10" d="m337.29,34.19c-.14-.53-.4-.98-.72-1.45-.12.26-.26.77.02,1.4.17.39.24.75.25,1.04.53-.06.61-.38.45-.99Z"/>
                <path class="cls-10" d="m332.8,32.32c-.41-1.08-1.95-1.4-1.95-1.4,0,0-.15,1.67-.89,2.46.58.29,1.14.53,1.66.7.61-.38,1.45-1.05,1.18-1.76Z"/>
                <path class="cls-10" d="m330.15,31.09c-.31-.96-1.62-1.3-1.62-1.3,0,0-.22,1.57-.98,2.17.41.27.81.52,1.2.75.5-.24,1.64-.87,1.4-1.63Z"/>
                <path class="cls-10" d="m327.95,29.62c.14-.45-.46-.9-.92-1.16-.3-.18-.68-.18-.98,0-.61.36-1.26.93-1.62,1.27.82.64,1.65,1.25,2.47,1.82.73-.48.87-1.35,1.05-1.92Z"/>
                <path class="cls-10" d="m325.06,26.4c-1.46.37-2.26,1.13-2.66,1.68.46.39.94.78,1.42,1.16.67-.51,1.81-1.29,2.9-1.52,1.28-.28.76-1.93-1.65-1.32Z"/>
                <path class="cls-10" d="m323.49,25.87c1.06-.44.35-1.77-1.63-.88-.77.35-1.27.8-1.61,1.21.41.37.83.74,1.27,1.12.5-.52,1.22-1.15,1.96-1.46Z"/>
                <path class="cls-10" d="m322.45,23.6c1.12-.46.37-1.88-1.73-.93-1.28.58-1.88,1.42-2.15,1.99.38.36.78.74,1.21,1.13.41-.49,1.51-1.71,2.66-2.19Z"/>
                <path class="cls-10" d="m320.05,22.59c.99-.58.1-1.8-1.73-.64-.6.38-1,.8-1.27,1.2.34.35.76.76,1.23,1.21.43-.59,1.06-1.35,1.78-1.78Z"/>
                <path class="cls-10" d="m317.92,21.37c.72-.64-.2-1.5-1.53-.25-.22.21-.4.41-.54.62.2.32.45.65.78,1,.06.06.12.13.19.2.26-.52.63-1.15,1.1-1.56Z"/>
                <path class="cls-10" d="m316.82,19.74c.66-.58-.06-1.36-1.21-.52-.33.57-.37,1.31.06,2.18.26-.54.65-1.22,1.15-1.66Z"/>
              </g>
              <path class="cls-10" d="m334.26,30.33c-.12.18-.31.41-.51.53-.09.05-.14.15-.12.25.03.22.06.59.04.85-.01.14.09.26.23.27.3.02.76.06,1.13.16.18.05.35-.12.31-.31-.13-.51-.36-1.31-.66-1.75-.1-.15-.32-.15-.42,0Z"/>
              <path class="cls-10" d="m333.86,30.17l-.47.46s-.06.07-.07.11c-.04.12-.12.36-.27.6-.09.14-.3.16-.42.04-.18-.19-.49-.46-.9-.69-.12-.06-.17-.2-.12-.33.1-.28.32-.78.67-1.24.07-.09.2-.13.31-.09.32.11.96.38,1.29.77.09.11.09.27-.02.37Z"/>
              <path class="cls-10" d="m330.16,30.13s.03.02.05.03c.13.04.67.21.92.05.21-.14.32-.52.37-.71.01-.06,0-.13-.05-.18-.21-.2-.82-.73-1.35-.79-.04,0-.08,0-.12.03-.12.08-.46.28-.86.45-.13.06-.15.23-.04.31l1.09.81Z"/>
              <path class="cls-10" d="m328.75,28.76c.18-.1.41-.24.59-.38.17-.13.21-.36.09-.53-.14-.22-.36-.51-.6-.66-.13-.08-.29-.08-.42,0-.19.12-.5.34-.69.63-.13.2-.06.47.15.57.12.06.26.15.37.28.13.14.33.18.5.09Z"/>
              <path class="cls-10" d="m326.61,25.7s1.04.33,1.21.96c.02.08.11.12.19.09.08-.04.18-.09.29-.18.13-.1.14-.29.02-.4-.26-.26-.75-.68-1.25-.73,0,0-.34-.06-.45.27Z"/>
              <path class="cls-10" d="m324.57,25.5c.07-.16.15-.36.16-.53.01-.12.11-.2.23-.19.43.04,1.27.16,1.32.51.04.34-.95.46-1.5.51-.16.01-.27-.15-.2-.29Z"/>
              <path class="cls-10" d="m323.58,23.7c.11-.09.23-.21.3-.34.05-.08.15-.11.23-.07.3.18.89.56.8.83-.09.27-.86.02-1.29-.14-.12-.04-.15-.2-.05-.29Z"/>
              <path class="cls-10" d="m322.23,21.82c.24.1.74.34.96.7.03.05.1.03.11-.02.01-.24-.01-.62-.26-.77-.26-.16-.61-.08-.81-.01-.05.02-.05.09,0,.11Z"/>
              <path class="cls-10" d="m320.33,21.27c.14.12.34.36.38.69,0,.07.1.11.15.05.12-.13.31-.29.53-.33.05,0,.09-.06.07-.12-.08-.2-.34-.59-1.08-.44-.07.01-.09.1-.04.15Z"/>
              <path class="cls-10" d="m318.74,21.19c-.11-.06-.17-.18-.15-.3.03-.26.15-.68.62-.71.46-.03,1.03.21,1.35.37.06.03.04.12-.03.12-.4-.01-1.1.01-1.17.39-.07.36-.4.24-.6.13Z"/>
              <path class="cls-10" d="m317.73,19.88c.12.04.24.09.33.18.06.05.14.07.21.04.25-.1.82-.3,1.37-.22.05,0,.08-.06.03-.09-.42-.26-1.35-.72-2.01-.25-.13.09-.09.3.06.35Z"/>
              <path class="cls-10" d="m317.08,18.62c.14.09.3.22.34.4.02.06.07.09.13.08.24-.05.81-.14,1.26-.11.11,0,.17-.13.09-.2-.32-.28-.93-.65-1.79-.38-.09.03-.11.15-.03.21Z"/>
              <path class="cls-10" d="m320.24,19.47c.11.12.58.66,1.22,1.08.02.02.05.02.08.01.05-.01.13-.03.25-.03.08,0,.13-.1.07-.16-.35-.34-1.06-1.02-1.5-1.27-.06-.04-.14,0-.14.08v.23s0,.04.02.06Z"/>
              <path class="cls-10" d="m322.74,21.34c-.15,0-.48,0-.81.06-.03,0-.06-.01-.07-.04-.03-.09-.1-.28-.22-.42-.03-.04,0-.09.04-.09.22-.01.64-.02.83.09.17.1.25.23.28.32.02.04-.01.08-.06.08Z"/>
              <g>
                <path class="cls-9" d="m341.38,28.56c-.09-.09-.23-.06-.28.05-.09.2-.22.44-.34.66.42.12.97.14,1.51.11-.34-.27-.68-.61-.88-.82Z"/>
                <path class="cls-9" d="m340.35,28.11c-.17-.09-.69-.36-1.03-.74-.05-.06-.15-.03-.16.05-.03.17-.09.42-.17.62.46.24.71.58,1.08.87.15-.21.3-.47.33-.69,0-.04-.01-.09-.05-.1Z"/>
                <path class="cls-9" d="m337.52,26.48c-.48-.14-1.03.61-1.29,1.01.4.13.79.21,1.14.21.34,0,.63.03.87.08.24-.6-.24-1.16-.72-1.3Z"/>
                <path class="cls-10" d="m339.95,27.13c.68.35,1.33.76,1.78.26-.76-.47-1.54-.9-2.03-1.14,0,0-.02-.01-.03-.02-.12.3-.15.67.28.89Z"/>
              </g>
              <path class="cls-10" d="m307.22,30.08c.34.16.97.56,1.13,1.28.02.08-.05.16-.14.16-.37-.03-1.21-.22-1.23-1.29,0-.12.12-.2.23-.15Z"/>
              <path class="cls-10" d="m307.65,31.96c.26.08.66.2.94.22.08,0,.14.07.13.15-.02.21-.06.59-.03.93,0,.12-.14.2-.23.11-.3-.27-.77-.74-.98-1.23-.05-.11.06-.22.17-.18Z"/>
              <path class="cls-10" d="m308.13,29.82s.57-.38.78-.93c.04-.1.16-.12.23-.05.17.18.41.51.43.98.04.73-.96.78-1.44,0Z"/>
              <path class="cls-10" d="m307.31,27.2c-.11-.08-.26-.03-.31.09-.17.41-.45,1.31,0,1.94.59.85,1.13.15,1.24-.11.11-.24.04-1.22-.93-1.93Z"/>
              <path class="cls-10" d="m307.84,27.18c.2.18.61.6.68,1.02.02.09.11.14.19.1.18-.09.48-.21.77-.22.09,0,.15-.09.12-.17-.17-.49-.73-1.7-1.74-.93-.06.05-.07.15,0,.2Z"/>
            </g>
            <path class="cls-2" d="m302.47,16.65c0-.12.1-.22.22-.22s.22.1.22.22-.1.22-.22.22-.22-.1-.22-.22Z"/>
          </g>
        </g>
        <path class="cls-21" d="m299.05,19.72c.36.11.95.19,1.33.24.39.05.79.08,1.18.07.4,0,.8-.03,1.19-.1.37-.06.71-.25,1.11-.39-.32.21-.7.4-1.1.49-.39.1-.79.16-1.2.19-.4.04-.81.04-1.22.02-.41-.02-.84-.07-1.26-.16l-.05-.36Z"/>
        <path class="cls-21" d="m303.64,19.22c.08-.11.2-.11.3-.1.1.01.19.08.26.15.13.17.12.43-.09.55-.1-.08-.15-.13-.2-.16-.05-.03-.08-.06-.1-.09-.05-.06-.05-.16-.15-.36Z"/>
      </g>
      <path class="cls-13" d="m165.61,51.73s29.54-29.26,59.41-24.28c29.86,4.99,78.03,74.82,129.09,49.88,51.06-24.94,55.88-66.84,110.79-48.88"/>
      <g>
        <polygon class="cls-6" points="88.11 13.94 90.34 12.48 94.04 12.48 94.04 11.74 88.11 11.74 87.37 7.34 86.63 7.34 86.63 11.74 84.41 15.41 87.74 15.41 88.11 13.94"/>
        <path class="cls-6" d="m94.04,11.01c0,.41-.33.73-.74.73s-.74-.33-.74-.73.33-.73.74-.73.74.33.74.73"/>
        <path class="cls-6" d="m96.01,10.27h-6.17c-.13,0-.25-.11-.25-.25v-.24c0-.14.11-.25.25-.25h6.17c.14,0,.25.11.25.25v.24c0,.14-.11.25-.25.25"/>
        <path class="cls-26" d="m97.49,9.54h-1.48c.13,0,.25.11.25.25v.24c0,.14-.11.25-.25.25h1.48c.14,0,.25-.11.25-.25v-.24c0-.14-.11-.25-.25-.25"/>
        <path class="cls-6" d="m103.41,13.94h-6.17c-.14,0-.25-.11-.25-.25v-.24c0-.14.11-.25.25-.25h6.17c.14,0,.25.11.25.25v.24c0,.14-.11.25-.25.25"/>
        <path class="cls-26" d="m104.89,13.21h-1.48c.14,0,.25.11.25.25v.24c0,.14-.11.25-.25.25h1.48c.14,0,.25-.11.25-.25v-.24c0-.14-.11-.25-.25-.25"/>
        <path class="cls-6" d="m103.57,15.41c-.33-1.27-1.49-2.2-2.87-2.2s-2.54.94-2.87,2.2h5.74Z"/>
        <polygon class="cls-6" points="94.78 15.41 94.78 13.21 95.52 13.21 96.26 15.41 94.78 15.41"/>
        <path class="cls-6" d="m113.9,15.41h-4.19c.31-.85,1.13-1.47,2.09-1.47h2.17v1.47"/>
        <path class="cls-6" d="m134.76,30.09c-19.54-8.16-37.02-8.81-43.69-8.81-.92,0-2.83.02-5.35.06,8.22.28,23.43,1.77,40.15,8.75,14.07,5.87,15.55,13.21,15.55,13.21v13.94h8.88v-13.94s-1.48-7.34-15.55-13.21"/>
        <path class="cls-30" d="m141.43,43.3v1.47h8.88v-1.47s-.17-.85-.95-2.2h-8.89c.78,1.35.95,2.2.95,2.2"/>
        <path class="cls-8" d="m146.44,41.1c-3.09-3.34-7.82-5.18-11.79-6.17,3.21,2.37,4.92,4.61,5.83,6.17h5.97Z"/>
        <rect class="cls-24" x="141.43" y="44.77" width="8.89" height="12.48"/>
        <path class="cls-5" d="m57.34,22.75c.23,0,.41-1.09.41-2.43s-.18-2.43-.41-2.43h-7.76c.23,0,.41,1.09.41,2.43s-.18,2.43-.41,2.43h7.76Z"/>
        <path class="cls-31" d="m49.99,20.32c0,1.34-.18,2.43-.41,2.43s-.41-1.09-.41-2.43.18-2.43.41-2.43.41,1.09.41,2.43"/>
        <path class="cls-5" d="m79.19,22.75c.23,0,.41-1.09.41-2.43s-.18-2.43-.41-2.43h-7.76c.23,0,.41,1.09.41,2.43s-.18,2.43-.41,2.43h7.76Z"/>
        <path class="cls-31" d="m71.84,20.32c0,1.34-.18,2.43-.41,2.43s-.41-1.09-.41-2.43.18-2.43.41-2.43.41,1.09.41,2.43"/>
        <line class="cls-15" x1="10.37" y1="33.76" x2="12.59" y2="29.36"/>
        <line class="cls-15" x1="10.37" y1="33.76" x2="12.59" y2="29.36"/>
        <line class="cls-15" x1="11.85" y1="33.76" x2="14.07" y2="29.36"/>
        <line class="cls-15" x1="13.33" y1="33.76" x2="15.55" y2="29.36"/>
        <line class="cls-15" x1="14.81" y1="33.76" x2="17.03" y2="29.36"/>
        <line class="cls-15" x1="16.29" y1="33.76" x2="18.51" y2="29.36"/>
        <line class="cls-15" x1="17.77" y1="33.76" x2="19.99" y2="29.36"/>
        <line class="cls-15" x1="19.25" y1="33.76" x2="21.47" y2="29.36"/>
        <line class="cls-15" x1="20.73" y1="33.76" x2="22.95" y2="29.36"/>
        <line class="cls-15" x1="22.21" y1="33.76" x2="24.43" y2="29.36"/>
        <line class="cls-15" x1="23.69" y1="33.76" x2="25.92" y2="29.36"/>
        <line class="cls-15" x1="25.18" y1="33.76" x2="27.4" y2="29.36"/>
        <line class="cls-15" x1="26.66" y1="33.76" x2="28.88" y2="29.36"/>
        <line class="cls-15" x1="28.14" y1="33.76" x2="30.36" y2="29.36"/>
        <line class="cls-15" x1="29.62" y1="33.76" x2="31.84" y2="29.36"/>
        <line class="cls-15" x1="31.1" y1="33.76" x2="33.32" y2="29.36"/>
        <line class="cls-15" x1="32.58" y1="33.76" x2="34.8" y2="29.36"/>
        <line class="cls-15" x1="34.06" y1="33.76" x2="36.28" y2="29.36"/>
        <line class="cls-15" x1="35.54" y1="33.76" x2="37.76" y2="29.36"/>
        <path class="cls-5" d="m82.19,21.28c4.56,0,14.2.31,26.1,3.12l-2.41-2.38,1.39-4.4.09-2.2h-22.95l-3.7,5.87h0c.62,0,1.13,0,1.48,0"/>
        <polygon class="cls-18" points="108.29 24.4 105.88 22.02 107.27 17.61 107.36 15.41 116.25 15.41 116.16 17.61 114.77 22.02 117.18 24.4 108.29 24.4"/>
        <g class="cls-28">
          <polygon class="cls-26" points="107.34 30.92 101.58 36.63 73.3 8.61 79.06 2.9 107.34 30.92"/>
          <polygon class="cls-26" points="111.74 28.02 109.65 30.1 81.37 2.08 83.47 0 111.74 28.02"/>
        </g>
        <path class="cls-2" d="m141.43,43.3s-1.48-7.34-15.55-13.21c-19.54-8.16-37.02-8.81-43.69-8.81-5.18,0-41.47.73-41.47.73l-1.48,1.47h4.79c.69,0,1.04.83.55,1.31l-6.08,6.03H11.85l-1.48,2.94H2.22l-1.48,2.2,15.39-.05c.8,0,1.2.96.63,1.51l-4.92,3.67H.74v16.15h140.69v-13.95Z"/>
        <path class="cls-8" d="m.74,35.96l15.39-.05c.8,0,1.2.96.63,1.51l-4.92,3.67H.74v16.15h140.69v-13.94c-5.18-8.81-20.73-9.54-20.73-9.54H2.22l-1.48,2.2Z"/>
        <rect class="cls-19" x=".74" y="44.77" width="140.88" height="12.48"/>
        <path class="cls-19" d="m81.62,24.22c-.25,0-.49,0-.74,0h-34.32c-.63,0-.9.79-.39,1.17l7.31,5.44h28.14v-6.6Z"/>
        <path class="cls-5" d="m151.06,48.44H10.36c-.4,0-.73-.33-.73-.73s.33-.73.73-.73h140.7c.41,0,.73.33.73.73s-.33.73-.73.73"/>
        <path class="cls-5" d="m16.77,37.43l-4.92,3.67h101.44v-5.14H16.42c.59.2.83.98.34,1.47"/>
        <path class="cls-19" d="m120.69,41.1h12.58c.77,0,1.04-1,.38-1.39-1.77-1.05-5.9-2.52-12.96-3.75v5.14Z"/>
        <path class="cls-17" d="m15.56,44.04h-1.49c-.4,0-.73-.33-.73-.73s.33-.73.73-.73h1.49c.4,0,.73.33.73.73s-.33.73-.73.73"/>
        <path class="cls-17" d="m124.4,44.04h-1.5c-.4,0-.73-.33-.73-.73s.33-.73.73-.73h1.5c.4,0,.73.33.73.73s-.33.73-.73.73"/>
        <path class="cls-17" d="m134.77,44.04h-1.49c-.41,0-.74-.33-.74-.73s.33-.73.74-.73h1.49c.41,0,.74.33.74.73s-.33.73-.74.73"/>
        <path class="cls-17" d="m3.71,44.04h-1.49c-.4,0-.73-.33-.73-.73s.33-.73.73-.73h1.49c.4,0,.73.33.73.73s-.33.73-.73.73"/>
        <path class="cls-19" d="m116.99,30.09c0,.81-.66,1.47-1.48,1.47s-1.48-.66-1.48-1.47.66-1.47,1.48-1.47,1.48.66,1.48,1.47"/>
        <polygon class="cls-1" points="120.69 43.3 120.69 33.76 114.03 33.76 114.03 38.9 119.21 38.9 119.21 39.63 114.03 39.63 114.03 40.37 119.21 40.37 119.21 43.3 120.69 43.3"/>
        <polygon class="cls-31" points="47.39 57.25 136.98 57.25 141.43 48.44 123.65 48.44 47.39 57.25"/>
        <polygon class="cls-31" points=".74 51.32 112.55 48.44 .74 48.44 .74 51.32"/>
        <path class="cls-5" d="m82.93,24.22c-.25,0-.49,0-.74,0h-32.84c-.63,0-.9.79-.39,1.17l7.31,5.44h26.66v-6.6Z"/>
        <path class="cls-19" d="m112.09,29.36c-4.19-1.88-14.49-4.91-27.68-5.12v6.59h27.36c.84,0,1.08-1.13.32-1.47"/>
        <path class="cls-19" d="m11.85,41.1h37.02v-5.14H16.42c.59.2.83.98.34,1.47l-4.92,3.67Z"/>
        <polygon class="cls-26" points="117.18 24.4 114.77 22.02 105.88 22.02 108.29 24.4 117.18 24.4"/>
        <polygon class="cls-30" points="83.02 17.61 107.27 17.61 107.36 15.41 84.41 15.41 83.02 17.61"/>
        <polygon class="cls-26" points="116.16 17.61 116.25 15.41 107.36 15.41 107.27 17.61 116.16 17.61"/>
        <polygon class="cls-19" points="107.32 16.49 116.2 16.49 116.25 15.41 107.36 15.41 107.32 16.49"/>
        <polygon class="cls-19" points="83.73 16.49 107.32 16.49 107.36 15.41 84.41 15.41 83.73 16.49"/>
        <line class="cls-15" x1="95.98" y1="22.18" x2="95.98" y2="17.57"/>
        <line class="cls-15" x1="90.51" y1="17.57" x2="90.51" y2="21.62"/>
        <path class="cls-5" d="m141.43,48.44H.73c-.4,0-.73-.33-.73-.73s.33-.73.73-.73h140.7c.41,0,.73.33.73.73s-.33.73-.73.73"/>
        <rect class="cls-26" x="5.18" y="35.96" width="5.92" height="10.28"/>
        <path class="cls-12" d="m122.17,41.1h12.02c.77,0,1.04-1,.38-1.39-1.77-1.05-5.34-2.52-12.4-3.75v5.14Z"/>
        <rect class="cls-22" x="98.48" y="28.62" width="6.66" height="2.2"/>
        <path class="cls-30" d="m117.48,38.16h-1.73c-.14,0-.25-.11-.25-.25v-2.44c0-.14.11-.25.25-.25h1.73c.13,0,.25.11.25.25v2.44c0,.14-.11.25-.25.25"/>
        <path class="cls-30" d="m95.22,22.08s.05,0,.08,0c.16.02.32.04.49.06.03,0,.07,0,.1.01.38.05.76.1,1.14.15.04,0,.08.01.12.02.15.02.3.04.45.06.05,0,.1.01.16.02.16.02.32.05.49.07.03,0,.06,0,.09.01.19.03.38.06.58.09.05,0,.1.02.15.02.14.02.29.04.43.07.07.01.13.02.2.03.14.02.28.04.43.07.06,0,.11.02.17.03.19.03.38.06.58.1.06,0,.12.02.18.03.14.02.28.05.43.07.07.01.15.03.23.04.13.02.27.05.4.07.07.01.15.03.22.04.19.04.39.07.58.11.06.01.12.02.18.03.15.03.29.06.44.08.08.02.16.03.25.05.13.03.26.05.39.08.08.02.16.03.24.05.17.03.35.07.52.11.07.02.15.03.23.05.16.03.32.07.49.1.08.02.17.04.25.05.13.03.27.06.4.09.09.02.17.04.26.06.15.03.31.07.47.11.06.01.12.03.17.04.21.05.41.09.62.14.08.02.16.04.25.06.08.02.16.04.24.06l-2.41-2.38h-11.22c.18.02.37.04.56.07"/>
        <line class="cls-15" x1="70.34" y1="30.83" x2="70.34" y2="24.22"/>
        <g class="cls-20">
          <polygon class="cls-26" points="91.79 50.07 86.03 55.78 57.76 27.75 63.51 22.05 91.79 50.07"/>
          <polygon class="cls-26" points="96.19 47.17 94.1 49.25 65.83 21.22 67.92 19.15 96.19 47.17"/>
          <polygon class="cls-26" points="119.99 50.07 114.23 55.78 85.96 27.75 91.72 22.05 119.99 50.07"/>
          <polygon class="cls-26" points="124.4 47.17 122.3 49.25 94.03 21.22 96.12 19.15 124.4 47.17"/>
        </g>
        <g class="cls-7">
          <polygon class="cls-26" points="84.38 38.33 78.62 44.04 50.35 16.01 56.11 10.3 84.38 38.33"/>
          <polygon class="cls-26" points="88.79 35.43 86.69 37.5 58.42 9.48 60.52 7.4 88.79 35.43"/>
        </g>
        <polyline class="cls-15" points="2.96 33.76 5.18 29.36 39.98 29.36"/>
        <line class="cls-15" x1="4.44" y1="33.76" x2="6.66" y2="29.36"/>
        <line class="cls-15" x1="5.92" y1="33.76" x2="8.14" y2="29.36"/>
        <line class="cls-15" x1="7.4" y1="33.76" x2="9.63" y2="29.36"/>
        <line class="cls-15" x1="8.89" y1="33.76" x2="11.11" y2="29.36"/>
        <line class="cls-15" x1="4.44" y1="30.83" x2="11.85" y2="30.83"/>
        <line class="cls-15" x1="3.7" y1="32.29" x2="11.11" y2="32.29"/>
        <path class="cls-2" d="m54.08,20.32c.23,0,.41-1.09.41-2.43s-.18-2.43-.41-2.43h-7.76c.23,0,.41,1.09.41,2.43s-.18,2.43-.41,2.43h7.76Z"/>
        <path class="cls-26" d="m46.32,20.32h7.76c.23,0,.41-1.09.41-2.43h-8.58c0,1.34.18,2.43.41,2.43"/>
        <path class="cls-6" d="m46.72,17.89c0,1.34-.18,2.43-.41,2.43s-.41-1.09-.41-2.43.18-2.43.41-2.43.41,1.09.41,2.43"/>
        <polyline class="cls-15" points="48.36 21.87 48.36 17.08 52.44 17.08 52.44 21.79"/>
        <path class="cls-2" d="m75.92,20.32c.23,0,.41-1.09.41-2.43s-.18-2.43-.41-2.43h-7.76c.23,0,.41,1.09.41,2.43s-.18,2.43-.41,2.43h7.76Z"/>
        <path class="cls-26" d="m68.16,20.32h7.76c.23,0,.41-1.09.41-2.43h-8.58c0,1.34.18,2.43.41,2.43"/>
        <polyline class="cls-15" points="70.2 21.46 70.2 17.08 74.29 17.08 74.29 21.39"/>
        <path class="cls-3" d="m41.62,37.67h.65c.66,0,.98.33.98,1.04,0,.52-.16.88-.45,1.01-.14.06-.35.09-.56.09h-.62v-2.13Zm-.79-.61v4.3h.79v-.94h.73c.45,0,.63-.03.86-.12.14-.06.26-.14.36-.23.3-.29.48-.77.48-1.31,0-.59-.17-1.05-.49-1.35-.3-.27-.58-.35-1.23-.35h-1.51Z"/>
        <path class="cls-3" d="m20.11,37.05h-.62v.61h.62v1.62c0,.48.07.73.26.9.18.17.38.22.8.22h.66v-.61h-.38c-.24,0-.38-.03-.46-.12-.07-.08-.09-.17-.09-.48v-1.53h.93v-.61h-.93v-1.24h-.79v1.24Z"/>
        <path class="cls-3" d="m31.17,37.05h-1.83c-.52,0-.77.08-.95.29-.17.18-.25.43-.25.7,0,.45.24.85.59.96.17.06.33.07.75.07h.4c.38,0,.45.01.54.08.07.06.1.16.1.29,0,.24-.08.33-.3.35-.12.01-.21.01-.41.01h-1.64v.61h1.85c.65,0,.84-.05,1.02-.26.17-.19.27-.48.27-.79,0-.44-.2-.77-.52-.87-.19-.06-.33-.07-.7-.07h-.5c-.36,0-.47-.02-.56-.11-.06-.06-.08-.15-.08-.26,0-.2.08-.33.22-.37.08-.02.17-.03.41-.03h1.59v-.61Z"/>
        <path class="cls-3" d="m31.81,37.05v3.36h.79v-2.75h1.14v2.75h.79v-2.75h.52c.51,0,.67.17.67.71v2.04h.79v-2.11c0-.48-.09-.77-.32-.98-.24-.22-.46-.28-1.18-.28h-3.19Z"/>
        <path class="cls-3" d="m26.83,38.98v.82h-1.1c-.43,0-.59-.11-.59-.4,0-.18.08-.32.22-.37.09-.03.15-.05.37-.05h1.1Zm0-.61h-1.18c-.56,0-.82.06-1.02.25-.2.19-.31.48-.31.79,0,.46.25.84.63.94.22.06.31.07.83.07h1.83v-2.02c0-.35-.01-.48-.08-.67-.03-.12-.1-.23-.18-.33-.18-.21-.43-.31-.83-.33-.11,0-.23,0-.36,0h-.85v.61h.77c.4,0,.54.05.65.19.07.11.09.22.09.44v.08Z"/>
        <path class="cls-3" d="m39.48,38.98v.82h-1.1c-.43,0-.59-.11-.59-.4,0-.18.08-.32.22-.37.09-.03.15-.05.37-.05h1.1Zm0-.61h-1.18c-.56,0-.82.06-1.02.25-.19.19-.31.48-.31.79,0,.46.25.84.63.94.22.06.31.07.83.07h1.83v-2.02c0-.35-.01-.48-.08-.67-.03-.12-.1-.23-.18-.33-.18-.21-.43-.31-.83-.33-.11,0-.23,0-.36,0h-1.67v.61h1.58c.4,0,.54.05.65.19.07.11.09.22.09.44v.08Z"/>
        <path class="cls-3" d="m44.78,36.6h.79v-.79h-.79v.79Zm0,3.82h.79v-3.36h-.79v3.36Z"/>
        <path class="cls-3" d="m24.82,37.05v.64h-1.06c-.47,0-.61.14-.61.62v2.11h-.75v-2.17c0-.52.07-.76.27-.93.22-.2.48-.26,1.05-.26h1.1Z"/>
        <line class="cls-15" x1="55.53" y1="35.96" x2="55.53" y2="41.1"/>
        <line class="cls-15" x1="60.72" y1="35.96" x2="60.72" y2="41.1"/>
        <line class="cls-15" x1="65.9" y1="35.96" x2="65.9" y2="41.1"/>
        <line class="cls-15" x1="71.08" y1="35.96" x2="71.08" y2="41.1"/>
        <line class="cls-15" x1="76.27" y1="35.96" x2="76.27" y2="41.1"/>
        <line class="cls-15" x1="81.45" y1="35.96" x2="81.45" y2="41.1"/>
        <line class="cls-15" x1="86.63" y1="35.96" x2="86.63" y2="41.1"/>
        <line class="cls-15" x1="91.82" y1="35.96" x2="91.82" y2="41.1"/>
        <line class="cls-15" x1="97" y1="35.96" x2="97" y2="41.1"/>
        <line class="cls-15" x1="102.18" y1="35.96" x2="102.18" y2="41.1"/>
        <line class="cls-15" x1="107.36" y1="35.96" x2="107.36" y2="41.1"/>
        <line class="cls-15" x1="57.01" y1="30.83" x2="57.01" y2="24.22"/>
        <line class="cls-15" x1="63.68" y1="30.83" x2="63.68" y2="24.22"/>
        <line class="cls-15" x1="77.01" y1="30.83" x2="77.01" y2="24.22"/>
        <path class="cls-6" d="m68.57,17.89c0,1.34-.18,2.43-.41,2.43s-.41-1.09-.41-2.43.18-2.43.41-2.43.41,1.09.41,2.43"/>
        <path class="cls-15" d="m141.43,44.75v-1.45s-1.48-7.34-15.55-13.21c-19.54-8.16-37.02-8.81-43.69-8.81l-41.52.63"/>
      </g>
    </g>
  </g>
</svg>