<?xml version="1.0" encoding="UTF-8"?>
<svg id="Capa_2" data-name="Capa 2" xmlns="http://www.w3.org/2000/svg" viewBox="0 0 243.81 304.27">
  <defs>
    <style>
      .cls-1 {
        fill: #fff;
      }
    </style>
  </defs>
  <g id="Capa_1-2" data-name="Capa 1">
    <g>
      <path class="cls-1" d="m47.01,0c5.47,1.88,11.4,2.97,16.33,5.8,14.77,8.46,21.42,21.81,21.41,38.71-.04,66.14,0,132.27-.02,198.41,0,7.23.1,14.46-.23,21.67-.87,19.08-15.86,35.85-34.53,38.91-20.33,3.33-39.99-7.4-46.82-26.12-1.86-5.09-2.98-10.77-2.99-16.18C-.04,188.43-.02,115.67.06,42.9.08,20.92,14.54,4.28,36.46.48c.37-.06.7-.31,1.05-.48,3.17,0,6.34,0,9.51,0Z"/>
      <path class="cls-1" d="m206.23,0c4.59,1.44,9.47,2.29,13.7,4.44,14.9,7.57,23.25,19.93,23.62,36.69.48,21.67.15,43.36.15,65.04,0,51.48.05,102.97-.02,154.45-.03,18.39-8.37,31.95-24.99,39.78-26.46,12.47-57.97-6.65-59.48-35.8-.13-2.47-.2-4.95-.2-7.42-.01-70.39.03-140.79-.05-211.18-.01-10.6,2.01-20.43,8.56-29.01,6.99-9.14,16.15-14.68,27.55-16.45.57-.09,1.11-.35,1.66-.53,3.17,0,6.34,0,9.51,0Z"/>
    </g>
  </g>
</svg>