<?xml version="1.0" encoding="UTF-8"?>
<svg id="Capa_2" data-name="Capa 2" xmlns="http://www.w3.org/2000/svg" viewBox="0 0 278.67 48.79">
  <defs>
    <style>
      .cls-1 {
        fill: #fff;
      }
    </style>
  </defs>
  <g id="Capa_1-2" data-name="Capa 1">
    <g>
      <g>
        <path class="cls-1" d="m3.56,37.33c-.37.32-.86.47-1.49.47s-1.14-.16-1.51-.47c-.37-.32-.56-.73-.56-1.24s.19-.93.56-1.24c.37-.32.88-.47,1.51-.47s1.12.16,1.49.47c.37.32.55.73.55,1.24s-.18.93-.55,1.24ZM.25,48.79l.4-9.51h2.85l.37,9.51H.25Z"/>
        <path class="cls-1" d="m15.56,45.89v-5.82h-5.23v5.82h-3.42v-14.21h3.42v5.62h5.23v-5.62h3.42v14.21h-3.42Z"/>
        <path class="cls-1" d="m20.89,45.89l4.58-14.21h4.16l4.56,14.21h-3.63l-.93-3.28h-4.4l-.93,3.28h-3.41Zm6.48-11.15l-1.51,5.4h3.15l-1.49-5.4h-.16Z"/>
        <path class="cls-1" d="m35.73,43.7l6.42-9.13v-.17h-6.29v-2.73h10.4v2.19l-6.4,9.12v.18h6.62v2.73h-10.75v-2.19Z"/>
        <path class="cls-1" d="m62.28,47.19l-.88-1.32c-.3.09-.61.16-.93.21-.32.05-.65.07-1,.07-1.3,0-2.43-.27-3.38-.82-.95-.54-1.68-1.31-2.19-2.29-.51-.98-.76-2.13-.76-3.44v-1.6c0-1.33.25-2.48.76-3.47.51-.99,1.24-1.75,2.19-2.29.95-.54,2.07-.81,3.38-.81s2.44.27,3.38.82c.94.54,1.67,1.31,2.17,2.29s.76,2.14.76,3.46v1.6c0,1.06-.17,2.02-.5,2.87-.34.85-.82,1.56-1.46,2.14l1.71,2.58h-3.25Zm-5.44-5.39c.24.58.57,1.02,1,1.33.43.31.94.47,1.52.49.1,0,.2,0,.29-.03.09-.02.18-.04.26-.08l-1.4-2.1h2.94c.08.1.15.21.23.31.08.1.15.21.23.31.17-.3.31-.64.4-1.04.09-.4.14-.84.14-1.32v-1.71c0-.8-.12-1.49-.37-2.06-.25-.57-.59-.99-1.04-1.29-.44-.29-.97-.44-1.57-.44s-1.13.15-1.58.44c-.45.29-.79.72-1.04,1.29-.25.57-.37,1.25-.37,2.06v1.71c0,.84.12,1.55.35,2.13Z"/>
        <path class="cls-1" d="m76.05,42.61c.47-.46.71-1.13.71-2.03v-8.9h3.41v9.29c0,1.04-.24,1.95-.73,2.73-.49.78-1.17,1.38-2.06,1.81-.89.43-1.94.64-3.16.64s-2.27-.21-3.16-.64-1.58-1.03-2.06-1.81c-.48-.78-.72-1.69-.72-2.73v-9.29h3.41v8.9c0,.91.23,1.59.7,2.04s1.08.68,1.83.68,1.36-.23,1.83-.69Z"/>
        <path class="cls-1" d="m92.73,45.89h-9.52v-14.21h9.52v2.72h-6.14v3.09h5.77v2.5h-5.77v3.18h6.14v2.72Z"/>
        <path class="cls-1" d="m102.74,45.89v-11.41h-3.87v-2.8h11.16v2.8h-3.87v11.41h-3.41Z"/>
        <path class="cls-1" d="m119.59,42.61c.47-.46.71-1.13.71-2.03v-8.9h3.41v9.29c0,1.04-.24,1.95-.73,2.73-.49.78-1.17,1.38-2.06,1.81-.89.43-1.94.64-3.16.64s-2.27-.21-3.16-.64-1.58-1.03-2.06-1.81c-.48-.78-.72-1.69-.72-2.73v-9.29h3.41v8.9c0,.91.23,1.59.7,2.04s1.08.68,1.83.68,1.36-.23,1.83-.69Z"/>
        <path class="cls-1" d="m129.98,31.68h3.98l2.72,10.59h.16l2.67-10.59h3.77l-4.47,14.21h-4.29l-4.53-14.21Z"/>
        <path class="cls-1" d="m145.12,45.89v-14.21h3.42v14.21h-3.42Z"/>
        <path class="cls-1" d="m150.44,45.89l4.58-14.21h4.16l4.56,14.21h-3.63l-.93-3.28h-4.4l-.93,3.28h-3.41Zm6.48-11.15l-1.51,5.4h3.15l-1.49-5.4h-.16Z"/>
        <path class="cls-1" d="m167.93,41.35c0,.37.08.68.22.95s.34.47.59.62c.26.15.56.22.9.22.6,0,1.04-.18,1.32-.53.28-.35.42-.84.42-1.48v-9.45h3.42v9.43c0,1.66-.46,2.91-1.37,3.76s-2.17,1.27-3.76,1.27c-.86,0-1.61-.13-2.24-.39-.63-.26-1.16-.62-1.57-1.07-.41-.45-.71-.97-.91-1.54s-.3-1.17-.3-1.79h3.28Z"/>
        <path class="cls-1" d="m187.41,45.89h-9.52v-14.21h9.52v2.72h-6.14v3.09h5.77v2.5h-5.77v3.18h6.14v2.72Z"/>
        <path class="cls-1" d="m197.72,39.6c0,.8.11,1.47.32,2.03.21.55.52.97.93,1.26s.89.43,1.46.43c.5,0,.93-.11,1.3-.32s.65-.5.85-.87c.2-.37.32-.79.34-1.26h3.26v.41c-.02.97-.28,1.82-.79,2.55-.5.73-1.18,1.3-2.04,1.71s-1.84.61-2.93.61c-1.33,0-2.45-.27-3.37-.8s-1.62-1.29-2.09-2.27-.71-2.14-.71-3.49v-1.58c0-1.35.24-2.52.72-3.5.48-.98,1.18-1.74,2.1-2.27.92-.53,2.04-.8,3.36-.8.83,0,1.58.12,2.28.35.69.23,1.3.57,1.81,1,.51.44.92.96,1.21,1.57.29.61.45,1.29.46,2.03v.4h-3.26c-.03-.49-.14-.92-.35-1.3s-.49-.68-.85-.9-.79-.33-1.29-.33c-.57,0-1.05.15-1.46.44-.4.29-.71.72-.93,1.28-.22.55-.32,1.23-.32,2.04v1.59Z"/>
        <path class="cls-1" d="m216.37,42.61c.47-.46.71-1.13.71-2.03v-8.9h3.41v9.29c0,1.04-.24,1.95-.73,2.73-.49.78-1.17,1.38-2.06,1.81-.89.43-1.94.64-3.16.64s-2.27-.21-3.16-.64-1.58-1.03-2.06-1.81c-.48-.78-.72-1.69-.72-2.73v-9.29h3.41v8.9c0,.91.23,1.59.7,2.04s1.08.68,1.83.68,1.36-.23,1.83-.69Z"/>
        <path class="cls-1" d="m233.06,45.89h-9.52v-14.21h9.52v2.72h-6.14v3.09h5.77v2.5h-5.77v3.18h6.14v2.72Z"/>
        <path class="cls-1" d="m235.87,45.89v-14.21h2.71l5.69,8.44h.14v-8.44h3.18v14.21h-2.69l-5.71-8.52h-.14v8.52h-3.18Z"/>
        <path class="cls-1" d="m253.41,45.89v-11.41h-3.87v-2.8h11.16v2.8h-3.87v11.41h-3.41Z"/>
        <path class="cls-1" d="m272.16,45.89h-9.52v-14.21h9.52v2.72h-6.14v3.09h5.77v2.5h-5.77v3.18h6.14v2.72Z"/>
        <path class="cls-1" d="m275.11,43.14c.37-.32.87-.47,1.49-.47s1.13.16,1.5.47.56.73.56,1.25-.18.92-.55,1.23-.87.47-1.51.47-1.12-.16-1.49-.47-.56-.73-.56-1.23.19-.94.56-1.25Zm3.31-11.46l-.4,9.52h-2.85l-.37-9.52h3.62Z"/>
      </g>
      <g>
        <path class="cls-1" d="m69.57,2.05c.21-.34.41-.57.59-.69.18-.12.36-.18.51-.18.21,0,.37.08.47.24.05.11.08.19.1.26.01.07,0,.18-.04.34s-.11.42-.22.79c-.11.37-.24.92-.4,1.64-.16.73-.36,1.67-.59,2.85-.24,1.17-.5,2.65-.79,4.45-.11.82-.24,1.58-.4,2.27-.16.7-.3,1.31-.42,1.84s-.22.94-.3,1.24c-.08.3-.11.46-.08.46.05,0,.16-.02.32-.06.16-.04.32-.06.47-.06.21,0,.36.03.43.08.21.11.26.26.16.47-.05.16-.26.25-.63.28-.18,0-.38.02-.59.06-.21.04-.34.09-.4.14-.03.03-.12.32-.3.89-.17.57-.4,1.25-.67,2.05-.28.8-.61,1.67-.99,2.59s-.81,1.74-1.28,2.45c-.98,1.34-2.09,2.02-3.36,2.02-.05,0-.12,0-.2-.02-.08-.01-.15-.02-.2-.02-.5-.05-1.01-.24-1.52-.57-.51-.33-.94-.74-1.26-1.25-.33-.5-.51-1.07-.53-1.7-.03-.63.21-1.26.71-1.9.4-.53.98-1.04,1.76-1.54.78-.5,1.55-.96,2.31-1.36.76-.41,1.45-.74,2.06-1.01.61-.26.92-.43.95-.51.05-.05.14-.36.28-.91.13-.55.29-1.24.47-2.05.18-.82.38-1.71.57-2.69.2-.97.39-1.94.57-2.88.34-1.71.69-3.22,1.05-4.52.36-1.3.81-2.46,1.36-3.46Zm-11.06,22.25c-.08.32-.06.65.06.99s.31.65.57.93c.26.28.57.5.91.67.34.17.7.26,1.07.26.47,0,.9-.17,1.26-.51.26-.24.53-.68.81-1.32.28-.64.53-1.33.77-2.05.24-.72.45-1.43.65-2.11.2-.68.34-1.19.41-1.5-.47.21-1.06.49-1.76.83-.7.34-1.38.73-2.06,1.15-.67.42-1.26.86-1.78,1.32-.51.46-.82.92-.93,1.36Z"/>
        <path class="cls-1" d="m79.84,13.44c.42.03.62.09.59.18-.03.09-.11.27-.24.53-.08.21-.22.55-.44,1.01s-.45.97-.71,1.52c-.26.55-.56,1.13-.89,1.72-.33.59-.66,1.13-.99,1.62-.33.49-.65.88-.97,1.19-.32.3-.62.45-.91.45-.37,0-.67-.2-.89-.61-.22-.41-.35-.92-.38-1.52-.05-.55-.04-1.15.04-1.8s.18-1.25.3-1.82c.12-.57.24-1.07.38-1.52s.22-.75.28-.91c-.03.05-.17.26-.42.61-.25.36-.52.75-.81,1.19-.29.43-.57.85-.83,1.25-.26.39-.43.63-.51.71-.74.92-1.38,1.38-1.94,1.38-.32,0-.57-.15-.77-.45-.2-.3-.3-.73-.32-1.28-.01-.55.06-1.21.22-1.98.16-.76.43-1.59.83-2.49.18-.39.36-.73.53-1.01.17-.28.31-.47.42-.57.21-.24.46-.36.75-.36.08,0,.14.01.2.04.18.08.28.2.28.38s-.06.45-.18.83c-.12.38-.28.88-.49,1.5-.21.62-.45,1.43-.71,2.43-.13.45-.22.85-.26,1.21-.04.36-.03.53.02.53.1,0,.3-.17.57-.51.28-.34.59-.76.95-1.26.36-.5.74-1.05,1.15-1.64.41-.59.79-1.15,1.15-1.68.36-.53.66-.99.91-1.38.25-.4.4-.63.45-.71.26-.39.48-.69.65-.89.17-.2.34-.3.49-.3.08,0,.17.05.28.16.13.05.17.29.12.71,0,.13-.07.49-.2,1.07-.13.58-.29,1.26-.47,2.05-.18.79-.38,1.63-.57,2.51-.2.88-.37,1.7-.51,2.45-.15.75-.24,1.36-.28,1.84-.04.47,0,.71.1.71.13,0,.31-.16.53-.47.22-.32.47-.72.75-1.21.28-.49.56-1.02.85-1.6.29-.58.57-1.13.83-1.66s.49-.99.69-1.38c.2-.39.32-.65.38-.75Z"/>
        <path class="cls-1" d="m86.13,13.44c.32.05.48.13.49.24.01.11-.09.29-.3.55-.71,1.11-1.33,2.04-1.86,2.81-.53.76-1.01,1.38-1.44,1.86-.43.47-.83.82-1.19,1.03s-.72.32-1.09.32c-.53,0-.94-.17-1.22-.51-.29-.34-.49-.8-.59-1.36-.11-.57-.12-1.21-.04-1.94.08-.72.23-1.46.45-2.21.22-.75.52-1.49.89-2.21.37-.72.79-1.36,1.26-1.92.76-.84,1.44-1.26,2.02-1.26.4,0,.67.2.83.59s.16.92,0,1.58c-.08.37-.22.74-.43,1.13-.21.38-.45.73-.73,1.05-.28.32-.59.58-.93.79-.34.21-.7.32-1.07.32-.37,1.71-.56,2.96-.57,3.73-.01.78.16,1.17.53,1.17.4,0,1.01-.5,1.86-1.5.84-1,1.88-2.41,3.12-4.23Zm-4.5-.08s.04-.03.2-.08c.18-.13.4-.33.65-.61.25-.28.44-.55.57-.81.18-.32.3-.66.34-1.03s.03-.58-.02-.63c-.03-.03-.11.03-.24.18-.13.15-.28.35-.45.61-.17.26-.36.57-.55.93-.2.36-.36.73-.49,1.13-.08.21-.08.32,0,.32Z"/>
        <path class="cls-1" d="m90,19.52c-.16.45-.28.82-.38,1.13-.09.3-.18.59-.26.85-.08.26-.17.54-.28.83-.11.29-.24.63-.4,1.03-.5,1.4-1,2.43-1.5,3.1-.5.67-.8,1.07-.91,1.21-.11.16-.28.35-.51.57-.24.22-.51.44-.83.65s-.66.39-1.03.53c-.37.14-.75.22-1.15.22-.13,0-.33-.03-.59-.08-.79-.21-1.35-.64-1.68-1.28-.33-.65-.47-1.38-.41-2.19s.3-1.65.73-2.51,1.03-1.59,1.8-2.19c.71-.63,1.53-1.11,2.47-1.42s1.97-.62,3.1-.91c.42-1.76.72-2.96.91-3.6.18-.63.26-.95.24-.95l-.04.08-.16.24c-.4.63-.72,1.15-.97,1.54-.25.39-.46.72-.63.99-.17.26-.32.47-.43.61s-.23.26-.34.34c-.34.26-.7.39-1.07.39-.13,0-.22-.01-.28-.04-.37-.13-.58-.42-.63-.85s-.01-.98.12-1.64c.13-.76.39-1.51.77-2.25.38-.74.82-1.4,1.3-1.98.49-.58.99-1.05,1.5-1.42s.98-.55,1.4-.55c.4,0,.71.18.95.55.13.21.21.32.24.32.34,0,.55.05.63.14.08.09.12.32.12.69,0,.11-.05.35-.14.73-.09.38-.2.83-.34,1.34-.13.51-.26,1.05-.4,1.62-.13.57-.26,1.09-.38,1.56-.12.47-.21.86-.28,1.17-.07.3-.09.45-.06.45s.22-.07.59-.2c.37-.13.66-.25.87-.36.45-.21.85-.44,1.21-.69.36-.25.71-.55,1.07-.91.36-.36.72-.78,1.09-1.26.37-.49.79-1.05,1.26-1.68.45.05.64.16.57.32-.07.16-.2.4-.42.71-.5.74-.98,1.37-1.42,1.9-.45.53-.92.97-1.42,1.34-.5.37-1.04.69-1.62.97-.58.28-1.25.56-2.02.85Zm-6.52,8.97c.45-.18.87-.52,1.26-1.01.4-.49.76-1.04,1.09-1.66.33-.62.62-1.27.87-1.96.25-.68.47-1.31.65-1.88.18-.57.37-1.22.55-1.96-.47.11-.87.2-1.19.3-.32.09-.63.19-.95.3-.32.11-.57.18-.75.24-.79.29-1.48.67-2.07,1.15-.59.47-1.07,1.11-1.44,1.9-.34.71-.54,1.36-.59,1.94-.05.58,0,1.08.16,1.5.16.42.4.74.71.97.32.22.66.34,1.03.34.11,0,.21-.01.32-.04.11-.03.22-.07.36-.12Zm6.32-16.87s-.03-.04-.08-.04-.11.03-.16.08c-.29.16-.61.47-.95.93-.34.46-.67.96-.97,1.48-.3.53-.57,1.05-.79,1.56-.22.51-.38.92-.45,1.21-.08.29-.09.44-.04.44.03,0,.17-.13.43-.4.21-.26.47-.63.77-1.09.3-.46.63-.98.97-1.56.34-.55.61-.99.79-1.32.18-.33.32-.58.42-.75.09-.17.14-.29.14-.36s-.03-.12-.08-.18Z"/>
        <path class="cls-1" d="m99.8,9.37c.29,0,.49.15.61.44.12.29.11.76-.02,1.42-.03.13-.05.23-.06.3s-.02.12-.02.18c-.03.08-.04.13-.04.16l.04-.08c.03-.05.05-.09.08-.12.03-.03.05-.07.08-.12.16-.32.29-.52.4-.61.1-.09.25-.14.43-.14.32,0,.47.15.47.46s-.08.76-.24,1.36c-.16.61-.38,1.36-.65,2.27-.28.91-.56,1.97-.85,3.18-.13.61-.24,1.19-.34,1.74-.09.55-.11,1.04-.06,1.46.37-.29.8-.78,1.3-1.48.5-.7.99-1.45,1.48-2.25.49-.8.94-1.58,1.36-2.33.42-.75.75-1.34.99-1.76.37,0,.55.07.53.22-.01.15-.13.4-.34.77-.11.24-.29.59-.55,1.07-.26.47-.56,1.01-.89,1.6-.33.59-.69,1.19-1.07,1.8-.38.61-.76,1.17-1.15,1.68-.38.51-.75.93-1.11,1.25-.36.32-.67.47-.93.47-.47,0-.8-.3-.99-.91-.16-.66-.14-1.46.06-2.41.2-.95.44-2.06.73-3.32-.13.24-.29.51-.47.83-.18.32-.38.64-.59.97-.21.33-.43.64-.67.93-.24.29-.47.51-.71.67-.26.19-.49.28-.67.28-.21,0-.4-.11-.55-.32-.11-.18-.17-.49-.2-.93-.03-.43,0-.95.08-1.56s.22-1.26.43-1.98c.21-.71.51-1.42.91-2.13.5-.92,1.05-1.66,1.64-2.21.59-.55,1.1-.83,1.52-.83Zm-3.2,8.42c.21-.21.47-.55.79-1.01.32-.46.63-.94.93-1.44.3-.5.65-1.13,1.05-1.9-.05-.03-.11-.08-.16-.16-.05-.08-.09-.14-.12-.2,0-.08.03-.25.08-.51.05-.26.1-.55.16-.85.05-.3.1-.57.14-.81.04-.24.03-.36-.02-.36s-.17.1-.36.3c-.18.2-.34.4-.47.61-.26.37-.53.82-.79,1.36-.26.54-.49,1.11-.67,1.7-.19.59-.34,1.18-.45,1.76-.12.58-.18,1.11-.18,1.58l.08-.08Z"/>
        <path class="cls-1" d="m114.42,11.42c-.18,0-.28-.13-.28-.4.03-.13.02-.26-.02-.4-.04-.13-.07-.21-.1-.24-.03-.03-.09,0-.18.08-.09.08-.19.19-.3.34-.11.15-.22.3-.34.47-.12.17-.23.34-.34.49-.34.63-.65,1.4-.91,2.29-.26.9-.46,1.75-.59,2.57-.13.82-.2,1.52-.2,2.09s.09.87.28.87c.03-.03.05-.04.08-.04.29-.13.63-.48,1.03-1.05.4-.57.8-1.19,1.21-1.86.41-.67.78-1.32,1.13-1.94.34-.62.58-1.05.71-1.28.34.03.53.09.57.2.04.11,0,.25-.1.43-.16.34-.43.87-.81,1.58-.38.71-.81,1.44-1.28,2.17-.47.74-.96,1.38-1.46,1.94-.5.55-.97.83-1.42.83-.37,0-.68-.18-.93-.53-.25-.36-.42-.83-.51-1.42-.09-.59-.11-1.27-.06-2.04.05-.76.2-1.55.43-2.37.53-1.74,1.2-3.02,2.02-3.83.82-.82,1.51-1.23,2.09-1.23.32,0,.56.12.73.36.17.24.23.58.18,1.03-.05.29-.14.51-.26.65-.12.15-.24.22-.38.22Z"/>
        <path class="cls-1" d="m125.6,11.14c.03.21-.03.54-.16.99-.13.45-.27.9-.42,1.34-.15.45-.28.84-.4,1.17-.12.33-.15.49-.1.49s.21-.2.47-.59c.26-.39.74-1.03,1.42-1.9.24-.29.49-.6.77-.93.28-.33.55-.64.81-.93.26-.29.5-.53.71-.73.21-.2.36-.32.43-.38.1-.05.25-.08.44-.08.61,0,.87.45.79,1.34s-.3,2.11-.67,3.64c-.26,1.26-.44,2.33-.53,3.18-.09.86-.07,1.28.06,1.28.03,0,.12-.07.28-.22.16-.14.3-.28.43-.42.29-.29.67-.81,1.13-1.56.46-.75,1.15-1.89,2.07-3.42.26.03.45.05.55.08.1.03.11.16.02.4-.09.24-.3.61-.61,1.11-.32.5-.78,1.24-1.38,2.21-.16.26-.34.57-.55.91-.21.34-.43.67-.67.97-.24.3-.49.56-.77.77-.28.21-.56.32-.85.32-.5.03-.86-.17-1.07-.59-.21-.42-.32-.96-.34-1.6-.01-.65.04-1.35.16-2.11.12-.76.25-1.47.4-2.13.14-.66.27-1.21.38-1.64.1-.43.14-.65.12-.65-.24.24-.5.53-.79.87-.53.66-1.25,1.67-2.17,3.04-.05.08-.14.21-.26.4-.12.18-.24.39-.38.61-.13.22-.27.43-.42.63-.15.2-.28.35-.42.46-.21.21-.46.32-.75.32-.42,0-.69-.24-.79-.71-.05-.21-.07-.48-.04-.81.03-.33.08-.68.18-1.05.09-.37.2-.73.34-1.09.13-.36.25-.67.36-.93.13-.32.18-.47.16-.47s-.16.12-.4.36c-.45.45-.91.82-1.38,1.13-.47.3-.87.52-1.19.65-.11,0-.17.08-.2.24-.11.34-.27.76-.49,1.25-.22.49-.49.95-.81,1.38-.32.43-.67.8-1.05,1.11-.38.3-.8.45-1.24.45-.4,0-.76-.13-1.11-.39-.34-.26-.59-.65-.75-1.17s-.2-1.16-.14-1.94c.07-.78.31-1.68.73-2.71.08-.21.22-.51.42-.91.2-.39.42-.79.67-1.18.25-.4.51-.74.77-1.03.26-.29.51-.43.75-.43.26,0,.42.12.47.36.05.11.1.12.16.04.42-.5.86-.75,1.3-.75.5,0,.88.34,1.15,1.01.26.67.21,1.68-.16,3.02-.11.29-.17.48-.2.57-.03.09-.03.14,0,.14.05,0,.09-.01.12-.04.29-.13.63-.37,1.03-.71.4-.34.78-.7,1.17-1.07.38-.37.73-.7,1.05-.99.32-.29.53-.45.63-.47.05-.03.12-.04.2-.04.29,0,.47.18.55.55Zm-8.02,1.94v-.12l-.04-.04-.04.04c0,.05-.01.11-.04.16-.21.53-.37,1.07-.47,1.64-.11.57-.17,1.09-.18,1.56-.01.47.03.86.12,1.17.09.3.24.45.45.45s.49-.22.85-.65c.36-.43.8-1.18,1.32-2.23-.61,0-1.09-.2-1.44-.59-.36-.39-.53-.86-.53-1.38Zm2.25,1.19c.24-.61.43-1.24.57-1.9.14-.66.16-1.25.06-1.78-.05-.11-.12-.24-.22-.4s-.2-.24-.34-.24c-.05,0-.09.01-.12.04-.21.13-.41.32-.59.57-.18.25-.34.52-.47.81-.13.29-.22.57-.28.85-.05.28-.07.52-.04.73.05.37.16.64.32.81.16.17.32.3.47.38.18.08.4.12.63.12Z"/>
        <path class="cls-1" d="m138.76,17.94c-.29-.47-.43-1.11-.42-1.9s.1-1.58.26-2.37c.16-.79.37-1.51.63-2.15.26-.65.49-1.05.67-1.21.16-.16.36-.24.59-.24.1,0,.21.03.32.08.13.05.22.14.28.26.05.12.07.29.06.51s-.06.53-.14.91-.18.88-.32,1.48c-.34,1.63-.5,2.44-.47,2.41.55-.95,1.05-1.72,1.48-2.31.43-.59.92-1.18,1.46-1.76.54-.58,1.09-.99,1.64-1.22.24-.08.43-.12.59-.12.42,0,.73.18.93.55.2.37.28.78.26,1.23,0,.34-.11.9-.32,1.68-.21.78-.43,1.59-.65,2.45-.22.86-.4,1.68-.53,2.47-.13.79-.13,1.38,0,1.78.05.11.19.01.42-.28.22-.29.49-.69.81-1.21s.65-1.08,1.01-1.7c.36-.62.69-1.21,1.01-1.78.32-.57.58-1.04.79-1.42.21-.38.33-.6.36-.65.29.03.47.06.53.1.07.04.06.12-.02.26-.58,1.11-1.13,2.14-1.64,3.1-.51.96-.99,1.8-1.42,2.51-.43.71-.84,1.26-1.22,1.66-.38.4-.74.59-1.09.59-.16,0-.26-.01-.32-.04-.42-.16-.7-.51-.83-1.05-.13-.54-.17-1.17-.1-1.9.07-.72.19-1.49.38-2.29.18-.8.37-1.55.55-2.23.18-.68.34-1.27.45-1.76.12-.49.15-.77.1-.85-.05-.05-.28.07-.67.38-.4.3-.74.61-1.03.93-.42.5-.82,1.02-1.19,1.56-.37.54-.7,1.05-.99,1.54-.29.49-.53.91-.73,1.26s-.34.59-.42.69c-.11.18-.28.28-.51.28s-.42-.08-.55-.24Z"/>
        <path class="cls-1" d="m154.41,9.64c.21.18.32.47.34.87.01.4-.06.96-.22,1.7-.05.24-.13.5-.22.79-.09.29-.18.57-.28.85-.09.28-.18.52-.28.73-.09.21-.15.36-.18.43.47-.16.88-.3,1.23-.42.34-.12.66-.24.95-.36.29-.12.57-.24.85-.38.28-.13.57-.28.89-.43.24.16.32.3.24.43-.08.13-.25.26-.51.4-.21.11-.64.3-1.28.59-.65.29-1.32.55-2.04.79-.42.13-.64.21-.65.22-.01.01-.06.1-.14.26-.18.37-.38.78-.59,1.22-.21.45-.43.86-.65,1.25-.22.38-.46.7-.71.95s-.52.38-.81.38-.53-.12-.71-.38c-.18-.25-.34-.55-.45-.91-.12-.36-.2-.71-.26-1.07-.05-.36-.09-.64-.12-.85-.05-.45-.01-1.06.12-1.84.13-.78.33-1.54.59-2.29.26-.75.59-1.4.97-1.96.38-.55.78-.84,1.21-.87.34,0,.53.18.55.55.03.08.08.07.16-.04.5-.58.99-.87,1.46-.87.21,0,.4.08.55.24Zm-3.75,5.97c-.03.11-.05.3-.08.59-.03.29-.05.59-.08.91-.03.32-.03.63-.02.93.01.3.05.53.1.69.03.11.05.16.08.16l.12-.12c.1-.1.22-.27.36-.49.13-.22.27-.47.42-.73.14-.26.28-.52.4-.77s.23-.46.34-.61h-.36c-.26,0-.47-.04-.63-.12s-.28-.16-.38-.24c-.09-.08-.16-.14-.2-.2s-.06-.05-.06,0Zm3-5.22c-.16,0-.4.24-.73.71-.33.47-.63,1-.91,1.58-.28.58-.45,1.13-.53,1.64-.08.51.05.82.4.93.05.03.17.04.36.04.24,0,.37-.01.4-.04,0-.03.03-.1.08-.22.05-.12.12-.26.2-.43.08-.17.15-.34.22-.51.07-.17.12-.31.18-.42.29-.87.45-1.63.49-2.29.04-.66,0-.99-.14-.99Z"/>
        <path class="cls-1" d="m161.52,8.85c.24,0,.45.05.63.16.24.16.39.38.45.65.07.28.07.56.02.85-.05.29-.14.54-.26.75s-.26.32-.42.32c-.05,0-.09-.01-.12-.04-.08-.05-.12-.14-.14-.28-.01-.13-.03-.27-.04-.42-.01-.14-.04-.28-.08-.4-.04-.12-.12-.18-.26-.18-.05,0-.21.05-.47.16-.18.11-.4.26-.65.45-.25.2-.48.42-.69.65s-.39.48-.53.73c-.15.25-.19.47-.14.65.08.21.3.55.65,1.03.36.47.76,1.07,1.21,1.78.24-.16.52-.35.85-.57.33-.22.67-.45,1.01-.67.34-.22.67-.43.99-.61.32-.18.59-.33.83-.43.21.08.32.19.34.34.01.15-.11.28-.38.42-.63.4-1.2.75-1.7,1.07-.45.29-.84.55-1.19.77-.34.22-.51.36-.51.42.16.5.26.99.32,1.46s-.04,1.01-.28,1.62c-.16.34-.36.68-.59,1.01-.24.33-.51.63-.83.91-.32.28-.66.5-1.03.67-.37.17-.75.26-1.15.26-.53,0-.93-.17-1.21-.51-.28-.34-.31-.83-.1-1.46.16-.5.42-.97.77-1.4.36-.43.71-.82,1.07-1.15.36-.33.67-.6.95-.81.28-.21.42-.34.42-.4s-.06-.16-.18-.32c-.12-.16-.26-.35-.44-.57s-.34-.44-.49-.65l-.36-.47c-.29-.47-.47-.93-.55-1.38-.08-.45.12-1.03.59-1.74.1-.16.29-.38.55-.67.26-.29.57-.59.91-.89.34-.3.71-.56,1.11-.77s.76-.32,1.11-.32Zm-4.9,11.93c-.03.5.2.75.67.75.24,0,.52-.08.85-.24.33-.16.63-.38.91-.65.28-.28.5-.6.67-.97.17-.37.24-.75.22-1.15-.03-.24-.07-.49-.12-.77-.05-.28-.11-.43-.16-.45-.03,0-.19.11-.49.34-.3.22-.65.51-1.03.85-.38.34-.72.72-1.03,1.13-.3.41-.47.8-.49,1.17Z"/>
        <path class="cls-1" d="m169.31,9.64c.21.18.32.47.34.87.01.4-.06.96-.22,1.7-.05.24-.13.5-.22.79-.09.29-.18.57-.28.85-.09.28-.18.52-.28.73-.09.21-.15.36-.18.43.47-.16.88-.3,1.23-.42.34-.12.66-.24.95-.36.29-.12.57-.24.85-.38.28-.13.57-.28.89-.43.24.16.32.3.24.43-.08.13-.25.26-.51.4-.21.11-.64.3-1.28.59-.65.29-1.32.55-2.04.79-.42.13-.64.21-.65.22-.01.01-.06.1-.14.26-.18.37-.38.78-.59,1.22-.21.45-.43.86-.65,1.25-.22.38-.46.7-.71.95s-.52.38-.81.38-.53-.12-.71-.38c-.18-.25-.34-.55-.45-.91-.12-.36-.2-.71-.26-1.07-.05-.36-.09-.64-.12-.85-.05-.45-.01-1.06.12-1.84.13-.78.33-1.54.59-2.29.26-.75.59-1.4.97-1.96.38-.55.78-.84,1.21-.87.34,0,.53.18.55.55.03.08.08.07.16-.04.5-.58.99-.87,1.46-.87.21,0,.4.08.55.24Zm-3.75,5.97c-.03.11-.05.3-.08.59-.03.29-.05.59-.08.91-.03.32-.03.63-.02.93.01.3.05.53.1.69.03.11.05.16.08.16l.12-.12c.1-.1.22-.27.36-.49.13-.22.27-.47.42-.73.14-.26.28-.52.4-.77s.23-.46.34-.61h-.36c-.26,0-.47-.04-.63-.12s-.28-.16-.38-.24c-.09-.08-.16-.14-.2-.2s-.06-.05-.06,0Zm3-5.22c-.16,0-.4.24-.73.71-.33.47-.63,1-.91,1.58-.28.58-.45,1.13-.53,1.64-.08.51.05.82.4.93.05.03.17.04.36.04.24,0,.37-.01.4-.04,0-.03.03-.1.08-.22.05-.12.12-.26.2-.43.08-.17.15-.34.22-.51.07-.17.12-.31.18-.42.29-.87.45-1.63.49-2.29.04-.66,0-.99-.14-.99Z"/>
        <path class="cls-1" d="m177.96,13.44c.37.03.57.08.59.16.03.08-.05.29-.24.63-.13.26-.32.64-.57,1.13-.25.49-.53,1.02-.85,1.6-.32.58-.66,1.17-1.03,1.76-.37.59-.74,1.13-1.13,1.62s-.76.88-1.15,1.19-.73.45-1.05.45-.57-.15-.77-.45c-.2-.3-.34-.67-.42-1.09-.08-.42-.12-.86-.12-1.3s.03-.83.08-1.15c.68-3.92,1.3-6.86,1.84-8.79.54-1.94.81-2.92.81-2.94l-2.88.28c-.53.05-.99.09-1.4.12-.41.03-.77.04-1.09.04-.34,0-.63-.01-.87-.04-.24-.03-.46-.08-.67-.16-.26-.08-.43-.18-.49-.32-.07-.13-.07-.26-.02-.38.05-.12.14-.22.26-.32.12-.09.23-.14.34-.14.18,0,.28.11.28.32-.03.13.33.2,1.07.2.47,0,1.03-.02,1.68-.06.65-.04,1.26-.09,1.84-.16.58-.07,1.29-.14,2.13-.22.05-.03.09-.06.12-.1.03-.04.06-.13.1-.28.04-.14.1-.36.2-.63.09-.28.23-.65.41-1.13.24-.61.43-1.09.57-1.46.14-.37.27-.67.38-.89.1-.22.2-.39.28-.49.08-.1.16-.2.24-.28.1-.11.24-.16.4-.16.21,0,.36.11.43.32,0,.11-.07.42-.2.93-.13.51-.28,1.06-.43,1.64-.16.58-.3,1.1-.44,1.56-.13.46-.2.71-.2.73s.09.04.28.04c.21,0,.49-.01.85-.04.36-.03.74-.05,1.17-.06.42-.01.84-.03,1.26-.06s.78-.04,1.07-.04c.37,0,.59.01.67.04.21.05.33.14.36.28.03.13-.03.26-.16.4-.13.08-.46.11-.99.1-.53-.01-1.13.02-1.82.1l-2.96.16c-.13.5-.3,1.14-.49,1.92-.2.78-.4,1.59-.59,2.45-.2.86-.4,1.72-.59,2.59-.2.87-.38,1.65-.53,2.35-.16.7-.28,1.28-.38,1.74-.09.46-.14.71-.14.73,0,.05-.01.2-.04.44-.03.24-.05.51-.06.83-.01.32-.01.63,0,.93.01.3.05.53.1.69.05,0,.23-.14.53-.41.3-.28.55-.53.73-.77.18-.21.45-.59.81-1.15.36-.55.72-1.15,1.11-1.78.38-.63.74-1.25,1.07-1.84.33-.59.57-1.05.73-1.36Z"/>
        <path class="cls-1" d="m177.29,20.27c-.24,0-.4-.14-.49-.43s-.12-.67-.1-1.13c.03-.46.09-.97.2-1.54.1-.57.22-1.12.34-1.66s.24-1.03.38-1.48c.13-.45.22-.79.28-1.03.05-.21.13-.51.24-.89.1-.38.23-.76.38-1.15.14-.38.32-.73.51-1.05.2-.32.41-.53.65-.63.1-.05.2-.08.28-.08.24,0,.38.11.43.32.03.11,0,.35-.08.73s-.19.84-.34,1.36c-.15.53-.3,1.09-.47,1.68-.17.59-.32,1.15-.45,1.66-.13.51-.24.95-.34,1.3-.09.36-.13.56-.1.61,0,.03.1-.14.32-.49s.46-.76.75-1.21c.29-.53.63-1.12,1.03-1.78.29-.47.53-.86.71-1.15.18-.29.34-.53.45-.71.12-.18.21-.32.28-.4.07-.08.14-.14.22-.2.13-.08.24-.12.32-.12.16,0,.28.11.38.32.09.21.18.47.28.77.09.3.2.62.34.95.13.33.32.61.55.85.16.21.3.32.43.32.03,0,.05,0,.08-.02.03-.01.05-.02.08-.02.13-.03.33-.11.59-.24.26-.13.46-.24.59-.32.26.13.38.28.36.43-.03.16-.12.3-.28.44-.24.18-.53.35-.87.49-.34.15-.67.22-.99.22-.21,0-.4-.04-.55-.12-.26-.16-.48-.38-.65-.65-.17-.28-.32-.56-.44-.85-.12-.29-.21-.54-.28-.75-.07-.21-.11-.32-.14-.32-.4.63-.74,1.19-1.03,1.68-.29.49-.6,1.03-.93,1.62-.33.59-.65,1.16-.95,1.7-.3.54-.57,1.01-.79,1.42-.22.41-.35.69-.38.85-.11.45-.37.67-.79.67Z"/>
        <path class="cls-1" d="m190.92,9.64c.21.18.32.47.34.87.01.4-.06.96-.22,1.7-.05.24-.13.5-.22.79-.09.29-.18.57-.28.85-.09.28-.18.52-.28.73-.09.21-.15.36-.18.43.47-.16.88-.3,1.23-.42.34-.12.66-.24.95-.36.29-.12.57-.24.85-.38.28-.13.57-.28.89-.43.24.16.32.3.24.43-.08.13-.25.26-.51.4-.21.11-.64.3-1.28.59-.65.29-1.32.55-2.04.79-.42.13-.64.21-.65.22-.01.01-.06.1-.14.26-.18.37-.38.78-.59,1.22-.21.45-.43.86-.65,1.25-.22.38-.46.7-.71.95s-.52.38-.81.38-.53-.12-.71-.38c-.18-.25-.34-.55-.45-.91-.12-.36-.2-.71-.26-1.07-.05-.36-.09-.64-.12-.85-.05-.45-.01-1.06.12-1.84.13-.78.33-1.54.59-2.29.26-.75.59-1.4.97-1.96.38-.55.78-.84,1.21-.87.34,0,.53.18.55.55.03.08.08.07.16-.04.5-.58.99-.87,1.46-.87.21,0,.4.08.55.24Zm-3.75,5.97c-.03.11-.05.3-.08.59-.03.29-.05.59-.08.91-.03.32-.03.63-.02.93.01.3.05.53.1.69.03.11.05.16.08.16l.12-.12c.1-.1.22-.27.36-.49.13-.22.27-.47.42-.73.14-.26.28-.52.4-.77s.23-.46.34-.61h-.36c-.26,0-.47-.04-.63-.12s-.28-.16-.38-.24c-.09-.08-.16-.14-.2-.2s-.06-.05-.06,0Zm3-5.22c-.16,0-.4.24-.73.71-.33.47-.63,1-.91,1.58-.28.58-.45,1.13-.53,1.64-.08.51.05.82.4.93.05.03.17.04.36.04.24,0,.37-.01.4-.04,0-.03.03-.1.08-.22.05-.12.12-.26.2-.43.08-.17.15-.34.22-.51.07-.17.12-.31.18-.42.29-.87.45-1.63.49-2.29.04-.66,0-.99-.14-.99Z"/>
        <path class="cls-1" d="m198.03,8.85c.24,0,.45.05.63.16.24.16.39.38.45.65.07.28.07.56.02.85-.05.29-.14.54-.26.75s-.26.32-.42.32c-.05,0-.09-.01-.12-.04-.08-.05-.12-.14-.14-.28-.01-.13-.03-.27-.04-.42-.01-.14-.04-.28-.08-.4-.04-.12-.12-.18-.26-.18-.05,0-.21.05-.47.16-.18.11-.4.26-.65.45-.25.2-.48.42-.69.65s-.39.48-.53.73c-.15.25-.19.47-.14.65.08.21.3.55.65,1.03.36.47.76,1.07,1.21,1.78.24-.16.52-.35.85-.57.33-.22.67-.45,1.01-.67.34-.22.67-.43.99-.61.32-.18.59-.33.83-.43.21.08.32.19.34.34.01.15-.11.28-.38.42-.63.4-1.2.75-1.7,1.07-.45.29-.84.55-1.19.77-.34.22-.51.36-.51.42.16.5.26.99.32,1.46s-.04,1.01-.28,1.62c-.16.34-.36.68-.59,1.01-.24.33-.51.63-.83.91-.32.28-.66.5-1.03.67-.37.17-.75.26-1.15.26-.53,0-.93-.17-1.21-.51-.28-.34-.31-.83-.1-1.46.16-.5.42-.97.77-1.4.36-.43.71-.82,1.07-1.15.36-.33.67-.6.95-.81.28-.21.42-.34.42-.4s-.06-.16-.18-.32c-.12-.16-.26-.35-.44-.57s-.34-.44-.49-.65l-.36-.47c-.29-.47-.47-.93-.55-1.38-.08-.45.12-1.03.59-1.74.1-.16.29-.38.55-.67.26-.29.57-.59.91-.89.34-.3.71-.56,1.11-.77s.76-.32,1.11-.32Zm-4.9,11.93c-.03.5.2.75.67.75.24,0,.52-.08.85-.24.33-.16.63-.38.91-.65.28-.28.5-.6.67-.97.17-.37.24-.75.22-1.15-.03-.24-.07-.49-.12-.77-.05-.28-.11-.43-.16-.45-.03,0-.19.11-.49.34-.3.22-.65.51-1.03.85-.38.34-.72.72-1.03,1.13-.3.41-.47.8-.49,1.17Z"/>
        <path class="cls-1" d="m212.46,16.79s.14-.08.34-.24c.2-.16.44-.36.73-.59.47-.42.93-.9,1.38-1.44.45-.54.75-.9.91-1.09.37.05.55.14.55.26s-.03.21-.08.26c-1.11,1.5-2.46,2.83-4.07,3.99-.18,1.05-.42,2.17-.69,3.34-.28,1.17-.63,2.25-1.05,3.22-.42.97-.95,1.78-1.58,2.43s-1.42.97-2.37.97c-.13,0-.26,0-.4-.02-.13-.01-.26-.03-.4-.06-.34-.08-.67-.25-.97-.51-.3-.26-.55-.58-.75-.95-.2-.37-.33-.79-.4-1.26-.07-.47-.05-.96.06-1.46.1-.53.33-1,.67-1.42.34-.42.78-.83,1.32-1.23.54-.39,1.18-.8,1.92-1.22.74-.42,1.55-.9,2.45-1.42.08-.05.13-.08.16-.08s.06-.09.1-.28.1-.5.2-.95c.09-.45.23-1.13.41-2.05-.53.71-.95,1.28-1.26,1.7-.32.42-.57.75-.75.99-.18.24-.33.41-.43.51-.11.11-.22.2-.36.28-.37.26-.71.4-1.03.4-.45,0-.82-.28-1.11-.83-.16-.29-.24-.69-.24-1.21s.05-1.07.16-1.66c.1-.59.26-1.2.47-1.82.21-.62.45-1.18.71-1.68.26-.5.54-.92.83-1.24.29-.33.57-.51.83-.53.13,0,.24.02.32.06.08.04.14.13.2.26.05.16-.03.49-.24,1.01-.21.51-.43,1.11-.67,1.78s-.45,1.37-.63,2.09c-.18.72-.24,1.36-.16,1.92.03.18.05.28.08.28.08,0,.34-.25.77-.75.44-.5.9-1.07,1.38-1.7.49-.63.94-1.25,1.36-1.84.42-.59.67-.97.75-1.13.24-.58.49-.99.77-1.23.28-.24.52-.36.73-.36.1,0,.21.05.32.16.08.08.12.14.12.18s-.04.19-.12.45c-.08.26-.2.69-.36,1.26-.16.58-.36,1.45-.59,2.61-.16.76-.26,1.26-.32,1.5-.05.24-.05.36,0,.36Zm-7.98,6.96c-.08.32-.09.66-.02,1.03.07.37.19.71.38,1.03.18.32.42.58.71.79.29.21.62.32.99.32.29,0,.55-.05.79-.16.21-.08.4-.2.57-.38.17-.17.33-.4.47-.69.14-.29.3-.65.45-1.09s.33-.97.51-1.6c.1-.37.2-.77.28-1.21s.16-.84.24-1.21c.08-.45.16-.9.24-1.34-.03,0-.14.06-.34.18-.2.12-.71.43-1.52.93-.82.45-1.6.94-2.35,1.46-.75.53-1.22,1.17-1.4,1.94Z"/>
        <path class="cls-1" d="m216.25,18.85c-.16-.08-.26-.21-.3-.4-.04-.18-.03-.38.04-.57.07-.2.17-.37.32-.51.14-.14.31-.22.49-.22.13,0,.25,0,.36.02.1.01.2.09.28.22.24.34.22.69-.04,1.03-.26.34-.55.51-.87.51-.08,0-.17-.03-.28-.08Z"/>
        <path class="cls-1" d="m222.02,18.85c-.16-.08-.26-.21-.3-.4-.04-.18-.03-.38.04-.57.07-.2.17-.37.32-.51.14-.14.31-.22.49-.22.13,0,.25,0,.36.02.1.01.2.09.28.22.24.34.22.69-.04,1.03-.26.34-.55.51-.87.51-.08,0-.17-.03-.28-.08Z"/>
        <path class="cls-1" d="m227.79,18.85c-.16-.08-.26-.21-.3-.4-.04-.18-.03-.38.04-.57.07-.2.17-.37.32-.51.14-.14.31-.22.49-.22.13,0,.25,0,.36.02.1.01.2.09.28.22.24.34.22.69-.04,1.03-.26.34-.55.51-.87.51-.08,0-.17-.03-.28-.08Z"/>
      </g>
    </g>
  </g>
</svg>