<?xml version="1.0" encoding="UTF-8"?>
<svg id="Capa_2" data-name="Capa 2" xmlns="http://www.w3.org/2000/svg" viewBox="0 0 499.93 113.84">
  <defs>
    <style>
      .cls-1 {
        fill: #fff;
      }

      .cls-2 {
        fill: #68b232;
      }
    </style>
  </defs>
  <g id="Capa_1-2" data-name="Capa 1">
    <g>
      <g>
        <path class="cls-1" d="m0,108.01c3.9-9.82,7.77-19.65,11.72-29.44,7.83-19.43,15.68-38.85,23.58-58.25.6-1.48.71-4.51,3.15-3.36,1.78.83,2.98,3.27,3.97,5.23.39.77-.39,2.23-.85,3.28-4.61,10.58-9.27,21.14-13.91,31.72-.25.56-.41,1.16-.84,2.4,2.49-.76,4.52-1.3,6.48-2,15.03-5.34,28.55-13.28,40.44-23.85,3.31-2.94,6.28-6.5,8.6-10.26,3.14-5.09,1.67-8.88-3.77-11.47-6.71-3.19-13.97-4.04-21.26-4.52-13.97-.93-27.66.56-40.78,5.57-3.37,1.29-6.38,3.52-9.55,5.31.04.42.07.84.11,1.27-1.09-.9-2.35-1.66-3.22-2.73-2.08-2.57-1.75-4.22,1.12-5.96C12.21,6.54,20.14,3.92,28.39,2.32c15.28-2.96,30.5-2.85,45.52,1.61,2.54.76,5.04,1.87,7.32,3.22,8.08,4.8,10.69,13.08,5.97,21.2-2.69,4.63-6.39,8.87-10.34,12.53-8.47,7.85-18.49,13.47-28.99,18.23-1.16.52-2.33,1.01-4.18,1.81,4.17.78,7.76,1.12,11.13,2.15,4.58,1.39,9.33,2.75,13.43,5.11,10.41,5.97,11.3,15.98,2.46,24.06-6.11,5.59-13.53,9.01-21.2,11.84-8.36,3.09-16.86,5.81-25.87,5.93-2.2.03-4.49-.95-6.58-1.84-.67-.29-.83-1.78-1.22-2.72.84-.31,1.66-.81,2.52-.91,13.88-1.64,27.12-5.46,39.36-12.17,3.96-2.17,7.61-5.22,10.7-8.53,3.88-4.14,3.18-8.22-1.99-10.65-4.68-2.2-9.86-3.51-14.95-4.64-7.89-1.75-15.87-2.46-23.92-.56-3.37.79-5.59,2.25-6.83,5.79-3.65,10.49-7.71,20.84-11.54,31.27-.62,1.7-1,3.5-1.36,5.27-.76,3.8-2.71,4.53-5.71,2.06-.72-.59-1.42-1.22-2.12-1.82,0-.86,0-1.71,0-2.57Z"/>
        <path class="cls-1" d="m288.55,86.31c-1.78,1.92-3.19,3.67-4.83,5.17-2.12,1.95-4.23,4.02-6.68,5.48-6.33,3.79-13.19.61-14.2-6.68-.46-3.32.06-6.79.3-10.18.11-1.54.62-3.06.52-4.8-1.34,1.89-2.57,3.89-4.05,5.67-4.59,5.5-8.93,11.27-14.02,16.27-6.44,6.33-12.64,4.26-15.05-4.5-.34-1.23-.51-2.5-.87-4.31-1.11,1.26-2,2.34-2.96,3.35-2.29,2.4-4.47,4.94-6.95,7.13-6.94,6.11-16.36,3.02-17.39-6.24-.73-6.57-.31-13.5.92-20.02,3.4-17.96,10.01-34.88,18.43-51.1,1.08-2.08,2.34-4.1,3.76-5.96,2.36-3.09,6.35-4.46,9.38-3.3,3.6,1.37,5.24,4.45,4.84,7.89-.47,3.95-1.45,8.02-3.11,11.62-6.15,13.28-14.55,25.19-23.6,36.62-2.6,3.28-4.08,6.72-4.33,10.75-.27,4.37-.67,8.76-.51,13.12.14,3.91,2.34,4.89,5.59,2.65,2.19-1.51,4.24-3.3,6.07-5.23,7.29-7.71,14.33-15.6,18.93-25.36,1.82-3.85,4.29-7.4,6.46-11.09,1-1.69,1.89-3.6,4.42-2.22,2.23,1.21,3.12,4.22,1.91,6.39-.31.56-.8,1.02-1.09,1.59-4.39,8.54-8.86,17.05-13.07,25.68-1,2.05-1.28,4.51-1.59,6.82-.12.9.33,2.37,1,2.74.65.36,2.15-.05,2.84-.63,2.04-1.72,4.12-3.49,5.74-5.59,7.45-9.67,14.8-19.41,22.04-29.23,1.67-2.27,3.13-3.76,5.99-1.96,3.06,1.92,3.74,4.13,2.25,7.24-3.61,7.49-6.01,15.34-6.32,23.68-.06,1.62.94,3.28,1.45,4.93,1.58-.73,3.66-1.04,4.67-2.25,6.73-8.02,13.21-16.25,19.81-24.37,3.29-4.05,6.31-8.43,10.17-11.86,2.48-2.21,6.14-3.57,9.49-4.24,7-1.41,11.87,4.64,8.95,11.12-1.5,3.34-3.68,6.66-6.35,9.14-6.34,5.89-12.99,11.48-19.86,16.74-2.68,2.05-2.2,4.03-1.59,6.38.66,2.53,2.31,4.57,5.03,3.84,3.45-.92,6.98-2.18,9.95-4.11,8.09-5.26,14.38-12.48,20.26-20.02,2.49-3.2,4.62-6.69,6.98-9.99.52-.72,1.34-1.22,2.02-1.82.67.89,1.68,1.7,1.9,2.68.23,1.04-.04,2.37-.53,3.36-6.25,12.71-14.83,23.49-26.65,31.52-1.58,1.07-3.34,1.95-5.12,2.66-10.2,4.09-19.17-1.14-20.77-12.04-.14-.92-.35-1.84-.59-3.12Zm-73.04-30.78c6.8-11.48,14.76-21.96,18.66-34.67.15-.51.31-1.05.27-1.56-.05-.58-.18-1.41-.57-1.64-.4-.24-1.27-.07-1.73.23-.7.45-1.35,1.1-1.79,1.8-6.86,10.91-11.4,22.83-15.16,35.08-.02.08.08.19.33.77Zm81.57,24.1c.3.17.59.34.89.51,7.6-6.27,14.95-12.79,20.02-21.42.52-.89.37-2.17.53-3.28-1.17.18-2.58,0-3.47.61-5.71,3.84-9.91,9.12-13.48,14.89-1.71,2.77-3.01,5.79-4.49,8.7Z"/>
        <path class="cls-1" d="m181.51,52.03c1.27-.74,2.51-1.55,3.83-2.22,7.36-3.75,14.75-.09,15.54,8.17.31,3.21-.43,6.95-1.93,9.81-6.97,13.35-17.07,24.05-29.58,32.39-6.17,4.11-12.93.35-12.7-7.19.13-4.27,1.17-8.79,2.94-12.67,5.69-12.43,11.81-24.67,17.96-36.89,4.86-9.64,10.02-19.12,15.03-28.69,1.15-2.2,2.63-2.5,3.56-.27.88,2.1,1.65,5,.87,6.88-2.48,6-5.63,11.73-8.68,17.48-2.3,4.33-4.85,8.53-7.3,12.79.15.14.3.27.44.41Zm-19.03,43.45c.4.24.8.47,1.2.71,1.74-1.15,3.64-2.12,5.19-3.48,9.63-8.49,17.52-18.44,24.16-29.38.98-1.62,1.72-3.47,2.13-5.31.64-2.87-.71-4.22-3.29-2.9-4.51,2.31-8.68,5.27-12.99,7.95-1.44.9-2.89,1.79-4.33,2.68-.32-.28-.64-.56-.97-.85-3.41,8.28-6.9,16.53-10.19,24.86-.69,1.76-.64,3.81-.93,5.73Z"/>
        <path class="cls-1" d="m88.66,80.05c-.37,4.4-1.19,8.81-1,13.18.2,4.7,3.47,6.74,7.85,4.97,3.52-1.42,6.94-3.44,9.88-5.84,10.12-8.24,18.63-17.97,25.56-29.05.52-.84,1.67-1.3,2.52-1.93.6,1.06,1.46,2.05,1.71,3.19.18.82-.3,1.88-.73,2.71-6.3,12.27-14.58,22.96-26,30.88-3.19,2.21-6.96,3.9-10.71,4.92-8.5,2.32-15.68-2.65-16.53-11.37-.36-3.65-.23-7.58.73-11.09,3.22-11.88,9.73-21.79,19.32-29.6,2.99-2.44,6.3-3.98,10.35-3.5,5.72.68,8.45,4.63,6.38,9.95-1.11,2.85-2.49,5.82-4.5,8.06-4.49,5-9.26,9.79-14.27,14.26-3.72,3.32-5.38,3.05-10.56.27Zm2.79-3.15c8.14-5.55,14.9-12.48,20.38-20.61.78-1.16.76-2.86,1.11-4.31-1.41.52-3.09.72-4.19,1.63-7.63,6.32-12.82,14.52-17.31,23.3Z"/>
      </g>
      <path class="cls-2" d="m444.16,59.19c16.8,0,33.6,0,50.41,0,4.6,0,5.36.81,5.37,5.69,0,11.23,0,22.47,0,33.7,0,4.14-.87,5.12-4.68,5.12-34.1.01-68.19.01-102.29,0-3.81,0-4.61-.93-4.61-5.17-.01-11.34-.01-22.68,0-34.02,0-4.36.86-5.31,4.81-5.31,17-.01,34,0,51,0Z"/>
      <path class="cls-2" d="m444.14,11.69c16.52,0,33.04,0,49.57,0,4.77,0,5.68.88,5.69,5.57.02,11.23.02,22.47,0,33.7,0,4.43-.86,5.31-5.27,5.31-33.47.02-66.95.02-100.42,0-4.44,0-5.34-.91-5.35-5.22-.01-11.23,0-22.47,0-33.7,0-4.74.9-5.66,5.58-5.66,16.74,0,33.47,0,50.21,0Z"/>
      <path class="cls-2" d="m364.44,113.49h-2.77V.36c.75-.1,1.64-.21,2.77-.36v113.49Z"/>
      <g>
        <path class="cls-1" d="m419.93,46.47c-1.46.52-4.34,1.38-7.75,1.38-3.82,0-6.96-.97-9.43-3.33-2.17-2.1-3.52-5.46-3.52-9.39.04-7.52,5.2-13.02,13.66-13.02,2.92,0,5.2.64,6.29,1.16l-.79,2.66c-1.35-.6-3.03-1.08-5.57-1.08-6.14,0-10.14,3.82-10.14,10.14s3.85,10.18,9.73,10.18c2.13,0,3.59-.3,4.34-.67v-7.52h-5.12v-2.62h8.31v12.12Z"/>
        <path class="cls-1" d="m435.12,47.6l-.26-2.28h-.11c-1.01,1.42-2.96,2.69-5.54,2.69-3.67,0-5.54-2.58-5.54-5.2,0-4.38,3.89-6.77,10.89-6.73v-.37c0-1.5-.41-4.19-4.12-4.19-1.68,0-3.44.52-4.71,1.35l-.75-2.17c1.5-.97,3.67-1.61,5.95-1.61,5.54,0,6.88,3.78,6.88,7.41v6.77c0,1.57.08,3.1.3,4.34h-2.99Zm-.49-9.24c-3.59-.08-7.67.56-7.67,4.08,0,2.13,1.42,3.14,3.11,3.14,2.36,0,3.85-1.5,4.38-3.03.11-.34.19-.71.19-1.05v-3.14Z"/>
        <path class="cls-1" d="m443.12,34.39c0-1.87-.04-3.4-.15-4.9h2.88l.15,2.92h.11c1.01-1.72,2.69-3.33,5.69-3.33,2.47,0,4.34,1.5,5.13,3.63h.08c.56-1.01,1.27-1.8,2.02-2.36,1.08-.82,2.28-1.27,4-1.27,2.39,0,5.95,1.57,5.95,7.86v10.66h-3.22v-10.25c0-3.48-1.27-5.57-3.93-5.57-1.87,0-3.33,1.38-3.89,2.99-.15.45-.26,1.05-.26,1.65v11.19h-3.22v-10.85c0-2.88-1.27-4.98-3.78-4.98-2.06,0-3.55,1.65-4.08,3.29-.19.49-.26,1.05-.26,1.61v10.92h-3.22v-13.21Z"/>
        <path class="cls-1" d="m476.16,39.14c.08,4.45,2.92,6.29,6.21,6.29,2.36,0,3.78-.41,5.01-.94l.56,2.36c-1.16.52-3.14,1.12-6.02,1.12-5.57,0-8.9-3.67-8.9-9.13s3.22-9.77,8.49-9.77c5.91,0,7.48,5.2,7.48,8.53,0,.67-.07,1.2-.11,1.53h-12.72Zm9.65-2.36c.04-2.1-.86-5.35-4.56-5.35-3.33,0-4.79,3.07-5.05,5.35h9.62Z"/>
        <path class="cls-1" d="m419.93,91.37c-1.46.52-4.34,1.38-7.75,1.38-3.82,0-6.96-.97-9.43-3.33-2.17-2.09-3.52-5.46-3.52-9.39.04-7.52,5.2-13.02,13.66-13.02,2.92,0,5.2.64,6.29,1.16l-.79,2.66c-1.35-.6-3.03-1.08-5.57-1.08-6.14,0-10.14,3.82-10.14,10.14s3.85,10.18,9.73,10.18c2.13,0,3.59-.3,4.34-.67v-7.52h-5.12v-2.62h8.31v12.12Z"/>
        <path class="cls-1" d="m424.42,80.04c0-2.13-.04-3.97-.15-5.65h2.88l.11,3.55h.15c.82-2.43,2.81-3.97,5.01-3.97.37,0,.64.04.93.11v3.11c-.34-.07-.67-.11-1.12-.11-2.32,0-3.97,1.76-4.42,4.23-.07.45-.15.97-.15,1.53v9.65h-3.25v-12.46Z"/>
        <path class="cls-1" d="m437.74,84.04c.08,4.45,2.92,6.29,6.21,6.29,2.36,0,3.78-.41,5.01-.94l.56,2.36c-1.16.52-3.14,1.12-6.02,1.12-5.57,0-8.9-3.67-8.9-9.13s3.22-9.77,8.49-9.77c5.91,0,7.48,5.2,7.48,8.53,0,.67-.07,1.2-.11,1.53h-12.72Zm9.65-2.36c.04-2.1-.86-5.35-4.56-5.35-3.33,0-4.79,3.07-5.05,5.35h9.62Z"/>
        <path class="cls-1" d="m456.11,84.04c.08,4.45,2.92,6.29,6.21,6.29,2.36,0,3.78-.41,5.01-.94l.56,2.36c-1.16.52-3.14,1.12-6.02,1.12-5.57,0-8.9-3.67-8.9-9.13s3.22-9.77,8.49-9.77c5.91,0,7.48,5.2,7.48,8.53,0,.67-.07,1.2-.11,1.53h-12.72Zm9.65-2.36c.04-2.1-.86-5.35-4.56-5.35-3.33,0-4.79,3.07-5.05,5.35h9.62Z"/>
        <path class="cls-1" d="m472.64,79.29c0-1.87-.04-3.41-.15-4.9h2.92l.19,2.99h.08c.9-1.72,2.99-3.41,5.99-3.41,2.51,0,6.4,1.5,6.4,7.71v10.81h-3.29v-10.44c0-2.92-1.08-5.35-4.19-5.35-2.17,0-3.85,1.53-4.42,3.37-.15.41-.22.97-.22,1.53v10.89h-3.29v-13.21Z"/>
      </g>
    </g>
  </g>
</svg>