<?xml version="1.0" encoding="UTF-8"?>
<svg id="Capa_2" data-name="Capa 2" xmlns="http://www.w3.org/2000/svg" xmlns:xlink="http://www.w3.org/1999/xlink" viewBox="0 0 151.36 156.58">
  <defs>
    <style>
      .cls-1 {
        fill: #fff;
      }

      .cls-2 {
        stroke-width: .27px;
      }

      .cls-2, .cls-3, .cls-4, .cls-5, .cls-6, .cls-7, .cls-8, .cls-9, .cls-10, .cls-11, .cls-12, .cls-13, .cls-14, .cls-15, .cls-16, .cls-17, .cls-18, .cls-19, .cls-20, .cls-21, .cls-22, .cls-23, .cls-24, .cls-25, .cls-26, .cls-27, .cls-28, .cls-29, .cls-30, .cls-31, .cls-32, .cls-33, .cls-34, .cls-35, .cls-36, .cls-37, .cls-38 {
        stroke: #231f20;
      }

      .cls-2, .cls-3, .cls-5, .cls-6, .cls-7, .cls-8, .cls-9, .cls-10, .cls-11, .cls-12, .cls-13, .cls-14, .cls-15, .cls-16, .cls-17, .cls-18, .cls-19, .cls-20, .cls-21, .cls-22, .cls-23, .cls-24, .cls-25, .cls-26, .cls-27, .cls-28, .cls-29, .cls-31, .cls-32, .cls-33, .cls-34, .cls-35, .cls-36, .cls-37, .cls-38 {
        stroke-linecap: round;
      }

      .cls-2, .cls-4, .cls-30 {
        stroke-linejoin: round;
      }

      .cls-2, .cls-21, .cls-29, .cls-33 {
        fill: #89603b;
      }

      .cls-3 {
        fill: url(#Degradado_sin_nombre_10-12);
      }

      .cls-3, .cls-6, .cls-7, .cls-8, .cls-10, .cls-12, .cls-13, .cls-14, .cls-16, .cls-18, .cls-20, .cls-24, .cls-25, .cls-26, .cls-29, .cls-32, .cls-34, .cls-35, .cls-36 {
        stroke-width: .09px;
      }

      .cls-4 {
        stroke-width: .12px;
      }

      .cls-4, .cls-30 {
        fill: none;
      }

      .cls-5 {
        fill: url(#Degradado_sin_nombre_10-9);
      }

      .cls-5, .cls-19, .cls-21, .cls-22, .cls-23, .cls-28, .cls-37 {
        stroke-width: .05px;
      }

      .cls-6 {
        fill: url(#Degradado_sin_nombre_10-27);
      }

      .cls-7 {
        fill: url(#Degradado_sin_nombre_10-17);
      }

      .cls-8 {
        fill: url(#Degradado_sin_nombre_10-3);
      }

      .cls-9 {
        fill: url(#Degradado_sin_nombre_10-24);
      }

      .cls-9, .cls-11, .cls-15, .cls-27, .cls-31, .cls-33, .cls-38 {
        stroke-width: .06px;
      }

      .cls-10 {
        fill: url(#Degradado_sin_nombre_10-2);
      }

      .cls-11 {
        fill: url(#Degradado_sin_nombre_10-14);
      }

      .cls-12 {
        fill: url(#Degradado_sin_nombre_10-22);
      }

      .cls-13 {
        fill: url(#Degradado_sin_nombre_10);
      }

      .cls-14 {
        fill: url(#Degradado_sin_nombre_10-18);
      }

      .cls-15 {
        fill: url(#Degradado_sin_nombre_10-4);
      }

      .cls-16 {
        fill: url(#Degradado_sin_nombre_10-23);
      }

      .cls-17 {
        fill: #231f20;
        stroke-width: .07px;
      }

      .cls-18 {
        fill: url(#Degradado_sin_nombre_10-16);
      }

      .cls-19 {
        fill: url(#Degradado_sin_nombre_10-20);
      }

      .cls-20 {
        fill: url(#Degradado_sin_nombre_10-6);
      }

      .cls-22 {
        fill: url(#Degradado_sin_nombre_10-19);
      }

      .cls-23 {
        fill: url(#Degradado_sin_nombre_10-29);
      }

      .cls-24 {
        fill: url(#Degradado_sin_nombre_10-21);
      }

      .cls-25 {
        fill: url(#Degradado_sin_nombre_10-11);
      }

      .cls-26 {
        fill: url(#Degradado_sin_nombre_10-28);
      }

      .cls-27 {
        fill: url(#Degradado_sin_nombre_10-5);
      }

      .cls-28 {
        fill: url(#Degradado_sin_nombre_10-10);
      }

      .cls-30 {
        stroke-width: .37px;
      }

      .cls-31 {
        fill: url(#Degradado_sin_nombre_10-15);
      }

      .cls-32 {
        fill: url(#Degradado_sin_nombre_10-26);
      }

      .cls-34 {
        fill: url(#Degradado_sin_nombre_10-13);
      }

      .cls-35 {
        fill: url(#Degradado_sin_nombre_10-8);
      }

      .cls-36 {
        fill: url(#Degradado_sin_nombre_10-7);
      }

      .cls-37 {
        fill: url(#Degradado_sin_nombre_10-30);
      }

      .cls-38 {
        fill: url(#Degradado_sin_nombre_10-25);
      }
    </style>
    <linearGradient id="Degradado_sin_nombre_10" data-name="Degradado sin nombre 10" x1="-1370.02" y1="541.7" x2="-1369.74" y2="540.23" gradientTransform="translate(26954.68 34709.72) scale(19.63 -64.03)" gradientUnits="userSpaceOnUse">
      <stop offset="0" stop-color="#e7e241"/>
      <stop offset="1" stop-color="#4c8969"/>
    </linearGradient>
    <linearGradient id="Degradado_sin_nombre_10-2" data-name="Degradado sin nombre 10" x1="-2467.16" y1="578.7" x2="-2466.31" y2="577.5" gradientTransform="translate(16463.72 45528.51) scale(6.65 -78.62)" xlink:href="#Degradado_sin_nombre_10"/>
    <linearGradient id="Degradado_sin_nombre_10-3" data-name="Degradado sin nombre 10" x1="-2077.36" y1="482.74" x2="-2076.72" y2="480.86" gradientTransform="translate(18116.15 23894.51) scale(8.69 -49.43)" xlink:href="#Degradado_sin_nombre_10"/>
    <linearGradient id="Degradado_sin_nombre_10-4" data-name="Degradado sin nombre 10" x1="-1165.22" y1="552.43" x2="-1165.34" y2="551.46" gradientTransform="translate(36032.77 37535.42) scale(30.85 -67.83)" xlink:href="#Degradado_sin_nombre_10"/>
    <linearGradient id="Degradado_sin_nombre_10-5" data-name="Degradado sin nombre 10" x1="-1244.01" y1="578.62" x2="-1244.14" y2="577.79" gradientTransform="translate(31530.83 45649.13) scale(25.29 -78.78)" xlink:href="#Degradado_sin_nombre_10"/>
    <linearGradient id="Degradado_sin_nombre_10-6" data-name="Degradado sin nombre 10" x1="-2250.61" y1="546.28" x2="-2254.9" y2="544.93" gradientTransform="translate(17276.79 35821.43) scale(7.63 -65.53)" xlink:href="#Degradado_sin_nombre_10"/>
    <linearGradient id="Degradado_sin_nombre_10-7" data-name="Degradado sin nombre 10" x1="-1191.54" y1="569.47" x2="-1192.69" y2="568.28" gradientTransform="translate(34297.68 42405.31) scale(28.69 -74.41)" xlink:href="#Degradado_sin_nombre_10"/>
    <linearGradient id="Degradado_sin_nombre_10-8" data-name="Degradado sin nombre 10" x1="-1609.35" y1="480.18" x2="-1611.71" y2="478.4" gradientTransform="translate(22205.82 23538.66) scale(13.73 -48.95)" xlink:href="#Degradado_sin_nombre_10"/>
    <linearGradient id="Degradado_sin_nombre_10-9" data-name="Degradado sin nombre 10" x1="-1164.02" y1="490.93" x2="-1164.33" y2="489.91" gradientTransform="translate(36114.09 25226.19) scale(30.93 -51.22)" xlink:href="#Degradado_sin_nombre_10"/>
    <linearGradient id="Degradado_sin_nombre_10-10" data-name="Degradado sin nombre 10" x1="-1205.57" y1="528.9" x2="-1205.9" y2="528.05" gradientTransform="translate(33505.94 32023.58) scale(27.71 -60.39)" xlink:href="#Degradado_sin_nombre_10"/>
    <linearGradient id="Degradado_sin_nombre_10-11" data-name="Degradado sin nombre 10" x1="-1369.77" y1="541.7" x2="-1369.48" y2="540.23" gradientTransform="translate(26966.32 34709.72) scale(19.63 -64.03)" xlink:href="#Degradado_sin_nombre_10"/>
    <linearGradient id="Degradado_sin_nombre_10-12" data-name="Degradado sin nombre 10" x1="-2466.41" y1="578.7" x2="-2465.56" y2="577.5" gradientTransform="translate(16475.36 45528.51) scale(6.65 -78.62)" xlink:href="#Degradado_sin_nombre_10"/>
    <linearGradient id="Degradado_sin_nombre_10-13" data-name="Degradado sin nombre 10" x1="-2076.79" y1="482.74" x2="-2076.14" y2="480.86" gradientTransform="translate(18127.79 23894.51) scale(8.69 -49.43)" xlink:href="#Degradado_sin_nombre_10"/>
    <linearGradient id="Degradado_sin_nombre_10-14" data-name="Degradado sin nombre 10" x1="-1165.06" y1="552.43" x2="-1165.17" y2="551.46" gradientTransform="translate(36044.41 37535.42) scale(30.85 -67.83)" xlink:href="#Degradado_sin_nombre_10"/>
    <linearGradient id="Degradado_sin_nombre_10-15" data-name="Degradado sin nombre 10" x1="-1243.81" y1="578.62" x2="-1243.94" y2="577.79" gradientTransform="translate(31542.47 45649.13) scale(25.29 -78.78)" xlink:href="#Degradado_sin_nombre_10"/>
    <linearGradient id="Degradado_sin_nombre_10-16" data-name="Degradado sin nombre 10" x1="-2249.95" y1="546.28" x2="-2254.24" y2="544.93" gradientTransform="translate(17288.43 35821.43) scale(7.63 -65.53)" xlink:href="#Degradado_sin_nombre_10"/>
    <linearGradient id="Degradado_sin_nombre_10-17" data-name="Degradado sin nombre 10" x1="-1191.37" y1="569.47" x2="-1192.51" y2="568.28" gradientTransform="translate(34309.32 42405.31) scale(28.69 -74.41)" xlink:href="#Degradado_sin_nombre_10"/>
    <linearGradient id="Degradado_sin_nombre_10-18" data-name="Degradado sin nombre 10" x1="-1608.99" y1="480.18" x2="-1611.34" y2="478.4" gradientTransform="translate(22217.45 23538.66) scale(13.73 -48.95)" xlink:href="#Degradado_sin_nombre_10"/>
    <linearGradient id="Degradado_sin_nombre_10-19" data-name="Degradado sin nombre 10" x1="-1163.86" y1="490.93" x2="-1164.16" y2="489.91" gradientTransform="translate(36125.73 25226.19) scale(30.93 -51.22)" xlink:href="#Degradado_sin_nombre_10"/>
    <linearGradient id="Degradado_sin_nombre_10-20" data-name="Degradado sin nombre 10" x1="-1205.39" y1="528.9" x2="-1205.72" y2="528.05" gradientTransform="translate(33517.58 32023.58) scale(27.71 -60.39)" xlink:href="#Degradado_sin_nombre_10"/>
    <linearGradient id="Degradado_sin_nombre_10-21" data-name="Degradado sin nombre 10" x1="-1490.42" y1="541.7" x2="-1490.13" y2="540.23" gradientTransform="translate(-29183.03 34709.39) rotate(-180) scale(19.63 64.03)" xlink:href="#Degradado_sin_nombre_10"/>
    <linearGradient id="Degradado_sin_nombre_10-22" data-name="Degradado sin nombre 10" x1="-2822.42" y1="578.71" x2="-2821.57" y2="577.51" gradientTransform="translate(-18692.07 45528.18) rotate(-180) scale(6.65 78.62)" xlink:href="#Degradado_sin_nombre_10"/>
    <linearGradient id="Degradado_sin_nombre_10-23" data-name="Degradado sin nombre 10" x1="-2349.17" y1="482.74" x2="-2348.53" y2="480.86" gradientTransform="translate(-20344.5 23894.18) rotate(-180) scale(8.69 49.43)" xlink:href="#Degradado_sin_nombre_10"/>
    <linearGradient id="Degradado_sin_nombre_10-24" data-name="Degradado sin nombre 10" x1="-1241.81" y1="552.43" x2="-1241.92" y2="551.46" gradientTransform="translate(-38261.12 37535.09) rotate(-180) scale(30.85 67.83)" xlink:href="#Degradado_sin_nombre_10"/>
    <linearGradient id="Degradado_sin_nombre_10-25" data-name="Degradado sin nombre 10" x1="-1337.46" y1="578.62" x2="-1337.6" y2="577.8" gradientTransform="translate(-33759.18 45648.79) rotate(-180) scale(25.29 78.78)" xlink:href="#Degradado_sin_nombre_10"/>
    <linearGradient id="Degradado_sin_nombre_10-26" data-name="Degradado sin nombre 10" x1="-2560.3" y1="546.28" x2="-2564.59" y2="544.93" gradientTransform="translate(-19505.14 35821.1) rotate(-180) scale(7.63 65.53)" xlink:href="#Degradado_sin_nombre_10"/>
    <linearGradient id="Degradado_sin_nombre_10-27" data-name="Degradado sin nombre 10" x1="-1273.91" y1="569.47" x2="-1275.06" y2="568.28" gradientTransform="translate(-36526.03 42404.97) rotate(-180) scale(28.69 74.41)" xlink:href="#Degradado_sin_nombre_10"/>
    <linearGradient id="Degradado_sin_nombre_10-28" data-name="Degradado sin nombre 10" x1="-1781.47" y1="480.19" x2="-1783.82" y2="478.4" gradientTransform="translate(-24434.17 23538.33) rotate(-180) scale(13.73 48.95)" xlink:href="#Degradado_sin_nombre_10"/>
    <linearGradient id="Degradado_sin_nombre_10-29" data-name="Degradado sin nombre 10" x1="-1240.42" y1="490.93" x2="-1240.72" y2="489.92" gradientTransform="translate(-38342.44 25225.86) rotate(-180) scale(30.93 51.22)" xlink:href="#Degradado_sin_nombre_10"/>
    <linearGradient id="Degradado_sin_nombre_10-30" data-name="Degradado sin nombre 10" x1="-1290.86" y1="528.9" x2="-1291.19" y2="528.05" gradientTransform="translate(-35734.29 32023.25) rotate(-180) scale(27.71 60.39)" xlink:href="#Degradado_sin_nombre_10"/>
  </defs>
  <g id="Capa_1-2" data-name="Capa 1">
    <g>
      <path class="cls-1" d="m150.4,52.53c-1.08-2.15-2.84-3.64-4.76-4.53.89-2.6.58-5.43-.88-7.73-1.15-1.8-2.91-3.12-4.99-3.8,1.56-4.97,2.88-9.22,3.89-12.5.81-2.63,1.58-5.12,1.8-5.76,1.17-2.95.72-6.3-1.23-9.21-1.76-2.63-5.42-5.69-9.93-5.69-3.29,0-6.15,1.6-7.88,4.22-1.98-2.18-5.09-4.22-8.77-4.22-4.47,0-8.17,2.97-9.28,7.43-.13,0-.25,0-.38,0-3.62,0-6.73,1.49-8.61,3.87-1.61-2.2-4.11-3.56-6.99-3.82.02-2.38-.89-4.69-2.62-6.59-2.32-2.55-6.02-4.2-9.42-4.2-1.87,0-3.62.48-5.12,1.37-1.28-.58-2.71-.89-4.21-.89-3.17,0-6.59,1.43-8.92,3.68-.17-.22-.34-.42-.53-.63-1.82-1.97-4.38-3.06-7.21-3.06-3.4,0-7.1,1.65-9.42,4.2-1.49,1.64-2.37,3.59-2.57,5.63-2.9.26-5.43,1.63-7.05,3.85-1.73,2.38-2.19,5.42-1.25,8.31.04.12.14.42.31.87-1.26.18-2.47.58-3.57,1.14-2.53-7.82-4.16-13.04-4.43-14.05-1.07-4.54-4.79-7.58-9.32-7.58s-8.17,3.07-9.93,5.7c-1.95,2.91-2.4,6.26-1.23,9.21.22.64.99,3.14,1.8,5.77.98,3.17,2.3,7.45,3.88,12.49-2.08.68-3.85,2-4.99,3.8-1.46,2.3-1.77,5.12-.88,7.73-1.91.89-3.68,2.38-4.76,4.53-1.55,3.09-1.21,6.76.92,9.61.27.36,27.57,38.15,38.62,64.45-.18,2.9,1.16,5.31,2.21,6.9-.15.06-.3.11-.44.17-.31.12-.6.24-.85.31.03,0,.6-.18,1.48-.2.1.15.19.28.28.41l.55-.38c.17.02.33.04.5.07l.31.25-2.1,1.69c.11.31.24.63.38.96l-8.18,5.07.09,1.2c.52,3.51,1.75,11.74,9.46,11.74.4,0,.79-.02,1.98-.12l2.64,1.5.83.68c.13.02.29.04.47.06l.25.14c.42,0,.84-.03,1.25-.09.22,0,.46-.02.71-.05v-.09c.14-.04.3-.08.45-.12.4.05.8.08,1.2.08,1.18,0,2.32-.23,3.37-.68,1.21-.19,2.36-.64,3.39-1.31h.12c.4,0,.79-.02,1.98-.12l2.67,1.52.8.67c.13.02.29.04.47.06l.24.14c.42,0,.84-.03,1.25-.09.22,0,.46-.02.71-.05v-.09c.14-.04.3-.08.45-.12.4.05.8.08,1.2.08,1.47,0,2.88-.37,4.14-1.05,1.21.62,2.56.95,3.93.95.89,0,1.76-.14,2.59-.4.21-.01.43-.04.64-.07.15.05.3.09.46.12v.09c.24.02.48.04.7.05.41.06.83.09,1.25.09l.24-.14c.17-.02.32-.03.44-.05l.76-.63,2.76-1.56c.33.03.6.05.83.07.1.1.21.2.32.29l.13.37.62.21c1.44,1,3.17,1.56,4.94,1.56,1.62,0,3.16-.45,4.51-1.28,2.38-.49,4.45-1.99,5.61-4.17.71-1.32,1.03-2.79.96-4.24.02-.45,0-.91-.03-1.36l.77-1.14.41-5.16c-.27-1.09-.52-2.01-.75-2.78.21-.29.42-.57.63-.85l-1.05-.76.99-.8.77.53c1.05-1.54,2.89-4.24,2.68-7.6,11.05-26.3,38.35-64.09,38.65-64.49,2.1-2.81,2.44-6.47.88-9.57Z"/>
      <g>
        <g>
          <g>
            <path class="cls-30" d="m51.66,136.4c.28.49,1.12.42,1.4,1.04,1.39.56,1.19,3.07,1.46,4.39"/>
            <path class="cls-4" d="m66.82,132.54c.07,1.46-.27,2.37-1.25,3.41-1.12,0-1.68-.35-2.58-.56-3.14-.7-5.02,2.37-5.09,5.02"/>
            <path class="cls-30" d="m50.08,132.58c1.05,2.93,4.19,3.48,6.97,3.69,0,.28.7.84.7,1.12m-11.72,1.2c.76.07,4.32.91,4.39.42h.77c1.47-2.44,4.61-2.24,5.72.21m13.33-4.02l-.28.21c-1.46,2.51-3.14.48-5.23.35.07-.28-.21-.49-.42-.56,0-.21-.49-.84-.42-1.33-.28,0-1.04-.35-.98-.91l-2.58-.21-.14,1.6"/>
          </g>
          <g>
            <path class="cls-2" d="m83.06,140.79s-1.43-5.73-1.79-5.19-.54,1.08-.54,1.43c-.36.9-.36,1.43-.36,1.25.36-2.86-1.43-2.14-1.43-2.14l-.9,2.33-4.83.36c-3.75.17-5.55-1.08-6.62-.72-1.26.54-5.74.72-7.34.89-.72,0-5.38,5.56-3.58,5.56l9.85-.72v1.61h1.25l.18-1.79,3.04.18v1.97l1.43-.36v-1.61l6.27-.18-1.97,3.04,1.08.36s1.25-2.33,1.43-1.44c.36,1.08,0,2.15,0,2.15,0,0,.54.72,1.08-.18s.36-2.87.36-2.87l.9,1.97s1.43.54,1.07,0c-.54-1.44-.9-3.41-.9-3.58l2.33-2.33h0Z"/>
            <path class="cls-2" d="m42.77,141.34s.72,4.83,1.44,4.82c.54,0,6.09-.54,6.99-.54.72,0,.36,2.87.36,2.87l1.08-.36.17-1.97.72,1.79s.53.54,1.07-.18c.36-.54-1.07-2.51-.54-2.51.72,0,1.79,1.79,1.79,1.79,0,0,.9-.9.72-1.25,0-.36-1.44-1.61-1.44-1.61l.9-1.61-.53-2.33-2.34-.72s-3.4.36-4.83.36c-1.44-.18-4.84,1.79-5.55,1.43h0Z"/>
          </g>
          <g>
            <g>
              <path class="cls-13" d="m58.81,119.45s-5.19-.45-5.2-2.97c7.22-53.1,22.09-85.72,22.54-87.63.37-1.91,6.71-1.1,5.36,2.05-1.36,3.09-17.15,37.78-22.69,88.55h0Z"/>
              <path class="cls-10" d="m55.63,118.88c-5.78-37.02-4.93-105.62-5.2-107.63-.18-1.95,5.81-4.47,5.54-.89-.2,3.57.99,73.72,3.98,110.7,0,0-3.55.15-4.32-2.18Z"/>
              <path class="cls-8" d="m59.38,123.19s-5.09,1.28-5.59-1.14c-3.67-36.87,5.79-65.2,5.81-67.15-.05-1.95,6.43-3.53,5.73-.07s-7.08,17.99-5.96,68.36h0Z"/>
              <path class="cls-29" d="m54.34,144.26s-7.06,8.79-2.58.84c4.55-8.02,1.94-23.75,1.27-25.59-.74-1.84,5.08-3.87,7.22-3.16,2.2.63-5.92,27.91-5.92,27.91h0Z"/>
            </g>
            <g>
              <path class="cls-15" d="m57.12,126.36c9.22-36.35,39.92-92.73,40.38-94.03.41-1.3,4.75-.24,3.56,1.85-1.18,2.04-32.68,59.79-40.56,94.65,0,0-3.57-.73-3.39-2.47Z"/>
              <path class="cls-27" d="m60.62,131.48s-3.65.49-3.8-1.23c.36-25.94,31.94-108.89,32.11-110.24.12-1.37,4.75-1.95,3.99.41s-29.11,75.95-32.31,111.07h0Z"/>
              <path class="cls-33" d="m55.64,138.88s-5.81,6.34-2.07,1.16c3.8-5.22,3.24-10.28,2.92-11.62-.37-1.34,3.84-2.29,5.27-1.63,1.49.62-6.12,12.09-6.12,12.09h0Z"/>
            </g>
            <path class="cls-17" d="m53.23,145.85c-.49.1-.39.69-.79,1.38s-.79.3-1.29.5-.29.59-.29.59c0,0,.59.1,1.29-.1s.89-1.09,1.18-1.88.59-.2.59-.2c0,0-.2-.39-.69-.3Z"/>
          </g>
          <path class="cls-17" d="m79.28,144.28c-.14-.24-.42-.37-.7-.3-.5.1-.39.7-.79,1.39s-.79.29-1.29.49c-.5.2-.3.59-.3.59,0,0,.6.1,1.29-.1s.89-1.09,1.18-1.88.59-.2.59-.2h0Z"/>
          <g>
            <g>
              <path class="cls-20" d="m81.85,116.33s5.1,1.07,5.84-1.33c8.5-52.91,3.74-88.45,3.87-90.4.2-1.94-6.1-3-5.73.41.4,3.34,5.44,41.14-3.98,91.32h0Z"/>
              <path class="cls-36" d="m80.28,117.54s3.36,1.16,4.77-.84c16.27-33.75,35.37-99.64,36.2-101.49.74-1.81-4.26-5.96-5.04-2.45-.84,3.48-22.35,70.26-35.94,104.78h0Z"/>
              <path class="cls-35" d="m80.21,119.74s4.5,2.7,5.67.54c14.21-34.21,13.38-64.07,13.92-65.95.61-1.85-5.12-5.25-5.46-1.72-.34,3.52,1.56,19.28-14.14,67.14h0Z"/>
              <path class="cls-29" d="m78.92,141.37s4.2,10.46,2.22,1.55c-2.02-9,5.04-23.29,6.21-24.86,1.24-1.55-3.74-5.18-5.99-5.12-2.29-.03-2.44,28.42-2.44,28.42h0Z"/>
            </g>
            <g>
              <path class="cls-5" d="m84.79,128.34s-2.76-.93-2.43-2.3c10.92-27.95,40.86-69.67,41.35-70.65.46-.98,3.8.29,2.65,1.83-1.14,1.5-31.86,44.23-41.56,71.13h0Z"/>
              <path class="cls-28" d="m84.63,130.45s-2.95.03-2.9-1.35c2.85-20.55,36.13-83.28,36.4-84.34.23-1.07,3.96-1.07,3.13.72-.84,1.79-30.62,57.42-36.63,84.97h0Z"/>
              <path class="cls-21" d="m79.94,135.84s-5.24,4.45-1.75.71c3.53-3.76,3.59-7.84,3.47-8.93-.16-1.1,3.27-1.44,4.35-.77,1.11.63-6.06,8.99-6.06,8.99h0Z"/>
            </g>
          </g>
        </g>
        <g>
          <g>
            <path class="cls-30" d="m68.32,136.4c.28.49,1.12.42,1.4,1.04,1.39.56,1.19,3.07,1.46,4.39"/>
            <path class="cls-4" d="m83.47,132.54c.07,1.46-.27,2.37-1.25,3.41-1.12,0-1.68-.35-2.58-.56-3.14-.7-5.02,2.37-5.09,5.02"/>
            <path class="cls-30" d="m66.74,132.58c1.05,2.93,4.19,3.48,6.97,3.69,0,.28.7.84.7,1.12m-11.72,1.2c.76.07,4.32.91,4.39.42h.77c1.47-2.44,4.61-2.24,5.72.21m13.33-4.02l-.28.21c-1.46,2.51-3.14.48-5.23.35.07-.28-.21-.49-.42-.56,0-.21-.49-.84-.42-1.33-.28,0-1.04-.35-.98-.91l-2.58-.21-.14,1.6"/>
          </g>
          <g>
            <path class="cls-2" d="m99.72,140.79s-1.43-5.73-1.79-5.19-.54,1.08-.54,1.43c-.36.9-.36,1.43-.36,1.25.36-2.86-1.43-2.14-1.43-2.14l-.9,2.33-4.83.36c-3.75.17-5.55-1.08-6.62-.72-1.26.54-5.74.72-7.34.89-.72,0-5.38,5.56-3.58,5.56l9.85-.72v1.61h1.25l.18-1.79,3.04.18v1.97l1.43-.36v-1.61l6.27-.18-1.97,3.04,1.08.36s1.25-2.33,1.43-1.44c.36,1.08,0,2.15,0,2.15,0,0,.54.72,1.08-.18s.36-2.87.36-2.87l.9,1.97s1.43.54,1.07,0c-.54-1.44-.9-3.41-.9-3.58l2.33-2.33h0Z"/>
            <path class="cls-2" d="m59.42,141.34s.72,4.83,1.44,4.82c.54,0,6.09-.54,6.99-.54.72,0,.36,2.87.36,2.87l1.08-.36.17-1.97.72,1.79s.53.54,1.07-.18c.36-.54-1.07-2.51-.54-2.51.72,0,1.79,1.79,1.79,1.79,0,0,.9-.9.72-1.25,0-.36-1.44-1.61-1.44-1.61l.9-1.61-.53-2.33-2.34-.72s-3.4.36-4.83.36c-1.44-.18-4.84,1.79-5.55,1.43h0Z"/>
          </g>
          <g>
            <g>
              <path class="cls-25" d="m75.46,119.45s-5.19-.45-5.2-2.97c7.22-53.1,22.09-85.72,22.54-87.63.37-1.91,6.71-1.1,5.36,2.05-1.36,3.09-17.15,37.78-22.69,88.55h0Z"/>
              <path class="cls-3" d="m72.29,118.88c-5.78-37.02-4.93-105.62-5.2-107.63-.18-1.95,5.81-4.47,5.54-.89-.2,3.57.99,73.72,3.98,110.7,0,0-3.55.15-4.32-2.18Z"/>
              <path class="cls-34" d="m76.03,123.19s-5.09,1.28-5.59-1.14c-3.67-36.87,5.79-65.2,5.81-67.15-.05-1.95,6.43-3.53,5.73-.07s-7.08,17.99-5.96,68.36h0Z"/>
              <path class="cls-29" d="m70.99,144.26s-7.06,8.79-2.58.84c4.55-8.02,1.94-23.75,1.27-25.59-.74-1.84,5.08-3.87,7.22-3.16,2.2.63-5.92,27.91-5.92,27.91h0Z"/>
            </g>
            <g>
              <path class="cls-11" d="m73.78,126.36c9.22-36.35,39.92-92.73,40.38-94.03.41-1.3,4.75-.24,3.56,1.85-1.18,2.04-32.68,59.79-40.56,94.65,0,0-3.57-.73-3.39-2.47Z"/>
              <path class="cls-31" d="m77.27,131.48s-3.65.49-3.8-1.23c.36-25.94,31.94-108.89,32.11-110.24.12-1.37,4.75-1.95,3.99.41-.76,2.35-29.11,75.95-32.31,111.07h0Z"/>
              <path class="cls-33" d="m72.29,138.88s-5.81,6.34-2.07,1.16c3.8-5.22,3.24-10.28,2.92-11.62-.37-1.34,3.84-2.29,5.27-1.63,1.49.62-6.12,12.09-6.12,12.09h0Z"/>
            </g>
            <path class="cls-17" d="m69.88,145.85c-.49.1-.39.69-.79,1.38s-.79.3-1.29.5-.29.59-.29.59c0,0,.59.1,1.29-.1s.89-1.09,1.18-1.88.59-.2.59-.2c0,0-.2-.39-.69-.3Z"/>
          </g>
          <path class="cls-17" d="m95.93,144.28c-.14-.24-.42-.37-.7-.3-.5.1-.39.7-.79,1.39s-.79.29-1.29.49c-.5.2-.3.59-.3.59,0,0,.6.1,1.29-.1s.89-1.09,1.18-1.88.59-.2.59-.2h0Z"/>
          <g>
            <g>
              <path class="cls-18" d="m98.5,116.33s5.1,1.07,5.84-1.33c8.5-52.91,3.74-88.45,3.87-90.4.2-1.94-6.1-3-5.73.41.4,3.34,5.44,41.14-3.98,91.32h0Z"/>
              <path class="cls-7" d="m96.93,117.54s3.36,1.16,4.77-.84c16.27-33.75,35.37-99.64,36.2-101.49.74-1.81-4.26-5.96-5.04-2.45-.84,3.48-22.35,70.26-35.94,104.78h0Z"/>
              <path class="cls-14" d="m96.87,119.74s4.5,2.7,5.67.54c14.21-34.21,13.38-64.07,13.92-65.95.61-1.85-5.12-5.25-5.46-1.72s1.56,19.28-14.14,67.14h0Z"/>
              <path class="cls-29" d="m95.58,141.37s4.2,10.46,2.22,1.55c-2.02-9,5.04-23.29,6.21-24.86,1.24-1.55-3.74-5.18-5.99-5.12-2.29-.03-2.44,28.42-2.44,28.42h0Z"/>
            </g>
            <g>
              <path class="cls-22" d="m101.45,128.34s-2.76-.93-2.43-2.3c10.92-27.95,40.86-69.67,41.35-70.65.46-.98,3.8.29,2.65,1.83-1.14,1.5-31.86,44.23-41.56,71.13h0Z"/>
              <path class="cls-19" d="m101.28,130.45s-2.95.03-2.9-1.35c2.85-20.55,36.13-83.28,36.4-84.34.23-1.07,3.96-1.07,3.13.72s-30.62,57.42-36.63,84.97h0Z"/>
              <path class="cls-21" d="m96.59,135.84s-5.24,4.45-1.75.71c3.53-3.76,3.59-7.84,3.47-8.93-.16-1.1,3.27-1.44,4.35-.77,1.11.63-6.06,8.99-6.06,8.99h0Z"/>
            </g>
          </g>
        </g>
        <g>
          <g>
            <path class="cls-30" d="m80.18,141.36c.28-1.32.07-3.83,1.46-4.39.28-.63,1.12-.56,1.4-1.04"/>
            <path class="cls-4" d="m76.81,139.95c-.07-2.65-1.95-5.72-5.09-5.02-.91.21-1.46.56-2.58.56-.98-1.05-1.32-1.95-1.25-3.41"/>
            <path class="cls-30" d="m76.95,136.91c0-.28.7-.84.7-1.12,2.78-.21,5.93-.76,6.97-3.69m-6.83,6.63c1.11-2.44,4.25-2.65,5.72-.21h.77c.07.49,3.63-.35,4.39-.42m-14.17-4.23l-.14-1.6-2.58.21c.07.56-.7.91-.98.91.07.49-.42,1.11-.42,1.33-.21.07-.49.28-.42.56-2.09.13-3.76,2.16-5.23-.35l-.28-.21"/>
          </g>
          <g>
            <path class="cls-2" d="m51.65,140.33l2.33,2.33c0,.18-.36,2.15-.9,3.58-.36.54,1.07,0,1.07,0l.9-1.97s-.18,1.97.36,2.87,1.08.18,1.08.18c0,0-.36-1.07,0-2.15.18-.89,1.43,1.44,1.43,1.44l1.08-.36-1.97-3.04,6.27.18v1.61s1.43.36,1.43.36v-1.97s3.04-.18,3.04-.18l.18,1.79h1.25s0-1.61,0-1.61l9.85.72c1.79,0-2.86-5.56-3.58-5.56-1.61-.17-6.08-.35-7.34-.89-1.07-.36-2.87.89-6.62.72l-4.83-.36-.9-2.33s-1.79-.71-1.43,2.14c0,.18,0-.36-.36-1.25,0-.35-.18-.9-.54-1.43s-1.79,5.19-1.79,5.19h0Z"/>
            <path class="cls-2" d="m91.94,140.86c-.72.36-4.12-1.62-5.55-1.43-1.43,0-4.83-.36-4.83-.36l-2.34.72-.53,2.33.9,1.61s-1.44,1.25-1.44,1.61c-.18.35.72,1.25.72,1.25,0,0,1.07-1.79,1.79-1.79.53,0-.9,1.97-.54,2.51.54.72,1.07.18,1.07.18l.72-1.79.17,1.97,1.08.36s-.36-2.87.36-2.87c.9,0,6.45.54,6.99.54.72.01,1.44-4.82,1.44-4.82h0Z"/>
          </g>
          <g>
            <g>
              <path class="cls-24" d="m75.9,118.98c-5.55-50.76-21.34-85.46-22.69-88.55-1.35-3.15,4.99-3.97,5.36-2.05.44,1.91,15.31,34.53,22.54,87.63-.01,2.51-5.2,2.97-5.2,2.97h0Z"/>
              <path class="cls-12" d="m74.76,120.59c2.98-36.98,4.18-107.14,3.98-110.7-.28-3.58,5.72-1.05,5.54.89-.26,2.01.59,70.61-5.2,107.63-.77,2.33-4.32,2.18-4.32,2.18Z"/>
              <path class="cls-16" d="m75.33,122.72c1.13-50.36-5.25-64.89-5.96-68.36-.7-3.47,5.77-1.89,5.73.07.02,1.96,9.49,30.28,5.81,67.15-.49,2.41-5.59,1.14-5.59,1.14h0Z"/>
              <path class="cls-29" d="m80.37,143.79s-8.12-27.27-5.92-27.91c2.14-.71,7.96,1.32,7.22,3.16-.67,1.84-3.27,17.57,1.27,25.59,4.48,7.95-2.58-.84-2.58-.84h0Z"/>
            </g>
            <g>
              <path class="cls-9" d="m74.2,128.35c-7.88-34.86-39.37-92.61-40.56-94.65-1.18-2.09,3.15-3.15,3.56-1.85.46,1.29,31.15,57.67,40.38,94.03.19,1.75-3.39,2.47-3.39,2.47Z"/>
              <path class="cls-38" d="m74.09,131c-3.2-35.12-31.54-108.71-32.31-111.07s3.87-1.77,3.99-.41c.17,1.36,31.75,84.31,32.11,110.24-.15,1.72-3.8,1.23-3.8,1.23h0Z"/>
              <path class="cls-33" d="m79.07,138.41s-7.6-11.47-6.12-12.09c1.43-.66,5.64.29,5.27,1.63-.32,1.34-.88,6.4,2.92,11.62,3.75,5.18-2.07-1.16-2.07-1.16h0Z"/>
            </g>
            <path class="cls-17" d="m80.79,145.67s.29-.59.59.2.49,1.68,1.18,1.88,1.29.1,1.29.1c0,0,.2-.4-.29-.59s-.89.2-1.29-.5-.3-1.28-.79-1.38-.69.3-.69.3Z"/>
          </g>
          <path class="cls-17" d="m55.44,143.81s.3-.59.59.2.49,1.68,1.18,1.88,1.29.1,1.29.1c0,0,.2-.39-.3-.59-.5-.2-.89.2-1.29-.49s-.29-1.28-.79-1.39c-.27-.07-.56.05-.7.3h0Z"/>
          <g>
            <g>
              <path class="cls-32" d="m52.86,115.86c-9.42-50.19-4.38-87.98-3.98-91.32.38-3.41-5.92-2.34-5.73-.41.13,1.96-4.63,37.49,3.87,90.4.74,2.4,5.84,1.33,5.84,1.33h0Z"/>
              <path class="cls-6" d="m54.43,117.06C40.84,82.54,19.33,15.76,18.49,12.28c-.78-3.51-5.78.65-5.04,2.45.83,1.85,19.93,67.74,36.2,101.49,1.41,2,4.77.84,4.77.84h0Z"/>
              <path class="cls-26" d="m54.5,119.27c-15.7-47.86-13.81-63.61-14.14-67.14-.34-3.52-6.07-.13-5.46,1.72.55,1.88-.29,31.74,13.92,65.95,1.17,2.17,5.67-.54,5.67-.54h0Z"/>
              <path class="cls-29" d="m55.79,140.9s-.14-28.46-2.44-28.42c-2.25-.06-7.23,3.56-5.99,5.12,1.17,1.57,8.23,15.86,6.21,24.86-1.99,8.91,2.22-1.55,2.22-1.55h0Z"/>
            </g>
            <g>
              <path class="cls-23" d="m49.91,127.86C40.2,100.97,9.49,58.24,8.35,56.74c-1.15-1.54,2.19-2.81,2.65-1.83.5.98,30.43,42.7,41.35,70.65.33,1.37-2.43,2.3-2.43,2.3h0Z"/>
              <path class="cls-37" d="m50.08,129.98C44.07,102.42,14.29,46.79,13.45,45s2.9-1.79,3.13-.72c.27,1.06,33.55,63.79,36.4,84.34.05,1.38-2.9,1.35-2.9,1.35h0Z"/>
              <path class="cls-21" d="m54.77,135.36s-7.17-8.36-6.06-8.99c1.07-.67,4.51-.33,4.35.77-.12,1.09-.06,5.17,3.47,8.93,3.49,3.74-1.75-.71-1.75-.71h0Z"/>
            </g>
          </g>
        </g>
      </g>
    </g>
  </g>
</svg>