<?xml version="1.0" encoding="UTF-8"?>
<svg id="Capa_2" data-name="Capa 2" xmlns="http://www.w3.org/2000/svg" viewBox="0 0 257.36 126.23">
  <defs>
    <style>
      .cls-1 {
        fill: #fff;
      }

      .cls-2 {
        fill: #a87d5c;
      }

      .cls-3 {
        fill: #64bc9c;
      }

      .cls-4 {
        fill: #71c1a6;
      }

      .cls-5 {
        fill: #d8b17a;
      }

      .cls-6 {
        fill: none;
        stroke: #af8468;
        stroke-miterlimit: 10;
      }

      .cls-7 {
        fill: #232a54;
      }

      .cls-8 {
        fill: #debd87;
      }

      .cls-9 {
        fill: #51b58f;
      }

      .cls-10 {
        fill: #af8468;
      }

      .cls-11 {
        fill: #4faf8b;
      }
    </style>
  </defs>
  <g id="Capa_1-2" data-name="Capa 1">
    <g>
      <g>
        <path class="cls-1" d="m209.6,126.23c-2.95,0-6.62-.56-12.29-1.88h-.03s0,0,0,0c-1.6-.37-3.35-.8-5.27-1.29l-.21-.05c-1.8-.46-3.85-.99-6.07-1.58l-3.29-.88c-.8-.22-1.62-.46-2.44-.73l-.38-.13.19.07c-.38-.12-.78-.27-1.18-.41l-.22-.08c-.51-.18-.93-.34-1.36-.5-.46-.18-.95-.37-1.44-.58-.43-.18-.88-.37-1.33-.56-.47-.2-.96-.42-1.45-.64-.44-.2-.89-.42-1.35-.63-.5-.24-.97-.46-1.45-.7l-.25-.12c-.16-.08-.61-.32-.61-.32-.79-.41-1.63-.84-2.47-1.3-.3-.16-1.11-.61-1.11-.61-.73-.41-1.46-.82-2.21-1.25l-.63-.36c-.16-.09-.65-.39-.65-.39-.66-.39-1.33-.8-2.01-1.22l-1.2-.74c-.75-.47-1.5-.95-2.25-1.44l-.92-.6c-.98-.64-1.9-1.26-2.82-1.89l-.7-.47c-3.14-2.15-6.51-4.59-9.95-7.2,0,0-1.92-1.46-2.58-1.98-.43-.04-.86-.08-1.29-.13-.76-.08-1.53-.16-2.3-.25-.39-.05-1.73-.23-1.73-.23-.48-.07-.96-.13-1.43-.2-.49-.07-.98-.15-1.47-.23-.57-.09-1.1-.18-1.62-.27-.5-.09-.98-.17-1.47-.26-.54-.1-1.05-.2-1.56-.3-.45-.09-.92-.18-1.38-.28-.54-.11-1.85-.4-1.85-.4l-1.02-.23c-.56-.13-1.1-.26-1.64-.39l-1.14-.28c-.88-.22-1.75-.45-2.6-.67l-1.06-.29c-.53-.14-1.05-.29-1.56-.44,0,0-2.03-.59-2.52-.74l-1.03-.32c-.46-.14-2.35-.75-2.35-.75l-2.25-.75-2.16-.75c-.66-.23-1.34-.47-1.99-.71-.67-.24-1.32-.48-1.95-.72,0,0-1.5-.58-1.88-.73l-1.9-.77-1.7-.72-1.54-.69-2.07-.98c-.42-.21-.86-.43-1.28-.64-1.51-.78-2.89-1.56-4.14-2.34-5.66,9.71-10.74,21.22-9.99,27.66.3,2.56.26,4.74-.11,6.66-1.15,5.9-5.72,9.86-11.37,9.86-.73,0-1.48-.07-2.21-.21-.85-.16-1.76-.43-2.64-.8-1.69-.71-3.31-1.78-4.98-3.26-1.18-1.05-2.38-2.33-3.59-3.81-.73-.89-1.46-1.86-2.19-2.89-1.07-1.51-2.1-3.14-3.09-4.85-.67-1.15-1.3-2.34-1.89-3.52-.62-1.23-1.19-2.48-1.71-3.71-.55-1.3-1.04-2.6-1.48-3.86-1.54-4.54-2.29-8.76-2.21-12.54.08-4.03.84-8.47,2.26-13.21.47-1.57,1.02-3.19,1.63-4.83.55-1.46,1.16-2.98,1.83-4.5.06-.14.12-.28.18-.42-6.04-.65-11.37-2.11-15.93-4.36-.67-.33-1.3-.66-1.91-.99l-.35-.19c-.56-.31-1.12-.63-1.66-.94l-.39-.23c-.45-.27-.97-.59-1.46-.91l-.12-.08c-.47-.3-.91-.6-1.34-.9l5.54-8.25-5.73,8.12c-.47-.33-.87-.62-1.27-.91l-.23-.17c-.4-.3-.76-.57-1.11-.84l5.96-7.95-6.07,7.87-1.08-.85-.62-.49c-2.9-2.33-3.43-2.75-5.86-2.98-.22-.02-.46-.04-.7-.05l.17-3.38L.64,37.96l-.07-.38.03.15-.19-1.19-.11-.86c-.06-.53-.13-1.23-.19-2.02l-.02-.25c-.02-.33-.04-.65-.05-.98v-.39c-.02-.28-.03-.64-.03-1.01v-.61c0-.37.01-.72.02-1.07v-.06c.02-.62.06-1.18.1-1.75v-.05c.05-.52.1-1.06.17-1.6l.04-.27c.07-.56.15-1.03.23-1.51l.08-.43c.09-.49.2-.99.32-1.5l.08-.34c.34-1.39.76-2.71,1.25-3.97l.15-.37-.07.18c.21-.53.44-1.07.69-1.6.05-.12.11-.24.16-.35l.02-.02c.89-1.82,1.96-3.53,3.21-5.08h0c.16-.2.32-.39.49-.58.21-.25.42-.5.64-.74.2-.22.43-.45.65-.67.42-.42.76-.75,1.13-1.08.38-.34.76-.68,1.18-1.01.27-.21.53-.41.8-.6l5.94,7.97-5.81-8.06c.27-.2.54-.4.83-.59.32-.21.62-.4.93-.59.33-.2.63-.38.95-.56.35-.19.69-.37,1.04-.55.34-.17.66-.33.99-.48.37-.17.73-.33,1.11-.49.33-.13.69-.27,1.05-.4l.11-.04c.28-.1.55-.2.84-.3.11-.04.23-.08.34-.12h0s0,0,0,0c2.29-.73,4.74-1.23,7.29-1.49.9-.09,1.85-.16,2.89-.21h.47c.67-.04,1.32-.05,1.97-.05l1.1.02c.65.01,1.32.04,1.99.08l.78.05c.67.05,1.32.1,1.96.17l.75.08c.68.08,1.35.17,2.03.27l.54.08c.84.13,1.65.28,2.46.44h.07c1.64.34,3.29.73,5.04,1.21l.41.12c.61.17,1.29.36,1.96.56l.5.15c.6.18,1.23.38,1.86.59l.45.15c.62.21,1.27.42,1.9.65l.31.11c1.21.43,2.43.88,3.63,1.33h0s.02.02.02.02h0c1.21.45,2.41.92,3.6,1.38l1.61.64c5.71,2.25,11.14,4.4,15.49,4.99.09-.06.71-.43.71-.43.23-.14.51-.29.79-.45l.51-.27c.24-.13.5-.26.77-.4.12-.06.29-.14.45-.22.26-.12.51-.24.77-.36l.51-.23c.28-.12.9-.38.9-.38l.5-.2c.29-.11.61-.24.94-.36l.54-.2c2.71-.96,5.77-1.77,9.1-2.41h0c.13-.03.28-.06.42-.08.36-.07.84-.15,1.33-.23.36-.06.66-.11.97-.16.46-.07.96-.14,1.47-.21.35-.05.72-.1,1.09-.15.48-.06.97-.12,1.47-.17.42-.05.82-.09,1.24-.13.51-.05,1.02-.1,1.54-.14.43-.04.88-.07,1.34-.11.53-.04,1.05-.07,1.59-.1.49-.03.97-.05,1.46-.08.57-.03,1.12-.05,1.67-.07.54-.02,1.06-.03,1.59-.05.56-.01,1.14-.02,1.73-.03.55,0,1.11,0,1.68,0s1.2,0,1.81.01h.84s0,.01,0,.01c1.05.02,2.13.04,3.23.08h0c.48.01.96.03,1.45.05l1.51.07c1.06.05,2.14.12,3.23.19l1.36.1c.88.07,1.77.14,2.67.21l1.2.1c1.27.12,2.57.25,3.9.39l1,.11c1.09.12,2.21.25,3.35.39l1.23.16c1.46.19,2.95.39,4.47.61,1.45.21,2.88.44,4.29.69.36.06,1.47.28,1.47.28.9.17,1.8.34,2.68.53.59.12,1.15.25,1.72.37.8.18,1.57.36,2.34.54l.19.04c.52.13,1.05.25,1.57.39l.52.13.04.02c1.3.34,2.59.69,3.86,1.06h0c.43.12.84.25,1.26.38l.42.13c1.06.33,2.11.67,3.15,1.02l.22.07c.55.18,1.1.37,1.64.56.57.2,1.12.41,1.66.61l.12.04c.57.21,1.16.43,1.73.65.55.22,1.11.43,1.66.66.62.25,1.21.5,1.8.75,0,0,1.11.47,1.49.64.79.35,1.56.7,2.33,1.05.42.2.85.39,1.27.59.86.41,1.7.82,2.52,1.23.32.16,2.05,1.06,2.33,1.2l.03.03c2.31,1.23,4.56,2.52,6.69,3.83l.44.27-.11-.07c1.17.72,2.37,1.5,3.54,2.29l.65.45c.94.64,1.89,1.31,2.81,1.97l.71.51c2.06,1.51,4.08,3.09,6,4.71l.63.53c.8.68,1.57,1.35,2.31,2.01l.36.32c.82.74,1.62,1.49,2.39,2.22l.48.47c.6.58,1.2,1.17,1.78,1.76l.48.49c.67.69,1.33,1.37,1.94,2.04h0c1.39,1.51,2.72,3.04,3.97,4.57l.2.25c.37.45.67.83.95,1.19l.25.31c.3.38.57.74.82,1.07l.08.1c.6.8,1.04,1.43,1.39,1.92,1.27,1.83,1.94,3.91,2.05,6.01l.79.42,1.24.66c.48.26,1.47.81,1.47.81.49.28,1.41.8,1.41.8.51.29,1.04.59,1.56.9l.05.03s1.02.6,1.53.9l1.65,1c5.38,3.31,9.4,6.24,11.95,8.7,3.12,3,4.25,7.44,2.95,11.57-1.3,4.14-4.77,7.13-9.05,7.81-1.85.29-4.69.68-7.73.84-.84.04-1.69.07-2.54.07h-.25c-.84,0-1.68-.02-2.5-.07h-.1s0,0,0,0c-.96-.06-1.91-.16-2.8-.29h-.08c-1.06-.18-2.07-.4-3.01-.67-1.21-.35-2.26-.76-3.23-1.26-1.29-.66-2.52-1.44-3.75-2.41h0c-.13-.1-.77-.63-.94-.77-.15-.12-.57-.5-.57-.5l-1.86-1.71-.19-.17-.27-.22-.17-.12-.24-.14c-.22-.1-.68-.26-1.54-.4l-.22-.04c-.27-.04-.55-.06-.83-.08l-.26-.02c-.4-.03-.8-.05-1.24-.05-.68,0-1.4-.05-2.2-.13l-.47-.05c-.24-.03-.48-.06-.71-.09.17.33.35.66.52.97l.31.56c.17.3.36.63.54.95l.33.54c.21.35.38.63.55.9l.4.63,1.14,1.7c.57.83,1.13,1.62,1.67,2.38,1.66,2.33,3.37,4.75,4.79,7.44l.16.31c.4.77.79,1.62,1.13,2.47.05.13.12.3.18.47.4,1.04.71,1.97.95,2.87v.02c.17.61.3,1.17.4,1.71l.06.32c.11.62.19,1.27.24,1.9l.02.33c.04.89.02,1.69-.07,2.47l-.02.11h0c-.31,2.39-1.24,4.57-2.7,6.34l-.16.18h0s-.05.05-.05.05h0c-.79.91-1.71,1.7-2.74,2.34l-.18.11c-1.62.97-3.48,1.59-5.55,1.85l-.03-.29h-.01s.03.29.03.29c-.76.09-1.54.14-2.39.14Z"/>
        <g>
          <g>
            <path class="cls-8" d="m84.14,63.45s.25,6.06,21.64,13.8c21.38,7.74,63.13,19.45,102.22-11.4,0,0-8.09.92-16.34-1.53-8.25-2.44-28.56-12.18-51.62-7.59-23.06,4.59-19.35,7.99-35.48,6.31-16.14-1.68-20.41.41-20.41.41Z"/>
            <path class="cls-5" d="m191.93,76.19c-26.44-10.23-54.45-.19-73.93-.99-10.61-.43-18.4-1.66-23.37-2.72,2.86,1.48,6.51,3.08,11.15,4.76,18.47,6.68,52.13,16.32,86.16-1.05Z"/>
            <path class="cls-4" d="m10.52,35.73S5.64,12.13,28.09,9.84c22.45-2.29,41.39,14.43,56.97,12.94l86.49,26.36s-17.16,21.79-42.05,19.8c-24.89-1.99-30.7-7.64-45.36-5.5,0,0-20.01,27.64-18.07,44.34,1.93,16.7-17.97-9.06-17.67-23.88.23-10.93,7.04-23.88,10.6-29.92.81-1.38-.26-3.11-1.86-2.99-5.63.43-16.14.52-24.33-3.52-11.76-5.8-11.86-11.23-22.3-11.76Z"/>
            <path class="cls-11" d="m217.77,59.86s2.27,5.65,8.3,8.63c5.18,2.56,16.5,9.05,21.06,13.44.84.81.39,2.23-.77,2.41-4.06.65-12.21,1.59-16.17-.43-5.4-2.75-5.3-7.56-16.5-7.71-11.2-.15-28.38-14.2-28.38-14.2l32.45-2.14Z"/>
            <path class="cls-3" d="m26.86,33.92c9.93,3.48,35.46,8.18,36.51-16.24-10.62-4.18-22.37-9.16-35.29-7.84-22.45,2.29-17.56,25.89-17.56,25.89,0,0,7.46-4.92,16.34-1.81Z"/>
            <path class="cls-9" d="m37.4,11.42s-15.83-4.38-11.3,12.12c0,0,16.49,2.34,11.3-12.12Z"/>
            <path class="cls-9" d="m24.06,25.98c-4.73-1.43-3.88-7.09-8.23-7.13-1.39-.01-2.57.38-3.53.91-3.56,7.33-1.77,15.97-1.77,15.97,0,0,7.46-4.92,16.34-1.81,3.88,1.36,10.14,2.91,16.4,2.83-6.02-11.41-14.62-9.4-19.2-10.77Z"/>
            <path class="cls-7" d="m11.01,36.26s.01,0,.02-.01c.02-.03.05-.06.08-.09l-.09.1Z"/>
            <path class="cls-7" d="m35.74,13.11s-9.42-1.69-7.97,8.46c0,0,10.28-.59,7.97-8.46Z"/>
            <path class="cls-3" d="m102.29,52.28c-19.95,7.48-27.26-9.85-39.79-8.84-9.64.78-20.87,1.63-29.93-1.12-4.49-1.36-7.83-1.67-10.06-1.64,2.46,1.97,5.35,4.35,10.31,6.8,8.19,4.04,18.7,3.95,24.33,3.52,1.6-.12,2.67,1.61,1.86,2.99-3.56,6.04-10.38,18.99-10.6,29.92-.31,14.81,19.6,40.57,17.67,23.88-1.93-16.7,18.07-44.34,18.07-44.34,14.09-2.05,20.01,3.08,42.53,5.25,1.04-11.48,1.91-20.21,1.91-20.21,0,0-6.35-3.69-26.29,3.79Z"/>
            <g>
              <path class="cls-2" d="m84.03,22.86s10.95-13.01,63.79-5.38c47.06,6.8,69.9,36.35,74.33,42.73.5.72.37,1.72-.32,2.27-2.69,2.16-10.43,6.68-25.85,3.67-19.85-3.87-29.22-10.18-41.64-9.27-12.42.92-55.9-21.48-55.9-21.48,0,0-4.19-8.18-14.41-12.54Z"/>
              <path class="cls-6" d="m104.95,40.73l2.56-17.07c.17-1.16,1.17-2.02,2.35-2,4.12.06,13.56.68,20.13,4.93.96.62,1.33,1.85.88,2.9-1.01,2.34-2.77,6.75-3.77,11.1-.24,1.02-1.11,1.77-2.16,1.83l-17.53,1c-1.49.09-2.68-1.22-2.46-2.7Z"/>
              <path class="cls-10" d="m133.17,33.18l1.6-3.85c.22-.53.78-.83,1.34-.71,3.11.67,12.91,2.95,16.92,5.78.9.64,1.1,1.88.47,2.79-1.09,1.57-2.84,4.37-3.9,7.53-.31.92-1.29,1.43-2.21,1.1-1.37-.49-3.26-1.46-4.57-3.35-1.84-2.64-7.2-6.48-9.23-7.88-.46-.32-.63-.91-.42-1.43Z"/>
              <path class="cls-10" d="m152.25,45.99c.46-2.11,1.81-6.63,5.12-8.58.51-.3,1.15-.3,1.68-.04,2.8,1.37,12.16,5.88,16.83,7.35.66.21,1.15.77,1.26,1.45.14.88.3,2.13.29,3.29,0,.88-.63,1.63-1.49,1.8-3.95.75-15.66,2.32-23.03-3.43-.56-.43-.81-1.15-.66-1.84Z"/>
              <path class="cls-10" d="m182.53,47.66c-.98.14-1.74.87-1.91,1.78-.26,1.45-.37,3.6.92,4.87,1.63,1.6,11.31,3.15,16.77,1.81,1.86-.46,2.36-2.72.84-3.82-3.21-2.33-9.32-5.71-16.63-4.64Z"/>
              <g>
                <path class="cls-10" d="m104.35,22.59c.75-.52.58-1.67-.3-1.94-3.67-1.12-9.22-1.73-12.45-2.01-5.76,2.05-7.58,4.22-7.58,4.22,5.72,2.44,9.54,6.07,11.81,8.8,1.71-3.96,6.05-7.37,8.52-9.06Z"/>
                <path class="cls-10" d="m120.46,15.1c-9.02-.15-15.92.52-21.17,1.52,1.62,1.18,4.88,3.06,9.54,3.41,6.26.46,10.82.29,11.63-4.93Z"/>
                <path class="cls-10" d="m126.55,21.75c2.14.44,5.33,1.37,7.38,3.27.35.32.77.55,1.23.68.83.22,2.44.63,5.42,1.33,4.65,1.08,20.69,7.15,28.64,10.69.88.39,1.8-.47,1.46-1.37-1.38-3.7-4.46-10.85-9.17-16.11-4.32-1.12-8.88-2.06-13.7-2.76-9.35-1.35-17.39-2.05-24.29-2.3.2,1.17.42,2.62.58,3.92.16,1.32,1.14,2.38,2.44,2.65Z"/>
                <path class="cls-10" d="m176.58,41.21c2.14,1.14,9.08,4.55,14.89,4.31,1-.04,1.67-1.06,1.33-2.01-1.03-2.89-3.26-8.77-5.94-13.43-6.33-3.37-13.57-6.44-21.73-8.84,3,4.1,9.58,13.52,10.68,18.94.09.44.37.82.77,1.03Z"/>
                <path class="cls-10" d="m197.91,46.09c1.89,1.61,11.51,3.68,17.45,5.79-4.89-5.28-12.21-12.01-22.24-18.21.89,3.48,2.94,10.84,4.79,12.42Z"/>
                <path class="cls-10" d="m202.54,52.84c-.32.88-.69,2.33-.27,3.58.61,1.83,11.28,5.08,19.45,3.17-.86-1.2-2.17-2.93-3.95-5.01-4.06-.51-11.69-1.52-14.2-2.27-.43-.13-.88.11-1.03.53Z"/>
              </g>
            </g>
            <path class="cls-3" d="m107.96,24.5c-10.03,2.5-17.03,11.84-4.35,25.28,12.68,13.44,56.53,54.14,81.58,60.86,25.05,6.72,30.14,7.53,28.1,0-1.88-6.95-7.46-11.21-12.33-21-.86-1.72-2.18-3.17-3.83-4.16-9.74-5.86-43.71-26.68-52.66-36.94-10.49-12.01-25.45-26.78-36.5-24.03Z"/>
            <path class="cls-4" d="m20.47,16.85l1.89-2.12c.35-.39.99-.09.91.43-.2,1.21-.42,2.8-.45,4.06,0,.48-.6.69-.91.34-.59-.67-1.27-1.53-1.54-2.16-.08-.18-.03-.39.1-.54Z"/>
            <path class="cls-4" d="m40.07,12.36c1,.62,3.13,1.93,4.86,2.99.2.12.16.41-.06.48-.99.31-3.1.9-4.46.81-.13,0-.23-.11-.24-.24-.07-.66-.29-2.68-.5-3.76-.04-.23.2-.4.4-.28Z"/>
            <path class="cls-4" d="m40.51,18.32c.06-.2,1.6,1.02,2.83,2.3.61.63.75,1.59.34,2.37-.31.61-.79,1.22-1.48,1.38-1.01.24-2.62-.54-3.52-1.05-.36-.2-.46-.67-.23-1.01.56-.8,1.51-2.3,2.05-4Z"/>
            <path class="cls-4" d="m46.33,16.11c1.89-.13,6.79-.23,8.4,2.15.16.24.17.55.02.79-.32.49-.98,1.32-1.96,1.58-.15.04-.31.01-.45-.06-.9-.48-4.38-2.4-6.19-3.88-.23-.19-.11-.56.18-.58Z"/>
            <path class="cls-4" d="m44.69,18.76s4.27.16,5.89,2.45c.14.2.13.46-.05.62-.55.52-1.88,1.65-3.21,1.81-.16.02-.32-.06-.42-.19-.51-.71-2.12-3.06-2.21-4.6"/>
            <path class="cls-4" d="m34.35,26.41s3.74-1.28,4.41-1.7c.67-.42,3.38,1.22,3.12,3.43s-3.82,2.29-7.53-1.73Z"/>
            <path class="cls-4" d="m45.53,24.33c.77.32,2.41,1.14,2.97,2.49.15.36.04.78-.23,1.06h0c-.27.28-.66.4-1.04.3-1.02-.27-2.98-.88-3.26-1.62-.27-.71.4-1.6.83-2.07.18-.2.47-.27.72-.16Z"/>
            <path class="cls-4" d="m54.63,21.26c.65-.45,1.77-1.24,2.48-1.81.17-.14.4-.16.6-.07.56.27,1.6.9,1.48,1.82-.16,1.15-2.93,2.52-4.64.93-.26-.24-.2-.67.09-.87Z"/>
            <path class="cls-4" d="m51.42,26.99c.58-.47,1.56-1.14,2.79-1.55.52-.18.67-.84.27-1.22-.67-.64-1.65-1.33-2.59-1.14-1.46.29-2.61,1.8-1.57,3.68.22.4.75.52,1.11.23Z"/>
            <path class="cls-4" d="m44.59,32.25c.74-.06,1.93-.08,3.18.26.53.14,1.02-.33.9-.86-.21-.9-.63-2.02-1.52-2.39-1.38-.57-3.17.05-3.35,2.18-.04.46.33.85.79.81Z"/>
            <g>
              <path class="cls-4" d="m17.73,16.3c.78.11,1.55-.24,2.02-.86.87-1.15,2.15-2.93,3.05-4.53-3.85,1.22-6.56,3.24-8.47,5.61,1.02-.2,2.34-.37,3.4-.22Z"/>
              <path class="cls-4" d="m47.97,14.72c.66-.3,1.95-.93,3.06-1.67-3.25-1.08-6.6-2-10.04-2.61,1.38,1.24,3.56,2.99,6.09,4.27.28.14.6.14.89.01Z"/>
              <path class="cls-4" d="m60.15,16.41c-2.32-.91-4.68-1.82-7.11-2.67.06.53.21,1.05.47,1.53,1.04,1.92,4.24,2.81,6.63,1.14Z"/>
            </g>
            <g>
              <path class="cls-3" d="m209.46,102.96c-2.47-3.64-5.61-7.5-8.51-13.32-.86-1.72-2.18-3.17-3.83-4.16-9.74-5.86-43.71-26.68-52.66-36.94-10.49-12.01-25.45-26.78-36.5-24.03-4.24,1.05-7.93,3.33-9.83,6.62,6.12-4.49,9.97-.35,6.45,2.75-2.65,2.33-4.74,5.94-6.12,8.83.29.58.63,1.16.99,1.76.76-1.08,1.69-2.18,2.86-3.28,7.05-6.64,11.96-2.02,8.13,1.35-2.48,2.18-4.47,5.49-5.85,8.27.37.38.76.78,1.16,1.2,1.46-2.11,3.61-4.35,6.77-6.37,9.72-6.2,14.43.29,9.2,3.38-3.79,2.24-7.18,6.28-9.45,9.43.54.52,1.09,1.04,1.65,1.57,1.44-3,4.61-7.46,11.41-10.55,11.14-5.06,15.12,2.46,9.16,4.93-6.13,2.54-11.95,9.01-14.13,11.62.8.73,1.62,1.47,2.45,2.22,1.77-2.21,4.46-4.58,8.54-6.43,10.51-4.77,14.27,2.32,8.64,4.65-3.94,1.63-7.75,4.99-10.43,7.74,1.52,1.31,3.07,2.64,4.65,3.96,2.14-2.91,6.37-6.97,14.13-8.91,12.83-3.21,15.6,5.56,8.78,7.03-5.77,1.24-11.83,5.34-15.37,8.06,1.08.86,2.17,1.72,3.26,2.57,1.91-1.81,5.32-4.84,8.58-6.74,1.61-.94,3.6-.93,5.21.02,2.42,1.42,5.62,3.8,4.89,6.18-.93,3.02-1.7,7.64-5.55,10.19,1.14.78,2.27,1.54,3.4,2.28,4.01-3.2,5.19-11.54,5.19-11.54,0,0,6.97,1.81,8.62,6.88,1.3,4-4.8,7.38-7.43,8.63,2.2,1.3,4.36,2.48,6.46,3.53,3.94-4.21,4.74-13.05,4.74-13.05,0,0,8.15,1.68,10.33,7.43,1.43,3.76-3,7.32-6.25,9.34.67.22,1.33.42,1.97.59,1.12.3,2.19.59,3.23.86,2.16-1.97,4.82-4.9,5.73-8.09,0,0,14.72-1.53,13.13,12.4,1.5.18,2.7.22,3.64.11-.08-1.55-.42-3.47-1.35-5.54-1.5-3.35-.76-6.02-.11-7.43Z"/>
              <path class="cls-4" d="m194.15,103.41c-.91,3.19-3.57,6.12-5.73,8.09,8.85,2.35,14.91,3.83,18.87,4.31,1.59-13.94-13.13-12.4-13.13-12.4Z"/>
              <path class="cls-4" d="m213.29,110.64c-.76-2.82-2.14-5.2-3.82-7.68-.65,1.4-1.39,4.08.11,7.43.93,2.07,1.27,3.99,1.35,5.54,2.79-.34,3.24-2.04,2.37-5.28Z"/>
              <path class="cls-4" d="m189.46,100.71c-2.19-5.75-10.33-7.43-10.33-7.43,0,0-.8,8.84-4.74,13.05,3.1,1.56,6.06,2.82,8.83,3.72,3.25-2.02,7.68-5.58,6.25-9.34Z"/>
              <path class="cls-4" d="m175.36,94.17c-1.64-5.07-8.62-6.88-8.62-6.88,0,0-1.18,8.34-5.19,11.54,2.16,1.41,4.29,2.75,6.38,3.98,2.63-1.25,8.72-4.63,7.43-8.63Z"/>
              <path class="cls-4" d="m163.7,86.36c.73-2.38-2.47-4.76-4.89-6.18-1.61-.94-3.6-.96-5.21-.02-3.26,1.9-6.67,4.93-8.58,6.74,4.36,3.39,8.78,6.66,13.13,9.64,3.85-2.55,4.63-7.17,5.55-10.19Z"/>
              <path class="cls-4" d="m148.36,69.25c-7.76,1.94-12,6-14.13,8.91,2.46,2.07,4.99,4.14,7.54,6.18,3.55-2.73,9.61-6.83,15.37-8.06,6.82-1.46,4.05-10.23-8.78-7.03Z"/>
              <path class="cls-4" d="m140,66.46c5.62-2.33,1.86-9.42-8.64-4.65-4.07,1.85-6.77,4.22-8.54,6.43,2.16,1.94,4.42,3.94,6.75,5.96,2.68-2.75,6.48-6.11,10.43-7.74Z"/>
              <path class="cls-4" d="m134.51,54.41c5.96-2.47,1.98-9.98-9.16-4.93-6.8,3.09-9.97,7.55-11.41,10.55,1.99,1.89,4.15,3.9,6.44,5.99,2.18-2.61,8-9.08,14.13-11.62Z"/>
              <path class="cls-4" d="m121.73,49.03c5.23-3.09.52-9.58-9.2-3.38-3.16,2.02-5.31,4.26-6.77,6.37,1.82,1.86,4.02,4.04,6.52,6.44,2.26-3.15,5.65-7.19,9.45-9.43Z"/>
              <path class="cls-4" d="m110.44,42.54c3.83-3.37-1.07-7.99-8.13-1.35-1.16,1.1-2.1,2.2-2.86,3.28,1.04,1.69,2.4,3.46,4.15,5.31.31.33.64.68.99,1.04,1.38-2.78,3.37-6.09,5.85-8.27Z"/>
              <path class="cls-4" d="m104.58,33.88c3.52-3.1-.33-7.24-6.45-2.75-1.76,3.05-1.99,6.96.33,11.58,1.38-2.89,3.47-6.5,6.12-8.83Z"/>
            </g>
            <path class="cls-4" d="m197.2,90.11c-.66.95-1.63,2.15-2.7,2.81-.46.28-.72.78-.66,1.31.14,1.16.33,3.14.21,4.53-.06.74.5,1.38,1.24,1.43,1.58.11,4.05.34,6,.85.98.25,1.87-.64,1.62-1.62-.68-2.71-1.93-6.97-3.5-9.29-.53-.79-1.68-.78-2.22,0Z"/>
            <path class="cls-4" d="m195.06,89.28l-2.51,2.43c-.17.17-.3.38-.37.61-.19.61-.65,1.93-1.45,3.16-.5.77-1.59.86-2.23.21-.97-1-2.58-2.46-4.77-3.67-.62-.34-.9-1.08-.66-1.74.55-1.5,1.68-4.17,3.58-6.59.38-.49,1.04-.68,1.63-.47,1.67.61,5.1,2.03,6.86,4.08.5.58.47,1.45-.08,1.98Z"/>
            <path class="cls-4" d="m175.42,89.04c.08.06.17.11.26.14.67.23,3.55,1.13,4.87.28,1.12-.72,1.72-2.78,1.95-3.78.08-.34-.03-.7-.28-.94-1.11-1.04-4.34-3.86-7.18-4.22-.21-.03-.43.03-.61.14-.66.41-2.43,1.47-4.59,2.4-.69.3-.8,1.23-.2,1.67l5.78,4.29Z"/>
            <path class="cls-4" d="m167.93,81.78c.98-.54,2.19-1.26,3.15-1.99.88-.67,1.09-1.9.49-2.83-.75-1.15-1.9-2.69-3.2-3.51-.67-.43-1.53-.42-2.21,0-1.02.62-2.64,1.78-3.65,3.35-.68,1.06-.32,2.47.79,3.05.65.33,1.39.81,1.99,1.46.68.74,1.76.96,2.64.47Z"/>
            <path class="cls-4" d="m156.56,65.55s5.51,1.75,6.41,5.09c.11.43.59.65.99.46.42-.2.95-.5,1.52-.95.67-.53.73-1.52.13-2.12-1.37-1.37-3.97-3.61-6.65-3.9,0,0-1.79-.31-2.41,1.41Z"/>
            <path class="cls-4" d="m145.76,64.49c.39-.85.77-1.89.86-2.83.06-.62.58-1.09,1.2-1.03,2.26.21,6.77.85,7,2.72.22,1.8-5.02,2.46-7.98,2.69-.83.06-1.42-.79-1.07-1.55Z"/>
            <path class="cls-4" d="m140.51,54.94c.58-.5,1.23-1.14,1.61-1.81.25-.44.8-.61,1.24-.35,1.61.93,4.74,2.96,4.27,4.43-.46,1.42-4.59.1-6.86-.74-.64-.24-.78-1.08-.26-1.52Z"/>
            <path class="cls-4" d="m133.33,44.94c1.29.53,3.92,1.8,5.12,3.72.16.26.56.17.57-.13.06-1.28-.07-3.29-1.36-4.1-1.36-.85-3.26-.41-4.31-.06-.27.09-.29.46-.02.57Z"/>
            <path class="cls-4" d="m123.25,42c.73.66,1.79,1.89,2,3.65.05.39.51.56.77.27.65-.69,1.65-1.54,2.81-1.73.29-.05.47-.34.35-.61-.44-1.06-1.83-3.13-5.73-2.35-.36.07-.49.53-.22.77Z"/>
            <path class="cls-4" d="m114.78,41.6c-.58-.31-.9-.94-.82-1.59.16-1.37.8-3.6,3.28-3.78,2.43-.18,5.44,1.12,7.15,1.98.31.16.19.64-.16.62-2.13-.08-5.83.08-6.23,2.05-.38,1.9-2.13,1.29-3.21.72Z"/>
            <path class="cls-4" d="m109.45,34.65c.63.19,1.29.49,1.76.94.3.28.73.36,1.11.21,1.33-.55,4.35-1.59,7.3-1.18.28.04.41-.33.17-.47-2.21-1.36-7.15-3.83-10.68-1.35-.71.5-.49,1.6.34,1.86Z"/>
            <path class="cls-4" d="m105.96,27.94c.72.47,1.57,1.19,1.82,2.11.08.31.39.49.7.43,1.28-.25,4.28-.77,6.67-.56.58.05.89-.68.45-1.06-1.7-1.49-4.96-3.45-9.48-2.02-.5.16-.6.81-.16,1.1Z"/>
            <path class="cls-4" d="m122.74,32.48c.56.65,3.08,3.48,6.47,5.75.12.08.27.1.41.06.24-.07.7-.17,1.34-.14.45.02.67-.54.35-.85-1.85-1.81-5.65-5.41-7.96-6.77-.33-.19-.74.05-.74.43v1.2c0,.12.04.23.12.32Z"/>
            <path class="cls-4" d="m136.04,42.38c-.79-.01-2.55,0-4.29.34-.15.03-.31-.06-.36-.21-.15-.47-.52-1.47-1.18-2.21-.17-.19-.03-.49.22-.5,1.15-.07,3.39-.11,4.41.46.9.51,1.32,1.25,1.5,1.71.08.2-.08.42-.3.42Z"/>
            <g>
              <path class="cls-3" d="m234.99,80.73c-.45-.47-1.23-.34-1.51.25-.49,1.06-1.18,2.35-1.82,3.5,2.24.65,5.18.74,7.99.59-1.81-1.45-3.6-3.23-4.67-4.34Z"/>
              <path class="cls-3" d="m229.55,78.34c-.93-.46-3.66-1.91-5.46-3.95-.27-.31-.79-.17-.87.24-.18.91-.49,2.21-.9,3.3,2.47,1.28,3.77,3.06,5.74,4.6.8-1.14,1.57-2.47,1.77-3.65.04-.23-.07-.45-.27-.56Z"/>
              <path class="cls-3" d="m214.49,69.71c-2.56-.73-5.47,3.26-6.87,5.35,2.12.68,4.18,1.11,6.07,1.14,1.82.02,3.33.17,4.63.42,1.27-3.19-1.25-6.17-3.83-6.91Z"/>
              <path class="cls-4" d="m227.39,73.15c3.63,1.86,7.09,4.06,9.47,1.39-4.06-2.5-8.2-4.77-10.79-6.05-.05-.03-.1-.05-.15-.08-.64,1.59-.79,3.57,1.47,4.74Z"/>
            </g>
            <path class="cls-4" d="m53.64,88.79c1.79.87,5.13,2.97,6.02,6.82.1.45-.26.87-.72.84-1.94-.16-6.44-1.14-6.51-6.87,0-.64.64-1.07,1.21-.79Z"/>
            <path class="cls-4" d="m55.91,98.79c1.37.44,3.49,1.06,5,1.16.41.03.72.39.68.8-.12,1.09-.3,3.12-.17,4.95.05.65-.72,1.04-1.21.6-1.61-1.43-4.09-3.92-5.2-6.56-.24-.57.32-1.15.9-.96Z"/>
            <path class="cls-4" d="m58.48,87.43c-.07-.12,3-2.02,4.12-4.94.19-.51.85-.64,1.22-.24.9.96,2.17,2.72,2.3,5.18.2,3.87-5.09,4.12-7.64,0Z"/>
            <path class="cls-4" d="m54.11,73.49c-.56-.41-1.36-.17-1.63.47-.91,2.19-2.4,6.93-.05,10.31,3.15,4.53,6,.81,6.61-.56.57-1.29.21-6.48-4.93-10.22Z"/>
            <path class="cls-4" d="m56.94,73.39c1.07.98,3.22,3.19,3.59,5.41.08.47.57.75,1,.54.98-.48,2.57-1.13,4.08-1.16.47,0,.8-.48.64-.92-.92-2.59-3.86-9.03-9.26-4.93-.34.26-.36.77-.05,1.06Z"/>
          </g>
          <path class="cls-1" d="m28.4,17.48c0-.64.52-1.16,1.16-1.16s1.16.52,1.16,1.16-.52,1.16-1.16,1.16-1.16-.52-1.16-1.16Z"/>
        </g>
      </g>
      <path class="cls-7" d="m10.25,33.78c1.91.6,5.02,1.01,7.09,1.29,2.08.28,4.18.41,6.29.39,2.11-.02,4.22-.17,6.31-.51,1.99-.31,3.78-1.31,5.92-2.1-1.73,1.12-3.73,2.13-5.82,2.59-2.08.51-4.22.83-6.36,1.02-2.15.2-4.31.23-6.47.11-2.18-.12-4.47-.36-6.68-.87l-.27-1.91Z"/>
      <path class="cls-7" d="m34.59,31.14c.39-.13.79.03,1.15.19.36.17.68.44.93.76.25.33.42.71.46,1.11.07.4.02.8-.1,1.16-.09-.38-.14-.74-.27-1.07-.12-.33-.27-.64-.49-.91-.2-.28-.45-.51-.73-.74-.14-.11-.29-.21-.45-.3-.16-.09-.32-.19-.5-.22Z"/>
    </g>
  </g>
</svg>