<?xml version="1.0" encoding="UTF-8"?>
<svg id="Capa_2" data-name="Capa 2" xmlns="http://www.w3.org/2000/svg" viewBox="0 0 179.58 166.77">
  <defs>
    <style>
      .cls-1 {
        fill: #fff;
      }
    </style>
  </defs>
  <g id="Capa_1-2" data-name="Capa 1">
    <path class="cls-1" d="m0,27.46c.85-3.28,2.17-6.27,5.03-8.34,3.96-2.87,8.28-3.45,12.73-1.49,4.45,1.96,7.01,5.5,7.45,10.39.18,2.03.05,4.08.17,6.12.1,1.7.79,2.04,2.06.94,1.09-.94,2.04-2.08,2.94-3.21,9.57-11.98,21.48-20.79,35.81-26.27C79.11.64,92.51-1.23,106.2.81c32.49,4.84,55.61,22.47,67.35,53.06,11.58,30.16,6.25,58.44-14.21,83.45-12.15,14.85-28.07,24.04-46.9,27.8-5.4,1.08-10.98,1.48-16.49,1.64-7.05.2-12.73-4.58-14.27-11.33-1.46-6.39,1.77-13.19,8.06-16.03,2.31-1.04,5.05-1.44,7.62-1.54,16.16-.68,29.6-7.07,40-19.37,10.46-12.37,14.51-26.79,12.24-42.86-1.89-13.43-8.17-24.54-18.39-33.4-8.09-7.02-17.48-11.42-28.13-12.61-21.93-2.45-39.33,5.55-52.27,23.35-.67.93-1.21,2.01-1.56,3.1-.77,2.44.31,3.78,2.85,3.92,2.66.15,5.42.06,7.95.75,5.86,1.59,9.21,7.25,8.55,13.73-.56,5.39-5.48,10.15-11.1,10.7-.98.1-1.98.1-2.97.1-13.07,0-26.14-.18-39.2.08-7.2.14-13.25-2.46-15.34-10.97V27.46Z"/>
  </g>
</svg>