<?xml version="1.0" encoding="UTF-8"?>
<svg id="Capa_2" data-name="Capa 2" xmlns="http://www.w3.org/2000/svg" viewBox="0 0 74.6 208.8">
  <defs>
    <style>
      .cls-1 {
        fill: #c4e6f6;
      }

      .cls-2 {
        fill: #d1ebf4;
      }

      .cls-3 {
        fill: #8bcdef;
      }
    </style>
  </defs>
  <g id="Capa_1-2" data-name="Capa 1">
    <g>
      <path class="cls-1" d="m74.23,94.87c-.82-9.89-6.6-15.26-6.6-15.26,12.97-12.41.13-29.06-9.78-38.73-4.87-4.75-7.62-11.24-7.62-18.04v-4.52s-25.85,0-25.85,0v4.52c0,6.8-2.76,13.3-7.62,18.04-9.92,9.67-22.75,26.32-9.78,38.73,0,0-5.78,5.37-6.6,15.26-.64,7.62-.29,65.64-.1,91.9.06,8.52,5.68,15.96,13.84,18.42,6.21,1.87,14.18,3.51,23.2,3.62,9.02-.1,16.99-1.74,23.2-3.62,8.15-2.46,13.77-9.9,13.84-18.42.19-26.26.54-84.27-.1-91.9Z"/>
      <path class="cls-3" d="m1.63,88.89h71.35c-1.94-6.02-5.34-9.27-5.34-9.27,3.35-3.2,4.95-6.69,5.35-10.26H1.61c.4,3.57,2.01,7.06,5.35,10.26,0,0-3.4,3.26-5.34,9.27Z"/>
      <path class="cls-2" d="m16.23,205.19c-8.15-2.46-13.77-9.9-13.84-18.42-.19-26.25-.54-84.27.1-91.9.82-9.89,6.6-15.26,6.6-15.26-12.97-12.41-.13-29.06,9.78-38.73,4.87-4.75,7.62-11.24,7.62-18.04v-4.52s-2.12,0-2.12,0v4.52c0,6.8-2.76,13.3-7.62,18.04-9.92,9.67-22.75,26.32-9.78,38.73,0,0-5.78,5.37-6.6,15.26-.64,7.62-.29,65.64-.1,91.9.06,8.52,5.68,15.96,13.84,18.42,6.21,1.87,14.18,3.51,23.2,3.62.36,0,.7-.05,1.06-.06-8.57-.22-16.18-1.76-22.13-3.56Z"/>
      <path class="cls-3" d="m50.46,25.2c-.07-.79-.24-1.56-.24-2.35v-4.52s-25.85,0-25.85,0v4.52c0,.8-.16,1.57-.24,2.35h26.32Z"/>
      <rect class="cls-3" x="19.01" y="0" width="36.59" height="18.55" rx=".77" ry=".77"/>
      <path class="cls-3" d="m74.23,94.87c-.82-9.89-6.6-15.26-6.6-15.26,12.97-12.41.13-29.06-9.78-38.73-4.87-4.75-7.62-11.24-7.63-18.04v-4.52s-12.4,0-12.4,0c-1.96,4.71-4.07,14.97,5.35,28.95,13.16,19.53,16.14,28.45,8.92,31,0,0,4.67,106.94-2.97,129.49,4.21-.67,8.06-1.58,11.37-2.58,8.15-2.46,13.77-9.9,13.84-18.42.19-26.25.54-84.27-.1-91.9Z"/>
    </g>
  </g>
</svg>