<?xml version="1.0" encoding="UTF-8"?>
<svg xmlns="http://www.w3.org/2000/svg" viewBox="0 0 775.82 347.47">
  <defs>
    <style>
      .cls-1 {
        fill: #fff;
      }

      .cls-2 {
        fill: #a87d5c;
      }

      .cls-3 {
        isolation: isolate;
      }

      .cls-4 {
        fill: #64bc9c;
      }

      .cls-5 {
        fill: #71c1a6;
      }

      .cls-6 {
        fill: #d8b17a;
      }

      .cls-7 {
        fill: none;
        stroke: #af8468;
        stroke-miterlimit: 10;
      }

      .cls-8 {
        fill: #232a54;
      }

      .cls-9 {
        fill: #debd87;
      }

      .cls-10 {
        fill: #51b58f;
      }

      .cls-11 {
        fill: #af8468;
      }

      .cls-12 {
        fill: #4faf8b;
      }

      .cls-13 {
        mix-blend-mode: multiply;
        opacity: .46;
      }
    </style>
  </defs>
  <g class="cls-3">
    <g id="Capa_2" data-name="Capa 2">
      <g id="Capa_1-2" data-name="Capa 1">
        <g class="cls-13">
          <g>
            <g>
              <g>
                <path class="cls-9" d="m241.95,175.83s.83,19.79,70.68,45.07c69.85,25.28,206.22,63.53,333.95-37.25,0,0-26.44,2.99-53.39-4.99-26.94-7.98-93.3-39.78-168.64-24.78-75.34,15.01-63.2,26.11-115.92,20.62-52.72-5.49-66.69,1.33-66.69,1.33Z"/>
                <path class="cls-6" d="m594.09,217.46c-86.38-33.42-177.88-.62-241.53-3.23-34.67-1.42-60.12-5.43-76.36-8.88,9.36,4.83,21.26,10.05,36.43,15.54,60.33,21.84,170.3,53.33,281.46-3.44Z"/>
                <path class="cls-5" d="m1.47,85.27S-14.5,8.19,58.85.71c73.34-7.48,135.21,47.15,186.1,42.28l282.56,86.11s-56.05,71.18-137.37,64.69c-81.33-6.49-100.28-24.95-148.18-17.96,0,0-65.36,90.31-59.04,144.86,6.32,54.55-58.71-29.6-57.71-78,.74-35.7,23.01-78,34.64-97.74,2.66-4.51-.84-10.16-6.06-9.76-18.38,1.4-52.72,1.71-79.47-11.49C35.89,104.73,35.56,87.02,1.47,85.27Z"/>
                <path class="cls-12" d="m678.51,164.1s7.4,18.46,27.11,28.19c16.91,8.35,53.9,29.55,68.79,43.91,2.74,2.64,1.26,7.29-2.5,7.88-13.27,2.11-39.89,5.18-52.82-1.4-17.63-8.98-17.31-24.7-53.89-25.2-36.58-.5-92.71-46.4-92.71-46.4l106.02-6.98Z"/>
                <path class="cls-4" d="m54.85,79.38c32.43,11.38,115.86,26.71,119.29-53.06C139.44,12.66,101.05-3.59,58.85.72-14.5,8.2,1.47,85.28,1.47,85.28c0,0,24.38-16.08,53.39-5.9Z"/>
                <path class="cls-10" d="m89.28,5.86s-51.72-14.3-36.92,39.58c0,0,53.88,7.65,36.92-39.58Z"/>
                <path class="cls-10" d="m45.71,53.43c-15.47-4.66-12.68-23.16-26.9-23.28-4.55-.04-8.4,1.23-11.54,2.97C-4.37,57.06,1.47,85.28,1.47,85.28c0,0,24.38-16.08,53.39-5.9,12.67,4.45,33.13,9.5,53.56,9.24-19.66-37.28-47.77-30.7-62.71-35.2Z"/>
                <path class="cls-8" d="m3.07,87.02s.04-.03.05-.04c.08-.1.17-.19.25-.29l-.3.33Z"/>
                <path class="cls-8" d="m83.85,11.37s-30.77-5.53-26.03,27.65c0,0,33.59-1.91,26.03-27.65Z"/>
                <path class="cls-4" d="m301.25,139.34c-65.16,24.45-89.06-32.19-129.98-28.87-31.49,2.56-68.19,5.32-97.79-3.66-14.67-4.45-25.57-5.46-32.85-5.34,8.05,6.45,17.47,14.22,33.68,22.22,26.75,13.2,61.09,12.9,79.47,11.49,5.22-.4,8.72,5.25,6.06,9.76-11.64,19.74-33.91,62.04-34.64,97.74-1,48.4,64.03,132.55,57.71,78-6.32-54.55,59.04-144.86,59.04-144.86,46.02-6.71,65.36,10.06,138.95,17.14,3.41-37.51,6.24-66.01,6.24-66.01,0,0-20.73-12.07-85.89,12.38Z"/>
                <g>
                  <path class="cls-2" d="m241.6,43.22S277.38.71,450,25.65c153.75,22.22,228.35,118.74,242.82,139.59,1.64,2.36,1.2,5.61-1.04,7.41-8.79,7.07-34.08,21.81-84.46,11.99-64.86-12.64-95.46-33.26-136.04-30.27-40.58,2.99-182.61-70.18-182.61-70.18,0,0-13.67-26.73-47.08-40.97Z"/>
                  <path class="cls-7" d="m309.96,101.62l8.36-55.77c.57-3.79,3.84-6.6,7.67-6.55,13.46.18,44.31,2.21,65.76,16.12,3.14,2.03,4.36,6.04,2.88,9.48-3.29,7.65-9.05,22.06-12.32,36.26-.77,3.34-3.62,5.79-7.05,5.98l-57.27,3.28c-4.87.28-8.76-3.99-8.04-8.81Z"/>
                  <path class="cls-11" d="m402.15,76.95l5.21-12.58c.72-1.73,2.56-2.7,4.39-2.31,10.18,2.2,42.17,9.63,55.27,18.89,2.94,2.07,3.58,6.15,1.52,9.1-3.58,5.13-9.28,14.27-12.74,24.61-1.01,3.02-4.23,4.68-7.22,3.61-4.48-1.6-10.64-4.78-14.93-10.93-6.02-8.63-23.52-21.15-30.14-25.73-1.5-1.04-2.07-2.98-1.37-4.67Z"/>
                  <path class="cls-11" d="m464.49,118.8c1.52-6.88,5.93-21.66,16.74-28.03,1.68-.99,3.76-.98,5.5-.13,9.13,4.47,39.73,19.22,54.98,24.01,2.16.68,3.76,2.5,4.11,4.74.46,2.87.97,6.96.93,10.75-.02,2.88-2.05,5.34-4.88,5.88-12.91,2.44-51.16,7.59-75.24-11.2-1.82-1.42-2.64-3.77-2.15-6.02Z"/>
                  <path class="cls-11" d="m563.4,124.24c-3.2.47-5.7,2.85-6.24,5.83-.86,4.73-1.2,11.77,3.01,15.91,5.31,5.23,36.94,10.3,54.79,5.9,6.07-1.49,7.72-8.89,2.76-12.48-10.5-7.61-30.45-18.67-54.32-15.15Z"/>
                  <g>
                    <path class="cls-11" d="m308,42.36c2.46-1.69,1.89-5.47-.97-6.34-11.99-3.66-30.11-5.66-40.66-6.57-18.8,6.69-24.77,13.78-24.77,13.78,18.68,7.96,31.18,19.82,38.58,28.74,5.6-12.92,19.77-24.06,27.82-29.6Z"/>
                    <path class="cls-11" d="m360.61,17.88c-29.45-.49-52.01,1.69-69.15,4.96,5.3,3.86,15.95,10.01,31.15,11.14,20.44,1.51,35.36.95,38-16.09Z"/>
                    <path class="cls-11" d="m380.52,39.6c6.99,1.43,17.42,4.48,24.13,10.69,1.14,1.06,2.53,1.8,4.03,2.21,2.7.73,7.96,2.07,17.71,4.33,15.21,3.52,67.58,23.37,93.57,34.93,2.88,1.28,5.88-1.53,4.78-4.48-4.52-12.08-14.56-35.44-29.97-52.62-14.11-3.67-29.01-6.74-44.76-9.01-30.56-4.42-56.81-6.71-79.35-7.51.64,3.83,1.37,8.56,1.89,12.82.52,4.31,3.73,7.77,7.98,8.64Z"/>
                    <path class="cls-11" d="m543.96,103.17c6.99,3.72,29.67,14.87,48.63,14.06,3.28-.14,5.45-3.47,4.36-6.56-3.35-9.45-10.64-28.66-19.41-43.87-20.69-11.01-44.32-21.03-71-28.87,9.82,13.39,31.3,44.17,34.91,61.87.29,1.45,1.21,2.67,2.52,3.37Z"/>
                    <path class="cls-11" d="m613.65,119.12c6.17,5.27,37.6,12.04,56.99,18.91-15.96-17.25-39.9-39.23-72.65-59.48,2.9,11.37,9.61,35.4,15.66,40.56Z"/>
                    <path class="cls-11" d="m628.76,141.19c-1.04,2.87-2.25,7.61-.89,11.69,2,5.99,36.84,16.61,63.54,10.35-2.8-3.91-7.08-9.56-12.9-16.37-13.26-1.65-38.2-4.96-46.38-7.41-1.4-.42-2.87.36-3.37,1.74Z"/>
                  </g>
                </g>
                <path class="cls-4" d="m319.78,48.6c-32.76,8.15-55.63,38.67-14.22,82.57,41.41,43.91,184.69,176.87,266.51,198.82,81.82,21.95,98.46,24.61,91.8,0-6.14-22.7-24.37-36.63-40.28-68.61-2.8-5.63-7.14-10.35-12.52-13.6-31.81-19.16-142.79-87.17-172.05-120.69-34.26-39.25-83.15-87.48-119.24-78.5Z"/>
                <path class="cls-5" d="m33.96,23.6l6.18-6.94c1.14-1.28,3.24-.28,2.96,1.41-.66,3.95-1.38,9.13-1.46,13.28-.03,1.55-1.95,2.26-2.98,1.1-1.93-2.19-4.16-4.99-5.03-7.07-.25-.6-.11-1.29.32-1.78Z"/>
                <path class="cls-5" d="m97.99,8.92c3.27,2.01,10.24,6.3,15.88,9.76.64.39.52,1.35-.19,1.57-3.24,1.01-10.11,2.94-14.57,2.64-.42-.03-.74-.36-.78-.78-.22-2.16-.94-8.75-1.63-12.29-.15-.74.66-1.3,1.31-.9Z"/>
                <path class="cls-5" d="m99.45,28.4c.21-.66,5.23,3.33,9.25,7.5,1.99,2.07,2.44,5.19,1.12,7.75-1.03,2-2.59,4-4.82,4.52-3.3.77-8.56-1.76-11.51-3.42-1.18-.66-1.52-2.19-.74-3.29,1.83-2.6,4.93-7.5,6.7-13.06Z"/>
                <path class="cls-5" d="m118.45,21.19c6.19-.43,22.19-.74,27.44,7.03.52.77.56,1.78.05,2.57-1.04,1.61-3.2,4.32-6.41,5.18-.5.13-1.03.04-1.48-.21-2.92-1.58-14.31-7.86-20.21-12.67-.76-.62-.37-1.83.6-1.9Z"/>
                <path class="cls-5" d="m113.1,29.83s13.93.51,19.24,8.01c.45.64.41,1.5-.16,2.03-1.8,1.71-6.14,5.4-10.5,5.93-.53.06-1.04-.2-1.36-.63-1.67-2.32-6.91-10-7.23-15.03"/>
                <path class="cls-5" d="m79.3,54.84c-.13-.14,12.22-4.18,14.41-5.55,2.18-1.37,11.04,3.97,10.21,11.21-.83,7.23-12.47,7.48-24.61-5.65Z"/>
                <path class="cls-5" d="m115.83,48.05c2.52,1.04,7.87,3.71,9.71,8.15.49,1.18.13,2.54-.74,3.47h0c-.87.93-2.16,1.3-3.39.98-3.34-.89-9.73-2.88-10.64-5.3-.88-2.32,1.32-5.23,2.7-6.76.6-.66,1.54-.87,2.36-.53Z"/>
                <path class="cls-5" d="m145.56,38.01c2.13-1.48,5.78-4.04,8.1-5.92.55-.45,1.31-.54,1.95-.23,1.83.87,5.23,2.93,4.82,5.96-.51,3.77-9.57,8.22-15.16,3.03-.85-.79-.66-2.18.29-2.84Z"/>
                <path class="cls-5" d="m135.07,56.74c1.9-1.52,5.11-3.72,9.11-5.08,1.69-.57,2.17-2.74.88-3.97-2.2-2.07-5.4-4.34-8.47-3.73-4.78.96-8.52,5.89-5.14,12.03.73,1.31,2.44,1.69,3.61.75Z"/>
                <path class="cls-5" d="m112.76,73.91c2.43-.21,6.31-.25,10.4.85,1.72.46,3.33-1.07,2.94-2.81-.67-2.95-2.07-6.61-4.96-7.81-4.51-1.87-10.36.15-10.96,7.14-.13,1.5,1.09,2.76,2.59,2.63Z"/>
                <g>
                  <path class="cls-5" d="m25.02,21.8c2.54.35,5.06-.77,6.6-2.81,2.83-3.74,7.02-9.56,9.96-14.8-12.57,3.98-21.44,10.58-27.67,18.34,3.33-.64,7.65-1.2,11.1-.72Z"/>
                  <path class="cls-5" d="m123.81,16.64c2.17-.99,6.36-3.02,10.01-5.46-10.63-3.51-21.56-6.53-32.79-8.54,4.52,4.04,11.63,9.76,19.89,13.95.9.46,1.97.47,2.89.05Z"/>
                  <path class="cls-5" d="m163.58,22.15c-7.57-2.98-15.3-5.96-23.21-8.74.2,1.73.69,3.42,1.55,5,3.4,6.28,13.84,9.18,21.66,3.73Z"/>
                </g>
                <g>
                  <path class="cls-4" d="m651.38,304.9c-8.07-11.89-18.33-24.51-27.79-43.52-2.8-5.63-7.14-10.35-12.52-13.6-31.81-19.16-142.79-87.17-172.05-120.69-34.26-39.25-83.15-87.48-119.24-78.5-13.84,3.44-25.89,10.89-32.1,21.64,19.98-14.65,32.57-1.13,21.06,8.99-8.64,7.6-15.47,19.41-19.99,28.84.94,1.88,2.04,3.8,3.25,5.75,2.48-3.52,5.54-7.12,9.34-10.7,23.05-21.69,39.08-6.6,26.55,4.41-8.1,7.12-14.6,17.93-19.1,27.03,1.2,1.25,2.47,2.56,3.8,3.92,4.78-6.89,11.78-14.21,22.11-20.8,31.75-20.25,47.15.94,30.06,11.04-12.39,7.33-23.47,20.53-30.86,30.81,1.75,1.68,3.55,3.4,5.39,5.14,4.71-9.81,15.07-24.38,37.29-34.47,36.38-16.52,49.38,8.03,29.93,16.09-20.03,8.3-39.06,29.43-46.18,37.95,2.61,2.39,5.28,4.8,8,7.24,5.79-7.22,14.58-14.97,27.9-21.01,34.33-15.59,46.6,7.58,28.24,15.19-12.88,5.34-25.32,16.3-34.07,25.29,4.96,4.29,10.03,8.61,15.18,12.94,6.99-9.5,20.82-22.77,46.17-29.1,41.91-10.48,50.95,18.17,28.69,22.95-18.84,4.04-38.64,17.43-50.22,26.34,3.53,2.82,7.08,5.61,10.64,8.39,6.25-5.92,17.38-15.82,28.04-22.03,5.27-3.07,11.77-3.03,17.03.05,7.91,4.63,18.35,12.41,15.97,20.18-3.02,9.88-5.56,24.97-18.14,33.29,3.72,2.55,7.42,5.03,11.1,7.44,13.09-10.46,16.96-37.69,16.96-37.69,0,0,22.78,5.91,28.15,22.49,4.23,13.08-15.68,24.12-24.27,28.2,7.2,4.24,14.25,8.1,21.09,11.54,12.87-13.75,15.49-42.64,15.49-42.64,0,0,26.61,5.49,33.76,24.28,4.67,12.27-9.81,23.9-20.42,30.5,2.18.71,4.34,1.37,6.45,1.93,3.66.98,7.15,1.91,10.55,2.82,7.07-6.43,15.74-16.01,18.72-26.43,0,0,48.09-5.01,42.91,40.52,4.9.59,8.83.72,11.89.34-.27-5.06-1.38-11.33-4.41-18.08-4.91-10.94-2.48-19.68-.35-24.26Z"/>
                  <path class="cls-5" d="m601.35,306.38c-2.98,10.42-11.65,20.01-18.72,26.43,28.93,7.68,48.71,12.53,61.63,14.09,5.18-45.53-42.91-40.52-42.91-40.52Z"/>
                  <path class="cls-5" d="m663.88,330c-2.49-9.21-6.99-16.98-12.49-25.09-2.13,4.58-4.56,13.33.35,24.26,3.03,6.75,4.14,13.03,4.41,18.08,9.12-1.12,10.6-6.65,7.73-17.25Z"/>
                  <path class="cls-5" d="m586.05,297.57c-7.15-18.79-33.76-24.28-33.76-24.28,0,0-2.62,28.89-15.49,42.64,10.13,5.08,19.8,9.21,28.83,12.14,10.61-6.6,25.09-18.23,20.42-30.5Z"/>
                  <path class="cls-5" d="m539.97,276.19c-5.37-16.57-28.15-22.49-28.15-22.49,0,0-3.87,27.23-16.96,37.69,7.04,4.61,14.01,8.97,20.85,12.99,8.59-4.08,28.5-15.12,24.27-28.2Z"/>
                  <path class="cls-5" d="m501.89,250.67c2.38-7.78-8.06-15.55-15.97-20.18-5.27-3.08-11.76-3.13-17.03-.05-10.65,6.21-21.78,16.11-28.04,22.03,14.23,11.08,28.67,21.75,42.9,31.49,12.58-8.32,15.12-23.41,18.14-33.29Z"/>
                  <path class="cls-5" d="m451.75,194.79c-25.35,6.34-39.19,19.6-46.17,29.1,8.05,6.76,16.29,13.52,24.64,20.19,11.59-8.91,31.39-22.3,50.22-26.34,22.27-4.78,13.22-33.43-28.69-22.95Z"/>
                  <path class="cls-5" d="m424.47,185.67c18.36-7.61,6.09-30.78-28.24-15.19-13.31,6.05-22.1,13.79-27.9,21.01,7.06,6.35,14.44,12.87,22.07,19.46,8.75-8.99,21.19-19.95,34.07-25.29Z"/>
                  <path class="cls-5" d="m406.51,146.3c19.46-8.06,6.45-32.61-29.93-16.09-22.22,10.09-32.58,24.66-37.29,34.47,6.51,6.18,13.56,12.75,21.04,19.58,7.12-8.53,26.14-29.65,46.18-37.95Z"/>
                  <path class="cls-5" d="m364.77,128.72c17.09-10.11,1.69-31.29-30.06-11.04-10.33,6.59-17.34,13.91-22.11,20.8,5.93,6.06,13.12,13.18,21.31,21.05,7.39-10.28,18.47-23.48,30.86-30.81Z"/>
                  <path class="cls-5" d="m327.9,107.54c12.53-11.02-3.5-26.1-26.55-4.41-3.8,3.58-6.86,7.18-9.34,10.7,3.41,5.52,7.85,11.3,13.56,17.35,1.01,1.07,2.1,2.21,3.23,3.39,4.5-9.1,11.01-19.91,19.1-27.03Z"/>
                  <path class="cls-5" d="m308.75,79.23c11.5-10.12-1.08-23.64-21.06-8.99-5.75,9.95-6.49,22.73,1.07,37.83,4.52-9.43,11.35-21.24,19.99-28.84Z"/>
                </g>
                <path class="cls-5" d="m611.31,262.94c-2.15,3.11-5.32,7.04-8.82,9.17-1.49.9-2.36,2.54-2.15,4.27.45,3.78,1.07,10.25.7,14.79-.2,2.41,1.64,4.51,4.05,4.67,5.16.35,13.24,1.12,19.62,2.76,3.19.82,6.1-2.1,5.29-5.3-2.23-8.84-6.3-22.77-11.42-30.36-1.74-2.57-5.49-2.56-7.26,0Z"/>
                <path class="cls-5" d="m604.32,260.21l-8.19,7.93c-.57.55-.99,1.24-1.22,1.99-.62,1.99-2.14,6.32-4.74,10.32-1.63,2.51-5.2,2.82-7.27.67-3.16-3.28-8.43-8.02-15.58-11.98-2.02-1.12-2.94-3.52-2.16-5.7,1.78-4.9,5.5-13.61,11.69-21.53,1.26-1.61,3.4-2.23,5.32-1.54,5.47,1.98,16.66,6.65,22.4,13.34,1.63,1.9,1.54,4.74-.26,6.48Z"/>
                <path class="cls-5" d="m540.16,259.44c.26.19.55.35.85.45,2.2.75,11.61,3.7,15.93.92,3.66-2.36,5.61-9.08,6.36-12.33.26-1.11-.09-2.27-.92-3.06-3.62-3.39-14.18-12.6-23.47-13.78-.7-.09-1.4.1-2,.47-2.15,1.34-7.92,4.81-14.99,7.84-2.25.97-2.61,4-.65,5.46l18.89,14.02Z"/>
                <path class="cls-5" d="m515.71,235.72c3.19-1.77,7.15-4.12,10.29-6.51,2.87-2.18,3.56-6.21,1.61-9.23-2.44-3.77-6.22-8.78-10.46-11.47-2.19-1.39-5-1.38-7.22-.02-3.34,2.04-8.61,5.81-11.92,10.96-2.22,3.45-1.06,8.07,2.59,9.95,2.13,1.09,4.52,2.65,6.49,4.78,2.23,2.42,5.74,3.15,8.62,1.55Z"/>
                <path class="cls-5" d="m478.57,182.69s18.01,5.71,20.94,16.64c.37,1.4,1.94,2.11,3.25,1.5,1.37-.64,3.11-1.62,4.98-3.09,2.18-1.72,2.38-4.97.42-6.94-4.46-4.48-12.98-11.79-21.72-12.73,0,0-5.86-1-7.86,4.61Z"/>
                <path class="cls-5" d="m443.27,179.24c1.26-2.76,2.52-6.18,2.8-9.24.18-2.02,1.88-3.55,3.91-3.36,7.4.67,22.11,2.77,22.86,8.88.72,5.88-16.41,8.05-26.06,8.8-2.72.21-4.63-2.59-3.5-5.07Z"/>
                <path class="cls-5" d="m426.13,148.05c1.89-1.62,4-3.73,5.26-5.91.83-1.44,2.62-1.99,4.06-1.16,5.27,3.05,15.5,9.68,13.95,14.47-1.49,4.62-14.98.33-22.42-2.43-2.1-.78-2.56-3.52-.86-4.98Z"/>
                <path class="cls-5" d="m402.68,115.37c4.2,1.72,12.82,5.87,16.73,12.16.52.84,1.82.56,1.86-.43.2-4.17-.22-10.75-4.45-13.39-4.43-2.76-10.66-1.34-14.07-.21-.88.29-.94,1.51-.08,1.86Z"/>
                <path class="cls-5" d="m369.73,105.77c2.38,2.14,5.85,6.17,6.54,11.92.15,1.26,1.65,1.82,2.52.89,2.11-2.27,5.4-5.04,9.2-5.64.95-.15,1.53-1.12,1.16-2-1.45-3.46-5.96-10.24-18.71-7.69-1.17.23-1.59,1.73-.7,2.53Z"/>
                <path class="cls-5" d="m342.08,104.45c-1.89-1.01-2.93-3.07-2.68-5.19.52-4.46,2.61-11.76,10.7-12.36,7.92-.59,17.78,3.66,23.34,6.48,1.03.52.62,2.08-.53,2.04-6.96-.25-19.04.26-20.35,6.7-1.25,6.19-6.96,4.23-10.49,2.34Z"/>
                <path class="cls-5" d="m324.66,81.76c2.05.62,4.21,1.59,5.77,3.07.96.93,2.38,1.18,3.62.67,4.34-1.79,14.22-5.19,23.84-3.84.91.13,1.35-1.07.57-1.55-7.21-4.44-23.34-12.53-34.9-4.42-2.32,1.63-1.61,5.24,1.1,6.06Z"/>
                <path class="cls-5" d="m313.24,59.82c2.37,1.53,5.14,3.9,5.94,6.9.27,1,1.27,1.61,2.28,1.41,4.19-.83,13.99-2.51,21.81-1.84,1.89.16,2.9-2.21,1.48-3.46-5.54-4.87-16.22-11.26-30.99-6.59-1.63.52-1.96,2.66-.53,3.59Z"/>
                <path class="cls-5" d="m368.06,74.66c1.83,2.12,10.05,11.37,21.15,18.77.4.27.89.34,1.36.21.8-.23,2.29-.55,4.39-.47,1.46.05,2.2-1.75,1.15-2.77-6.03-5.91-18.47-17.69-26.01-22.11-1.07-.63-2.42.16-2.42,1.4v3.93c0,.38.13.75.38,1.04Z"/>
                <path class="cls-5" d="m411.53,107.02c-2.58-.05-8.35,0-14.01,1.1-.5.1-1.01-.18-1.16-.67-.49-1.54-1.71-4.81-3.87-7.23-.55-.62-.11-1.6.71-1.65,3.75-.22,11.08-.37,14.4,1.51,2.94,1.66,4.3,4.07,4.9,5.58.26.66-.26,1.37-.97,1.36Z"/>
                <g>
                  <path class="cls-4" d="m734.78,232.29c-1.47-1.53-4.03-1.12-4.92.81-1.59,3.45-3.85,7.68-5.93,11.43,7.31,2.13,16.91,2.42,26.11,1.94-5.9-4.75-11.77-10.57-15.26-14.18Z"/>
                  <path class="cls-4" d="m717,224.47c-3.03-1.49-11.96-6.22-17.83-12.9-.9-1.02-2.58-.54-2.85.79-.59,2.96-1.59,7.22-2.95,10.79,8.06,4.19,12.3,10,18.74,15.04,2.61-3.71,5.12-8.09,5.79-11.91.13-.75-.22-1.48-.89-1.82Z"/>
                  <path class="cls-4" d="m667.79,196.28c-8.37-2.37-17.87,10.65-22.43,17.49,6.93,2.23,13.67,3.63,19.84,3.72,5.94.08,10.89.57,15.12,1.36,4.14-10.43-4.09-20.17-12.53-22.56Z"/>
                  <path class="cls-5" d="m709.95,207.51c11.85,6.09,23.15,13.26,30.94,4.55-13.26-8.17-26.78-15.58-35.26-19.77-.17-.08-.32-.18-.48-.26-2.08,5.2-2.59,11.68,4.81,15.48Z"/>
                </g>
                <path class="cls-5" d="m142.32,258.63c5.85,2.84,16.75,9.7,19.67,22.28.34,1.47-.86,2.85-2.37,2.73-6.35-.52-21.05-3.74-21.26-22.44-.02-2.07,2.09-3.48,3.95-2.57Z"/>
                <path class="cls-5" d="m149.75,291.27c4.47,1.45,11.39,3.47,16.32,3.8,1.35.09,2.36,1.28,2.21,2.63-.4,3.57-.98,10.19-.55,16.17.15,2.13-2.35,3.38-3.95,1.96-5.25-4.66-13.36-12.82-16.98-21.42-.78-1.86,1.03-3.77,2.95-3.14Z"/>
                <path class="cls-5" d="m158.13,254.16c-.23-.38,9.8-6.6,13.47-16.13.64-1.66,2.76-2.08,3.98-.79,2.95,3.12,7.08,8.87,7.5,16.92.67,12.64-16.63,13.47-24.95,0Z"/>
                <path class="cls-5" d="m143.86,208.62c-1.84-1.34-4.45-.56-5.33,1.54-2.97,7.15-7.84,22.64-.17,33.69,10.28,14.8,19.6,2.66,21.59-1.83,1.87-4.21.67-21.16-16.1-33.4Z"/>
                <path class="cls-5" d="m153.12,208.31c3.49,3.21,10.51,10.43,11.73,17.67.26,1.54,1.85,2.45,3.26,1.76,3.2-1.58,8.39-3.7,13.34-3.77,1.55-.02,2.6-1.56,2.08-3.02-3.01-8.46-12.61-29.51-30.26-16.1-1.12.85-1.19,2.52-.16,3.47Z"/>
              </g>
              <path class="cls-1" d="m59.88,25.64c0-2.1,1.7-3.8,3.8-3.8s3.8,1.7,3.8,3.8-1.7,3.8-3.8,3.8-3.8-1.7-3.8-3.8Z"/>
            </g>
            <path class="cls-8" d="m.59,78.91c6.23,1.95,16.41,3.31,23.15,4.2,6.79.91,13.66,1.35,20.55,1.26,6.88-.05,13.79-.54,20.62-1.67,6.5-1.02,12.35-4.28,19.33-6.85-5.64,3.67-12.17,6.95-19.02,8.45-6.81,1.67-13.77,2.73-20.78,3.33-7.01.64-14.09.74-21.15.35-7.11-.4-14.61-1.18-21.82-2.83l-.88-6.25Z"/>
            <path class="cls-8" d="m80.1,70.27c1.21-.24,2.46.44,3.53.98,3.37,1.81,5.14,5.85,4.44,9.57,0-1.23-.13-2.45-.45-3.61-.96-3.37-3.98-6.49-7.52-6.94h0Z"/>
          </g>
        </g>
      </g>
    </g>
  </g>
</svg>